<svg width="583" height="661" viewBox="0 0 583 661" fill="none" xmlns="http://www.w3.org/2000/svg">
<g opacity="0.82">
<path opacity="0.82" d="M582 515.207L291.436 660.055L0.998047 515.207L291.436 382.818L582 515.207Z" stroke="#50935F" stroke-width="0.5539" stroke-miterlimit="10"/>
<path opacity="0.82" d="M200.478 614.75L486.873 471.916" stroke="#50935F" stroke-width="0.5539" stroke-miterlimit="10"/>
<path opacity="0.82" d="M243.177 404.841L444.804 492.932" stroke="#50935F" stroke-width="0.5539" stroke-miterlimit="10"/>
<path opacity="0.82" d="M91.1997 560.259L335.526 438.441" stroke="#50935F" stroke-width="0.5539" stroke-miterlimit="10"/>
<path opacity="0.82" d="M128.468 456.942L213.363 499.351" stroke="#50935F" stroke-width="0.5539" stroke-miterlimit="10"/>
<path opacity="0.82" d="M277.54 419.817L165.736 475.566" stroke="#50935F" stroke-width="0.5539" stroke-miterlimit="10"/>
<path opacity="0.82" d="M406.272 476.068L449.225 454.674" stroke="#50935F" stroke-width="0.5539" stroke-miterlimit="10"/>
<path opacity="0.82" d="M322.639 553.842L413.598 599.146" stroke="#50935F" stroke-width="0.5539" stroke-miterlimit="10"/>
<path opacity="0.82" d="M62.2693 487.269L149.818 530.937" stroke="#50935F" stroke-width="0.5539" stroke-miterlimit="10"/>
<path opacity="0.82" d="M149.818 530.938L262.001 584.044" stroke="#50935F" stroke-width="0.5539" stroke-miterlimit="10"/>
<path opacity="0.82" d="M177.106 603.046L238.756 572.969" stroke="#50935F" stroke-width="0.5539" stroke-miterlimit="10"/>
<path opacity="0.38" d="M149.817 530.937L91.1993 560.259L0.998077 515.206L62.2692 487.269L149.817 530.937Z" fill="#50935F"/>
<path opacity="0.38" d="M91.1993 560.259L371.278 419.816L291.436 382.818L0.998047 515.207L91.1993 560.259Z" fill="#50935F"/>
<path opacity="0.38" d="M483.336 564.412L291.437 660.055L200.478 614.75L392.376 518.982L483.336 564.412Z" fill="#50935F"/>
<path opacity="0.38" d="M321.504 397.793L277.54 419.816L245.325 405.722L291.436 382.818L321.504 397.793Z" fill="#50935F"/>
<path opacity="0.38" d="M327.82 441.84L213.363 499.351L165.736 475.566L277.54 419.817L327.82 441.84Z" fill="#50935F"/>
<path opacity="0.38" d="M381.006 614.75L290.679 659.677L200.478 614.75L290.679 569.698L381.006 614.75Z" fill="#50935F"/>
</g>
<path opacity="0.12" d="M98.1475 384.203L177.61 423.844L98.1475 463.611L18.6845 423.844L98.1475 384.203Z" fill="#50935F"/>
<path opacity="0.19" d="M98.1475 370.989L177.61 410.63L98.1475 450.397L18.6845 410.63L98.1475 370.989Z" fill="#50935F"/>
<path opacity="0.23" d="M98.1475 366.333L177.61 405.974L98.1475 445.615L18.6845 405.974L98.1475 366.333Z" fill="#50935F"/>
<path opacity="0.23" d="M98.1475 361.551L177.61 401.318L98.1475 440.959L18.6845 401.318L98.1475 361.551Z" fill="#50935F"/>
<path opacity="0.23" d="M98.1475 356.895L177.61 396.536L98.1475 436.303L18.6845 396.536L98.1475 356.895Z" fill="#50935F"/>
<path opacity="0.23" d="M98.1475 352.238L177.61 391.879L98.1475 431.52L18.6845 391.879L98.1475 352.238Z" fill="#50935F"/>
<path opacity="0.23" d="M98.1475 347.456L177.61 387.223L98.1475 426.864L18.6845 387.223L98.1475 347.456Z" fill="#50935F"/>
<path opacity="0.23" d="M98.1475 342.799L177.61 382.441L98.1475 422.208L18.6845 382.441L98.1475 342.799Z" fill="#50935F"/>
<path d="M98.1475 342.799L177.61 382.441L98.1475 422.208L18.6845 382.441L98.1475 342.799Z" stroke="#50935F" stroke-width="1.0123" stroke-miterlimit="10"/>
<path d="M98.1482 366.333L130.616 382.441L98.1482 398.675L65.6808 382.441L98.1482 366.333Z" fill="#50935F"/>
<path opacity="0.12" d="M483.965 382.818L563.428 422.459L483.965 462.227L404.376 422.459L483.965 382.818Z" fill="#50935F"/>
<path opacity="0.19" d="M483.965 370.989L563.428 410.63L483.965 450.397L404.376 410.63L483.965 370.989Z" fill="#50935F"/>
<path opacity="0.23" d="M483.965 366.333L563.428 405.974L483.965 445.615L404.376 405.974L483.965 366.333Z" fill="#50935F"/>
<path opacity="0.23" d="M483.965 361.551L563.428 401.318L483.965 440.959L404.376 401.318L483.965 361.551Z" fill="#50935F"/>
<path opacity="0.23" d="M483.965 356.895L563.428 396.536L483.965 436.303L404.376 396.536L483.965 356.895Z" fill="#50935F"/>
<path opacity="0.23" d="M483.965 352.238L563.428 391.879L483.965 431.52L404.376 391.879L483.965 352.238Z" fill="#50935F"/>
<path opacity="0.23" d="M483.965 347.456L563.428 387.223L483.965 426.864L404.376 387.223L483.965 347.456Z" fill="#50935F"/>
<path opacity="0.23" d="M483.965 342.799L563.428 382.441L483.965 422.208L404.376 382.441L483.965 342.799Z" fill="#50935F"/>
<path d="M483.965 342.799L563.428 382.441L483.965 422.208L404.376 382.441L483.965 342.799Z" stroke="#50935F" stroke-width="1.0123" stroke-miterlimit="10"/>
<path d="M483.965 366.333L516.432 382.441L483.965 398.675L451.497 382.441L483.965 366.333Z" fill="#50935F"/>
<path opacity="0.12" d="M291.435 257.476L417.389 322.538L291.435 387.726L165.482 322.538L291.435 257.476Z" fill="#50935F"/>
<path d="M291.435 268.802L417.389 333.99L291.435 399.052L165.482 333.99L291.435 268.802Z" stroke="#50935F" stroke-width="0.5539" stroke-miterlimit="10"/>
<path opacity="0.05" d="M291.435 233.313L417.389 298.501L291.435 363.563L165.482 298.501L291.435 233.313Z" fill="white"/>
<path opacity="0.37" d="M291.436 225.637L417.389 290.825L291.436 355.887L165.483 290.825L291.436 225.637Z" fill="#50935F"/>
<path d="M291.434 247.535L374.94 290.826L291.434 333.991L207.929 290.826L291.434 247.535Z" fill="#50935F"/>
<path opacity="0.38" d="M291.434 236.209L374.94 279.374L291.434 322.538L207.929 279.374L291.434 236.209Z" fill="#50935F"/>
<path opacity="0.45" d="M165.482 298.502V290.825L291.435 355.887L417.389 290.825V298.502L291.435 363.564L165.482 298.502Z" fill="#50935F"/>
<path d="M291.436 236.209L374.942 279.374L291.436 322.538L207.931 279.374L291.436 236.209Z" stroke="#375344" stroke-width="0.8159" stroke-miterlimit="10" stroke-linecap="round" stroke-linejoin="round"/>
<path d="M207.93 279.374V290.825" stroke="#375344" stroke-width="0.8159" stroke-miterlimit="10" stroke-linecap="round" stroke-linejoin="round"/>
<path d="M291.435 322.538V333.991" stroke="#375344" stroke-width="0.8159" stroke-miterlimit="10" stroke-linecap="round" stroke-linejoin="round"/>
<path d="M374.941 279.374V290.825" stroke="#375344" stroke-width="0.8159" stroke-miterlimit="10" stroke-linecap="round" stroke-linejoin="round"/>
<g opacity="0.63">
<path d="M141.228 179.2C93.0957 204.621 50.5217 243.003 18.8123 294.474C15.1487 249.296 11.3587 188.638 13.2537 146.858C30.1822 111.999 85.0104 65.1843 135.038 38.7568C137.186 85.5712 139.207 132.386 141.228 179.2Z" fill="#375344"/>
<path d="M126.448 171.899C122.026 174.542 117.605 177.311 113.309 180.205C111.92 152.897 110.53 125.588 109.014 98.28C113.436 95.3856 117.857 92.4911 122.405 89.8484C123.795 117.157 125.185 144.591 126.448 171.899Z" fill="#50935F"/>
<path d="M106.74 184.736C102.445 187.757 98.2756 190.777 94.233 194.049C93.096 174.543 91.959 155.037 90.822 135.405C94.991 132.133 99.2863 128.987 103.582 125.967C104.719 145.473 105.729 165.104 106.74 184.736Z" fill="#50935F"/>
<path d="M87.917 198.957C83.8744 202.229 79.8317 205.752 75.9154 209.276C74.5258 187.757 73.1361 166.237 71.8728 144.717C75.9154 141.068 79.9581 137.544 84.127 134.146C85.264 155.792 86.6537 177.437 87.917 198.957Z" fill="#50935F"/>
<path d="M69.9779 214.941C66.0616 218.59 62.3979 222.365 58.608 226.267C57.3446 208.271 56.0813 190.275 54.9443 172.279C58.7343 168.378 62.5243 164.477 66.4406 160.701C67.5776 178.823 68.7146 196.819 69.9779 214.941Z" fill="#50935F"/>
<path d="M52.922 232.431C49.2584 236.458 45.7211 240.611 42.3101 244.889C41.1731 229.536 40.0362 214.057 38.8992 198.704C42.4365 194.426 45.9738 190.147 49.6374 186.12C50.7744 201.473 51.9114 216.952 52.922 232.431Z" fill="#50935F"/>
<path d="M37.1313 251.434C33.7204 255.839 30.4357 260.244 27.2774 264.9C26.2668 252.567 25.3825 240.234 24.3718 227.776C27.5301 223.119 30.9411 218.589 34.2257 214.184C35.2364 226.643 36.247 239.102 37.1313 251.434Z" fill="#50935F"/>
<path d="M114.826 66.065C116.973 64.8066 118.489 65.9392 118.616 68.9594C118.616 69.0853 118.616 69.2111 118.616 69.337C117.984 69.7145 117.479 70.092 116.847 70.4695C116.847 70.3437 116.847 70.3437 116.847 70.2179C116.721 68.2044 115.963 67.9527 114.952 68.456C115.079 70.4695 115.205 72.483 115.205 74.4965C117.226 73.7415 119.121 73.9931 119.374 77.8943C119.5 81.2921 118.11 84.564 115.837 86.0741C115.837 86.8292 115.963 87.5842 115.963 88.4651C115.71 88.591 115.458 88.8427 115.205 88.9685C115.205 88.2134 115.079 87.4584 115.079 86.5775C112.931 87.9618 111.162 86.955 110.91 82.928C110.91 82.8022 110.91 82.8022 110.91 82.6763C111.541 82.2988 112.173 81.9213 112.805 81.5437C112.805 81.6696 112.805 81.7954 112.805 81.9213C112.931 84.1865 113.689 84.9415 115.079 84.3123C114.952 82.0471 114.826 79.9078 114.7 77.6426C112.931 78.3977 111.036 78.0201 110.783 74.6224C110.531 70.9729 112.173 68.3302 114.068 66.8201C114.068 66.1909 113.942 65.5617 113.942 64.8066C114.194 64.6808 114.447 64.4291 114.826 64.3032C114.7 64.8066 114.7 65.4358 114.826 66.065ZM114.068 68.9594C112.931 69.8403 112.299 71.3504 112.426 72.9864C112.552 74.8741 113.436 74.8741 114.447 74.6224C114.321 72.7347 114.194 70.8471 114.068 68.9594ZM115.71 83.6831C116.847 82.928 117.605 81.0404 117.605 79.1527C117.479 77.5168 116.847 76.8875 115.458 77.2651C115.458 79.4044 115.584 81.5438 115.71 83.6831Z" fill="#50935F"/>
<path d="M96.0026 103.316C98.1502 101.805 99.5398 102.812 99.6662 105.833C99.6662 105.958 99.6662 106.084 99.6662 106.21C99.1609 106.588 98.5292 106.965 98.0239 107.469C98.0239 107.343 98.0239 107.343 98.0239 107.217C97.8975 105.203 97.2659 104.952 96.1289 105.581C96.2552 107.594 96.3815 109.608 96.5079 111.496C98.4029 110.615 100.298 110.74 100.551 114.516C100.803 117.914 99.4135 121.311 97.1395 122.947C97.1395 123.703 97.2659 124.458 97.2659 125.213C97.0132 125.464 96.7605 125.59 96.5079 125.716C96.5079 124.961 96.3815 124.206 96.3815 123.451C94.2339 124.961 92.5916 124.206 92.3389 120.179C92.3389 120.053 92.3389 120.053 92.3389 119.927C92.9706 119.55 93.4759 119.046 94.1076 118.543C94.1076 118.669 94.1076 118.795 94.1076 118.92C94.2339 121.186 94.9919 121.815 96.2552 121.06C96.1289 118.795 96.0026 116.655 95.8762 114.39C94.1076 115.271 92.3389 115.145 92.2126 111.621C91.9599 107.972 93.4759 105.203 95.3709 103.567C95.3709 102.938 95.2446 102.309 95.2446 101.554C95.4972 101.302 95.7499 101.176 96.0026 100.925C96.0026 102.057 96.0026 102.686 96.0026 103.316ZM95.3709 106.21C94.3602 107.217 93.7286 108.727 93.7286 110.363C93.8549 112.251 94.7392 112.125 95.6236 111.873C95.6236 109.985 95.4972 108.098 95.3709 106.21ZM97.0132 120.808C98.1502 119.927 98.9082 118.04 98.7819 116.152C98.6555 114.516 98.0239 114.012 96.6342 114.516C96.7606 116.529 96.8869 118.669 97.0132 120.808Z" fill="#50935F"/>
<path d="M76.547 112.375C78.5683 110.739 79.958 111.62 80.0843 114.641C80.0843 114.766 80.0843 114.892 80.0843 115.018C79.579 115.521 79.0737 115.899 78.442 116.402C78.442 116.277 78.442 116.277 78.442 116.151C78.3157 114.137 77.684 114.011 76.6734 114.641C76.7997 116.654 76.926 118.668 77.0524 120.555C78.821 119.549 80.716 119.423 80.9687 123.324C81.2213 126.722 79.8317 130.245 77.8104 132.007C77.8104 132.762 77.9367 133.517 77.9367 134.398C77.684 134.65 77.4314 134.776 77.1787 135.028C77.1787 134.273 77.0524 133.517 77.0524 132.637C75.031 134.398 73.3887 133.643 73.1361 129.742C73.1361 129.616 73.1361 129.616 73.1361 129.49C73.6414 128.987 74.273 128.484 74.7784 127.98C74.7784 128.106 74.7784 128.232 74.7784 128.358C74.9047 130.623 75.6627 131.252 76.7997 130.371C76.6734 128.106 76.547 125.967 76.4207 123.827C74.7784 124.834 73.0097 124.834 72.8834 121.31C72.6307 117.661 74.0204 114.766 75.789 113.005C75.789 112.375 75.6627 111.746 75.6627 110.991C75.9154 110.739 76.168 110.614 76.4207 110.362C76.4207 110.991 76.547 111.62 76.547 112.375ZM75.9154 115.27C74.9047 116.277 74.273 117.913 74.3994 119.549C74.5257 121.436 75.41 121.31 76.2944 120.933C76.168 119.045 76.0417 117.157 75.9154 115.27ZM77.684 129.742C78.821 128.735 79.4527 126.848 79.3263 124.96C79.2 123.324 78.5683 122.821 77.305 123.45C77.4314 125.463 77.5577 127.603 77.684 129.742Z" fill="#50935F"/>
<path d="M59.1134 138.93C61.0083 137.168 62.2717 137.923 62.5243 140.943C62.5243 141.069 62.5243 141.195 62.5243 141.321C62.019 141.824 61.5137 142.327 61.0083 142.831C61.0083 142.705 61.0083 142.705 61.0083 142.705C60.882 140.691 60.2503 140.566 59.2397 141.321C59.366 143.334 59.4924 145.222 59.6187 147.235C61.3873 146.103 63.0297 145.851 63.2823 149.626C63.535 153.024 62.2717 156.674 60.3767 158.561C60.3767 159.316 60.503 160.071 60.503 160.826C60.2503 161.078 59.9977 161.33 59.745 161.582C59.745 160.826 59.6187 160.071 59.6187 159.316C57.7237 161.204 56.2077 160.701 55.955 156.674C55.955 156.548 55.955 156.548 55.955 156.422C56.4604 155.919 56.9657 155.289 57.471 154.786C57.471 154.912 57.471 155.038 57.471 155.163C57.5974 157.429 58.3554 157.932 59.4924 157.051C59.366 154.912 59.2397 152.647 59.1134 150.507C57.471 151.64 55.955 151.766 55.7024 148.368C55.4497 144.718 56.713 141.824 58.3554 139.81C58.3554 139.181 58.229 138.552 58.229 137.923C58.4817 137.671 58.7344 137.419 58.987 137.168C58.987 137.671 59.1134 138.3 59.1134 138.93ZM58.608 141.95C57.5974 143.082 57.092 144.718 57.2184 146.354C57.3447 148.242 58.1027 147.99 58.987 147.613C58.7344 145.725 58.7344 143.837 58.608 141.95ZM60.2504 156.296C61.261 155.163 61.8927 153.276 61.7663 151.388C61.64 149.752 61.0083 149.375 59.8714 150.004C59.9977 152.143 60.124 154.157 60.2504 156.296Z" fill="#50935F"/>
<path d="M42.5633 164.35C44.332 162.337 45.5953 163.092 45.7216 165.986C45.7216 166.112 45.7216 166.238 45.7216 166.364C45.2163 166.867 44.711 167.497 44.332 168C44.332 167.874 44.332 167.874 44.332 167.874C44.2057 165.861 43.574 165.861 42.6897 166.616C42.816 168.629 42.9423 170.517 43.0687 172.53C44.711 171.272 46.3533 170.768 46.606 174.67C46.8586 178.067 45.7216 181.717 43.953 183.982C43.953 184.737 44.0793 185.492 44.0793 186.247C43.8267 186.499 43.7003 186.751 43.4477 187.002C43.4477 186.247 43.3213 185.492 43.3213 184.737C41.5527 186.751 40.163 186.373 39.784 182.472C39.784 182.346 39.784 182.346 39.784 182.22C40.2893 181.591 40.7947 181.088 41.3 180.458C41.3 180.584 41.3 180.71 41.3 180.836C41.4263 182.975 42.058 183.604 43.195 182.472C43.0687 180.333 42.816 178.067 42.6897 175.928C41.1737 177.186 39.6577 177.438 39.405 174.04C39.1524 170.517 40.2894 167.371 41.9317 165.231C41.9317 164.602 41.8053 163.973 41.8053 163.344C42.058 163.092 42.1843 162.84 42.437 162.589C42.437 163.092 42.5633 163.721 42.5633 164.35ZM42.058 167.497C41.1737 168.755 40.6683 170.391 40.7947 172.027C40.921 173.915 41.679 173.537 42.437 173.034C42.3107 171.272 42.1843 169.384 42.058 167.497ZM43.8267 181.591C44.8373 180.458 45.3426 178.319 45.2163 176.557C45.09 174.921 44.4583 174.544 43.3213 175.425C43.574 177.438 43.7003 179.577 43.8267 181.591Z" fill="#50935F"/>
<path d="M27.5306 194.427C29.1729 192.288 30.3099 192.791 30.5626 195.811C30.5626 195.937 30.5626 196.063 30.5626 196.189C30.1836 196.818 29.6782 197.321 29.2993 197.951C29.2993 197.825 29.2993 197.825 29.2993 197.825C29.1729 195.937 28.5413 195.811 27.7833 196.818C27.9096 198.831 28.0359 200.719 28.2886 202.607C29.8046 201.097 31.3206 200.593 31.5732 204.369C31.8259 207.64 30.8152 211.542 29.1729 213.933C29.1729 214.688 29.2993 215.443 29.2993 216.198C29.0466 216.45 28.9203 216.701 28.6676 216.953C28.6676 216.198 28.5413 215.443 28.5413 214.688C26.8989 216.953 25.5093 216.575 25.2566 212.674C25.2566 212.548 25.2566 212.548 25.2566 212.423C25.6356 211.793 26.1409 211.164 26.6463 210.535C26.6463 210.661 26.6463 210.787 26.6463 210.912C26.7726 213.052 27.4043 213.555 28.4149 212.423C28.2886 210.283 28.0359 208.144 27.9096 205.879C26.5199 207.263 25.1303 207.766 24.8776 204.369C24.625 200.845 25.6356 197.573 27.1516 195.308C27.1516 194.679 27.0253 194.049 27.0253 193.42C27.2779 193.169 27.4043 192.917 27.6569 192.539C27.4043 193.043 27.5306 193.672 27.5306 194.427ZM27.1516 197.573C26.2673 198.831 25.8883 200.593 26.0146 202.229C26.1409 204.117 26.8989 203.739 27.5306 203.11C27.4043 201.222 27.2779 199.335 27.1516 197.573ZM28.9203 211.542C29.8046 210.283 30.3099 208.144 30.1836 206.382C30.0572 204.746 29.5519 204.494 28.4149 205.375C28.5413 207.389 28.6676 209.402 28.9203 211.542Z" fill="#50935F"/>
<path d="M434.192 174.92C355.361 136.286 263.138 131.756 181.275 161.581C179.759 114.515 178.243 67.449 176.727 20.5089C262.001 -10.4489 357.888 -5.79264 440.004 34.4777C437.982 81.1661 436.087 128.106 434.192 174.92Z" fill="#375344"/>
<path d="M288.657 0.247559C288.657 39.0079 288.783 77.7683 288.783 116.655" stroke="#999999" stroke-width="0.9867" stroke-miterlimit="10"/>
<path d="M350.181 5.28174C349.549 44.0419 348.918 82.8022 348.286 121.437" stroke="#999999" stroke-width="0.9867" stroke-miterlimit="10"/>
<path d="M410.189 21.5156C408.926 60.1501 407.662 98.6586 406.399 137.167" stroke="#999999" stroke-width="0.9867" stroke-miterlimit="10"/>
<path d="M435.33 148.115C408.295 128.357 388.081 37.4972 349.929 30.3241C312.661 24.9127 312.156 86.4509 287.521 103.566C264.655 118.416 207.553 137.166 180.139 123.449C180.391 131.503 180.644 139.432 180.897 147.486C263.139 117.66 355.74 122.191 434.824 160.951C434.951 156.672 435.077 152.394 435.33 148.115Z" fill="#50935F"/>
<path d="M213.111 105.202C208.436 106.334 203.762 107.593 199.088 108.977C198.835 100.797 198.709 92.7431 198.456 84.5632C203.13 83.1789 207.805 81.9204 212.479 80.7878C212.732 88.9677 212.984 97.1476 213.111 105.202Z" fill="#999999"/>
<path d="M237.365 100.294C232.565 101.049 227.89 101.93 223.216 102.937C222.964 88.5907 222.711 74.1186 222.332 59.7723C227.132 58.7655 231.933 57.8846 236.734 57.0037C236.986 71.4758 237.113 85.8221 237.365 100.294Z" fill="#999999"/>
<path d="M261.874 97.1484C257.074 97.526 252.273 98.1552 247.599 98.7844C247.22 73.3637 246.967 47.943 246.588 22.5222C251.515 21.893 256.316 21.2638 261.242 20.8862C261.495 46.1811 261.748 71.7277 261.874 97.1484Z" fill="#999999"/>
<path d="M181.023 154.282C263.139 124.457 355.488 128.988 434.445 167.748" stroke="#999999" stroke-width="1.9733" stroke-miterlimit="10"/>
<path d="M565.074 294.474C542.586 257.979 514.667 228.028 483.084 204.621C485.737 158.184 488.264 111.747 490.917 65.3101C523.763 89.5982 565.453 126.471 575.559 145.473C571.769 190.652 568.737 249.296 565.074 294.474Z" fill="#375344"/>
<path d="M519.846 144.467C512.772 137.671 505.571 131.253 497.991 125.212C496.601 148.745 495.211 172.153 493.822 195.686C503.802 203.74 513.403 212.549 522.625 221.987C523.889 204.117 525.026 186.247 526.289 168.503C524.141 160.449 521.994 152.395 519.846 144.467Z" fill="#50935F"/>
<path d="M518.709 161.833C519.088 156.044 519.467 150.256 519.846 144.467C521.994 152.395 524.268 160.323 526.289 168.377C523.763 166.238 521.236 163.973 518.709 161.833Z" fill="#999999"/>
<path d="M501.149 73.2385C500.77 80.5375 500.265 87.9623 499.886 95.2613C510.245 103.567 520.099 112.628 529.574 122.318C530.079 115.019 530.585 105.077 531.09 97.7782C521.11 89.85 511.508 81.5443 501.149 73.2385Z" fill="#50935F"/>
<path d="M560.272 141.698C554.208 133.392 547.765 125.464 541.196 117.913C539.554 141.194 537.911 164.35 536.269 187.631C545.112 197.699 553.577 208.522 561.409 220.099C562.799 202.481 564.189 184.863 565.578 167.244C563.81 158.687 562.041 150.129 560.272 141.698Z" fill="#50935F"/>
<path d="M559.008 158.939C559.513 153.15 559.892 147.487 560.271 141.698C562.04 150.13 563.809 158.561 565.451 167.119C563.43 164.35 561.156 161.582 559.008 158.939Z" fill="#999999"/>
<path d="M552.945 236.586C547.007 228.532 540.817 220.729 534.374 213.43C533.49 225.512 532.605 237.467 531.847 249.548C540.564 259.49 548.902 270.061 556.608 281.387C557.114 274.843 557.619 268.299 558.124 261.755C556.356 253.323 554.713 245.018 552.945 236.586Z" fill="#50935F"/>
<path d="M551.682 253.827C552.187 248.038 552.566 242.375 552.945 236.586C554.714 244.892 556.356 253.324 557.999 261.756C555.977 259.113 553.83 256.47 551.682 253.827Z" fill="#999999"/>
</g>
<g opacity="0.12">
<g opacity="0.12">
<g opacity="0.11">
<path opacity="0.11" d="M277.789 438.567C283.727 435.169 291.054 435.169 296.992 438.567L411.322 504.132C413.091 505.139 413.091 507.782 411.322 508.789L295.981 575.109C290.801 578.129 284.232 578.129 279.053 575.109L163.585 508.789C161.816 507.782 161.816 505.139 163.585 504.132L277.789 438.567Z" fill="#50935F"/>
</g>
<g opacity="0.11">
<path opacity="0.11" d="M277.789 419.312C283.727 415.914 291.054 415.914 296.992 419.312L411.322 484.877C413.091 485.884 413.091 488.527 411.322 489.533L295.981 555.854C290.801 558.874 284.232 558.874 279.053 555.854L163.585 489.533C161.816 488.527 161.816 485.884 163.585 484.877L277.789 419.312Z" fill="#50935F"/>
</g>
<g opacity="0.11">
<path opacity="0.11" d="M277.789 400.183C283.727 396.786 291.054 396.786 296.992 400.183L411.322 465.749C413.091 466.755 413.091 469.398 411.322 470.405L295.981 536.725C290.801 539.746 284.232 539.746 279.053 536.725L163.585 470.405C161.816 469.398 161.816 466.755 163.585 465.749L277.789 400.183Z" fill="#50935F"/>
</g>
<g opacity="0.11">
<path opacity="0.11" d="M277.79 380.929C283.728 377.531 291.055 377.531 296.993 380.929L411.323 446.495C413.092 447.501 413.092 450.144 411.323 451.151L295.982 517.471C290.802 520.491 284.233 520.491 279.053 517.471L163.586 451.151C161.817 450.144 161.817 447.501 163.586 446.495L277.79 380.929Z" fill="#50935F"/>
</g>
<path opacity="0.5" d="M163.587 446.621L277.791 380.929C283.728 377.532 291.056 377.532 296.993 380.929L411.324 446.495C412.208 446.998 412.714 447.879 412.714 448.886V506.523C412.714 507.404 412.208 508.285 411.324 508.914L295.983 575.235C290.803 578.255 284.234 578.255 279.054 575.235L163.587 508.914C162.702 508.411 162.197 507.53 162.197 506.523V448.886C162.197 448.131 162.702 447.124 163.587 446.621Z" fill="#50935F"/>
<g opacity="0.11">
<path opacity="0.11" d="M277.79 380.929C283.728 377.531 291.055 377.531 296.993 380.929L411.323 446.495C413.092 447.501 413.092 450.144 411.323 451.151L295.982 517.471C290.802 520.491 284.233 520.491 279.053 517.471L163.586 451.151C161.817 450.144 161.817 447.501 163.586 446.495L277.79 380.929Z" fill="#50935F"/>
</g>
<path opacity="0.12" d="M163.587 448.635L279.055 514.955C284.234 517.975 290.803 517.975 295.983 514.955L411.324 448.635C411.83 448.383 412.082 448.006 412.335 447.628C412.967 448.887 412.714 450.523 411.324 451.278L295.983 517.598C290.803 520.618 284.234 520.618 279.055 517.598L163.587 451.278C162.197 450.523 161.945 448.887 162.576 447.628C162.829 448.132 163.082 448.383 163.587 448.635Z" fill="#50935F"/>
</g>
</g>
<path opacity="0.12" d="M287.393 444.357L411.325 509.796L287.393 575.236L163.587 509.796L287.393 444.357Z" fill="#50935F"/>
<path opacity="0.19" d="M287.393 422.585L411.325 487.899L287.393 553.338L163.587 487.899L287.393 422.585Z" fill="#50935F"/>
<path opacity="0.23" d="M287.393 414.783L411.325 480.222L287.393 545.662L163.587 480.222L287.393 414.783Z" fill="#50935F"/>
<path opacity="0.23" d="M287.393 407.106L411.325 472.546L287.393 537.985L163.587 472.546L287.393 407.106Z" fill="#50935F"/>
<path opacity="0.23" d="M287.393 399.304L411.325 464.743L287.393 530.183L163.587 464.743L287.393 399.304Z" fill="#50935F"/>
<path opacity="0.23" d="M287.393 391.501L411.325 456.94L287.393 522.38L163.587 456.94L287.393 391.501Z" fill="#50935F"/>
<path opacity="0.23" d="M287.393 383.825L411.325 449.265L287.393 514.704L163.587 449.265L287.393 383.825Z" fill="#50935F"/>
<path opacity="0.23" d="M287.393 376.023L411.325 441.462L287.393 506.901L163.587 441.462L287.393 376.023Z" fill="#50935F"/>
<path d="M287.392 376.023L411.324 441.462L287.392 506.901L163.587 441.462L287.392 376.023Z" stroke="#50935F" stroke-width="1.6224" stroke-miterlimit="10"/>
<path d="M287.392 485.381C322.208 485.381 350.432 469.154 350.432 449.137C350.432 429.121 322.208 412.894 287.392 412.894C252.576 412.894 224.352 429.121 224.352 449.137C224.352 469.154 252.576 485.381 287.392 485.381Z" fill="#50935F"/>
<path d="M277.411 162.212C283.096 178.698 312.279 174.545 312.279 174.545C312.279 174.545 308.362 197.071 307.352 197.197C306.341 197.323 284.486 200.595 284.486 200.595C284.486 200.595 272.863 186.123 269.199 180.963C276.021 176.81 273.874 166.365 273.874 166.365L273.368 162.841C276.021 163.596 277.411 162.212 277.411 162.212Z" fill="#E3B9B0"/>
<path d="M311.395 418.433C311.395 418.433 312.911 420.069 314.554 421.957C316.196 423.844 320.618 426.487 322.512 427.62C324.407 428.752 332.998 435.296 334.767 441.714C336.535 448.132 330.471 449.013 324.155 447.881C317.838 446.748 312.027 440.959 310.258 438.946C308.49 436.932 302.552 432.15 294.846 428.123C287.139 424.096 291.814 418.81 291.814 418.81L311.395 418.433Z" fill="#17241D"/>
<path d="M288.908 117.033C260.357 117.914 269.2 147.362 269.2 147.362C269.2 147.362 267.179 148.243 268.442 152.018C269.706 155.793 269.958 156.171 270.59 158.059C271.221 159.946 271.6 161.205 273.369 162.715C275.896 163.596 277.285 162.212 277.285 162.212C282.97 178.697 299.141 183.479 299.141 183.479C299.141 183.479 306.342 183.354 307.1 180.208C307.858 177.187 308.363 174.041 309.121 172.405C309.879 170.769 312.911 163.093 313.037 160.072C313.037 156.926 312.911 151.389 314.301 148.494C315.69 145.726 317.459 116.278 288.908 117.033Z" fill="#FCD1C5"/>
<path d="M254.167 437.435C254.167 437.435 252.903 440.329 252.524 443.979C252.145 447.628 251.64 455.682 251.387 458.073C251.261 460.465 251.135 466.128 255.303 471.665C259.472 477.202 261.62 479.341 267.052 477.202C272.485 475.063 272.485 465.876 271.474 461.094C270.463 456.312 269.579 445.741 269.705 444.608C269.832 443.475 269.326 442.72 269.326 442.72L254.167 437.435Z" fill="#17241D"/>
<path d="M330.47 299.761C330.47 299.761 329.333 352.112 319.479 374.512C319.479 374.512 312.405 394.27 311.52 417.677C311.52 417.677 313.163 421.704 310.889 424.976C308.615 428.248 294.086 431.268 291.686 420.446C289.286 409.623 290.17 389.488 292.823 381.056C295.476 372.625 291.939 349.469 291.939 349.469C291.939 349.469 288.022 351.986 282.716 368.724C277.41 385.461 273.747 391.753 271.852 396.409C269.957 401.066 268.441 429.255 269.578 443.098C269.578 443.098 257.829 444.734 254.418 439.197C251.007 433.659 249.87 404.715 250.754 395.528C251.639 386.342 255.429 356.768 254.923 347.707C254.418 338.521 252.523 331.096 254.544 322.035C256.692 312.848 318.595 292.587 318.595 292.587L330.47 299.761Z" fill="#263B30"/>
<path d="M254.798 347.456C254.292 338.269 252.776 301.27 254.798 292.084C255.556 288.686 264.399 297.998 275.642 293.091C294.592 291.329 318.595 289.315 320.238 289.567C321.754 289.819 325.67 291.329 328.955 292.587L330.218 294.475C330.218 294.475 330.092 296.992 329.839 301.27C325.417 302.529 330.597 305.172 330.597 305.172C329.334 308.192 329.713 309.45 320.49 313.981C311.268 318.511 262.883 322.161 261.367 323.923C259.851 325.684 259.472 364.067 259.725 366.962C259.977 369.856 257.198 388.355 254.671 404.715C252.271 420.823 255.935 440.329 256.061 440.958C255.177 440.455 254.419 439.7 253.913 438.819C250.502 433.282 249.365 404.338 250.25 395.151C251.513 386.09 255.429 356.516 254.798 347.456Z" fill="#213329"/>
<path d="M328.828 258.106C328.828 258.106 329.586 221.108 331.481 201.979C333.376 182.977 328.828 176.307 328.828 176.307L309.5 172.28C307.226 179.453 307.226 189.898 299.14 192.667C290.929 195.561 274.632 193.673 271.979 178.32L271.474 176.307C258.461 183.228 245.449 193.799 239.133 198.078C256.314 218.213 256.566 262.888 254.166 280.884C251.766 298.88 251.892 308.066 251.892 308.066C251.892 308.066 271.979 321.658 312.279 314.107C335.398 305.424 333.755 301.019 333.755 301.019L328.828 258.106Z" fill="#999999"/>
<path d="M345.125 215.697C338.303 217.836 335.019 220.982 329.46 225.764C329.334 231.301 329.46 235.58 329.334 236.587C329.081 238.852 333.503 246.906 333.503 246.906C329.586 248.794 325.417 253.953 325.417 253.953L303.436 262.385C303.436 262.385 301.162 268.3 301.793 268.3C312.405 266.79 338.051 264.524 351.063 254.331C352.579 252.821 349.547 225.009 345.125 215.697Z" fill="#FFD0C6"/>
<path d="M341.713 201.602C331.859 176.811 328.827 176.433 328.827 176.433C328.827 176.433 329.585 217.836 329.459 225.764C335.018 220.982 340.829 216.955 347.524 214.816C345.503 210.411 343.482 206.007 341.713 201.602Z" fill="#666666"/>
<path d="M315.942 241.745C315.942 241.745 318.973 239.731 319.731 239.48C320.489 239.228 324.532 237.844 325.29 237.466C325.922 237.215 328.196 237.34 329.459 237.592C329.838 237.592 330.217 237.844 330.47 238.221C331.354 239.983 334.007 245.017 333.754 246.905C333.754 246.905 326.427 251.561 325.543 253.574L324.406 253.826C324.279 253.826 319.479 243.255 315.942 241.745Z" fill="#E3B9B0"/>
<path d="M255.303 258.106C256.187 254.959 253.534 251.058 254.798 246.78L304.32 267.921C304.32 267.921 295.477 282.016 271.979 281.009C265.536 280.758 258.461 273.459 255.05 271.571C256.061 264.272 254.04 262.51 255.303 258.106Z" fill="#8A8A8A"/>
<path d="M325.29 253.828C322.89 242.25 315.815 241.873 315.815 241.873C313.036 243.886 298.129 250.682 288.149 255.086C283.348 257.226 277.916 254.331 277.031 249.172L276.652 247.158C276.652 247.158 271.22 239.482 266.04 229.414C258.46 230.672 249.744 226.142 241.027 233.315C247.722 253.073 273.62 275.599 278.421 277.109C284.485 278.871 312.278 262.637 325.29 253.828Z" fill="#E3B9B0"/>
<path d="M260.483 214.815C251.008 199.84 239.259 198.204 239.259 198.204C232.563 201.098 234.837 214.815 236.985 225.135C237.616 228.281 241.154 236.587 244.312 244.515C252.903 235.076 260.862 230.294 268.568 229.036C266.168 224.38 263.388 219.472 260.483 214.815Z" fill="#808080"/>
<path d="M282.591 257.351C282.591 257.351 277.664 262.007 275.39 259.491C273.243 256.974 273.874 256.596 273.874 256.596C273.874 256.596 269.326 256.596 268.821 253.702C268.316 250.933 266.042 252.317 265.915 249.297C265.789 246.151 269.579 246.78 269.579 246.78L282.591 257.351Z" fill="#CCA69E"/>
<path d="M288.655 254.834C288.655 254.834 287.265 253.576 285.497 252.066C283.728 250.555 280.822 244.389 280.317 243.886C279.812 243.382 273.874 238.726 270.969 238.726C268.063 238.726 270.211 241.872 270.842 242.376C271.474 242.879 274.38 244.263 274.38 244.263C274.38 244.263 277.285 246.654 277.664 247.032C278.043 247.409 269.579 246.403 268.316 247.284C266.926 248.039 267.305 250.178 268.189 250.807C269.074 251.436 269.832 251.311 269.832 251.311C269.832 251.311 268.821 253.827 271.348 254.96C273.874 256.093 274.38 255.463 274.38 255.463C274.38 255.463 274.632 259.742 278.801 258.987L288.655 254.834Z" fill="#FFD0C6"/>
<path d="M314.932 133.519C314.932 133.519 318.722 145.349 308.868 141.951C299.014 138.553 290.171 133.016 287.139 135.155C284.738 136.791 284.865 141.825 285.117 144.09C285.244 144.845 284.991 145.6 284.486 146.355L281.58 150.634C281.201 151.137 281.075 151.641 281.075 152.27L280.822 155.165C280.822 155.92 280.19 156.549 279.432 156.549H278.801C278.043 156.549 277.411 156.045 277.285 155.29L276.527 151.012C276.527 151.012 274.253 145.223 269.326 147.488C269.326 147.488 266.041 143.083 267.178 133.771C268.315 124.458 272.484 114.768 290.929 113.132C309.12 111.496 314.932 133.519 314.932 133.519Z" fill="#AA8383"/>
<path d="M291.687 349.469C291.687 349.469 291.56 349.469 291.56 349.595L298.635 342.17C295.35 346.701 299.14 367.591 299.519 372.373C299.898 377.155 295.729 386.971 294.213 398.549C292.697 410.127 295.856 426.612 295.856 426.612C293.834 425.48 292.192 423.466 291.56 420.572C289.16 409.749 290.044 389.614 292.697 381.182C295.224 372.625 291.687 349.469 291.687 349.469Z" fill="#213329"/>
<path d="M278.675 156.423C277.917 156.423 277.285 155.919 277.159 155.164L276.401 150.886C276.401 150.886 274.127 145.097 269.2 147.362C269.2 147.362 266.168 143.209 266.926 134.4C272.359 142.454 284.36 146.229 284.36 146.229L281.454 150.508C281.075 151.011 280.949 151.515 280.949 152.144L280.696 155.039C280.696 155.794 280.065 156.423 279.307 156.423H278.675Z" fill="#936D6D"/>
<g opacity="0.81">
<path opacity="0.81" d="M439.876 424.977C358.265 470.029 258.842 474.937 173.315 439.701C171.673 396.41 170.157 353.245 168.514 309.954C257.452 346.575 361.045 341.542 445.94 294.601C443.918 338.144 441.897 381.56 439.876 424.977Z" fill="#375344"/>
<path opacity="0.35" d="M444.424 326.566C360.287 373.002 257.831 378.036 169.651 341.793C169.272 331.222 168.893 320.651 168.514 309.954C257.452 346.575 361.045 341.541 445.94 294.601C445.434 305.298 444.929 315.995 444.424 326.566Z" fill="#E6E6E6"/>
<path opacity="0.81" d="M208.94 349.595C200.349 347.33 192.011 344.688 183.673 341.793C183.42 334.872 183.168 327.95 183.041 321.029C191.379 324.049 199.97 326.692 208.434 328.957C208.561 335.753 208.813 342.674 208.94 349.595Z" fill="#1A1A1A"/>
<path opacity="0.81" d="M226.248 456.186C208.056 452.285 190.117 446.748 172.809 439.575C171.546 406.981 170.409 374.261 169.146 341.667C186.959 349.092 205.403 354.755 224.227 358.782C224.985 391.125 225.616 423.718 226.248 456.186Z" fill="#1A1A1A"/>
<g opacity="0.81">
<path opacity="0.81" d="M329.335 443.225C325.671 443.728 321.882 444.106 318.218 444.357C318.218 442.092 318.218 439.701 318.218 437.436C322.008 437.058 325.671 436.681 329.335 436.303C329.461 438.694 329.461 440.96 329.335 443.225Z" fill="#CCCCCC"/>
<path opacity="0.81" d="M408.673 422.712C386.565 431.647 363.572 438.065 340.201 441.715C340.201 439.449 340.327 437.058 340.327 434.793C363.699 431.144 386.818 424.726 408.926 415.791C408.799 418.056 408.673 420.447 408.673 422.712Z" fill="#CCCCCC"/>
<path opacity="0.81" d="M283.856 386.218C268.696 385.84 253.537 384.456 238.629 381.939C238.629 379.673 238.503 377.282 238.503 375.017C253.537 377.534 268.696 378.918 283.856 379.296C283.856 381.561 283.856 383.826 283.856 386.218Z" fill="#808080"/>
<path opacity="0.81" d="M308.49 385.84C304.069 386.092 299.647 386.217 295.099 386.343C295.099 384.078 295.099 381.687 295.099 379.422C299.521 379.422 304.069 379.17 308.49 378.918C308.49 381.183 308.49 383.449 308.49 385.84Z" fill="#808080"/>
<path opacity="0.81" d="M341.084 382.316C333.631 383.448 326.177 384.329 318.724 385.084C318.724 382.819 318.724 380.428 318.724 378.163C326.177 377.534 333.757 376.653 341.084 375.394C341.211 377.785 341.211 380.051 341.084 382.316Z" fill="#808080"/>
<path opacity="0.81" d="M395.534 368.726C381.132 373.76 366.351 377.661 351.444 380.555C351.444 378.29 351.57 375.899 351.57 373.634C366.478 370.739 381.258 366.838 395.66 361.804C395.66 364.07 395.66 366.461 395.534 368.726Z" fill="#808080"/>
<path opacity="0.81" d="M301.668 397.919C280.571 398.549 259.473 397.29 238.755 393.767C238.755 391.502 238.628 389.111 238.628 386.845C259.473 390.369 280.697 391.753 301.794 390.998C301.794 393.389 301.794 395.654 301.668 397.919Z" fill="#CCCCCC"/>
<path opacity="0.81" d="M395.154 380.681C387.953 383.198 380.752 385.463 373.425 387.35C373.425 385.085 373.552 382.694 373.552 380.429C380.879 378.416 388.206 376.276 395.407 373.76C395.407 376.025 395.281 378.416 395.154 380.681Z" fill="#CCCCCC"/>
<path opacity="0.81" d="M426.991 367.592C420.169 370.864 413.221 373.884 406.146 376.653C406.273 374.387 406.273 371.996 406.399 369.731C413.474 366.963 420.422 363.942 427.244 360.67C427.118 362.936 426.991 365.327 426.991 367.592Z" fill="#CCCCCC"/>
<path opacity="0.81" d="M363.193 389.867C346.264 393.769 329.083 396.286 311.775 397.418C311.775 395.153 311.775 392.762 311.775 390.497C329.083 389.364 346.39 386.847 363.319 382.946C363.319 385.337 363.319 387.602 363.193 389.867Z" fill="#CCCCCC"/>
<path opacity="0.81" d="M313.419 409.246C288.531 411.008 263.517 409.749 238.883 405.722C238.883 403.457 238.756 401.066 238.756 398.801C263.391 402.954 288.531 404.086 313.419 402.324C313.545 404.59 313.419 406.855 313.419 409.246Z" fill="#CCCCCC"/>
<path opacity="0.81" d="M337.548 406.604C333.126 407.233 328.831 407.863 324.409 408.24C324.409 405.975 324.409 403.584 324.535 401.319C328.957 400.815 333.379 400.312 337.674 399.683C337.548 402.074 337.548 404.339 337.548 406.604Z" fill="#CCCCCC"/>
<path opacity="0.81" d="M401.977 389.993C384.164 396.663 365.846 401.697 347.149 404.969C347.149 402.704 347.276 400.312 347.276 398.047C365.973 394.775 384.291 389.741 402.23 382.946C402.104 385.337 402.104 387.728 401.977 389.993Z" fill="#CCCCCC"/>
<path opacity="0.81" d="M283.857 421.831C268.823 421.454 253.916 420.069 239.135 417.552C239.135 415.287 239.009 412.896 239.009 410.631C253.916 413.148 268.823 414.532 283.857 414.909C283.857 417.175 283.857 419.44 283.857 421.831Z" fill="#CCCCCC"/>
<path opacity="0.81" d="M308.238 421.455C303.816 421.706 299.395 421.832 295.099 421.832C295.099 419.567 295.099 417.176 295.099 414.91C299.521 414.91 303.943 414.659 308.364 414.407C308.238 416.798 308.238 419.063 308.238 421.455Z" fill="#CCCCCC"/>
<path opacity="0.81" d="M425.98 391.628C421.937 393.516 417.894 395.403 413.852 397.165C413.978 394.9 413.978 392.509 414.104 390.244C418.147 388.482 422.316 386.72 426.232 384.706C426.106 386.972 425.98 389.237 425.98 391.628Z" fill="#CCCCCC"/>
<path opacity="0.81" d="M352.834 415.791C341.464 418.056 329.967 419.692 318.471 420.699C318.471 418.433 318.471 416.042 318.471 413.777C329.967 412.77 341.464 411.134 352.96 408.869C352.96 411.26 352.834 413.525 352.834 415.791Z" fill="#CCCCCC"/>
<path opacity="0.81" d="M405.009 400.563C390.986 406.101 376.458 410.505 361.804 413.777C361.804 411.512 361.93 409.121 361.93 406.856C376.584 403.458 391.113 399.053 405.136 393.516C405.262 396.033 405.136 398.298 405.009 400.563Z" fill="#CCCCCC"/>
<path opacity="0.81" d="M303.184 433.535C281.834 434.29 260.484 433.032 239.386 429.508C239.386 427.243 239.26 424.852 239.26 422.586C260.358 426.11 281.834 427.494 303.184 426.613C303.184 428.879 303.184 431.27 303.184 433.535Z" fill="#808080"/>
<path opacity="0.81" d="M338.685 430.137C330.221 431.396 321.756 432.402 313.292 432.906C313.292 430.641 313.292 428.249 313.292 425.984C321.756 425.355 330.347 424.474 338.685 423.216C338.811 425.607 338.685 427.872 338.685 430.137Z" fill="#808080"/>
<path opacity="0.81" d="M425.475 403.583C401.598 415.034 376.331 423.214 350.686 428.122C350.686 425.857 350.812 423.466 350.812 421.201C376.584 416.293 401.85 408.113 425.727 396.661C425.601 398.926 425.475 401.192 425.475 403.583Z" fill="#808080"/>
<path opacity="0.81" d="M283.982 445.489C269.075 445.111 254.294 443.727 239.514 441.336C239.514 439.071 239.387 436.68 239.387 434.414C254.168 436.931 268.949 438.316 283.856 438.567C283.982 440.958 283.982 443.224 283.982 445.489Z" fill="#CCCCCC"/>
<path opacity="0.81" d="M308.113 445.112C303.691 445.363 299.396 445.489 294.974 445.489C294.974 443.224 294.974 440.833 294.974 438.568C299.396 438.568 303.691 438.317 308.113 438.191C308.113 440.582 308.113 442.847 308.113 445.112Z" fill="#CCCCCC"/>
</g>
</g>
<path d="M517.065 334.62C517.318 334.242 517.697 333.99 517.949 333.613C518.202 333.235 518.581 331.977 518.581 331.348C518.581 330.97 518.455 330.467 518.581 330.089C518.834 329.334 519.086 328.453 519.339 327.824C519.718 327.069 519.971 326.44 519.971 325.307C519.971 324.678 520.35 323.545 520.602 322.916C521.487 320.651 521.866 318.134 521.613 316.624C521.487 315.869 521.613 314.61 522.118 313.855C522.371 313.352 522.624 312.974 522.876 312.597C523.003 312.345 523.129 312.219 523.255 311.968C523.255 312.848 523.129 313.729 523.129 314.736C523.508 313.855 523.634 312.219 524.013 312.974C524.14 311.59 524.392 311.716 524.645 311.59C524.645 311.842 524.645 312.093 524.645 312.345C525.15 312.219 525.403 311.716 525.529 310.583C526.161 309.451 525.782 311.338 526.034 311.212C526.413 310.583 526.792 309.828 527.298 309.073C527.171 308.947 527.045 308.947 526.919 308.821C526.792 308.57 526.666 308.192 526.54 307.94C526.413 307.563 526.161 307.06 525.908 306.808C525.529 306.556 525.15 306.43 524.771 306.304C524.898 304.794 525.15 303.536 525.276 302.403C525.403 301.019 525.276 300.138 524.897 299.886C524.392 299.635 523.76 299.257 523.255 299.005C523.129 299.005 522.876 299.131 522.624 299.383C522.371 299.761 522.245 299.509 522.245 298.88C522.245 297.747 522.245 296.614 522.245 295.482C521.992 296.992 521.739 298.376 521.108 299.383C520.476 300.39 520.097 300.39 519.718 300.138C519.718 300.767 519.718 301.271 519.592 302.026C519.465 302.026 519.465 301.9 519.465 301.9C519.213 302.403 518.96 302.907 518.834 303.284C518.581 303.913 518.328 304.668 518.076 305.298C517.697 306.934 517.318 307.689 516.686 308.318C515.802 309.199 514.791 310.583 514.033 313.352C513.528 313.352 513.149 312.723 513.022 311.464C513.022 311.716 512.896 312.093 512.896 312.219C512.643 312.723 512.391 313.1 512.264 313.478C512.264 313.603 512.138 313.729 512.138 313.729C511.759 313.352 511.001 314.736 510.622 313.729C510.496 314.107 510.243 314.359 510.117 314.736C509.864 315.239 509.611 315.491 509.359 315.239C509.232 315.114 508.727 315.617 508.474 315.869C508.348 315.995 508.222 316.498 507.969 316.875C507.969 316.246 507.969 315.743 507.969 315.365C507.969 315.365 507.969 315.365 507.843 315.365C507.211 316.12 506.958 315.869 506.706 314.988C506.579 314.484 506.2 314.233 506.074 313.855C506.2 313.352 506.327 312.974 506.453 312.471C506.579 312.093 506.579 311.716 506.706 311.338C506.958 309.954 507.211 308.444 507.464 307.06C507.59 306.179 507.843 306.304 508.095 306.179C508.222 306.053 508.348 306.179 508.727 305.927C508.727 305.424 508.727 304.668 508.601 304.291C508.474 303.788 508.348 303.284 508.474 302.529C508.601 301.522 508.601 300.641 508.727 299.635C508.98 297.999 509.359 296.363 509.99 294.978C510.496 293.972 510.875 292.713 511.127 291.329C511.38 290.07 511.759 289.064 512.264 288.057C512.643 287.428 512.896 286.547 513.275 285.792C513.401 285.54 513.401 285.037 513.401 284.659C513.401 284.407 513.401 284.282 513.401 284.156C513.275 283.275 513.149 282.394 513.654 281.261C513.401 280.255 513.149 279.248 512.896 278.367C512.643 277.36 512.77 275.724 512.77 274.088C513.149 273.459 513.528 273.081 513.78 273.711C514.538 272.2 515.17 270.439 515.423 269.054C515.675 268.803 515.928 268.551 516.181 268.299C516.812 267.67 517.57 266.789 518.202 265.657C518.328 265.279 518.707 265.153 518.834 265.153C519.339 265.027 519.718 264.776 520.223 263.643C520.476 263.014 520.729 262.888 520.855 263.14C521.234 263.517 521.613 263.265 522.118 263.014C522.876 262.51 523.76 261.629 524.266 262.636C524.392 262.888 524.392 263.517 524.392 264.021C524.897 263.391 524.897 263.391 525.15 261.378C525.403 261.252 525.782 261.252 526.034 261.252C526.034 260.874 526.161 260.623 526.161 260.119C526.666 260.119 527.171 260.119 527.803 260.119C527.803 259.742 527.929 259.364 527.929 258.987C528.435 258.232 528.814 257.602 529.193 256.973C529.193 257.602 529.319 258.232 529.445 258.987C529.951 257.728 530.33 256.596 530.835 256.47C530.835 256.722 530.835 256.973 530.835 257.351C531.214 256.596 531.593 255.841 532.098 255.086C532.098 255.841 532.225 256.596 532.225 257.351C532.856 255.966 532.856 255.715 532.856 254.456C532.73 252.82 533.109 250.933 533.741 248.919C533.867 248.416 534.12 247.912 534.246 247.409C534.625 245.899 535.004 244.892 535.509 244.515C535.762 244.389 535.888 244.011 536.141 243.759C536.646 243.13 537.152 242.375 537.404 243.13C537.91 241.494 538.541 240.11 538.415 238.222C538.668 238.222 538.92 238.222 539.047 238.096C539.426 237.971 539.931 237.719 540.436 236.209C541.068 234.321 541.7 234.069 542.331 233.189C542.584 232.811 543.089 234.321 542.963 235.076C542.837 236.083 542.837 236.838 543.089 237.09C543.216 237.216 543.342 237.719 543.468 238.096C543.216 238.726 542.963 239.355 542.837 239.858C542.837 241.368 542.71 242.753 542.71 244.137C542.71 244.263 542.837 244.515 542.837 244.389C543.342 243.759 543.847 243.004 544.353 242.249C544.858 241.368 545.237 241.62 545.111 243.13C545.111 244.011 544.984 244.892 544.984 245.773C544.984 246.025 544.984 246.276 545.111 246.276C545.237 246.151 545.237 246.402 545.237 246.906C545.237 247.283 545.237 247.661 545.111 247.912C544.984 249.297 545.111 249.8 545.363 249.8C545.742 248.919 546.121 248.038 546.5 247.031C546.374 248.29 546.627 248.29 546.879 248.038C547.006 247.912 547.006 247.912 547.132 247.912C547.511 247.912 547.764 247.661 548.269 246.151C548.648 244.892 549.153 243.885 549.659 242.753C549.911 242.249 550.038 242.249 549.911 243.004C549.785 243.759 549.911 243.885 550.038 243.885C550.164 243.885 550.164 244.137 550.164 244.389C550.038 245.144 550.164 245.27 550.417 245.27C550.669 245.27 550.922 245.27 551.175 245.395C551.175 244.892 551.301 244.389 551.301 243.885C551.427 243.634 551.554 243.382 551.68 243.13C551.68 243.508 551.68 243.759 551.68 244.137C551.68 244.011 551.806 244.011 551.933 243.885C552.312 243.256 552.564 243.13 552.817 243.508C553.07 244.011 553.322 243.508 553.701 242.375C553.954 242.249 554.08 242.249 554.333 242.123C554.333 242.123 554.459 242.123 554.459 242.249C554.712 243.256 555.091 243.634 555.849 241.494C555.849 241.62 555.849 241.62 555.849 241.62C555.723 242.123 555.596 242.753 555.596 243.256C555.596 243.382 555.596 243.382 555.596 243.382C555.849 244.64 555.596 245.521 554.965 247.409C554.586 248.416 554.459 249.045 554.586 249.8C554.586 250.178 554.586 250.429 554.838 250.052C554.965 249.8 555.091 249.674 555.217 249.548C554.838 251.059 554.333 252.694 553.954 254.205C554.459 254.582 554.459 256.47 554.08 258.987C553.954 259.616 553.954 260.371 553.828 260.874C553.828 261.504 553.449 262.51 553.196 262.888C552.691 263.769 552.185 264.524 551.68 265.279C551.427 265.531 551.301 266.034 551.175 266.663C551.048 267.544 550.796 268.048 550.543 268.425C550.164 269.054 549.785 270.564 549.659 271.823C549.659 272.326 549.659 272.956 549.532 273.459C549.406 274.592 549.153 275.472 548.901 275.347C548.395 275.347 548.395 275.347 547.637 277.486C547.385 278.493 547.006 279.499 547.006 280.632C546.753 281.01 546.5 281.387 546.374 281.639C546.121 281.891 545.995 282.268 545.869 283.023C545.742 283.778 545.49 284.156 545.363 284.407C545.111 284.659 544.858 285.288 544.605 286.043C544.226 287.176 543.974 287.931 543.595 288.56C543.216 289.064 542.837 290.07 542.458 290.7C541.952 291.455 541.7 292.336 541.321 293.594C540.815 295.23 540.31 296.866 539.678 297.495C539.552 297.621 539.299 297.621 539.173 298.628C539.047 298.628 538.92 298.754 538.794 298.754C538.668 298.754 538.541 298.502 538.415 298.376C538.289 299.005 538.289 299.509 538.162 300.138C537.783 300.138 537.531 300.264 537.152 300.264C537.152 300.39 537.025 300.641 537.025 300.767C537.152 300.893 537.404 301.019 537.531 301.145C537.657 301.271 537.91 300.893 537.91 301.774C537.91 301.9 538.036 301.9 538.036 301.774C538.162 301.397 538.162 301.145 538.415 300.641C538.668 300.012 538.794 301.774 539.173 299.886C539.299 300.138 539.299 300.138 538.794 302.655C539.047 302.152 539.299 301.522 539.552 300.893C539.805 300.893 539.299 301.9 539.426 302.026C539.678 302.152 539.931 302.277 540.184 302.529C540.184 302.529 540.184 303.032 540.184 303.284C540.057 303.788 539.931 304.291 539.805 304.794C540.057 304.794 540.31 305.046 540.563 304.92C540.689 304.794 541.068 304.039 541.321 303.536C541.573 302.907 541.826 302.026 542.079 301.145C542.205 301.145 542.331 301.271 542.458 301.271C542.837 299.635 543.721 298.25 543.847 299.005C543.468 300.138 543.216 301.271 543.216 302.403C543.216 302.529 542.963 303.158 542.963 303.41C542.584 304.165 542.331 304.794 541.952 305.549C541.7 306.179 541.447 306.179 541.447 305.801C541.321 305.046 541.068 305.424 540.815 306.053C540.815 306.43 540.815 306.808 540.689 307.185C540.689 307.185 540.689 307.185 540.689 307.06C540.436 307.815 540.184 308.57 540.057 309.325C539.931 309.954 539.678 310.332 539.552 310.457C539.047 310.961 538.036 313.226 537.657 315.114C537.278 316.875 536.267 319.141 535.888 319.392C535.888 319.392 535.762 319.392 535.762 319.267C535.762 318.763 535.762 318.511 535.509 318.763C535.509 318.889 535.383 318.386 535.383 318.26C535.383 317.882 535.257 317.631 535.257 317.253C535.509 316.498 535.762 315.743 535.888 314.862C536.015 314.107 536.141 313.226 536.267 312.345C536.267 312.471 536.141 312.597 536.141 312.848C536.141 312.597 536.141 312.345 536.015 312.093C536.141 311.716 536.267 311.464 536.394 311.087C536.267 310.709 536.141 310.961 535.509 312.848C535.257 312.597 535.004 312.345 534.878 311.842C534.751 311.59 534.499 311.716 534.246 312.471C533.993 313.226 533.741 313.352 533.741 313.1C533.741 312.974 533.867 312.219 533.867 311.716C534.12 310.457 534.625 309.576 535.004 308.696C535.636 307.437 536.141 306.179 536.646 304.794C537.152 303.41 537.278 303.032 537.025 302.026C537.025 301.774 536.899 301.522 536.899 301.145C536.899 301.648 536.899 301.9 536.773 302.277C536.773 302.655 536.646 302.907 536.52 303.41C536.267 303.032 536.141 302.655 535.888 302.277C535.888 302.403 535.888 302.529 535.762 302.655C535.762 302.907 535.762 303.158 535.762 303.41C535.383 304.417 535.004 305.172 534.625 305.172C534.625 305.172 534.499 305.298 534.372 305.549C533.867 306.556 533.488 306.556 533.235 305.801C533.235 305.675 533.109 305.801 532.983 305.801C532.856 305.927 532.73 306.053 532.604 306.179C532.351 306.304 532.225 305.927 532.225 305.046C532.225 303.284 532.098 301.774 532.098 300.264C532.098 300.39 531.972 300.39 531.972 300.516C531.846 301.774 531.719 303.033 531.593 304.417C531.34 304.794 530.961 305.172 530.709 305.549C530.582 305.801 530.456 305.927 530.33 306.556C529.951 308.192 529.572 309.702 529.193 311.338C529.193 311.59 529.066 311.842 528.94 312.093C528.561 313.226 528.182 314.359 527.929 315.491C527.803 316.12 527.677 316.75 527.424 317.379C527.298 317.756 527.171 318.008 527.045 318.386C527.045 318.134 526.919 318.008 526.919 317.756C526.792 318.134 526.666 318.511 526.54 319.015C526.287 318.763 526.287 318.763 525.782 321.028C525.529 321.532 525.276 321.783 525.024 322.287C525.15 322.664 525.15 322.916 525.276 323.168C525.15 323.419 525.15 323.671 524.897 324.049C524.771 323.168 524.645 322.287 524.518 321.406C524.518 321.532 524.392 321.532 524.392 321.658C524.266 322.161 524.14 322.79 524.14 323.168C524.14 324.804 524.14 326.188 524.645 327.069C524.771 327.446 524.645 329.586 524.392 330.341C524.266 330.593 524.14 330.718 524.013 330.97C524.013 330.593 524.013 330.467 524.013 330.215C524.013 328.831 523.887 328.579 523.382 329.082C522.624 329.712 521.865 331.348 521.108 332.732C520.855 333.109 520.729 334.116 520.476 334.871C520.223 334.871 519.971 334.745 519.718 334.745C519.718 335.375 519.718 335.626 519.718 336.13C519.339 336.633 518.834 337.137 518.455 337.514C518.328 337.64 518.328 337.514 518.202 337.388C517.949 337.136 517.697 336.759 517.444 336.759C516.939 336.256 516.812 335.752 517.065 334.62Z" fill="#375344"/>
<path d="M491.672 300.138C492.935 299.006 494.451 297.747 495.715 298.377C496.473 298.754 496.978 299.635 497.357 300.516C497.483 300.768 497.61 301.019 497.736 301.271C498.999 303.41 500.894 302.907 502.284 302.152C503.421 301.523 504.684 300.39 505.948 299.006C506.579 295.86 507.464 292.714 508.601 290.197C508.98 288.687 509.359 287.302 509.864 285.918C509.232 283.653 509.359 280.758 509.485 279.122C509.485 278.871 509.485 278.619 509.485 278.493C509.611 274.466 511.001 269.558 512.77 266.789C513.022 266.412 513.275 266.034 513.528 265.783C514.286 263.518 515.296 261.504 516.307 260.497C516.433 260.371 516.686 260.12 516.812 259.994C516.939 259.868 517.191 259.616 517.317 259.49C517.317 259.49 517.318 259.365 517.444 259.365C517.697 259.113 517.823 258.861 518.075 258.484C518.581 257.729 518.96 257.099 519.339 256.596C519.718 256.218 519.971 255.967 520.35 255.841C520.728 255.338 521.107 254.834 521.36 254.457C521.992 253.827 522.75 253.198 523.508 253.702C523.508 253.702 523.634 253.702 523.634 253.576C523.76 253.45 523.76 253.45 523.887 253.45C524.392 253.072 525.15 252.569 525.908 252.569C526.034 252.443 526.034 252.443 526.161 252.317C526.413 251.94 526.666 251.562 526.919 251.185C527.045 250.933 527.298 250.807 527.424 250.681C527.424 250.43 527.424 250.052 527.424 249.926C527.298 249.423 527.045 248.919 526.792 248.416C526.413 247.661 526.034 246.78 525.782 245.396C525.276 241.872 525.908 236.083 527.55 229.288C515.423 243.005 502.41 255.338 488.514 266.286C487.756 279.5 486.998 292.839 486.113 306.053C488.135 303.662 489.903 301.774 491.672 300.138Z" fill="#375344"/>
<path d="M530.582 229.037C529.698 232.183 528.94 236.21 529.193 238.098C529.319 238.727 529.572 239.231 529.824 239.734C530.203 240.363 530.456 241.118 530.709 242.377C530.961 243.635 530.961 245.397 530.709 247.411C530.835 247.285 531.088 247.285 531.214 247.285C531.34 246.781 531.467 246.152 531.719 245.649C531.719 245.523 531.846 245.397 531.846 245.271C532.856 240.992 534.372 237.595 535.762 235.833C535.888 235.581 536.141 235.455 536.267 235.204C536.394 234.826 536.394 234.574 536.52 234.197C537.278 231.932 538.036 230.17 538.92 229.163C539.299 228.66 539.805 228.282 540.184 228.282C540.815 227.149 541.321 226.017 541.952 225.262C542.205 225.01 542.458 224.758 542.584 224.507C542.584 224.381 542.71 224.381 542.837 224.255C543.595 223.248 544.605 222.493 545.363 224.129C545.742 224.758 546.121 226.143 546.121 228.408C546.248 228.66 546.248 228.911 546.248 229.163V229.289C546.374 229.918 546.5 230.673 546.5 231.68C547.637 231.428 548.269 233.442 548.143 237.091C548.269 236.965 548.522 236.965 548.648 237.091C548.774 236.84 548.901 236.588 548.901 236.462C549.027 236.336 549.027 236.084 549.153 235.959C549.532 234.952 549.911 234.197 550.417 233.693C551.301 232.309 552.059 232.183 552.564 233.19C552.691 233.316 552.69 233.568 552.817 233.945C553.322 233.316 553.827 233.19 554.206 233.568C554.333 233.568 554.459 233.442 554.585 233.442C554.838 233.064 555.217 232.687 555.47 232.561C555.47 232.561 555.596 232.561 555.596 232.435C555.722 232.309 555.975 232.309 556.101 232.183C556.354 232.057 556.607 232.183 556.733 232.309C557.617 231.051 558.375 231.176 558.628 233.064C558.628 233.19 558.628 233.19 558.628 233.19C558.754 234.448 558.754 236.462 558.502 238.727C558.502 239.734 558.375 240.741 558.249 242.125C558.123 242.628 558.123 243.258 557.996 243.761C557.996 245.649 557.617 248.04 557.112 250.431C557.112 252.319 556.859 254.584 556.48 257.101V257.226C558.375 254.332 560.144 253.325 561.407 254.206C562.923 255.339 563.681 259.366 564.313 263.393C564.313 263.645 564.439 263.77 564.439 264.022C565.071 267.294 565.576 270.314 566.587 271.195C569.745 233.442 572.777 183.607 575.936 145.853C565.955 187.382 549.027 205.126 532.351 224.758C531.467 225.891 530.961 227.527 530.582 229.037Z" fill="#375344"/>
<path d="M527.93 250.429C527.93 250.177 527.93 249.926 527.93 249.8C527.803 250.051 527.55 250.429 527.55 250.681C527.677 250.555 527.803 250.429 527.93 250.429Z" fill="#375344"/>
<path d="M564.818 281.136C563.176 280.884 562.292 276.857 561.534 272.579C561.534 272.327 561.407 272.201 561.407 271.949C560.776 268.3 560.144 264.776 558.881 263.77C557.491 262.637 555.091 265.28 552.817 270.565V270.439C552.691 270.817 552.438 271.194 552.185 271.572C552.185 271.572 551.806 272.201 551.68 272.327C551.427 274.089 551.048 275.976 550.543 277.738C549.911 280.129 549.153 282.269 548.395 283.527C547.764 285.918 547.006 287.932 546.248 289.19C546.121 289.442 546.121 289.694 545.995 289.819C546.121 289.945 546.248 290.197 546.248 290.574C546.753 292.462 546.5 296.238 545.616 300.139C545.111 303.914 543.974 308.067 542.837 310.458C542.584 310.961 542.331 311.465 542.205 311.968C542.205 312.094 542.079 312.22 541.952 312.472C541.573 313.478 541.068 314.233 540.689 314.863L540.563 314.988C540.057 316.624 539.426 317.883 538.794 318.89C537.783 322.791 536.267 326.314 535.004 328.076C534.625 328.705 534.12 329.083 533.741 329.209C533.235 329.461 532.856 329.209 532.477 328.454C532.098 328.202 531.846 327.447 531.719 326.189C531.719 325.937 531.593 325.685 531.593 325.434C531.593 325.308 531.593 325.308 531.593 325.182C531.467 324.678 531.467 323.923 531.467 323.294C530.835 323.42 530.456 322.917 530.203 321.91C529.824 320.651 529.824 318.638 530.077 316.247L529.951 316.75C529.824 317.254 529.572 317.757 529.445 318.26C529.319 318.764 529.193 319.519 528.94 320.274C528.435 322.162 527.929 323.42 527.677 323.923C527.55 324.175 527.424 324.553 527.298 324.804C527.045 327.699 526.54 330.971 525.655 333.739C525.024 335.879 524.266 337.515 523.381 338.773C523.129 339.151 523.002 339.402 522.75 339.654C522.118 340.409 521.487 340.661 520.981 340.283C520.476 341.542 519.844 342.548 519.339 343.304C519.086 343.807 518.707 344.31 518.455 344.562C518.202 344.814 517.949 345.065 517.823 345.317C517.57 345.569 517.318 345.82 517.191 346.072C516.054 347.205 515.423 346.575 515.17 346.324L515.044 346.198C515.044 346.198 515.044 346.198 515.044 346.324C513.78 349.596 512.517 351.232 511.38 352.49C510.748 353.245 510.117 354 509.738 354.881C509.106 356.14 508.474 358.531 507.843 360.67C506.327 366.333 504.811 372.122 503.8 377.407C527.424 354.126 548.016 326.189 564.06 293.469C564.439 289.316 564.692 285.289 565.071 281.136C565.197 281.136 564.945 281.136 564.818 281.136Z" fill="#29ABE2"/>
<path d="M491.418 351.106C491.797 350.854 492.176 350.602 492.555 350.351C496.598 347.708 500.766 344.059 504.683 339.402C505.567 338.395 506.578 337.137 507.083 335.627C507.588 334.243 507.841 332.103 508.22 329.838C508.346 329.209 508.473 328.454 508.599 327.824C508.852 326.188 509.231 324.678 509.483 323.294C509.357 323.42 509.357 323.42 509.231 323.546C508.852 323.923 508.599 324.049 508.346 324.175C508.094 324.553 507.715 324.93 507.462 325.182C506.83 325.685 506.325 325.937 505.82 325.811C505.314 325.685 505.062 325.182 504.683 324.427C504.304 324.175 503.925 323.546 503.546 322.665C503.419 322.539 503.293 322.413 503.167 322.161C501.903 320.4 502.156 315.366 503.546 310.835C503.546 310.71 503.546 310.71 503.546 310.584C503.672 309.954 503.798 309.325 503.925 308.57C503.925 308.57 503.925 308.57 503.798 308.696C502.788 309.577 501.777 310.458 500.766 310.961C498.872 312.094 496.092 312.723 494.197 309.451C494.071 309.199 493.818 308.822 493.692 308.57C493.439 307.941 493.187 307.438 492.808 307.312C492.302 307.06 491.544 307.689 490.786 308.444C489.018 310.08 487.123 312.22 485.354 314.737C484.47 329.083 483.712 343.303 482.827 357.524C486.112 354.252 488.765 352.616 491.418 351.106Z" fill="#375344"/>
<path d="M505.568 358.531C506.326 355.511 507.463 351.484 509.105 348.338C510.116 346.199 511.127 345.066 512.011 343.933C512.643 343.304 513.148 342.549 513.527 341.794C513.401 340.032 513.527 337.893 514.032 335.502C514.411 333.111 515.169 330.846 515.927 328.958C515.927 328.832 516.054 328.58 516.054 328.454C516.433 326.818 516.938 325.434 517.317 324.302C517.57 323.043 517.949 321.91 518.201 320.904C518.201 319.394 518.328 317.632 518.707 315.744C519.212 313.227 519.844 310.71 520.728 308.697C520.602 308.697 520.475 308.697 520.349 308.697C520.349 308.823 520.223 308.823 520.223 308.948C519.212 312.346 517.949 315.115 516.433 316.625C516.306 316.751 516.306 316.751 516.18 316.877C515.422 319.142 514.538 320.778 513.653 321.785C513.527 321.91 513.274 322.162 513.148 322.288C512.895 322.54 512.39 324.176 512.011 326.818C511.885 327.448 511.885 327.951 511.758 328.58C511.253 331.726 510.621 335.628 509.358 339.403C507.716 344.059 505.694 346.45 504.684 347.709C500.515 352.617 496.093 356.392 491.924 359.161C491.545 359.412 491.166 359.664 490.661 359.916C488.134 361.552 485.608 363.062 483.207 366.208C483.207 366.334 483.081 366.334 483.081 366.46C482.449 376.905 481.818 387.224 481.186 397.669C487.882 392.384 494.325 386.847 500.515 380.932C501.525 373.633 503.547 365.956 505.568 358.531Z" fill="#375344"/>
<g opacity="0.83">
<path opacity="0.83" d="M67.8275 243.131C60.6266 235.957 53.8047 228.407 47.2354 220.353C49.762 229.539 52.2887 238.6 54.8153 247.661C58.9843 246.277 63.2796 244.767 67.8275 243.131Z" fill="#375344"/>
<path opacity="0.83" d="M78.3134 328.956C91.1993 323.419 105.222 316.623 120.508 308.318C120.129 300.389 119.624 292.461 119.245 284.407C100.927 272.704 83.7457 258.861 67.8278 243.13C63.2798 244.766 58.8582 246.276 54.6892 247.661C62.5218 275.221 70.3544 302.277 78.3134 328.956Z" fill="#50935F"/>
<path opacity="0.83" d="M78.3131 328.957C70.3542 302.403 62.3953 275.221 54.689 247.661C54.5627 247.661 54.5627 247.787 54.4363 247.787C54.5627 247.787 54.5627 247.661 54.689 247.661C52.1624 238.6 49.6357 229.539 47.1091 220.352C36.4972 207.516 27.6539 198.204 18.0526 178.446C28.1592 221.359 48.4987 304.039 64.9219 363.312C75.5338 375.142 86.7774 385.839 98.779 395.655C91.957 373.632 85.1351 351.483 78.3131 328.957Z" fill="#2E7A51"/>
<path opacity="0.83" d="M78.3136 328.957C85.0092 351.483 91.9574 373.632 98.7794 395.529C107.496 402.576 116.592 409.246 125.941 415.161C124.298 382.315 122.53 349.344 120.888 316.498C120.761 313.729 120.635 311.087 120.509 308.318C105.349 316.624 91.1994 323.42 78.3136 328.957Z" fill="#375344"/>
<path opacity="0.83" d="M18.1797 178.446C18.1797 169.637 13.2527 162.338 13.2527 145.475C11.3577 169.008 15.4004 259.239 18.1797 293.342C18.1797 293.468 18.306 293.468 18.306 293.594C20.3273 297.747 22.475 301.9 24.6226 305.927C31.0656 303.033 38.3928 299.509 46.7308 295.104C36.8769 257.099 27.2756 218.213 18.1797 178.446Z" fill="#50935F"/>
<path opacity="0.83" d="M46.7305 295.105C38.3925 299.51 31.0653 303.033 24.6223 305.928C25.0013 306.557 25.254 307.186 25.633 307.816C31.9496 305.299 39.0242 302.027 46.9831 298C39.0242 302.027 31.8233 305.299 25.633 307.816C28.7913 313.353 31.9496 318.764 35.3606 324.049C44.3301 338.27 54.3104 351.232 65.0486 363.313C58.8584 340.787 52.6681 318.135 46.7305 295.105Z" fill="#375344"/>
</g>
</svg>
