<svg width="236" height="46" viewBox="0 0 236 46" fill="none" xmlns="http://www.w3.org/2000/svg">
<path d="M10.1787 45.1674L2.82562 7.45011L40.7221 45.1674H10.1787Z" fill="white"/>
<path d="M22.7365 22.514L45.5309 45.1668H49.0377L31.1642 2.44678L22.7365 22.514Z" fill="#DEDADA"/>
<path d="M43.155 22.1219L52.8271 45.1683L57.3521 7.50718L43.155 22.1219Z" fill="#A8A8A8"/>
<path d="M33.6559 2.50681L31.2197 0L28.6972 2.42107L31.1334 4.92787L33.6559 2.50681Z" fill="white"/>
<path d="M3.93709 9.69207L5.02071 6.37743L1.68535 5.30055L0.601733 8.61518L3.93709 9.69207Z" fill="white"/>
<path d="M55.2024 6.3774L56.286 9.69201L59.6214 8.61513L58.5378 5.30052L55.2024 6.3774Z" fill="white"/>
<path d="M78.5581 44.1536C78.5581 44.6155 78.4731 45.1697 77.6233 45.1697H73.204C72.6941 45.1697 72.2692 45.0773 72.2692 44.1536V11.3602C72.2692 10.4364 72.7791 10.3441 73.204 10.3441H88.9264C89.1813 10.3441 89.4363 10.4364 89.6063 10.6212C89.7762 10.8983 89.6912 11.2678 89.6063 11.4526L88.5864 15.24C88.5014 15.4247 88.4165 15.8866 87.8216 15.8866H78.5581V24.2928H86.3768C87.2267 24.2928 87.3116 24.8471 87.3116 25.3089V28.8192C87.3116 29.743 86.8017 29.8353 86.3768 29.8353H78.5581V44.1536Z" fill="white"/>
<path d="M104.308 39.6259H113.996C114.421 39.6259 114.931 39.7183 114.931 40.642V44.0599C114.931 44.9837 114.421 45.0761 113.996 45.0761H98.8689C98.019 45.0761 97.934 44.5218 97.934 44.0599V11.2665C97.934 10.3428 98.4439 10.2504 98.8689 10.2504H114.761C114.931 10.2504 115.186 10.3428 115.356 10.5275C115.526 10.7123 115.441 10.9894 115.441 11.1742L114.506 14.9616C114.421 15.2387 114.336 15.7006 113.656 15.7006H104.478V24.1068H112.297C113.146 24.1068 113.231 24.661 113.231 25.1229V28.5408C113.231 29.4646 112.722 29.5569 112.297 29.5569H104.478V39.6259H104.308Z" fill="white"/>
<path d="M134.054 46C122.666 46 122.411 31.4046 122.411 27.7096C122.411 24.0146 122.666 9.41919 134.054 9.41919C145.442 9.41919 145.697 24.1993 145.697 27.7096C145.697 31.4046 145.442 46 134.054 46ZM139.068 27.7096C139.068 22.8137 138.558 14.8694 134.054 14.8694C129.549 14.8694 129.04 22.8137 129.04 27.7096C129.04 31.8665 129.294 40.4575 134.054 40.4575C138.728 40.5498 139.068 31.9589 139.068 27.7096Z" fill="white"/>
<path d="M165.413 10.3441C167.793 10.3441 171.447 10.6212 174.082 14.1315C176.547 17.3646 177.226 22.63 177.226 27.8955C177.226 33.8999 176.377 38.4263 174.082 41.3823C171.447 44.8002 167.793 45.1697 165.413 45.1697H156.32C155.385 45.1697 155.385 44.3383 155.385 44.0612V11.4526C155.385 10.9907 155.47 10.3441 156.32 10.3441H165.413ZM161.674 39.6272H164.988C166.518 39.6272 168.558 38.8882 169.578 35.7474C170.258 33.438 170.598 30.0201 170.598 27.7107C170.598 25.3089 170.343 21.9834 169.578 19.7664C168.558 16.6256 166.518 15.8866 164.988 15.8866H161.674V39.6272Z" fill="white"/>
<path d="M198.898 10.3441C199.322 10.3441 199.492 10.6212 199.577 11.1754L208.756 43.9688C208.841 44.1536 208.926 44.3383 208.926 44.6155C208.926 45.1697 208.416 45.2621 208.161 45.2621H202.977C202.382 45.2621 202.297 45.1697 201.957 44.1536L199.917 35.9321H191.844L189.889 44.1536C189.719 44.985 189.634 45.2621 189.039 45.2621H184.025C183.005 45.2621 183.26 44.5231 183.345 44.246L192.694 11.1754C192.864 10.7136 192.864 10.4364 193.458 10.4364H198.898V10.3441ZM196.858 22.5377C196.518 20.9673 196.178 19.3045 195.838 15.7942H195.668C195.583 17.1799 195.498 19.0274 194.648 22.5377L192.609 31.3134H198.813L196.858 22.5377Z" fill="white"/>
<path d="M235.101 39.0729C235.356 39.0729 235.781 39.1653 235.866 39.6272C235.866 39.7195 235.866 39.7195 235.866 39.7195C235.866 40.089 235.781 40.1814 235.781 40.3662L234.931 44.246C234.761 44.985 234.676 45.1697 233.911 45.1697H218.359C217.509 45.1697 217.424 44.6155 217.424 44.1536V11.3602C217.424 10.4364 217.934 10.3441 218.359 10.3441H222.863C223.713 10.3441 223.798 10.8983 223.798 11.3602V39.0729H235.101Z" fill="white"/>
</svg>
