<svg width="97" height="66" viewBox="0 0 97 66" fill="none" xmlns="http://www.w3.org/2000/svg">
<path opacity="0.05" d="M87.8197 65.1988H15.5173C10.6638 65.1988 6.72473 61.3196 6.72473 56.5399V16.0163C6.72473 11.2366 10.6638 7.35742 15.5173 7.35742H87.8275C92.681 7.35742 96.62 11.2366 96.62 16.0163V56.5399C96.6122 61.3196 92.681 65.1988 87.8197 65.1988Z" fill="white"/>
<g opacity="0.61">
<path opacity="0.05" d="M38.3011 16.6815C27.4608 16.7508 18.6838 25.4559 18.6838 36.1698C18.6838 46.9222 27.5311 55.6504 38.4261 55.6504C43.5375 55.6504 48.2035 53.7262 51.7127 50.5705C52.4317 49.924 53.1039 49.2236 53.7213 48.4847H49.6806C49.1413 47.8382 48.6489 47.1685 48.2113 46.4758H55.1828C55.6127 45.8062 55.9878 45.1135 56.3317 44.39H47.0546C46.7341 43.7204 46.4606 43.0354 46.2261 42.3426H57.1523C57.8089 40.4031 58.1684 38.3249 58.1684 36.1621C58.1684 34.7305 58.0121 33.3374 57.7151 31.9905H45.6477C45.7962 31.2977 45.9838 30.6127 46.2105 29.9431H57.1445C56.9022 29.2273 56.6131 28.5346 56.2926 27.8573H47.0467C47.3828 27.1569 47.758 26.4718 48.18 25.8099H55.1515C54.6904 25.0787 54.1746 24.386 53.6197 23.7241H49.7353C50.3371 23.0237 51.0014 22.3695 51.7127 21.7537C48.2035 18.598 43.5453 16.6738 38.4261 16.6738C38.387 16.6815 38.3401 16.6815 38.3011 16.6815Z" fill="white"/>
<path opacity="0.05" d="M84.6548 36.168C84.6548 46.9281 75.8232 55.6562 64.9126 55.6562C54.0098 55.6562 45.1703 46.9358 45.1625 36.1757V36.168C45.1625 25.4079 53.9941 16.6797 64.8969 16.6797C75.7997 16.672 84.6392 25.4002 84.647 36.1603C84.6548 36.1603 84.6548 36.1603 84.6548 36.168Z" fill="white"/>
<path opacity="0.05" d="M84.6554 36.3848C84.6554 47.1449 75.8238 55.8731 64.9132 55.8731C54.0104 55.8808 45.1709 47.1526 45.1709 36.3925V36.3848C45.1709 25.6247 54.0026 16.8965 64.9053 16.8965C75.8081 16.8888 84.6476 25.617 84.6554 36.3771V36.3848Z" fill="white"/>
<path opacity="0.05" d="M38.3 16.9014C27.4597 16.9706 18.6827 25.6757 18.6827 36.3896C18.6827 47.1498 27.53 55.8779 38.425 55.8779C43.5364 55.8779 48.2024 53.9537 51.7116 50.798C52.4306 50.1515 53.1028 49.4588 53.7202 48.7122H49.6795C49.1402 48.0734 48.6478 47.3961 48.2102 46.7034H55.1817C55.6116 46.0337 55.9867 45.3333 56.3306 44.6175H47.0535C46.733 43.9479 46.4595 43.2629 46.225 42.5702H57.1512C57.8078 40.6229 58.1673 38.5447 58.1673 36.3896C58.1673 34.958 58.011 33.5649 57.714 32.218H45.6466C45.7951 31.5253 45.9827 30.8403 46.2094 30.1706H57.1434C56.9011 29.4548 56.612 28.7621 56.2915 28.0848H47.0456C47.3817 27.3844 47.7569 26.6994 48.1789 26.0375H55.1504C54.6893 25.3063 54.1735 24.6136 53.6186 23.9516H49.7342C50.336 23.2512 51.0003 22.597 51.7116 21.9812C48.2024 18.8256 43.5442 16.9014 38.425 16.9014C38.3859 16.9014 38.339 16.9014 38.3 16.9014Z" fill="white"/>
<path opacity="0.05" d="M45.5227 41.349L45.7884 39.5864C45.6477 39.5864 45.4367 39.648 45.2491 39.648C44.5144 39.648 44.4363 39.2632 44.4832 38.9784L45.0772 35.3763H46.187L46.4527 33.4213H45.4054L45.6164 32.2129H43.514C43.4672 32.2591 42.2714 39.0322 42.2714 39.8558C42.2714 41.0796 42.967 41.6184 43.9439 41.6107C44.7177 41.6107 45.3195 41.4029 45.5227 41.349Z" fill="white"/>
<path opacity="0.05" d="M46.1935 37.9858C46.1935 40.9183 48.1552 41.6187 49.8277 41.6187C51.3674 41.6187 52.0474 41.28 52.0474 41.28L52.4147 39.2788C52.4147 39.2788 51.2424 39.7945 50.1795 39.7945C47.9207 39.7945 48.3193 38.132 48.3193 38.132H52.5945C52.5945 38.132 52.868 36.7851 52.868 36.2386C52.868 34.8763 52.1803 33.2061 49.8668 33.2061C47.7566 33.1984 46.1935 35.4458 46.1935 37.9858ZM49.8825 35.0533C51.0704 35.0533 50.8516 36.3695 50.8516 36.4772H48.5147C48.5147 36.3387 48.7336 35.0533 49.8825 35.0533Z" fill="white"/>
<path opacity="0.05" d="M63.1925 41.3488L63.5677 39.086C63.5677 39.086 62.536 39.6017 61.8248 39.6017C60.332 39.6017 59.738 38.4779 59.738 37.2695C59.738 34.822 61.0198 33.4673 62.4501 33.4673C63.5208 33.4673 64.3805 34.06 64.3805 34.06L64.7244 31.8664C64.7244 31.8664 63.4505 31.3584 62.3563 31.3584C59.9256 31.3584 57.5653 33.4365 57.5653 37.3388C57.5653 39.9249 58.8392 41.6336 61.3481 41.6336C62.0593 41.6336 63.1925 41.3488 63.1925 41.3488Z" fill="white"/>
<path opacity="0.05" d="M33.9627 33.2295C32.5247 33.2295 31.4149 33.6836 31.4149 33.6836L31.11 35.4693C31.11 35.4693 32.0245 35.1075 33.4 35.1075C34.1816 35.1075 34.7521 35.1922 34.7521 35.8233C34.7521 36.2005 34.6818 36.3467 34.6818 36.3467C34.6818 36.3467 34.0644 36.2928 33.7752 36.2928C31.9541 36.2928 30.0471 37.0548 30.0471 39.3715C30.0471 41.188 31.2976 41.6113 32.0792 41.6113C33.5641 41.6113 34.1972 40.6646 34.2363 40.6569L34.166 41.4497H36.0183L36.8467 35.7309C36.8545 33.3065 34.7052 33.2295 33.9627 33.2295ZM34.4161 37.8784C34.4551 38.2247 34.1972 39.8641 32.9311 39.8641C32.2746 39.8641 32.1104 39.3715 32.1104 39.0791C32.1104 38.5095 32.4231 37.8322 33.9627 37.8322C34.3144 37.8322 34.3535 37.8707 34.4161 37.8784Z" fill="white"/>
<path opacity="0.05" d="M38.8156 41.5644C39.2846 41.5644 41.9966 41.6875 41.9966 38.9244C41.9966 36.3459 39.4878 36.8539 39.4878 35.8226C39.4878 35.3069 39.8942 35.1452 40.6445 35.1452C40.9415 35.1452 42.0826 35.2376 42.0826 35.2376L42.3483 33.4058C42.3483 33.4058 41.6136 33.2441 40.41 33.2441C38.8547 33.2441 37.276 33.8522 37.276 35.9534C37.276 38.3317 39.9098 38.0931 39.9098 39.0937C39.9098 39.7633 39.1752 39.8172 38.6046 39.8172C37.6277 39.8172 36.7445 39.4862 36.7367 39.5016L36.4553 41.3104C36.51 41.3258 37.0571 41.5644 38.8156 41.5644Z" fill="white"/>
<path opacity="0.05" d="M80.5991 31.5848L80.1458 34.3634C80.1458 34.3634 79.3564 33.2858 78.1137 33.2858C76.1833 33.2858 74.5811 35.5795 74.5811 38.2118C74.5811 39.9128 75.433 41.5753 77.1915 41.5753C78.4498 41.5753 79.1454 40.7055 79.1454 40.7055L79.0516 41.4444H81.0993L82.7093 31.5771L80.5991 31.5848ZM79.63 37.0034C79.63 38.0963 79.0829 39.5587 77.9418 39.5587C77.1837 39.5587 76.832 38.9353 76.832 37.9501C76.832 36.3415 77.5666 35.2793 78.4889 35.2793C79.2392 35.2793 79.63 35.795 79.63 37.0034Z" fill="white"/>
<path opacity="0.05" d="M22.5819 41.457L23.8636 34.0065L24.0512 41.457H25.4971L28.2013 34.0065L27.0055 41.457H29.1548L30.8117 31.582H27.4823L25.4111 37.6394L25.3017 31.582H22.238L20.5576 41.457H22.5819Z" fill="white"/>
<path opacity="0.05" d="M54.9702 41.4723C55.5798 38.0395 55.6971 35.2533 57.1586 35.7613C57.4165 34.4297 57.6588 33.9218 57.9402 33.3599C57.9402 33.3599 57.8073 33.3291 57.5337 33.3291C56.5959 33.3291 55.8925 34.5991 55.8925 34.5991L56.08 33.4369H54.1261L52.8131 41.4723H54.9702Z" fill="white"/>
<path opacity="0.05" d="M68.0389 33.2295C66.6008 33.2295 65.491 33.6836 65.491 33.6836L65.1862 35.4693C65.1862 35.4693 66.1006 35.1075 67.4762 35.1075C68.2578 35.1075 68.8283 35.1922 68.8283 35.8233C68.8283 36.2005 68.758 36.3467 68.758 36.3467C68.758 36.3467 68.1405 36.2928 67.8513 36.2928C66.0303 36.2928 64.1233 37.0548 64.1233 39.3715C64.1233 41.188 65.3738 41.6113 66.1554 41.6113C67.6403 41.6113 68.2734 40.6646 68.3125 40.6569L68.2421 41.4497H70.0944L70.9229 35.7309C70.9307 33.3065 68.7892 33.2295 68.0389 33.2295ZM68.4922 37.8784C68.5313 38.2247 68.2734 39.8641 66.9994 39.8641C66.3507 39.8641 66.1788 39.3715 66.1788 39.0791C66.1788 38.5095 66.4914 37.8322 68.0311 37.8322C68.3906 37.8322 68.4297 37.8707 68.4922 37.8784Z" fill="white"/>
<path opacity="0.05" d="M72.6184 41.4723C73.228 38.0395 73.3453 35.2533 74.8068 35.7613C75.0647 34.4297 75.307 33.9218 75.5884 33.3599C75.5884 33.3599 75.4555 33.3291 75.1819 33.3291C74.2363 33.3291 73.5407 34.5991 73.5407 34.5991L73.7282 33.4369H71.7665L70.4613 41.4723H72.6184Z" fill="white"/>
</g>
<path opacity="0.05" d="M86.2551 63.6578H13.9527C9.09923 63.6578 5.16016 59.7786 5.16016 54.9989V14.4753C5.16016 9.69559 9.09923 5.81641 13.9527 5.81641H86.2629C91.1164 5.81641 95.0555 9.69559 95.0555 14.4753V54.9989C95.0477 59.7786 91.1164 63.6578 86.2551 63.6578Z" fill="white"/>
<g opacity="0.6">
<path opacity="0.05" d="M36.734 15.1395C25.8938 15.2088 17.1168 23.9139 17.1168 34.6278C17.1168 45.3802 25.9641 54.1084 36.8591 54.1084C41.9705 54.1084 46.6364 52.1842 50.1456 49.0285C50.8647 48.382 51.5368 47.6816 52.1543 46.9427H48.1136C47.5743 46.2962 47.0819 45.6265 46.6442 44.9338H53.6158C54.0456 44.2642 54.4208 43.5715 54.7647 42.848H45.4875C45.1671 42.1784 44.8935 41.4934 44.6591 40.8006H55.5853C56.2418 38.8611 56.6013 36.7829 56.6013 34.6201C56.6013 33.1885 56.445 31.7954 56.148 30.4485H44.0807C44.2292 29.7557 44.4168 29.0707 44.6434 28.4011H55.5775C55.3352 27.6853 55.046 26.9926 54.7256 26.3153H45.4797C45.8158 25.6149 46.1909 24.9299 46.613 24.2679H53.5845C53.1234 23.5367 52.6076 22.844 52.0527 22.1821H48.1683C48.7701 21.4817 49.4344 20.8275 50.1456 20.2117C46.6364 17.056 41.9783 15.1318 36.8591 15.1318C36.82 15.1395 36.7731 15.1395 36.734 15.1395Z" fill="white"/>
<path opacity="0.05" d="M83.0889 34.627C83.0889 45.3871 74.2573 54.1152 63.3466 54.1152C52.4438 54.1152 43.6044 45.3948 43.5966 34.6347V34.627C43.5966 23.8668 52.4282 15.1387 63.331 15.1387C74.2338 15.131 83.0733 23.8591 83.0811 34.6193C83.0889 34.6193 83.0889 34.6193 83.0889 34.627Z" fill="white"/>
<path opacity="0.05" d="M83.0895 34.8438C83.0895 45.6039 74.2579 54.332 63.3472 54.332C52.4445 54.3397 43.605 45.6116 43.605 34.8515V34.8438C43.605 24.0836 52.4366 15.3555 63.3394 15.3555C74.2422 15.3478 83.0817 24.0759 83.0895 34.8361V34.8438Z" fill="white"/>
<path opacity="0.05" d="M36.734 15.3594C25.8938 15.4286 17.1168 24.1337 17.1168 34.8477C17.1168 45.6078 25.9641 54.3359 36.8591 54.3359C41.9705 54.3359 46.6364 52.4117 50.1456 49.2561C50.8647 48.6095 51.5368 47.9168 52.1543 47.1702H48.1136C47.5743 46.5314 47.0819 45.8541 46.6442 45.1614H53.6158C54.0456 44.4917 54.4208 43.7913 54.7647 43.0755H45.4875C45.1671 42.4059 44.8935 41.7209 44.6591 41.0282H55.5853C56.2418 39.0809 56.6013 37.0028 56.6013 34.8477C56.6013 33.4161 56.445 32.0229 56.148 30.676H44.0807C44.2292 29.9833 44.4168 29.2983 44.6434 28.6286H55.5775C55.3352 27.9128 55.046 27.2201 54.7256 26.5428H45.4797C45.8158 25.8424 46.1909 25.1574 46.613 24.4955H53.5845C53.1234 23.7643 52.6076 23.0716 52.0527 22.4096H48.1683C48.7701 21.7092 49.4344 21.055 50.1456 20.4393C46.6364 17.2836 41.9783 15.3594 36.8591 15.3594C36.82 15.3594 36.7731 15.3594 36.734 15.3594Z" fill="white"/>
<path opacity="0.05" d="M43.9567 39.8099L44.2225 38.0474C44.0818 38.0474 43.8708 38.1089 43.6832 38.1089C42.9485 38.1089 42.8704 37.7241 42.9173 37.4393L43.5113 33.8372H44.6211L44.8868 31.8822H43.8395L44.0505 30.6738H41.9481C41.9012 30.72 40.7054 37.4932 40.7054 38.3167C40.7054 39.5405 41.401 40.0793 42.378 40.0716C43.1517 40.0716 43.7535 39.8638 43.9567 39.8099Z" fill="white"/>
<path opacity="0.05" d="M44.6276 36.4438C44.6276 39.3763 46.5893 40.0767 48.2618 40.0767C49.8015 40.0767 50.4815 39.738 50.4815 39.738L50.8488 37.7369C50.8488 37.7369 49.6765 38.2525 48.6135 38.2525C46.3548 38.2525 46.7534 36.59 46.7534 36.59H51.0286C51.0286 36.59 51.3021 35.2431 51.3021 34.6966C51.3021 33.3343 50.6143 31.6641 48.3009 31.6641C46.1907 31.6564 44.6276 33.9038 44.6276 36.4438ZM48.3165 33.5113C49.5045 33.5113 49.2857 34.8275 49.2857 34.9352H46.9488C46.9488 34.7967 47.1676 33.5113 48.3165 33.5113Z" fill="white"/>
<path opacity="0.05" d="M61.6266 39.8098L62.0018 37.5469C62.0018 37.5469 60.9701 38.0626 60.2589 38.0626C58.7661 38.0626 58.1721 36.9389 58.1721 35.7305C58.1721 33.2829 59.4539 31.9283 60.8842 31.9283C61.9549 31.9283 62.8146 32.5209 62.8146 32.5209L63.1585 30.3273C63.1585 30.3273 61.8845 29.8193 60.7904 29.8193C58.3597 29.8193 55.9994 31.8975 55.9994 35.7997C55.9994 38.3859 57.2733 40.0946 59.7821 40.0946C60.4934 40.0946 61.6266 39.8098 61.6266 39.8098Z" fill="white"/>
<path opacity="0.05" d="M32.3968 31.6875C30.9588 31.6875 29.8489 32.1416 29.8489 32.1416L29.5441 33.9273C29.5441 33.9273 30.4586 33.5655 31.8341 33.5655C32.6157 33.5655 33.1862 33.6502 33.1862 34.2813C33.1862 34.6585 33.1159 34.8047 33.1159 34.8047C33.1159 34.8047 32.4984 34.7508 32.2093 34.7508C30.3882 34.7508 28.4812 35.5128 28.4812 37.8295C28.4812 39.646 29.7317 40.0693 30.5133 40.0693C31.9982 40.0693 32.6313 39.1226 32.6704 39.1149L32.6 39.9077H34.4523L35.2808 34.189C35.2886 31.7645 33.1393 31.6875 32.3968 31.6875ZM32.8501 36.3364C32.8892 36.6827 32.6313 38.3221 31.3652 38.3221C30.7087 38.3221 30.5445 37.8295 30.5445 37.5371C30.5445 36.9675 30.8571 36.2902 32.3968 36.2902C32.7485 36.2902 32.7876 36.3287 32.8501 36.3364Z" fill="white"/>
<path opacity="0.05" d="M37.2496 40.0234C37.7185 40.0234 40.4306 40.1465 40.4306 37.3834C40.4306 34.8049 37.9217 35.3129 37.9217 34.2816C37.9217 33.7659 38.3282 33.6042 39.0785 33.6042C39.3755 33.6042 40.5165 33.6966 40.5165 33.6966L40.7823 31.8648C40.7823 31.8648 40.0476 31.7031 38.844 31.7031C37.2887 31.7031 35.7099 32.3112 35.7099 34.4124C35.7099 36.7907 38.3438 36.5521 38.3438 37.5527C38.3438 38.2223 37.6091 38.2762 37.0386 38.2762C36.0616 38.2762 35.1785 37.9452 35.1706 37.9606L34.8893 39.7694C34.944 39.7848 35.4911 40.0234 37.2496 40.0234Z" fill="white"/>
<path opacity="0.05" d="M79.0332 30.0438L78.5799 32.8224C78.5799 32.8224 77.7905 31.7448 76.5478 31.7448C74.6173 31.7448 73.0151 34.0385 73.0151 36.6708C73.0151 38.3718 73.867 40.0343 75.6256 40.0343C76.8839 40.0343 77.5795 39.1645 77.5795 39.1645L77.4857 39.9034H79.5334L81.1434 30.0361L79.0332 30.0438ZM78.064 35.4624C78.064 36.5553 77.5169 38.0177 76.3759 38.0177C75.6177 38.0177 75.266 37.3943 75.266 36.4091C75.266 34.8004 76.0007 33.7383 76.9229 33.7383C77.6732 33.7383 78.064 34.254 78.064 35.4624Z" fill="white"/>
<path opacity="0.05" d="M21.0159 39.915L22.2977 32.4645L22.4853 39.915H23.9312L26.6354 32.4645L25.4396 39.915H27.5889L29.2458 30.04H25.9163L23.8452 36.0974L23.7358 30.04H20.6721L18.9917 39.915H21.0159Z" fill="white"/>
<path opacity="0.05" d="M53.4043 39.9313C54.0139 36.4985 54.1312 33.7123 55.5927 34.2203C55.8506 32.8887 56.0929 32.3807 56.3742 31.8189C56.3742 31.8189 56.2414 31.7881 55.9678 31.7881C55.03 31.7881 54.3265 33.0581 54.3265 33.0581L54.5141 31.8958H52.5602L51.2472 39.9313H53.4043Z" fill="white"/>
<path opacity="0.05" d="M66.473 31.6875C65.0349 31.6875 63.9251 32.1416 63.9251 32.1416L63.6203 33.9273C63.6203 33.9273 64.5347 33.5655 65.9103 33.5655C66.6918 33.5655 67.2624 33.6502 67.2624 34.2813C67.2624 34.6585 67.192 34.8047 67.192 34.8047C67.192 34.8047 66.5746 34.7508 66.2854 34.7508C64.4644 34.7508 62.5574 35.5128 62.5574 37.8295C62.5574 39.646 63.8079 40.0693 64.5894 40.0693C66.0744 40.0693 66.7075 39.1226 66.7465 39.1149L66.6762 39.9077H68.5285L69.357 34.189C69.3648 31.7645 67.2233 31.6875 66.473 31.6875ZM66.9263 36.3364C66.9654 36.6827 66.7075 38.3221 65.4335 38.3221C64.7848 38.3221 64.6129 37.8295 64.6129 37.5371C64.6129 36.9675 64.9255 36.2902 66.4652 36.2902C66.8247 36.2902 66.8638 36.3287 66.9263 36.3364Z" fill="white"/>
<path opacity="0.05" d="M71.0525 39.9313C71.6621 36.4985 71.7793 33.7123 73.2409 34.2203C73.4988 32.8887 73.7411 32.3807 74.0224 31.8189C74.0224 31.8189 73.8896 31.7881 73.616 31.7881C72.6703 31.7881 71.9747 33.0581 71.9747 33.0581L72.1623 31.8958H70.2006L68.8954 39.9313H71.0525Z" fill="white"/>
</g>
<path opacity="0.05" d="M84.6927 62.1168H12.3904C7.53685 62.1168 3.59778 58.2376 3.59778 53.4579V12.9343C3.59778 8.15458 7.53685 4.27539 12.3904 4.27539H84.7005C89.554 4.27539 93.4931 8.15458 93.4931 12.9343V53.4579C93.4853 58.2376 89.554 62.1168 84.6927 62.1168Z" fill="white"/>
<g opacity="0.6">
<path opacity="0.05" d="M35.1717 13.5975C24.3314 13.6668 15.5544 22.3719 15.5544 33.0858C15.5544 43.8383 24.4017 52.5664 35.2967 52.5664C40.4081 52.5664 45.0741 50.6422 48.5833 47.4865C49.3023 46.84 49.9745 46.1396 50.5919 45.4007H46.5512C46.0119 44.7542 45.5195 44.0846 45.0819 43.3918H52.0534C52.4833 42.7222 52.8584 42.0295 53.2023 41.306H43.9252C43.6047 40.6364 43.3312 39.9514 43.0967 39.2587H54.0229C54.6795 37.3191 55.039 35.2409 55.039 33.0781C55.039 31.6465 54.8827 30.2534 54.5857 28.9065H42.5183C42.6668 28.2138 42.8544 27.5287 43.0811 26.8591H54.0151C53.7728 26.1433 53.4837 25.4506 53.1632 24.7733H43.9173C44.2534 24.0729 44.6286 23.3879 45.0506 22.7259H52.0221C51.561 21.9947 51.0452 21.302 50.4903 20.6401H46.6059C47.2077 19.9397 47.872 19.2855 48.5833 18.6697C45.0741 15.514 40.4159 13.5898 35.2967 13.5898C35.2576 13.5975 35.2107 13.5975 35.1717 13.5975Z" fill="white"/>
<path opacity="0.05" d="M81.5265 33.0879C81.5265 43.848 72.6949 52.5762 61.7843 52.5762C50.8815 52.5762 42.042 43.8557 42.0342 33.0956V33.0879C42.0342 22.3278 50.8658 13.5996 61.7686 13.5996C72.6714 13.5919 81.5109 22.3201 81.5187 33.0802C81.5265 33.0802 81.5265 33.0802 81.5265 33.0879Z" fill="white"/>
<path opacity="0.05" d="M81.5273 33.3018C81.5273 44.0619 72.6956 52.7901 61.785 52.7901C50.8822 52.7977 42.0427 44.0696 42.0427 33.3095V33.3018C42.0427 22.5416 50.8744 13.8135 61.7772 13.8135C72.68 13.8058 81.5194 22.5339 81.5273 33.2941V33.3018Z" fill="white"/>
<path opacity="0.05" d="M35.1717 13.8223C24.3314 13.8915 15.5544 22.5966 15.5544 33.3105C15.5544 44.0707 24.4017 52.7988 35.2967 52.7988C40.4081 52.7988 45.0741 50.8746 48.5833 47.7189C49.3023 47.0724 49.9745 46.3797 50.5919 45.6331H46.5512C46.0119 44.9943 45.5195 44.317 45.0819 43.6243H52.0534C52.4833 42.9546 52.8584 42.2542 53.2023 41.5384H43.9252C43.6047 40.8688 43.3312 40.1838 43.0967 39.4911H54.0229C54.6795 37.5438 55.039 35.4656 55.039 33.3105C55.039 31.8789 54.8827 30.4858 54.5857 29.1389H42.5183C42.6668 28.4462 42.8544 27.7612 43.0811 27.0915H54.0151C53.7728 26.3757 53.4837 25.683 53.1632 25.0057H43.9173C44.2534 24.3053 44.6286 23.6203 45.0506 22.9584H52.0221C51.561 22.2272 51.0452 21.5345 50.4903 20.8725H46.6059C47.2077 20.1721 47.872 19.5179 48.5833 18.9021C45.0741 15.7465 40.4159 13.8223 35.2967 13.8223C35.2576 13.8223 35.2107 13.8223 35.1717 13.8223Z" fill="white"/>
<path opacity="0.05" d="M42.3944 38.2679L42.6601 36.5054C42.5194 36.5054 42.3084 36.5669 42.1208 36.5669C41.3861 36.5669 41.308 36.1821 41.3549 35.8973L41.9489 32.2952H43.0587L43.3244 30.3402H42.2771L42.4882 29.1318H40.3858C40.3389 29.178 39.1431 35.9512 39.1431 36.7748C39.1431 37.9985 39.8387 38.5373 40.8156 38.5296C41.5894 38.5296 42.1912 38.3218 42.3944 38.2679Z" fill="white"/>
<path opacity="0.05" d="M43.0652 34.9028C43.0652 37.8353 45.0269 38.5357 46.6994 38.5357C48.2391 38.5357 48.9191 38.197 48.9191 38.197L49.2864 36.1958C49.2864 36.1958 48.1141 36.7115 47.0511 36.7115C44.7924 36.7115 45.191 35.049 45.191 35.049H49.4662C49.4662 35.049 49.7397 33.7021 49.7397 33.1556C49.7397 31.7933 49.0519 30.1231 46.7385 30.1231C44.6283 30.1154 43.0652 32.3628 43.0652 34.9028ZM46.7542 31.9703C47.9421 31.9703 47.7233 33.2865 47.7233 33.3942H45.3864C45.3864 33.2557 45.6053 31.9703 46.7542 31.9703Z" fill="white"/>
<path opacity="0.05" d="M60.0643 38.2678L60.4394 36.0049C60.4394 36.0049 59.4077 36.5206 58.6965 36.5206C57.2037 36.5206 56.6098 35.3969 56.6098 34.1885C56.6098 31.7409 57.8915 30.3863 59.3218 30.3863C60.3925 30.3863 61.2522 30.9789 61.2522 30.9789L61.5961 28.7853C61.5961 28.7853 60.3222 28.2773 59.228 28.2773C56.7973 28.2773 54.437 30.3555 54.437 34.2578C54.437 36.8439 55.711 38.5526 58.2198 38.5526C58.931 38.5526 60.0643 38.2678 60.0643 38.2678Z" fill="white"/>
<path opacity="0.05" d="M30.8344 30.1484C29.3964 30.1484 28.2866 30.6025 28.2866 30.6025L27.9817 32.3882C27.9817 32.3882 28.8962 32.0265 30.2717 32.0265C31.0533 32.0265 31.6238 32.1111 31.6238 32.7423C31.6238 33.1194 31.5535 33.2656 31.5535 33.2656C31.5535 33.2656 30.9361 33.2118 30.6469 33.2118C28.8258 33.2118 26.9188 33.9737 26.9188 36.2905C26.9188 38.1069 28.1693 38.5302 28.9509 38.5302C30.4359 38.5302 31.0689 37.5835 31.108 37.5758L31.0377 38.3686H32.89L33.7184 32.6499C33.7262 30.2254 31.5769 30.1484 30.8344 30.1484ZM31.2878 34.7973C31.3268 35.1437 31.0689 36.7831 29.8028 36.7831C29.1463 36.7831 28.9821 36.2905 28.9821 35.998C28.9821 35.4284 29.2948 34.7511 30.8344 34.7511C31.1862 34.7511 31.2252 34.7896 31.2878 34.7973Z" fill="white"/>
<path opacity="0.05" d="M35.6873 38.4833C36.1563 38.4833 38.8683 38.6065 38.8683 35.8433C38.8683 33.2649 36.3595 33.7729 36.3595 32.7415C36.3595 32.2258 36.7659 32.0642 37.5162 32.0642C37.8132 32.0642 38.9543 32.1566 38.9543 32.1566L39.22 30.3247C39.22 30.3247 38.4853 30.1631 37.2817 30.1631C35.7264 30.1631 34.1477 30.7711 34.1477 32.8724C34.1477 35.2507 36.7815 35.0121 36.7815 36.0126C36.7815 36.6823 36.0469 36.7361 35.4763 36.7361C34.4994 36.7361 33.6162 36.4052 33.6084 36.4206L33.327 38.2293C33.3817 38.2447 33.9288 38.4833 35.6873 38.4833Z" fill="white"/>
<path opacity="0.05" d="M77.4697 28.5018L77.0164 31.2804C77.0164 31.2804 76.227 30.2028 74.9843 30.2028C73.0539 30.2028 71.4517 32.4965 71.4517 35.1288C71.4517 36.8298 72.3036 38.4923 74.0621 38.4923C75.3204 38.4923 76.016 37.6225 76.016 37.6225L75.9222 38.3614H77.9699L79.5799 28.4941L77.4697 28.5018ZM76.5006 33.9204C76.5006 35.0133 75.9535 36.4757 74.8124 36.4757C74.0543 36.4757 73.7026 35.8523 73.7026 34.8671C73.7026 33.2585 74.4372 32.1963 75.3595 32.1963C76.1098 32.1963 76.5006 32.712 76.5006 33.9204Z" fill="white"/>
<path opacity="0.05" d="M19.4537 38.374L20.7355 30.9235L20.923 38.374H22.3689L25.0731 30.9235L23.8773 38.374H26.0266L27.6835 28.499H24.3541L22.2829 34.5564L22.1735 28.499H19.1098L17.4294 38.374H19.4537Z" fill="white"/>
<path opacity="0.05" d="M51.8419 38.3893C52.4515 34.9565 52.5688 32.1703 54.0303 32.6783C54.2882 31.3467 54.5305 30.8387 54.8119 30.2769C54.8119 30.2769 54.679 30.2461 54.4055 30.2461C53.4676 30.2461 52.7642 31.5161 52.7642 31.5161L52.9517 30.3538H50.9978L49.6848 38.3893H51.8419Z" fill="white"/>
<path opacity="0.05" d="M64.9106 30.1484C63.4725 30.1484 62.3627 30.6025 62.3627 30.6025L62.0579 32.3882C62.0579 32.3882 62.9723 32.0265 64.3479 32.0265C65.1295 32.0265 65.7 32.1111 65.7 32.7423C65.7 33.1194 65.6297 33.2656 65.6297 33.2656C65.6297 33.2656 65.0122 33.2118 64.723 33.2118C62.902 33.2118 60.995 33.9737 60.995 36.2905C60.995 38.1069 62.2455 38.5302 63.0271 38.5302C64.512 38.5302 65.1451 37.5835 65.1842 37.5758L65.1138 38.3686H66.9661L67.7946 32.6499C67.8024 30.2254 65.6609 30.1484 64.9106 30.1484ZM65.3639 34.7973C65.403 35.1437 65.1451 36.7831 63.8711 36.7831C63.2224 36.7831 63.0505 36.2905 63.0505 35.998C63.0505 35.4284 63.3631 34.7511 64.9028 34.7511C65.2623 34.7511 65.3014 34.7896 65.3639 34.7973Z" fill="white"/>
<path opacity="0.05" d="M69.4901 38.3893C70.0997 34.9565 70.217 32.1703 71.6785 32.6783C71.9364 31.3467 72.1787 30.8387 72.4601 30.2769C72.4601 30.2769 72.3272 30.2461 72.0537 30.2461C71.108 30.2461 70.4124 31.5161 70.4124 31.5161L70.5999 30.3538H68.6382L67.333 38.3893H69.4901Z" fill="white"/>
</g>
<path opacity="0.05" d="M83.1302 60.5797H10.8279C5.97435 60.5797 2.03528 56.7005 2.03528 51.9208V11.3972C2.03528 6.61747 5.97435 2.73828 10.8279 2.73828H83.138C87.9915 2.73828 91.9306 6.61747 91.9306 11.3972V51.9208C91.9228 56.7005 87.9915 60.5797 83.1302 60.5797Z" fill="white"/>
<g opacity="0.6">
<path opacity="0.05" d="M33.6105 12.0565C22.7702 12.1258 13.9933 20.8309 13.9933 31.5448C13.9933 42.2972 22.8406 51.0254 33.7356 51.0254C38.847 51.0254 43.5129 49.1012 47.0221 45.9455C47.7412 45.299 48.4133 44.5986 49.0307 43.8597H44.9901C44.4508 43.2131 43.9584 42.5435 43.5207 41.8508H50.4923C50.9221 41.1812 51.2973 40.4885 51.6412 39.765H42.364C42.0436 39.0954 41.77 38.4103 41.5355 37.7176H52.4618C53.1183 35.778 53.4778 33.6999 53.4778 31.5371C53.4778 30.1055 53.3215 28.7124 53.0245 27.3654H40.9572C41.1057 26.6727 41.2933 25.9877 41.5199 25.3181H52.454C52.2117 24.6023 51.9225 23.9096 51.6021 23.2323H42.3562C42.6923 22.5319 43.0674 21.8468 43.4895 21.1849H50.461C49.9999 20.4537 49.484 19.761 48.9291 19.0991H45.0448C45.6466 18.3987 46.3109 17.7445 47.0221 17.1287C43.5129 13.973 38.8548 12.0488 33.7356 12.0488C33.6965 12.0565 33.6496 12.0565 33.6105 12.0565Z" fill="white"/>
<path opacity="0.05" d="M79.9654 31.5459C79.9654 42.306 71.1337 51.0342 60.2231 51.0342C49.3203 51.0342 40.4808 42.3137 40.473 31.5536V31.5459C40.473 20.7858 49.3047 12.0576 60.2075 12.0576C71.1103 12.0499 79.9497 20.7781 79.9576 31.5382C79.9654 31.5382 79.9654 31.5382 79.9654 31.5459Z" fill="white"/>
<path opacity="0.05" d="M79.966 31.7607C79.966 42.5209 71.1343 51.249 60.2237 51.249C49.3209 51.2567 40.4814 42.5286 40.4814 31.7684V31.7607C40.4814 21.0006 49.3131 12.2725 60.2159 12.2725C71.1187 12.2648 79.9582 20.9929 79.966 31.7531V31.7607Z" fill="white"/>
<path opacity="0.05" d="M33.6105 12.2812C22.7702 12.3505 13.9933 21.0556 13.9933 31.7695C13.9933 42.5297 22.8406 51.2578 33.7356 51.2578C38.847 51.2578 43.5129 49.3336 47.0221 46.1779C47.7412 45.5314 48.4133 44.8387 49.0307 44.0921H44.9901C44.4508 43.4533 43.9584 42.7759 43.5207 42.0832H50.4923C50.9221 41.4136 51.2973 40.7132 51.6412 39.9974H42.364C42.0436 39.3278 41.77 38.6428 41.5355 37.9501H52.4618C53.1183 36.0028 53.4778 33.9246 53.4778 31.7695C53.4778 30.3379 53.3215 28.9448 53.0245 27.5979H40.9572C41.1057 26.9052 41.2933 26.2201 41.5199 25.5505H52.454C52.2117 24.8347 51.9225 24.142 51.6021 23.4647H42.3562C42.6923 22.7643 43.0674 22.0793 43.4895 21.4173H50.461C49.9999 20.6861 49.484 19.9934 48.9291 19.3315H45.0448C45.6466 18.6311 46.3109 17.9769 47.0221 17.3611C43.5129 14.2054 38.8548 12.2812 33.7356 12.2812C33.6965 12.2813 33.6496 12.2812 33.6105 12.2812Z" fill="white"/>
<path opacity="0.05" d="M40.8311 36.7269L41.0969 34.9643C40.9562 34.9643 40.7452 35.0259 40.5576 35.0259C39.8229 35.0259 39.7448 34.6411 39.7917 34.3563L40.3856 30.7542H41.4955L41.7612 28.7992H40.7139L40.9249 27.5908H38.8225C38.7756 27.637 37.5798 34.4102 37.5798 35.2337C37.5798 36.4575 38.2754 36.9963 39.2524 36.9886C40.0261 36.9886 40.6279 36.7808 40.8311 36.7269Z" fill="white"/>
<path opacity="0.05" d="M41.504 33.3618C41.504 36.2942 43.4657 36.9946 45.1383 36.9946C46.678 36.9946 47.3579 36.656 47.3579 36.656L47.7253 34.6548C47.7253 34.6548 46.5529 35.1705 45.49 35.1705C43.2313 35.1705 43.6299 33.508 43.6299 33.508H47.905C47.905 33.508 48.1786 32.1611 48.1786 31.6146C48.1786 30.2523 47.4908 28.5821 45.1774 28.5821C43.0672 28.5744 41.504 30.8218 41.504 33.3618ZM45.193 30.4293C46.381 30.4293 46.1621 31.7454 46.1621 31.8532H43.8253C43.8253 31.7146 44.0441 30.4293 45.193 30.4293Z" fill="white"/>
<path opacity="0.05" d="M58.5031 36.7268L58.8783 34.4639C58.8783 34.4639 57.8466 34.9796 57.1354 34.9796C55.6426 34.9796 55.0486 33.8559 55.0486 32.6475C55.0486 30.1999 56.3304 28.8452 57.7606 28.8452C58.8314 28.8452 59.6911 29.4379 59.6911 29.4379L60.035 27.2443C60.035 27.2443 58.761 26.7363 57.6668 26.7363C55.2362 26.7363 52.8759 28.8145 52.8759 32.7167C52.8759 35.3029 54.1498 37.0115 56.6586 37.0115C57.3698 37.0115 58.5031 36.7268 58.5031 36.7268Z" fill="white"/>
<path opacity="0.05" d="M29.2733 28.6074C27.8352 28.6074 26.7254 29.0615 26.7254 29.0615L26.4206 30.8472C26.4206 30.8472 27.335 30.4854 28.7106 30.4854C29.4921 30.4854 30.0627 30.5701 30.0627 31.2012C30.0627 31.5784 29.9923 31.7246 29.9923 31.7246C29.9923 31.7246 29.3749 31.6707 29.0857 31.6707C27.2647 31.6707 25.3577 32.4327 25.3577 34.7495C25.3577 36.5659 26.6082 36.9892 27.3897 36.9892C28.8747 36.9892 29.5078 36.0425 29.5468 36.0348L29.4765 36.8276H31.3288L32.1573 31.1089C32.1651 28.6844 30.0158 28.6074 29.2733 28.6074ZM29.7266 33.2563C29.7657 33.6026 29.5078 35.2421 28.2416 35.2421C27.5851 35.2421 27.421 34.7495 27.421 34.457C27.421 33.8874 27.7336 33.2101 29.2733 33.2101C29.625 33.2101 29.6641 33.2486 29.7266 33.2563Z" fill="white"/>
<path opacity="0.05" d="M34.1262 36.9423C34.5951 36.9423 37.3071 37.0655 37.3071 34.3023C37.3071 31.7239 34.7983 32.2319 34.7983 31.2005C34.7983 30.6848 35.2047 30.5232 35.955 30.5232C36.252 30.5232 37.3931 30.6155 37.3931 30.6155L37.6588 28.7837C37.6588 28.7837 36.9242 28.6221 35.7206 28.6221C34.1653 28.6221 32.5865 29.2301 32.5865 31.3313C32.5865 33.7097 35.2204 33.4711 35.2204 34.4716C35.2204 35.1413 34.4857 35.1951 33.9152 35.1951C32.9382 35.1951 32.055 34.8642 32.0472 34.8796L31.7659 36.6883C31.8206 36.7037 32.3677 36.9423 34.1262 36.9423Z" fill="white"/>
<path opacity="0.05" d="M75.9096 26.9608L75.4563 29.7394C75.4563 29.7394 74.667 28.6618 73.4243 28.6618C71.4938 28.6618 69.8916 30.9555 69.8916 33.5878C69.8916 35.2888 70.7435 36.9513 72.502 36.9513C73.7603 36.9513 74.4559 36.0815 74.4559 36.0815L74.3621 36.8204H76.4098L78.0199 26.9531L75.9096 26.9608ZM74.9405 32.3794C74.9405 33.4723 74.3934 34.9347 73.2523 34.9347C72.4942 34.9347 72.1425 34.3113 72.1425 33.3261C72.1425 31.7174 72.8772 30.6553 73.7994 30.6553C74.5497 30.6553 74.9405 31.171 74.9405 32.3794Z" fill="white"/>
<path opacity="0.05" d="M17.8924 36.833L19.1742 29.3825L19.3617 36.833H20.8076L23.5118 29.3825L22.3161 36.833H24.4653L26.1223 26.958H22.7928L20.7217 33.0154L20.6122 26.958H17.5485L15.8682 36.833H17.8924Z" fill="white"/>
<path opacity="0.05" d="M50.2808 36.8483C50.8904 33.4155 51.0076 30.6293 52.4691 31.1373C52.7271 29.8057 52.9693 29.2977 53.2507 28.7359C53.2507 28.7359 53.1178 28.7051 52.8443 28.7051C51.9064 28.7051 51.203 29.9751 51.203 29.9751L51.3906 28.8128H49.4367L48.1237 36.8483H50.2808Z" fill="white"/>
<path opacity="0.05" d="M63.3495 28.6074C61.9114 28.6074 60.8016 29.0615 60.8016 29.0615L60.4968 30.8472C60.4968 30.8472 61.4112 30.4854 62.7867 30.4854C63.5683 30.4854 64.1388 30.5701 64.1388 31.2012C64.1388 31.5784 64.0685 31.7246 64.0685 31.7246C64.0685 31.7246 63.4511 31.6707 63.1619 31.6707C61.3408 31.6707 59.4338 32.4327 59.4338 34.7495C59.4338 36.5659 60.6843 36.9892 61.4659 36.9892C62.9509 36.9892 63.5839 36.0425 63.623 36.0348L63.5527 36.8276H65.405L66.2334 31.1089C66.2412 28.6844 64.0998 28.6074 63.3495 28.6074ZM63.8028 33.2563C63.8419 33.6026 63.5839 35.2421 62.31 35.2421C61.6613 35.2421 61.4893 34.7495 61.4893 34.457C61.4893 33.8874 61.802 33.2101 63.3416 33.2101C63.7012 33.2101 63.7402 33.2486 63.8028 33.2563Z" fill="white"/>
<path opacity="0.05" d="M67.929 36.8483C68.5386 33.4155 68.6558 30.6293 70.1173 31.1373C70.3753 29.8057 70.6175 29.2977 70.8989 28.7359C70.8989 28.7359 70.766 28.7051 70.4925 28.7051C69.5468 28.7051 68.8512 29.9751 68.8512 29.9751L69.0388 28.8128H67.0771L65.7719 36.8483H67.929Z" fill="white"/>
</g>
<path opacity="0.05" d="M81.5667 59.0406H9.26438C4.41088 59.0406 0.471802 55.1614 0.471802 50.3817V9.85811C0.471802 5.0784 4.41088 1.19922 9.26438 1.19922H81.5745C86.428 1.19922 90.3671 5.0784 90.3671 9.85811V50.3817C90.3593 55.1614 86.428 59.0406 81.5667 59.0406Z" fill="white"/>
<g opacity="0.6">
<path opacity="0.05" d="M32.0467 10.5223C21.2064 10.5916 12.4294 19.2967 12.4294 30.0106C12.4294 40.7631 21.2767 49.4912 32.1717 49.4912C37.2831 49.4912 41.9491 47.567 45.4583 44.4113C46.1773 43.7648 46.8494 43.0644 47.4669 42.3255H43.4262C42.8869 41.679 42.3945 41.0093 41.9569 40.3166H48.9284C49.3583 39.647 49.7334 38.9543 50.0773 38.2308H40.8002C40.4797 37.5612 40.2062 36.8762 39.9717 36.1835H50.8979C51.5545 34.2439 51.914 32.1657 51.914 30.0029C51.914 28.5713 51.7577 27.1782 51.4607 25.8313H39.3933C39.5418 25.1386 39.7294 24.4535 39.9561 23.7839H50.8901C50.6478 23.0681 50.3587 22.3754 50.0382 21.6981H40.7923C41.1284 20.9977 41.5036 20.3127 41.9256 19.6507H48.8971C48.436 18.9195 47.9202 18.2268 47.3653 17.5649H43.4809C44.0827 16.8645 44.747 16.2103 45.4583 15.5945C41.9491 12.4388 37.2909 10.5146 32.1717 10.5146C32.1326 10.5223 32.0857 10.5223 32.0467 10.5223Z" fill="white"/>
<path opacity="0.05" d="M78.4018 30.0098C78.4018 40.7699 69.5701 49.4981 58.6595 49.4981C47.7567 49.4981 38.9172 40.7776 38.9094 30.0175V30.0098C38.9094 19.2497 47.7411 10.5215 58.6439 10.5215C69.5467 10.5138 78.3862 19.242 78.394 30.0021C78.4018 30.0021 78.4018 30.0021 78.4018 30.0098Z" fill="white"/>
<path opacity="0.05" d="M78.4003 30.2266C78.4003 40.9867 69.5686 49.7149 58.658 49.7149C47.7552 49.7225 38.9158 40.9944 38.9158 30.2343V30.2266C38.9158 19.4665 47.7474 10.7383 58.6502 10.7383C69.553 10.7306 78.3925 19.4588 78.4003 30.2189V30.2266Z" fill="white"/>
<path opacity="0.05" d="M32.0469 10.7422C21.2066 10.8115 12.4297 19.5165 12.4297 30.2305C12.4297 40.9906 21.277 49.7188 32.172 49.7188C37.2834 49.7188 41.9493 47.7946 45.4585 44.6389C46.1775 43.9923 46.8497 43.2996 47.4671 42.553H43.4264C42.8872 41.9142 42.3948 41.2369 41.9571 40.5442H48.9286C49.3585 39.8746 49.7337 39.1741 50.0775 38.4583H40.8004C40.48 37.7887 40.2064 37.1037 39.9719 36.411H50.8982C51.5547 34.4637 51.9142 32.3856 51.9142 30.2305C51.9142 28.7989 51.7579 27.4057 51.4609 26.0588H39.3936C39.5421 25.3661 39.7297 24.6811 39.9563 24.0115H50.8904C50.6481 23.2957 50.3589 22.6029 50.0385 21.9256H40.7926C41.1287 21.2252 41.5038 20.5402 41.9258 19.8783H48.8974C48.4363 19.1471 47.9204 18.4544 47.3655 17.7925H43.4812C44.083 17.092 44.7473 16.4378 45.4585 15.8221C41.9493 12.6664 37.2912 10.7422 32.172 10.7422C32.1329 10.7422 32.086 10.7422 32.0469 10.7422Z" fill="white"/>
<path opacity="0.05" d="M39.2675 35.1908L39.5333 33.4282C39.3926 33.4282 39.1816 33.4898 38.994 33.4898C38.2593 33.4898 38.1812 33.1049 38.2281 32.8202L38.822 29.2181H39.9319L40.1976 27.2631H39.1503L39.3613 26.0547H37.2589C37.212 26.1009 36.0162 32.874 36.0162 33.6976C36.0162 34.9214 36.7118 35.4602 37.6888 35.4525C38.4625 35.4525 39.0643 35.2447 39.2675 35.1908Z" fill="white"/>
<path opacity="0.05" d="M39.9404 31.8266C39.9404 34.7591 41.9021 35.4595 43.5747 35.4595C45.1144 35.4595 45.7943 35.1208 45.7943 35.1208L46.1617 33.1197C46.1617 33.1197 44.9893 33.6353 43.9264 33.6353C41.6677 33.6353 42.0663 31.9728 42.0663 31.9728H46.3414C46.3414 31.9728 46.615 30.6259 46.615 30.0794C46.615 28.7171 45.9272 27.0469 43.6138 27.0469C41.5036 27.0392 39.9404 29.2867 39.9404 31.8266ZM43.6294 28.8941C44.8174 28.8941 44.5985 30.2103 44.5985 30.318H42.2617C42.2617 30.1795 42.4805 28.8941 43.6294 28.8941Z" fill="white"/>
<path opacity="0.05" d="M56.9395 35.1906L57.3147 32.9278C57.3147 32.9278 56.283 33.4435 55.5718 33.4435C54.079 33.4435 53.485 32.3197 53.485 31.1113C53.485 28.6638 54.7668 27.3091 56.197 27.3091C57.2678 27.3091 58.1275 27.9018 58.1275 27.9018L58.4714 25.7082C58.4714 25.7082 57.1974 25.2002 56.1032 25.2002C53.6726 25.2002 51.3123 27.2783 51.3123 31.1806C51.3123 33.7667 52.5862 35.4754 55.095 35.4754C55.8062 35.4754 56.9395 35.1906 56.9395 35.1906Z" fill="white"/>
<path opacity="0.05" d="M27.7097 27.0703C26.2716 27.0703 25.1618 27.5244 25.1618 27.5244L24.857 29.3101C24.857 29.3101 25.7714 28.9483 27.147 28.9483C27.9285 28.9483 28.4991 29.033 28.4991 29.6641C28.4991 30.0413 28.4287 30.1875 28.4287 30.1875C28.4287 30.1875 27.8113 30.1336 27.5221 30.1336C25.7011 30.1336 23.7941 30.8956 23.7941 33.2124C23.7941 35.0288 25.0446 35.4521 25.8261 35.4521C27.3111 35.4521 27.9442 34.5054 27.9832 34.4977L27.9129 35.2905H29.7652L30.5937 29.5718C30.6015 27.1473 28.4522 27.0703 27.7097 27.0703ZM28.163 31.7192C28.2021 32.0655 27.9442 33.705 26.678 33.705C26.0215 33.705 25.8574 33.2124 25.8574 32.9199C25.8574 32.3503 26.17 31.673 27.7097 31.673C28.0614 31.673 28.1005 31.7115 28.163 31.7192Z" fill="white"/>
<path opacity="0.05" d="M32.5626 35.4032C33.0315 35.4032 35.7435 35.5264 35.7435 32.7632C35.7435 30.1848 33.2347 30.6928 33.2347 29.6614C33.2347 29.1458 33.6411 28.9841 34.3914 28.9841C34.6884 28.9841 35.8295 29.0765 35.8295 29.0765L36.0952 27.2446C36.0952 27.2446 35.3606 27.083 34.157 27.083C32.6017 27.083 31.0229 27.6911 31.0229 29.7923C31.0229 32.1706 33.6568 31.932 33.6568 32.9326C33.6568 33.6022 32.9221 33.6561 32.3516 33.6561C31.3746 33.6561 30.4914 33.3251 30.4836 33.3405L30.2023 35.1493C30.257 35.1646 30.8041 35.4032 32.5626 35.4032Z" fill="white"/>
<path opacity="0.05" d="M74.346 25.4247L73.8927 28.2032C73.8927 28.2032 73.1033 27.1257 71.8607 27.1257C69.9302 27.1257 68.328 29.4193 68.328 32.0516C68.328 33.7526 69.1799 35.4151 70.9384 35.4151C72.1967 35.4151 72.8923 34.5454 72.8923 34.5454L72.7985 35.2843H74.8462L76.4562 25.417L74.346 25.4247ZM73.3769 30.8432C73.3769 31.9362 72.8298 33.3986 71.6887 33.3986C70.9306 33.3986 70.5789 32.7751 70.5789 31.7899C70.5789 30.1813 71.3136 29.1192 72.2358 29.1192C72.9861 29.1192 73.3769 29.6348 73.3769 30.8432Z" fill="white"/>
<path opacity="0.05" d="M16.3289 35.2978L17.6107 27.8473L17.7983 35.2978H19.2442L21.9484 27.8473L20.7526 35.2978H22.9019L24.5588 25.4229H21.2293L19.1582 31.4802L19.0488 25.4229H15.985L14.3047 35.2978H16.3289Z" fill="white"/>
<path opacity="0.05" d="M48.7172 35.3141C49.3268 31.8813 49.444 29.0951 50.9055 29.6031C51.1635 28.2715 51.4057 27.7636 51.6871 27.2017C51.6871 27.2017 51.5542 27.1709 51.2807 27.1709C50.3428 27.1709 49.6394 28.4409 49.6394 28.4409L49.827 27.2787H47.8731L46.5601 35.3141H48.7172Z" fill="white"/>
<path opacity="0.05" d="M61.7859 27.0703C60.3478 27.0703 59.238 27.5244 59.238 27.5244L58.9332 29.3101C58.9332 29.3101 59.8476 28.9483 61.2231 28.9483C62.0047 28.9483 62.5752 29.033 62.5752 29.6641C62.5752 30.0413 62.5049 30.1875 62.5049 30.1875C62.5049 30.1875 61.8875 30.1336 61.5983 30.1336C59.7772 30.1336 57.8702 30.8956 57.8702 33.2124C57.8702 35.0288 59.1207 35.4521 59.9023 35.4521C61.3873 35.4521 62.0203 34.5054 62.0594 34.4977L61.9891 35.2905H63.8414L64.6698 29.5718C64.6776 27.1473 62.5362 27.0703 61.7859 27.0703ZM62.2392 31.7192C62.2782 32.0655 62.0203 33.705 60.7464 33.705C60.0977 33.705 59.9257 33.2124 59.9257 32.9199C59.9257 32.3503 60.2384 31.673 61.778 31.673C62.1376 31.673 62.1766 31.7115 62.2392 31.7192Z" fill="white"/>
<path opacity="0.05" d="M66.3654 35.3141C66.975 31.8813 67.0922 29.0951 68.5537 29.6031C68.8117 28.2715 69.0539 27.7636 69.3353 27.2017C69.3353 27.2017 69.2024 27.1709 68.9289 27.1709C67.9832 27.1709 67.2876 28.4409 67.2876 28.4409L67.4752 27.2787H65.5135L64.2083 35.3141H66.3654Z" fill="white"/>
</g>
<path d="M81.5667 59.0406H9.26438C4.41088 59.0406 0.471802 55.1614 0.471802 50.3817V9.85811C0.471802 5.0784 4.41088 1.19922 9.26438 1.19922H81.5745C86.428 1.19922 90.3671 5.0784 90.3671 9.85811V50.3817C90.3593 55.1614 86.428 59.0406 81.5667 59.0406Z" stroke="white" stroke-width="0.75" stroke-miterlimit="10" stroke-linecap="round" stroke-linejoin="round"/>
<path d="M27.4514 26.8613C26.0133 26.8613 24.9035 27.3154 24.9035 27.3154L24.5987 29.1011C24.5987 29.1011 25.5131 28.7393 26.8887 28.7393C27.6702 28.7393 28.2408 28.824 28.2408 29.4551C28.2408 29.8323 28.1704 29.9785 28.1704 29.9785C28.1704 29.9785 27.553 29.9323 27.2638 29.9323C25.4428 29.9323 23.5358 30.6943 23.5358 33.0034C23.5358 34.8198 24.7863 35.2354 25.5678 35.2354C27.0528 35.2354 27.6937 34.2887 27.7249 34.2887L27.6546 35.0815H29.5069L30.3354 29.3782C30.3354 26.9383 28.1939 26.8613 27.4514 26.8613ZM26.4119 33.4806C25.7632 33.4806 25.5913 32.988 25.5913 32.6955C25.5913 32.1259 25.9039 31.4486 27.4436 31.4486C27.8031 31.4486 27.8422 31.4871 27.9047 31.4948C27.936 31.8489 27.678 33.4806 26.4119 33.4806Z" stroke="white" stroke-width="0.6418" stroke-miterlimit="10" stroke-linecap="round" stroke-linejoin="round"/>
<path d="M34.1331 28.7674C34.4301 28.7674 35.5712 28.8598 35.5712 28.8598L35.837 27.0357C35.837 27.0357 35.1023 26.874 33.8987 26.874C32.3434 26.874 30.7646 27.4821 30.7646 29.5756C30.7646 31.9462 33.3985 31.7076 33.3985 32.7082C33.3985 33.3701 32.6638 33.4317 32.0933 33.4317C31.1085 33.4317 30.2253 33.1007 30.2253 33.1161L29.944 34.9249C29.9909 34.9403 30.538 35.1789 32.3043 35.1789C32.7732 35.1789 35.4852 35.302 35.4852 32.5466C35.4852 29.9758 32.9842 30.4838 32.9842 29.4448C32.9764 28.9291 33.3828 28.7674 34.1331 28.7674Z" stroke="white" stroke-width="0.6418" stroke-miterlimit="10" stroke-linecap="round" stroke-linejoin="round"/>
<path d="M38.5574 29.0014H39.6672L39.9329 27.0541H38.8856L39.0967 25.8457H36.9943C36.9474 25.8919 35.7516 32.6574 35.7516 33.4732C35.7516 34.697 36.4472 35.2358 37.4241 35.2281C38.1901 35.2204 38.7919 35.0126 39.0029 34.9587L39.2686 33.1961C39.1279 33.1961 38.9169 33.2577 38.7293 33.2577C37.9947 33.2577 37.9165 32.8729 37.9634 32.5881L38.5574 29.0014Z" stroke="white" stroke-width="0.6418" stroke-miterlimit="10" stroke-linecap="round" stroke-linejoin="round"/>
<path d="M47.3649 17.6992H43.6134C43.1132 18.3688 42.6364 19.0846 42.2065 19.7774H48.8967C48.4356 19.0539 47.9198 18.3611 47.3649 17.6992Z" stroke="white" stroke-width="0.6418" stroke-miterlimit="10" stroke-linecap="round" stroke-linejoin="round"/>
<path d="M50.0388 21.8281H41.0352C40.4569 22.898 40.0817 23.7138 39.9723 23.914H50.8907C50.6406 23.1982 50.3593 22.5054 50.0388 21.8281Z" stroke="white" stroke-width="0.6418" stroke-miterlimit="10" stroke-linecap="round" stroke-linejoin="round"/>
<path d="M20.9647 25.2119L18.8935 31.2616L18.7841 25.2119H15.7204L14.04 35.0638H16.0643L17.346 27.6364L17.5336 35.0638H18.9795L21.6837 27.6364L20.4879 35.0638H22.6372L24.2941 25.2119H20.9647Z" stroke="white" stroke-width="0.6418" stroke-miterlimit="10" stroke-linecap="round" stroke-linejoin="round"/>
<path d="M61.5272 26.8613C60.0813 26.8613 58.9793 27.3154 58.9793 27.3154L58.6745 29.1011C58.6745 29.1011 59.5889 28.7393 60.9645 28.7393C61.746 28.7393 62.3244 28.824 62.3244 29.4551C62.3244 29.8323 62.2541 29.9785 62.2541 29.9785C62.2541 29.9785 61.6366 29.9323 61.3474 29.9323C59.5342 29.9323 57.6194 30.6943 57.6194 33.0034C57.6194 34.8198 58.8699 35.2354 59.6514 35.2354C61.1364 35.2354 61.7773 34.2887 61.8086 34.2887L61.7382 35.0815H63.5905L64.419 29.3782C64.4112 26.9383 62.2697 26.8613 61.5272 26.8613ZM60.4877 33.4806C59.8312 33.4806 59.6671 32.988 59.6671 32.6955C59.6671 32.1259 59.9797 31.4486 61.5194 31.4486C61.8789 31.4486 61.918 31.4871 61.9805 31.4948C62.0118 31.8489 61.7539 33.4806 60.4877 33.4806Z" stroke="white" stroke-width="0.6418" stroke-miterlimit="10" stroke-linecap="round" stroke-linejoin="round"/>
<path d="M76.6979 34.1564C76.6432 34.0563 76.5572 33.9794 76.4556 33.9255C76.354 33.8716 76.2524 33.8408 76.143 33.8408C76.0413 33.8408 75.9319 33.8716 75.8303 33.9255C75.7287 33.9794 75.6506 34.0563 75.5959 34.1564C75.5412 34.2564 75.5099 34.3642 75.5099 34.472C75.5099 34.5797 75.5412 34.6875 75.5959 34.7798C75.6506 34.8799 75.7287 34.9569 75.8303 35.0107C75.9319 35.0646 76.0335 35.0954 76.143 35.0954C76.2524 35.0954 76.3618 35.0646 76.4634 35.0107C76.565 34.9569 76.6432 34.8722 76.6979 34.7798C76.7526 34.6798 76.7838 34.5797 76.7838 34.472C76.7838 34.3642 76.7526 34.2564 76.6979 34.1564ZM76.6119 34.7336C76.565 34.8183 76.5025 34.8799 76.4165 34.9261C76.3305 34.9722 76.2446 34.9953 76.1508 34.9953C76.057 34.9953 75.971 34.9722 75.885 34.9261C75.7991 34.8799 75.7365 34.8183 75.6896 34.7336C75.6428 34.649 75.6193 34.5643 75.6193 34.472C75.6193 34.3796 75.6428 34.2949 75.6896 34.2103C75.7365 34.1256 75.7991 34.064 75.885 34.0178C75.971 33.9717 76.057 33.9486 76.143 33.9486C76.2289 33.9486 76.3149 33.9717 76.4009 34.0178C76.4868 34.064 76.5494 34.1256 76.5963 34.2103C76.6432 34.2949 76.6666 34.3796 76.6666 34.472C76.6822 34.5643 76.6588 34.649 76.6119 34.7336Z" stroke="white" stroke-width="0.6418" stroke-miterlimit="10" stroke-linecap="round" stroke-linejoin="round"/>
<path d="M76.3615 34.686C76.3225 34.6244 76.2834 34.5783 76.2599 34.5552C76.2443 34.5398 76.2287 34.5321 76.2052 34.5167C76.2599 34.509 76.3146 34.4936 76.3459 34.4551C76.3772 34.4166 76.4006 34.3781 76.4006 34.3243C76.4006 34.2935 76.3928 34.255 76.3693 34.2242C76.3459 34.1934 76.3225 34.1703 76.2834 34.1549C76.2521 34.1395 76.1896 34.1318 76.1114 34.1318H75.8691V34.8092H75.9786V34.5244H76.0411C76.0802 34.5244 76.1114 34.5321 76.1349 34.5475C76.1661 34.5706 76.2052 34.6244 76.2521 34.7091L76.3068 34.8169H76.4475L76.3615 34.686ZM76.1192 34.4397H75.9864V34.2319H76.1114C76.1661 34.2319 76.2052 34.2396 76.2209 34.2396C76.2365 34.2473 76.2521 34.255 76.2677 34.2781C76.2834 34.2935 76.2834 34.3089 76.2834 34.332C76.2834 34.3627 76.2677 34.3858 76.2521 34.4089C76.2208 34.432 76.1818 34.4397 76.1192 34.4397Z" stroke="white" stroke-width="0.6418" stroke-miterlimit="10" stroke-linecap="round" stroke-linejoin="round"/>
<path d="M68.6622 26.9531C67.7243 26.9531 67.0209 28.2154 67.0209 28.2154L67.2085 27.0532H65.2467L63.9415 35.0809H66.0986C66.7161 31.6559 66.8255 28.8696 68.287 29.3776C68.5449 28.0538 68.795 27.5381 69.0686 26.9762C69.0686 26.9839 68.9357 26.9531 68.6622 26.9531Z" stroke="white" stroke-width="0.6418" stroke-miterlimit="10" stroke-linecap="round" stroke-linejoin="round"/>
<path d="M74.0868 25.2227L73.6334 27.9935C73.6334 27.9935 72.8441 26.916 71.6014 26.916C69.6709 26.916 68.0687 29.2019 68.0687 31.8342C68.0687 33.5275 68.9284 35.19 70.6713 35.19C71.9296 35.19 72.6252 34.328 72.6252 34.328L72.5314 35.0669H74.5791L76.1892 25.2227H74.0868ZM71.4216 33.1734C70.6635 33.1734 70.3118 32.55 70.3118 31.5648C70.3118 29.9562 71.0465 28.9017 71.9687 28.9017C72.7268 28.9017 73.1098 29.4174 73.1098 30.6181C73.1098 31.7187 72.5627 33.1734 71.4216 33.1734Z" stroke="white" stroke-width="0.6418" stroke-miterlimit="10" stroke-linecap="round" stroke-linejoin="round"/>
<path d="M78.3931 30.1159C78.3931 40.853 69.5614 49.558 58.6586 49.5657C53.5628 49.5657 48.9125 47.6646 45.4033 44.5397C41.9019 47.6646 37.2594 49.5657 32.1715 49.5657C21.2765 49.558 12.4292 40.853 12.4292 30.1159C12.4292 19.4251 21.2061 10.7431 32.0464 10.6738C32.0855 10.6738 32.1324 10.6738 32.1715 10.6738C37.2594 10.6738 41.9019 12.5749 45.4111 15.6998C48.9125 12.5749 53.555 10.6738 58.6508 10.6738C69.5536 10.6661 78.3931 19.3712 78.4009 30.1159C78.3931 30.1082 78.3931 30.1082 78.3931 30.1159Z" stroke="white" stroke-width="0.6418" stroke-miterlimit="10" stroke-linecap="round" stroke-linejoin="round"/>
<path d="M43.3873 42.4092C44.0126 43.1635 44.6769 43.8793 45.4038 44.5335C45.4194 44.5181 45.435 44.5027 45.4507 44.495H45.4585C46.1775 43.8485 46.8496 43.1558 47.4671 42.4169H43.3873V42.4092Z" stroke="white" stroke-width="0.6418" stroke-miterlimit="10" stroke-linecap="round" stroke-linejoin="round"/>
<path d="M46.0768 31.7406C46.0768 31.7406 46.3503 30.4014 46.3503 29.8549C46.3503 28.4926 45.6625 26.8301 43.3569 26.8301C41.2467 26.8301 39.6758 29.0775 39.6758 31.6098C39.6758 34.5346 41.6375 35.2273 43.31 35.2273C44.8497 35.2273 45.5297 34.8886 45.5297 34.8886L45.897 32.8952C45.897 32.8952 44.7247 33.4031 43.6617 33.4031C41.403 33.4031 41.8016 31.7483 41.8016 31.7483L46.0768 31.7406ZM43.3648 28.685C44.5527 28.685 44.3339 30.0012 44.3339 30.1012H41.997C41.997 29.9627 42.2159 28.685 43.3648 28.685Z" stroke="white" stroke-width="0.6418" stroke-miterlimit="10" stroke-linecap="round" stroke-linejoin="round"/>
<path d="M55.932 27.0972C57.0027 27.0972 57.8625 27.6899 57.8625 27.6899L58.2063 25.4963C58.2063 25.4963 56.9324 24.9883 55.8382 24.9883C53.4154 24.9883 51.0551 27.0587 51.0551 30.9533C51.0551 33.5317 52.329 35.2404 54.8378 35.2404C55.549 35.2404 56.6745 34.9556 56.6745 34.9556L57.0496 32.7005C57.0496 32.7005 56.018 33.2085 55.3146 33.2085C53.8218 33.2085 53.22 32.0847 53.22 30.884C53.22 28.4364 54.5017 27.0972 55.932 27.0972Z" stroke="white" stroke-width="0.6418" stroke-miterlimit="10" stroke-linecap="round" stroke-linejoin="round"/>
<path d="M40.7524 38.3281C41.0963 39.0516 41.4949 39.7366 41.917 40.4063H48.9198C49.3418 39.7366 49.7248 39.0439 50.0687 38.3281H40.7524Z" stroke="white" stroke-width="0.6418" stroke-miterlimit="10" stroke-linecap="round" stroke-linejoin="round"/>
<path d="M51.0161 26.9583C50.0782 26.9583 49.3748 28.2205 49.3748 28.2205L49.5623 27.0583H47.6084L46.2954 35.0861H48.4525C49.0621 31.661 49.1794 28.8748 50.6409 29.3828C50.8988 28.0589 51.1411 27.5432 51.4225 26.9814C51.4225 26.9814 51.2896 26.9506 51.0161 26.9583Z" stroke="white" stroke-width="0.6418" stroke-miterlimit="10" stroke-linecap="round" stroke-linejoin="round"/>
</svg>
