<svg width="265" height="42" viewBox="0 0 265 42" fill="none" xmlns="http://www.w3.org/2000/svg">
<path d="M13.2712 40.7557L13.2181 33.9608L9.97994 39.3755H7.75038L4.51221 34.1732V40.7026H0V25.8389H4.14061L8.97133 33.7485L13.6959 25.8389H17.8365L17.8896 40.7026H13.2712V40.7557Z" fill="white"/>
<path d="M26.2757 39.2719C25.0016 38.0509 24.3646 36.2991 24.3646 34.0696V25.8945H29.3546V33.9103C29.3546 35.0251 29.5669 35.7683 29.9385 36.2991C30.3101 36.7769 30.894 37.0423 31.6372 37.0423C32.3804 37.0423 32.9113 36.7769 33.3359 36.2991C33.7075 35.8214 33.9199 35.0251 33.9199 33.9103V25.8945H38.8568V34.0696C38.8568 36.2991 38.2197 37.9979 36.9457 39.2719C35.6717 40.4928 33.9199 41.1299 31.6372 41.1299C29.3546 41.1299 27.5497 40.4928 26.2757 39.2719Z" fill="white"/>
<path d="M51.4377 35.8745L50.3229 37.1485V40.8114H45.386V25.9476H50.3229V31.3623L55.2067 25.8945H60.6744L54.7289 32.477L60.9929 40.8114H55.2067L51.4377 35.8745Z" fill="white"/>
<path d="M68.8506 40.121C67.5766 39.4309 66.568 38.5285 65.8779 37.3606C65.1347 36.1928 64.8162 34.8657 64.8162 33.3793C64.8162 31.8929 65.1878 30.5658 65.8779 29.3979C66.621 28.2301 67.5766 27.2745 68.8506 26.6375C70.1246 25.9474 71.5579 25.6289 73.1505 25.6289C74.743 25.6289 76.1763 25.9474 77.4503 26.6375C78.7244 27.3276 79.733 28.2301 80.4231 29.3979C81.1663 30.5658 81.4848 31.8929 81.4848 33.3793C81.4848 34.8657 81.1132 36.1928 80.4231 37.3606C79.6799 38.5285 78.7244 39.484 77.4503 40.121C76.1763 40.8111 74.743 41.1297 73.1505 41.1297C71.5579 41.1297 70.1246 40.8111 68.8506 40.121ZM74.8492 36.6175C75.3269 36.2989 75.7516 35.8743 76.0701 35.3434C76.3886 34.7595 76.4948 34.1225 76.4948 33.3793C76.4948 32.6361 76.3356 31.9991 76.0701 31.4151C75.7516 30.8312 75.38 30.4065 74.8492 30.1411C74.3714 29.8226 73.7875 29.6633 73.1505 29.6633C72.5135 29.6633 71.9826 29.8226 71.4518 30.1411C70.974 30.4596 70.5493 30.8843 70.2308 31.4151C69.9123 31.9991 69.8061 32.6361 69.8061 33.3793C69.8061 34.1225 69.9654 34.7595 70.2308 35.3434C70.5493 35.9274 70.9209 36.352 71.4518 36.6175C71.9295 36.936 72.5135 37.0952 73.1505 37.0952C73.7875 37.0421 74.3183 36.936 74.8492 36.6175Z" fill="white"/>
<path d="M102.985 25.8945L96.7208 40.7583H91.7839L85.4668 25.8945H90.8814L94.4381 34.6004L98.0479 25.8945H102.985Z" fill="white"/>
<path d="M110.946 40.121C109.672 39.4309 108.663 38.5285 107.973 37.3606C107.23 36.1928 106.911 34.8657 106.911 33.3793C106.911 31.8929 107.283 30.5658 107.973 29.3979C108.716 28.2301 109.672 27.2745 110.946 26.6375C112.22 25.9474 113.653 25.6289 115.246 25.6289C116.838 25.6289 118.272 25.9474 119.546 26.6375C120.82 27.3276 121.828 28.2301 122.518 29.3979C123.261 30.5658 123.58 31.8929 123.58 33.3793C123.58 34.8657 123.208 36.1928 122.518 37.3606C121.775 38.5285 120.82 39.484 119.546 40.121C118.272 40.8111 116.838 41.1297 115.246 41.1297C113.653 41.1297 112.22 40.8111 110.946 40.121ZM116.944 36.6175C117.422 36.2989 117.847 35.8743 118.165 35.3434C118.484 34.7595 118.59 34.1225 118.59 33.3793C118.59 32.6361 118.431 31.9991 118.165 31.4151C117.847 30.8312 117.475 30.4065 116.944 30.1411C116.467 29.8226 115.883 29.6633 115.246 29.6633C114.609 29.6633 114.078 29.8226 113.547 30.1411C113.069 30.4596 112.645 30.8843 112.326 31.4151C112.008 31.9991 111.901 32.6361 111.901 33.3793C111.901 34.1225 112.061 34.7595 112.326 35.3434C112.645 35.9274 113.016 36.352 113.547 36.6175C114.025 36.936 114.609 37.0952 115.246 37.0952C115.883 37.0421 116.467 36.936 116.944 36.6175Z" fill="white"/>
<path d="M142.744 36.8831V40.7583H129.101V37.6793L135.896 29.8228H129.313V25.8945H142.425V28.9734L135.63 36.8831H142.744Z" fill="white"/>
<path d="M148.904 40.2252C148.373 39.6943 148.108 39.0573 148.108 38.261C148.108 37.4648 148.373 36.7747 148.904 36.2969C149.435 35.8191 150.125 35.5537 150.921 35.5537C151.718 35.5537 152.408 35.8191 152.939 36.2969C153.469 36.7747 153.735 37.4648 153.735 38.261C153.735 39.0573 153.469 39.7474 152.939 40.2252C152.408 40.756 151.718 41.0214 150.921 41.0214C150.125 40.9684 149.435 40.756 148.904 40.2252Z" fill="white"/>
<path d="M159.575 25.8945H166.901C168.546 25.8945 170.033 26.213 171.307 26.797C172.581 27.3809 173.536 28.2833 174.279 29.3981C174.97 30.5129 175.341 31.84 175.341 33.3264C175.341 34.8659 174.97 36.1399 174.279 37.2547C173.589 38.3695 172.581 39.2188 171.307 39.8558C170.033 40.4398 168.599 40.7583 166.901 40.7583H159.575V25.8945ZM166.688 36.8831C167.75 36.8831 168.599 36.5646 169.289 35.9806C169.926 35.3436 170.245 34.4943 170.245 33.3795C170.245 32.2647 169.926 31.4153 169.289 30.7783C168.652 30.1413 167.803 29.8228 166.688 29.8228H164.565V36.8831H166.688Z" fill="white"/>
<path d="M193.759 36.9892V40.7583H181.39V25.8945H193.493V29.6636H186.327V31.4153H192.591V35.0251H186.327V36.9892H193.759Z" fill="white"/>
<path d="M201.879 40.7014C200.711 40.436 199.756 40.0644 199.012 39.5866L200.605 35.9238C201.295 36.3485 202.091 36.667 202.994 36.9324C203.896 37.1978 204.692 37.304 205.542 37.304C206.232 37.304 206.71 37.2509 207.028 37.0917C207.347 36.9324 207.453 36.7732 207.453 36.5077C207.453 36.1892 207.24 35.9769 206.869 35.8176C206.497 35.6584 205.86 35.4991 204.958 35.2868C203.79 35.0214 202.834 34.809 202.091 34.4905C201.348 34.2251 200.658 33.7473 200.074 33.1103C199.49 32.4733 199.225 31.6239 199.225 30.5622C199.225 29.6067 199.49 28.7574 200.021 28.0142C200.552 27.271 201.348 26.634 202.357 26.2093C203.418 25.7846 204.639 25.5723 206.126 25.5723C207.134 25.5723 208.143 25.6784 209.152 25.8908C210.16 26.1031 211.009 26.4216 211.753 26.8463L210.213 30.5091C208.78 29.766 207.4 29.3944 206.073 29.3944C204.799 29.3944 204.162 29.7129 204.162 30.3499C204.162 30.6684 204.374 30.8807 204.745 31.04C205.117 31.1993 205.754 31.3585 206.657 31.5178C207.771 31.7301 208.727 31.9955 209.523 32.2609C210.319 32.5264 210.956 33.0041 211.54 33.5881C212.124 34.2251 212.39 35.0744 212.39 36.1361C212.39 37.0917 212.124 37.941 211.593 38.6842C211.063 39.4274 210.266 40.0644 209.258 40.4891C208.196 40.9138 206.975 41.1792 205.489 41.1792C204.215 41.1261 203.047 40.9668 201.879 40.7014Z" fill="white"/>
<path d="M218.124 25.8945H223.114V40.7583H218.124V25.8945Z" fill="white"/>
<path d="M239.625 32.9527H243.978V39.2167C243.076 39.8007 242.067 40.2784 240.899 40.5969C239.731 40.9154 238.617 41.0747 237.502 41.0747C235.909 41.0747 234.476 40.7562 233.255 40.0661C231.981 39.4291 231.026 38.4735 230.282 37.3057C229.592 36.1378 229.221 34.7576 229.221 33.2712C229.221 31.7849 229.592 30.4047 230.282 29.2368C230.973 28.0689 231.981 27.1134 233.255 26.4764C234.529 25.8394 235.962 25.4678 237.608 25.4678C239.041 25.4678 240.369 25.7332 241.536 26.211C242.704 26.6887 243.66 27.4319 244.403 28.3344L241.218 31.1478C240.262 30.0331 239.148 29.5022 237.874 29.5022C236.759 29.5022 235.909 29.8207 235.219 30.5108C234.582 31.2009 234.264 32.1034 234.264 33.2181C234.264 34.3329 234.582 35.2354 235.219 35.9255C235.856 36.6156 236.706 36.9341 237.82 36.9341C238.457 36.9341 239.041 36.8279 239.625 36.5625V32.9527Z" fill="white"/>
<path d="M264.998 25.8945V40.7583H260.858L255.231 34.0165V40.7583H250.347V25.8945H254.488L260.115 32.6894V25.8945H264.998Z" fill="white"/>
<path d="M87.6062 9.588V12.468H86.4902V10.632H79.5782L79.5662 12.468H78.4502L78.4622 9.588H78.8702C79.3982 9.556 79.7702 9.14 79.9862 8.34C80.2022 7.532 80.3342 6.396 80.3822 4.932L80.4662 2.232H86.3702V9.588H87.6062ZM81.4382 5.04C81.3982 6.224 81.3022 7.204 81.1502 7.98C81.0062 8.756 80.7702 9.292 80.4422 9.588H85.1822V3.276H81.4982L81.4382 5.04Z" fill="white"/>
<path d="M89.8467 2.232H91.0347V8.712L96.0027 2.232H97.1067V10.632H95.9307V4.164L90.9507 10.632H89.8467V2.232Z" fill="white"/>
<path d="M104.346 6.252C104.874 6.396 105.286 6.648 105.582 7.008C105.878 7.36 106.026 7.784 106.026 8.28C106.026 8.776 105.866 9.212 105.546 9.588C105.234 9.956 104.814 10.24 104.286 10.44C103.766 10.632 103.198 10.728 102.582 10.728C102.022 10.728 101.466 10.644 100.914 10.476C100.362 10.308 99.8576 10.056 99.4016 9.72L99.8216 8.832C100.19 9.12 100.602 9.336 101.058 9.48C101.514 9.624 101.974 9.696 102.438 9.696C103.11 9.696 103.674 9.556 104.13 9.276C104.586 8.988 104.814 8.596 104.814 8.1C104.814 7.676 104.642 7.352 104.298 7.128C103.954 6.896 103.47 6.78 102.846 6.78H100.974V5.808H102.762C103.298 5.808 103.714 5.7 104.01 5.484C104.314 5.26 104.466 4.952 104.466 4.56C104.466 4.12 104.27 3.772 103.878 3.516C103.486 3.26 102.99 3.132 102.39 3.132C101.998 3.132 101.598 3.188 101.19 3.3C100.79 3.412 100.41 3.58 100.05 3.804L99.6656 2.82C100.09 2.58 100.538 2.4 101.01 2.28C101.482 2.16 101.954 2.1 102.426 2.1C103.018 2.1 103.562 2.192 104.058 2.376C104.554 2.56 104.946 2.828 105.234 3.18C105.53 3.532 105.678 3.944 105.678 4.416C105.678 4.84 105.558 5.212 105.318 5.532C105.086 5.852 104.762 6.092 104.346 6.252Z" fill="white"/>
<path d="M114.085 8.532H109.621L108.697 10.632H107.461L111.265 2.232H112.453L116.269 10.632H115.009L114.085 8.532ZM113.665 7.572L111.853 3.456L110.041 7.572H113.665Z" fill="white"/>
<path d="M118.319 2.232H119.507V8.712L124.475 2.232H125.579V10.632H124.403V4.164L119.423 10.632H118.319V2.232ZM121.931 1.644C121.275 1.644 120.767 1.504 120.407 1.224C120.055 0.936 119.875 0.528 119.867 0H120.719C120.727 0.312 120.835 0.556 121.043 0.732C121.259 0.9 121.555 0.984 121.931 0.984C122.291 0.984 122.579 0.9 122.795 0.732C123.019 0.556 123.135 0.312 123.143 0H123.983C123.975 0.52 123.791 0.924 123.431 1.212C123.079 1.5 122.579 1.644 121.931 1.644Z" fill="white"/>
<path d="M136.022 2.232V10.632H134.822V6.888H129.998V10.632H128.798V2.232H129.998V5.844H134.822V2.232H136.022Z" fill="white"/>
<path d="M146.82 10.728C145.98 10.728 145.22 10.544 144.54 10.176C143.868 9.8 143.34 9.288 142.956 8.64C142.572 7.984 142.38 7.248 142.38 6.432C142.38 5.616 142.572 4.884 142.956 4.236C143.34 3.58 143.872 3.068 144.552 2.7C145.232 2.324 145.992 2.136 146.832 2.136C147.488 2.136 148.088 2.248 148.632 2.472C149.176 2.688 149.64 3.012 150.024 3.444L149.244 4.2C148.612 3.536 147.824 3.204 146.88 3.204C146.256 3.204 145.692 3.344 145.188 3.624C144.684 3.904 144.288 4.292 144 4.788C143.72 5.276 143.58 5.824 143.58 6.432C143.58 7.04 143.72 7.592 144 8.088C144.288 8.576 144.684 8.96 145.188 9.24C145.692 9.52 146.256 9.66 146.88 9.66C147.816 9.66 148.604 9.324 149.244 8.652L150.024 9.408C149.64 9.84 149.172 10.168 148.62 10.392C148.076 10.616 147.476 10.728 146.82 10.728Z" fill="white"/>
<path d="M157.538 8.532H153.074L152.15 10.632H150.914L154.718 2.232H155.906L159.722 10.632H158.462L157.538 8.532ZM157.118 7.572L155.306 3.456L153.494 7.572H157.118Z" fill="white"/>
<path d="M161.772 2.232H162.96V8.712L167.928 2.232H169.032V10.632H167.856V4.164L162.876 10.632H161.772V2.232ZM165.384 1.644C164.728 1.644 164.22 1.504 163.86 1.224C163.508 0.936 163.328 0.528 163.32 0H164.172C164.18 0.312 164.288 0.556 164.496 0.732C164.712 0.9 165.008 0.984 165.384 0.984C165.744 0.984 166.032 0.9 166.248 0.732C166.472 0.556 166.588 0.312 166.596 0H167.436C167.428 0.52 167.244 0.924 166.884 1.212C166.532 1.5 166.032 1.644 165.384 1.644Z" fill="white"/>
<path d="M178.023 3.276H175.143V10.632H173.967V3.276H171.099V2.232H178.023V3.276Z" fill="white"/>
<path d="M186.594 2.232L182.862 9.156C182.566 9.708 182.218 10.12 181.818 10.392C181.418 10.664 180.982 10.8 180.51 10.8C180.142 10.8 179.766 10.716 179.382 10.548L179.694 9.588C179.99 9.692 180.254 9.744 180.486 9.744C181.014 9.744 181.45 9.464 181.794 8.904L181.986 8.604L178.602 2.232H179.886L182.61 7.56L185.406 2.232H186.594Z" fill="white"/>
</svg>
