<svg width="114" height="35" fill="none" xmlns="http://www.w3.org/2000/svg"><g opacity=".5"><path d="M100.385 15.184h-3.84v6.303c0 1.794.952 2.128 2.188 2.128.43 0 .893-.06 1.363-.122l.289 2.824c-1.006.177-2.35.327-3.22.327-2.649 0-4.997-.916-4.997-4.133v-7.327h-2.23V12.4h2.23V9.33l4.376-1.228v4.298h3.841v2.783zM88.607 26.358H84.23v-8.964c0-1.318-.559-2.046-2.064-2.046-1.131 0-1.865.54-2.682 1.188v9.823h-4.378V12.402h4.253v1.228c1.426-.95 3.06-1.555 4.83-1.555 2.792 0 4.42 1.72 4.42 4.338v9.945h-.002z" fill="#000"/><path d="M66.272.524c-2.215 3.72-1.252 7.087-3.419 9.233-1.739 1.725-3.352 1.67-5.25 1.67-.66 0-1.943.057-2.479.442-.31-.981-.446-2.064-.446-3.094 0-1.77.401-3.344 1.685-4.617 2.46-2.437 6.916-3.212 9.91-3.634z" fill="#818181"/><path d="M42.608 26.358h-4.376v-8.964c0-1.318-.56-2.046-2.064-2.046-1.132 0-1.865.54-2.685 1.188v9.823h-4.376V12.402h4.253v1.228c1.426-.95 3.062-1.555 4.83-1.555 2.791 0 4.42 1.72 4.42 4.338v9.945h-.002zM28.202 12.4l-7.02 16.904c-1.077 2.598-3.244 4.502-6.193 4.502-1.476 0-2.257-.191-3.22-.408l.619-2.784c.777.173 1.362.247 1.9.247 1.76 0 2.695-1.485 3.55-3.52l.413-.982-5.45-13.957h4.707l2.559 6.916c.31.835.482 1.69.62 2.292a25.85 25.85 0 01.784-2.414l2.643-6.794h4.088V12.4z" fill="#000"/><path d="M12.739 21.898c0 3.038-2.831 4.706-6.194 4.706-2.189 0-3.956-.362-5.821-1.104l1.198-2.825c1.11.445 2.706.942 4.005.942 1.016 0 2.435-.122 2.435-1.35 0-.573-.363-.869-1.032-1.064-.838-.245-2.124-.464-2.974-.696-1.785-.488-3.262-1.417-3.262-4.01 0-2.879 2.477-4.667 5.864-4.667 2.237 0 3.657.294 4.914.655l-1.116 2.823c-.555-.249-2.112-.613-3.22-.613-1.203 0-2.023.456-2.023 1.186 0 .362.226.82.867 1.024.687.219 1.773.416 2.684.613 1.866.405 3.675 1.467 3.675 4.38zM113.816 26.357h-4.129v-1.104c-1.072.941-2.462 1.39-4.005 1.39-2.62 0-4.418-1.256-4.418-3.888 0-4.626 4.659-5.344 8.299-5.362v-.368c0-1.15-.438-1.965-2.518-1.965-1.403 0-3.001.69-4.047 1.31l-1.073-2.579c1.86-1 4.168-1.719 6.359-1.719 3.361 0 5.534 1.593 5.534 4.38v9.905h-.002zm-4.254-3.724v-2.579c-2.028-.033-3.923.168-3.923 2.088 0 1.186 1.009 1.555 1.775 1.555.91 0 1.612-.45 2.148-1.064zM73.184 18.867c0 .462-.014.939-.04 1.433H63.81c.04 2.03 1.062 3.233 4.047 3.233 1.323 0 2.912-.596 3.592-1.064l1.156 2.579a13.06 13.06 0 01-6.317 1.597c-4.375 0-7.1-2.792-7.1-7.245 0-4.525 3.574-7.327 7.431-7.327 4.807 0 6.564 2.783 6.564 6.794zm-4.5-1.35c.075-1.538-.704-2.497-2.23-2.497-1.473 0-2.352 1.073-2.6 2.497h4.83zM59.197 28.076c0 4.07-4.094 5.956-8.135 5.975-3.555.017-6.978-.998-6.978-4.38 0-1.582 1.415-2.64 2.272-3.191-.475-.27-.908-.481-1.28-.9-.392-.442-.702-1.087-.702-2.17 0-1.365 1.215-2.626 2.685-3.438-.817-.425-1.9-1.11-1.9-3.396 0-2.975 2.847-4.544 6.565-4.544 3.16 0 6.194.75 6.194 4.42 0 3.507-3.325 4.788-6.69 4.788-.627 0-1.187-.098-1.735-.204-.359.19-1.073.66-1.073 1.186 0 1.073 1.475 1.228 2.146 1.228h3.469c3.217.002 5.162 1.548 5.162 4.626zm-5.532-11.418c0-1.17-.651-2.128-2.107-2.128-1.329 0-2.146 1.114-2.146 2.128 0 1.17.736 2.128 2.064 2.128 1.46 0 2.189-.962 2.189-2.128zm1.156 11.991c0-1.137-.92-1.555-1.858-1.555h-3.84c-.586.331-1.486 1.057-1.486 2.006 0 1.225 1.664 2.047 3.634 2.047 2.036-.001 3.55-.93 3.55-2.498z" fill="#000"/></g></svg>