<svg width="1024" height="576" viewBox="0 0 1024 576" fill="none" xmlns="http://www.w3.org/2000/svg">
<g filter="url(#filter0_d)">
<path d="M45.0005 322.708C45.0005 324.089 43.8812 325.208 42.5005 325.208C41.1198 325.208 40.0005 324.089 40.0005 322.708C40.0005 321.327 41.1198 320.208 42.5005 320.208C43.8812 320.208 45.0005 321.327 45.0005 322.708Z" fill="white" fill-opacity="0.1"/>
</g>
<g filter="url(#filter1_d)">
<path d="M201 394C201 395.38 199.881 396.5 198.5 396.5C197.119 396.5 196 395.38 196 394C196 392.619 197.119 391.5 198.5 391.5C199.881 391.5 201 392.619 201 394Z" fill="white" fill-opacity="0.1"/>
</g>
<g filter="url(#filter2_d)">
<path d="M358 213.5C358 214.881 356.881 216 355.5 216C354.119 216 353 214.881 353 213.5C353 212.119 354.119 211 355.5 211C356.881 211 358 212.119 358 213.5Z" fill="white" fill-opacity="0.1"/>
</g>
<g filter="url(#filter3_d)">
<path d="M515 292.5C515 293.88 513.881 295 512.5 295C511.119 295 510 293.88 510 292.5C510 291.119 511.119 290 512.5 290C513.881 290 515 291.119 515 292.5Z" fill="white" fill-opacity="0.1"/>
</g>
<g filter="url(#filter4_d)">
<path d="M672 68.7075C672 70.0882 670.881 71.2075 669.5 71.2075C668.119 71.2075 667 70.0882 667 68.7075C667 67.3268 668.119 66.2075 669.5 66.2075C670.881 66.2075 672 67.3268 672 68.7075Z" fill="white" fill-opacity="0.1"/>
</g>
<g filter="url(#filter5_d)">
<path d="M828 231.499C828 232.88 826.881 233.999 825.5 233.999C824.119 233.999 823 232.88 823 231.499C823 230.119 824.119 228.999 825.5 228.999C826.881 228.999 828 230.119 828 231.499Z" fill="white" fill-opacity="0.1"/>
</g>
<g filter="url(#filter6_d)">
<path d="M984 79.0005C984 80.3812 982.881 81.5005 981.5 81.5005C980.119 81.5005 979 80.3812 979 79.0005C979 77.6198 980.119 76.5005 981.5 76.5005C982.881 76.5005 984 77.6198 984 79.0005Z" fill="white" fill-opacity="0.1"/>
</g>
<path d="M-184 458.5L42.5 323.5L198.5 394L355.5 213.5L512.5 292.5L669.5 68.9998L826 232L981.5 79.4998L1308 164.5" stroke="white" stroke-opacity="0.2"/>
<path d="M-71 483L43 197L198.5 319.5L356 268.5L513 418.5L669 236.5L825.5 459.5L981.5 13.5L1343.5 351" stroke="white" stroke-opacity="0.2"/>
<g filter="url(#filter7_d)">
<path d="M45 196.55C45 197.93 43.8807 199.05 42.5 199.05C41.1193 199.05 40 197.93 40 196.55C40 195.169 41.1193 194.05 42.5 194.05C43.8807 194.05 45 195.169 45 196.55Z" fill="white" fill-opacity="0.1"/>
</g>
<g filter="url(#filter8_d)">
<path d="M201 319.5C201 320.881 199.881 322 198.5 322C197.119 322 196 320.881 196 319.5C196 318.119 197.119 317 198.5 317C199.881 317 201 318.119 201 319.5Z" fill="white" fill-opacity="0.1"/>
</g>
<g filter="url(#filter9_d)">
<path d="M358 268C358 269.381 356.881 270.5 355.5 270.5C354.119 270.5 353 269.381 353 268C353 266.619 354.119 265.5 355.5 265.5C356.881 265.5 358 266.619 358 268Z" fill="white" fill-opacity="0.1"/>
</g>
<g filter="url(#filter10_d)">
<path d="M515 418.5C515 419.881 513.881 421 512.5 421C511.12 421 510 419.881 510 418.5C510 417.119 511.12 416 512.5 416C513.881 416 515 417.119 515 418.5Z" fill="white" fill-opacity="0.1"/>
</g>
<g filter="url(#filter11_d)">
<path d="M672 236C672 237.381 670.881 238.5 669.5 238.5C668.119 238.5 667 237.381 667 236C667 234.619 668.119 233.5 669.5 233.5C670.881 233.5 672 234.619 672 236Z" fill="white" fill-opacity="0.1"/>
</g>
<g filter="url(#filter12_d)">
<path d="M827.999 460C827.999 461.381 826.88 462.5 825.499 462.5C824.118 462.5 822.999 461.381 822.999 460C822.999 458.619 824.118 457.5 825.499 457.5C826.88 457.5 827.999 458.619 827.999 460Z" fill="white" fill-opacity="0.1"/>
</g>
<g filter="url(#filter13_d)">
<path d="M984 12.9993C984 14.38 982.881 15.4993 981.5 15.4993C980.119 15.4993 979 14.38 979 12.9993C979 11.6186 980.119 10.4993 981.5 10.4993C982.881 10.4993 984 11.6186 984 12.9993Z" fill="white" fill-opacity="0.1"/>
</g>
<path d="M-77 377.5L42.5 108L198.5 508.5L355.5 397L512.5 563.5L669.5 346.5L825.5 415L981.5 278.5L1345 383.5" stroke="white" stroke-opacity="0.2"/>
<g filter="url(#filter14_d)">
<circle cx="42.5" cy="107.5" r="2.5" fill="white" fill-opacity="0.1"/>
</g>
<g filter="url(#filter15_d)">
<path d="M201 508.5C201 509.881 199.881 511 198.5 511C197.119 511 196 509.881 196 508.5C196 507.12 197.119 506 198.5 506C199.881 506 201 507.12 201 508.5Z" fill="white" fill-opacity="0.1"/>
</g>
<g filter="url(#filter16_d)">
<path d="M358 397C358 398.38 356.881 399.5 355.5 399.5C354.119 399.5 353 398.38 353 397C353 395.619 354.119 394.5 355.5 394.5C356.881 394.5 358 395.619 358 397Z" fill="white" fill-opacity="0.1"/>
</g>
<g filter="url(#filter17_d)">
<path d="M515 563.5C515 564.881 513.881 566 512.5 566C511.119 566 510 564.881 510 563.5C510 562.119 511.119 561 512.5 561C513.881 561 515 562.119 515 563.5Z" fill="white" fill-opacity="0.1"/>
</g>
<g filter="url(#filter18_d)">
<path d="M672 346C672 347.38 670.881 348.5 669.5 348.5C668.119 348.5 667 347.38 667 346C667 344.619 668.119 343.5 669.5 343.5C670.881 343.5 672 344.619 672 346Z" fill="white" fill-opacity="0.1"/>
</g>
<g filter="url(#filter19_d)">
<path d="M828 415C828 416.381 826.881 417.5 825.5 417.5C824.12 417.5 823 416.381 823 415C823 413.619 824.12 412.5 825.5 412.5C826.881 412.5 828 413.619 828 415Z" fill="white" fill-opacity="0.1"/>
</g>
<g filter="url(#filter20_d)">
<path d="M984 278.5C984 279.88 982.881 281 981.5 281C980.119 281 979 279.88 979 278.5C979 277.119 980.119 276 981.5 276C982.881 276 984 277.119 984 278.5Z" fill="white" fill-opacity="0.1"/>
</g>
<defs>
<filter id="filter0_d" x="30.0005" y="310.208" width="25" height="25" filterUnits="userSpaceOnUse" color-interpolation-filters="sRGB">
<feFlood flood-opacity="0" result="BackgroundImageFix"/>
<feColorMatrix in="SourceAlpha" type="matrix" values="0 0 0 0 0 0 0 0 0 0 0 0 0 0 0 0 0 0 127 0"/>
<feOffset/>
<feGaussianBlur stdDeviation="5"/>
<feColorMatrix type="matrix" values="0 0 0 0 1 0 0 0 0 1 0 0 0 0 1 0 0 0 0.5 0"/>
<feBlend mode="normal" in2="BackgroundImageFix" result="effect1_dropShadow"/>
<feBlend mode="normal" in="SourceGraphic" in2="effect1_dropShadow" result="shape"/>
</filter>
<filter id="filter1_d" x="186" y="381.5" width="25" height="25" filterUnits="userSpaceOnUse" color-interpolation-filters="sRGB">
<feFlood flood-opacity="0" result="BackgroundImageFix"/>
<feColorMatrix in="SourceAlpha" type="matrix" values="0 0 0 0 0 0 0 0 0 0 0 0 0 0 0 0 0 0 127 0"/>
<feOffset/>
<feGaussianBlur stdDeviation="5"/>
<feColorMatrix type="matrix" values="0 0 0 0 1 0 0 0 0 1 0 0 0 0 1 0 0 0 0.5 0"/>
<feBlend mode="normal" in2="BackgroundImageFix" result="effect1_dropShadow"/>
<feBlend mode="normal" in="SourceGraphic" in2="effect1_dropShadow" result="shape"/>
</filter>
<filter id="filter2_d" x="343" y="201" width="25" height="25" filterUnits="userSpaceOnUse" color-interpolation-filters="sRGB">
<feFlood flood-opacity="0" result="BackgroundImageFix"/>
<feColorMatrix in="SourceAlpha" type="matrix" values="0 0 0 0 0 0 0 0 0 0 0 0 0 0 0 0 0 0 127 0"/>
<feOffset/>
<feGaussianBlur stdDeviation="5"/>
<feColorMatrix type="matrix" values="0 0 0 0 1 0 0 0 0 1 0 0 0 0 1 0 0 0 0.5 0"/>
<feBlend mode="normal" in2="BackgroundImageFix" result="effect1_dropShadow"/>
<feBlend mode="normal" in="SourceGraphic" in2="effect1_dropShadow" result="shape"/>
</filter>
<filter id="filter3_d" x="500" y="280" width="25" height="25" filterUnits="userSpaceOnUse" color-interpolation-filters="sRGB">
<feFlood flood-opacity="0" result="BackgroundImageFix"/>
<feColorMatrix in="SourceAlpha" type="matrix" values="0 0 0 0 0 0 0 0 0 0 0 0 0 0 0 0 0 0 127 0"/>
<feOffset/>
<feGaussianBlur stdDeviation="5"/>
<feColorMatrix type="matrix" values="0 0 0 0 1 0 0 0 0 1 0 0 0 0 1 0 0 0 0.5 0"/>
<feBlend mode="normal" in2="BackgroundImageFix" result="effect1_dropShadow"/>
<feBlend mode="normal" in="SourceGraphic" in2="effect1_dropShadow" result="shape"/>
</filter>
<filter id="filter4_d" x="657" y="56.2075" width="25" height="25" filterUnits="userSpaceOnUse" color-interpolation-filters="sRGB">
<feFlood flood-opacity="0" result="BackgroundImageFix"/>
<feColorMatrix in="SourceAlpha" type="matrix" values="0 0 0 0 0 0 0 0 0 0 0 0 0 0 0 0 0 0 127 0"/>
<feOffset/>
<feGaussianBlur stdDeviation="5"/>
<feColorMatrix type="matrix" values="0 0 0 0 1 0 0 0 0 1 0 0 0 0 1 0 0 0 0.5 0"/>
<feBlend mode="normal" in2="BackgroundImageFix" result="effect1_dropShadow"/>
<feBlend mode="normal" in="SourceGraphic" in2="effect1_dropShadow" result="shape"/>
</filter>
<filter id="filter5_d" x="813" y="218.999" width="25" height="25" filterUnits="userSpaceOnUse" color-interpolation-filters="sRGB">
<feFlood flood-opacity="0" result="BackgroundImageFix"/>
<feColorMatrix in="SourceAlpha" type="matrix" values="0 0 0 0 0 0 0 0 0 0 0 0 0 0 0 0 0 0 127 0"/>
<feOffset/>
<feGaussianBlur stdDeviation="5"/>
<feColorMatrix type="matrix" values="0 0 0 0 1 0 0 0 0 1 0 0 0 0 1 0 0 0 0.5 0"/>
<feBlend mode="normal" in2="BackgroundImageFix" result="effect1_dropShadow"/>
<feBlend mode="normal" in="SourceGraphic" in2="effect1_dropShadow" result="shape"/>
</filter>
<filter id="filter6_d" x="969" y="66.5005" width="25" height="25" filterUnits="userSpaceOnUse" color-interpolation-filters="sRGB">
<feFlood flood-opacity="0" result="BackgroundImageFix"/>
<feColorMatrix in="SourceAlpha" type="matrix" values="0 0 0 0 0 0 0 0 0 0 0 0 0 0 0 0 0 0 127 0"/>
<feOffset/>
<feGaussianBlur stdDeviation="5"/>
<feColorMatrix type="matrix" values="0 0 0 0 1 0 0 0 0 1 0 0 0 0 1 0 0 0 0.5 0"/>
<feBlend mode="normal" in2="BackgroundImageFix" result="effect1_dropShadow"/>
<feBlend mode="normal" in="SourceGraphic" in2="effect1_dropShadow" result="shape"/>
</filter>
<filter id="filter7_d" x="30" y="184.05" width="25" height="25" filterUnits="userSpaceOnUse" color-interpolation-filters="sRGB">
<feFlood flood-opacity="0" result="BackgroundImageFix"/>
<feColorMatrix in="SourceAlpha" type="matrix" values="0 0 0 0 0 0 0 0 0 0 0 0 0 0 0 0 0 0 127 0"/>
<feOffset/>
<feGaussianBlur stdDeviation="5"/>
<feColorMatrix type="matrix" values="0 0 0 0 1 0 0 0 0 1 0 0 0 0 1 0 0 0 0.5 0"/>
<feBlend mode="normal" in2="BackgroundImageFix" result="effect1_dropShadow"/>
<feBlend mode="normal" in="SourceGraphic" in2="effect1_dropShadow" result="shape"/>
</filter>
<filter id="filter8_d" x="186" y="307" width="25" height="25" filterUnits="userSpaceOnUse" color-interpolation-filters="sRGB">
<feFlood flood-opacity="0" result="BackgroundImageFix"/>
<feColorMatrix in="SourceAlpha" type="matrix" values="0 0 0 0 0 0 0 0 0 0 0 0 0 0 0 0 0 0 127 0"/>
<feOffset/>
<feGaussianBlur stdDeviation="5"/>
<feColorMatrix type="matrix" values="0 0 0 0 1 0 0 0 0 1 0 0 0 0 1 0 0 0 0.5 0"/>
<feBlend mode="normal" in2="BackgroundImageFix" result="effect1_dropShadow"/>
<feBlend mode="normal" in="SourceGraphic" in2="effect1_dropShadow" result="shape"/>
</filter>
<filter id="filter9_d" x="343" y="255.5" width="25" height="25" filterUnits="userSpaceOnUse" color-interpolation-filters="sRGB">
<feFlood flood-opacity="0" result="BackgroundImageFix"/>
<feColorMatrix in="SourceAlpha" type="matrix" values="0 0 0 0 0 0 0 0 0 0 0 0 0 0 0 0 0 0 127 0"/>
<feOffset/>
<feGaussianBlur stdDeviation="5"/>
<feColorMatrix type="matrix" values="0 0 0 0 1 0 0 0 0 1 0 0 0 0 1 0 0 0 0.5 0"/>
<feBlend mode="normal" in2="BackgroundImageFix" result="effect1_dropShadow"/>
<feBlend mode="normal" in="SourceGraphic" in2="effect1_dropShadow" result="shape"/>
</filter>
<filter id="filter10_d" x="500" y="406" width="25" height="25" filterUnits="userSpaceOnUse" color-interpolation-filters="sRGB">
<feFlood flood-opacity="0" result="BackgroundImageFix"/>
<feColorMatrix in="SourceAlpha" type="matrix" values="0 0 0 0 0 0 0 0 0 0 0 0 0 0 0 0 0 0 127 0"/>
<feOffset/>
<feGaussianBlur stdDeviation="5"/>
<feColorMatrix type="matrix" values="0 0 0 0 1 0 0 0 0 1 0 0 0 0 1 0 0 0 0.5 0"/>
<feBlend mode="normal" in2="BackgroundImageFix" result="effect1_dropShadow"/>
<feBlend mode="normal" in="SourceGraphic" in2="effect1_dropShadow" result="shape"/>
</filter>
<filter id="filter11_d" x="657" y="223.5" width="25" height="25" filterUnits="userSpaceOnUse" color-interpolation-filters="sRGB">
<feFlood flood-opacity="0" result="BackgroundImageFix"/>
<feColorMatrix in="SourceAlpha" type="matrix" values="0 0 0 0 0 0 0 0 0 0 0 0 0 0 0 0 0 0 127 0"/>
<feOffset/>
<feGaussianBlur stdDeviation="5"/>
<feColorMatrix type="matrix" values="0 0 0 0 1 0 0 0 0 1 0 0 0 0 1 0 0 0 0.5 0"/>
<feBlend mode="normal" in2="BackgroundImageFix" result="effect1_dropShadow"/>
<feBlend mode="normal" in="SourceGraphic" in2="effect1_dropShadow" result="shape"/>
</filter>
<filter id="filter12_d" x="812.999" y="447.5" width="25" height="25" filterUnits="userSpaceOnUse" color-interpolation-filters="sRGB">
<feFlood flood-opacity="0" result="BackgroundImageFix"/>
<feColorMatrix in="SourceAlpha" type="matrix" values="0 0 0 0 0 0 0 0 0 0 0 0 0 0 0 0 0 0 127 0"/>
<feOffset/>
<feGaussianBlur stdDeviation="5"/>
<feColorMatrix type="matrix" values="0 0 0 0 1 0 0 0 0 1 0 0 0 0 1 0 0 0 0.5 0"/>
<feBlend mode="normal" in2="BackgroundImageFix" result="effect1_dropShadow"/>
<feBlend mode="normal" in="SourceGraphic" in2="effect1_dropShadow" result="shape"/>
</filter>
<filter id="filter13_d" x="969" y="0.499268" width="25" height="25" filterUnits="userSpaceOnUse" color-interpolation-filters="sRGB">
<feFlood flood-opacity="0" result="BackgroundImageFix"/>
<feColorMatrix in="SourceAlpha" type="matrix" values="0 0 0 0 0 0 0 0 0 0 0 0 0 0 0 0 0 0 127 0"/>
<feOffset/>
<feGaussianBlur stdDeviation="5"/>
<feColorMatrix type="matrix" values="0 0 0 0 1 0 0 0 0 1 0 0 0 0 1 0 0 0 0.5 0"/>
<feBlend mode="normal" in2="BackgroundImageFix" result="effect1_dropShadow"/>
<feBlend mode="normal" in="SourceGraphic" in2="effect1_dropShadow" result="shape"/>
</filter>
<filter id="filter14_d" x="30" y="95" width="25" height="25" filterUnits="userSpaceOnUse" color-interpolation-filters="sRGB">
<feFlood flood-opacity="0" result="BackgroundImageFix"/>
<feColorMatrix in="SourceAlpha" type="matrix" values="0 0 0 0 0 0 0 0 0 0 0 0 0 0 0 0 0 0 127 0"/>
<feOffset/>
<feGaussianBlur stdDeviation="5"/>
<feColorMatrix type="matrix" values="0 0 0 0 1 0 0 0 0 1 0 0 0 0 1 0 0 0 0.5 0"/>
<feBlend mode="normal" in2="BackgroundImageFix" result="effect1_dropShadow"/>
<feBlend mode="normal" in="SourceGraphic" in2="effect1_dropShadow" result="shape"/>
</filter>
<filter id="filter15_d" x="186" y="496" width="25" height="25" filterUnits="userSpaceOnUse" color-interpolation-filters="sRGB">
<feFlood flood-opacity="0" result="BackgroundImageFix"/>
<feColorMatrix in="SourceAlpha" type="matrix" values="0 0 0 0 0 0 0 0 0 0 0 0 0 0 0 0 0 0 127 0"/>
<feOffset/>
<feGaussianBlur stdDeviation="5"/>
<feColorMatrix type="matrix" values="0 0 0 0 1 0 0 0 0 1 0 0 0 0 1 0 0 0 0.5 0"/>
<feBlend mode="normal" in2="BackgroundImageFix" result="effect1_dropShadow"/>
<feBlend mode="normal" in="SourceGraphic" in2="effect1_dropShadow" result="shape"/>
</filter>
<filter id="filter16_d" x="343" y="384.5" width="25" height="25" filterUnits="userSpaceOnUse" color-interpolation-filters="sRGB">
<feFlood flood-opacity="0" result="BackgroundImageFix"/>
<feColorMatrix in="SourceAlpha" type="matrix" values="0 0 0 0 0 0 0 0 0 0 0 0 0 0 0 0 0 0 127 0"/>
<feOffset/>
<feGaussianBlur stdDeviation="5"/>
<feColorMatrix type="matrix" values="0 0 0 0 1 0 0 0 0 1 0 0 0 0 1 0 0 0 0.5 0"/>
<feBlend mode="normal" in2="BackgroundImageFix" result="effect1_dropShadow"/>
<feBlend mode="normal" in="SourceGraphic" in2="effect1_dropShadow" result="shape"/>
</filter>
<filter id="filter17_d" x="500" y="551" width="25" preserveAspectRatio="none" height="25" filterUnits="userSpaceOnUse" color-interpolation-filters="sRGB">
<feFlood flood-opacity="0" result="BackgroundImageFix"/>
<feColorMatrix in="SourceAlpha" type="matrix" values="0 0 0 0 0 0 0 0 0 0 0 0 0 0 0 0 0 0 127 0"/>
<feOffset/>
<feGaussianBlur stdDeviation="5"/>
<feColorMatrix type="matrix" values="0 0 0 0 1 0 0 0 0 1 0 0 0 0 1 0 0 0 0.5 0"/>
<feBlend mode="normal" in2="BackgroundImageFix" result="effect1_dropShadow"/>
<feBlend mode="normal" in="SourceGraphic" in2="effect1_dropShadow" result="shape"/>
</filter>
<filter id="filter18_d" x="657" y="333.5" width="25" height="25" filterUnits="userSpaceOnUse" color-interpolation-filters="sRGB">
<feFlood flood-opacity="0" result="BackgroundImageFix"/>
<feColorMatrix in="SourceAlpha" type="matrix" values="0 0 0 0 0 0 0 0 0 0 0 0 0 0 0 0 0 0 127 0"/>
<feOffset/>
<feGaussianBlur stdDeviation="5"/>
<feColorMatrix type="matrix" values="0 0 0 0 1 0 0 0 0 1 0 0 0 0 1 0 0 0 0.5 0"/>
<feBlend mode="normal" in2="BackgroundImageFix" result="effect1_dropShadow"/>
<feBlend mode="normal" in="SourceGraphic" in2="effect1_dropShadow" result="shape"/>
</filter>
<filter id="filter19_d" x="813" y="402.5" width="25" height="25" filterUnits="userSpaceOnUse" color-interpolation-filters="sRGB">
<feFlood flood-opacity="0" result="BackgroundImageFix"/>
<feColorMatrix in="SourceAlpha" type="matrix" values="0 0 0 0 0 0 0 0 0 0 0 0 0 0 0 0 0 0 127 0"/>
<feOffset/>
<feGaussianBlur stdDeviation="5"/>
<feColorMatrix type="matrix" values="0 0 0 0 1 0 0 0 0 1 0 0 0 0 1 0 0 0 0.5 0"/>
<feBlend mode="normal" in2="BackgroundImageFix" result="effect1_dropShadow"/>
<feBlend mode="normal" in="SourceGraphic" in2="effect1_dropShadow" result="shape"/>
</filter>
<filter id="filter20_d" x="969" y="266" width="25" height="25" filterUnits="userSpaceOnUse" color-interpolation-filters="sRGB">
<feFlood flood-opacity="0" result="BackgroundImageFix"/>
<feColorMatrix in="SourceAlpha" type="matrix" values="0 0 0 0 0 0 0 0 0 0 0 0 0 0 0 0 0 0 127 0"/>
<feOffset/>
<feGaussianBlur stdDeviation="5"/>
<feColorMatrix type="matrix" values="0 0 0 0 1 0 0 0 0 1 0 0 0 0 1 0 0 0 0.5 0"/>
<feBlend mode="normal" in2="BackgroundImageFix" result="effect1_dropShadow"/>
<feBlend mode="normal" in="SourceGraphic" in2="effect1_dropShadow" result="shape"/>
</filter>
</defs>
</svg>
