<svg width="870" height="491" viewBox="0 0 870 491" fill="none" xmlns="http://www.w3.org/2000/svg">
<path opacity="0.26" d="M289.745 6.5178C291.092 7.29994 293.275 7.29994 294.622 6.5178C294.676 6.48521 294.72 6.44176 294.774 6.40917L370.131 49.9155V104.068L271.679 47.2215V48.1122L388.533 115.582L334.196 130.171L397.223 166.562L386.067 173.004L324.713 137.58L324.908 137.243L266.53 103.535V96.1702L254.679 89.3265L309.016 113.518L271.669 91.9553V92.8461L308.244 113.964L253.908 88.8811L238.819 80.169C239.797 79.3868 239.688 78.3005 238.471 77.5944C237.124 76.8123 234.941 76.8123 233.594 77.5944C232.247 78.3766 232.247 79.6367 233.594 80.408C234.81 81.114 236.701 81.1684 238.048 80.6035L265.759 96.5938V103.959L323.659 137.384H296.773L217.343 91.5208V92.4116L295.23 137.384H217.343V138.156H324.224L385.296 173.417L373.737 180.087L329.471 154.526L329.384 154.472H217.343V155.243H296.74L272.592 169.18H217.343V169.952H272.809L298.294 155.243H329.188L372.988 180.532L362.82 186.398L324.061 164.02L323.974 163.966H308.364L276.687 182.249H217.354V183.02H276.894L308.57 164.737H323.768L351.914 180.989H337.846L324.115 173.059H313.459L289.745 186.746C288.398 186.214 286.562 186.29 285.367 186.985C284.02 187.767 284.02 189.027 285.367 189.798C286.714 190.581 288.897 190.581 290.244 189.798C291.483 189.081 291.57 187.963 290.527 187.18L313.665 173.819H323.909L337.64 181.749H353.25L362.049 186.833L347.731 195.1H326.625L300.488 210.188C299.141 209.623 297.251 209.689 296.034 210.384C294.687 211.166 294.687 212.426 296.034 213.197C297.381 213.979 299.565 213.979 300.912 213.197C302.128 212.491 302.237 211.405 301.259 210.623L326.831 195.86H346.395L339.66 199.749L350.121 205.789L321.812 222.127H292.048L260.654 203.996C261.631 203.214 261.523 202.128 260.306 201.422C258.959 200.64 256.775 200.64 255.428 201.422C254.081 202.204 254.081 203.464 255.428 204.235C256.645 204.941 258.535 204.996 259.882 204.431L276.046 213.762H217.343V214.653L217.538 214.533H277.383L291.743 222.822L291.83 222.876H320.465L308.722 229.655H241.372L223.991 239.692H217.343V240.463H222.655L217.343 243.527V244.418L241.589 230.426H308.94L350.882 206.212L370.435 217.499L321.638 245.667H269.116L217.343 275.562V276.453L269.322 246.438H320.291L255.841 283.655V313.441L217.343 335.667V336.558L256.612 313.887V284.1L371.206 217.944L388.022 227.656L319.151 267.415V327.281L280.305 349.713H281.847L319.922 327.726V267.86L388.794 228.101L399.168 234.098L348.133 263.558V333.733L323.605 347.899V349.724H324.376V348.344L348.905 334.179V264.004L399.939 234.543L413.941 242.625L374.9 265.166V349.713H375.671V313.724L395.246 325.021V349.713H396.017V324.576L375.671 312.822V292.117L401.427 306.988C400.526 307.76 400.667 308.824 401.851 309.509C403.198 310.291 405.381 310.291 406.728 309.509C408.075 308.727 408.075 307.466 406.728 306.695C405.479 305.978 403.535 305.935 402.177 306.543L375.66 291.237V265.611L414.702 243.071L427.172 250.273L408.195 261.234V277.376L412.985 280.146V288.369L447.182 308.118V322.055L475.024 338.133C474.046 338.915 474.155 340.001 475.372 340.707C476.719 341.489 478.902 341.489 480.249 340.707C481.596 339.925 481.596 338.665 480.249 337.894C479.032 337.188 477.142 337.133 475.795 337.698L447.953 321.621V307.684L413.757 287.935V280.602L471.244 313.789C470.342 314.56 470.483 315.625 471.667 316.309C473.014 317.091 475.198 317.091 476.545 316.309C477.892 315.527 477.892 314.267 476.545 313.495C475.296 312.778 473.351 312.735 471.993 313.343L425.902 286.74H449.029L475.545 302.046C474.568 302.828 474.676 303.914 475.893 304.62C477.24 305.402 479.424 305.402 480.771 304.62C482.118 303.838 482.118 302.578 480.771 301.807C479.554 301.101 477.664 301.046 476.317 301.611L449.322 286.023L449.235 285.969H424.663V286.012L408.988 276.963V261.711L427.965 250.762L431.724 252.934L436.612 250.11L516.282 296.104L516.369 296.158H538.095C538.225 296.538 538.54 296.886 539.04 297.179C540.387 297.961 542.57 297.961 543.917 297.179C545.264 296.397 545.264 295.137 543.917 294.366C542.57 293.584 540.387 293.584 539.04 294.366C538.54 294.659 538.225 295.017 538.095 295.387H516.575L437.373 249.664L449.485 242.669L515.695 280.896C514.717 281.678 514.826 282.764 516.043 283.47C517.39 284.252 519.573 284.252 520.92 283.47C522.267 282.688 522.267 281.428 520.92 280.657C519.704 279.951 517.813 279.896 516.466 280.461L450.256 242.234L462.803 234.988L556.355 288.999V334.222L529.426 349.767H530.969L547.013 340.501L563.058 349.767H564.6L547.784 340.055L557.116 334.667V299.102L572.932 308.238V330.453L605.098 349.028C604.804 349.256 604.631 349.517 604.533 349.778H611.257C611.127 349.409 610.812 349.061 610.323 348.778C609.106 348.072 607.216 348.018 605.869 348.583L573.704 330.007V307.792L557.116 298.211V288.554L463.564 234.543L477.349 226.581L658.717 331.289V349.767H659.489V330.844L478.12 226.135L489.276 219.693L582.752 273.661L582.839 273.715H650.853L680.856 291.042H680.682V309.444L714.662 329.062C713.684 329.844 713.793 330.931 715.01 331.637C716.357 332.419 718.54 332.419 719.887 331.637C721.234 330.855 721.234 329.594 719.887 328.823C718.67 328.117 716.78 328.063 715.433 328.628L681.454 309.009V291.389L733.01 321.154L733.096 321.208H847.321L869.112 308.629V307.738L847.115 320.437H733.303L651.157 273.009L651.07 272.955H583.057L490.058 219.259L499.879 213.588L588.336 264.655L588.423 264.71H666.474L704.494 286.653C703.516 287.435 703.625 288.521 704.842 289.227C706.189 290.01 708.372 290.01 709.719 289.227C711.066 288.445 711.066 287.185 709.719 286.414C708.503 285.708 706.612 285.654 705.265 286.218L666.778 263.993L666.691 263.938H588.64L575.55 256.378H679.857L762.34 208.754C763.687 209.319 765.577 209.254 766.793 208.559C768.14 207.777 768.14 206.517 766.793 205.745C765.446 204.963 763.263 204.963 761.916 205.745C760.699 206.451 760.591 207.538 761.568 208.32L679.65 255.617H574.214L541.223 236.574L554.183 229.09H577.18L577.603 227.46C578.95 228.025 580.841 227.96 582.057 227.265C583.404 226.483 583.404 225.223 582.057 224.451C580.71 223.669 578.527 223.669 577.18 224.451C575.963 225.157 575.854 226.244 576.832 227.026L576.973 228.329H555.519L584.523 210.199H630.865L656.719 225.125C655.741 225.907 655.85 226.993 657.066 227.699C658.413 228.482 660.597 228.482 661.944 227.699C663.291 226.917 663.291 225.657 661.944 224.886C660.727 224.18 658.837 224.125 657.49 224.69L631.158 209.493L631.071 209.439H584.306L540.43 236.151L512.806 220.204H528.057L540.332 213.121C541.679 213.708 543.602 213.654 544.841 212.947C546.188 212.165 546.188 210.905 544.841 210.134C543.494 209.352 541.31 209.352 539.963 210.134C538.768 210.829 538.638 211.894 539.572 212.676L527.851 219.444H511.469L500.639 213.186L523.766 199.836L516.521 195.654L556.421 172.624H569.728L585.62 181.803C584.643 182.585 584.751 183.672 585.968 184.378C587.315 185.16 589.498 185.16 590.845 184.378C592.192 183.596 592.192 182.336 590.845 181.564C589.629 180.858 587.739 180.804 586.392 181.369L570.021 171.918L569.934 171.864H556.203L527.21 188.603V173.276L554.389 157.579C555.736 158.144 557.626 158.078 558.843 157.383C560.19 156.601 560.19 155.341 558.843 154.57C557.496 153.788 555.312 153.788 553.965 154.57C552.749 155.276 552.64 156.362 553.618 157.144L526.439 172.841V189.06L515.739 195.241L478.109 173.515L495.566 163.434H518.204L553.998 142.772H581.156L583.296 141.947C582.318 142.729 582.427 143.815 583.643 144.521C584.99 145.304 587.174 145.304 588.521 144.521C589.868 143.739 589.868 142.479 588.521 141.708C587.304 141.002 585.414 140.947 584.067 141.512L581.449 142.066L581.362 142.012H553.824L518.031 162.673H496.935L591.139 102.036L609.617 75.6608L656.295 48.7097L656.491 48.6011V7.16958C657.479 7.22389 658.5 7.03922 659.261 6.6047C660.608 5.82257 660.608 4.56246 659.261 3.79118C657.914 3.00905 655.73 3.00905 654.383 3.79118C653.036 4.57332 653.036 5.83343 654.383 6.6047C654.774 6.83283 655.23 6.98491 655.719 7.07181V48.1557L609.421 74.8895L590.943 101.265L477.381 173.08L463.281 164.944L588.705 92.5311L588.901 92.4224V49.1442L631.81 24.3657C633.157 24.9306 635.047 24.8654 636.264 24.1702C637.611 23.388 637.611 22.1279 636.264 21.3567C634.917 20.5745 632.733 20.5745 631.386 21.3567C630.169 22.0628 630.061 23.1491 631.039 23.9312L588.314 48.5902L588.119 48.6988V91.9771L462.499 164.498L447.693 155.949L521.268 113.475L521.463 113.366V76.2257L395.072 3.16113C396.05 2.379 395.941 1.2927 394.725 0.586602C393.378 -0.195534 391.194 -0.195534 389.847 0.586602C388.5 1.36874 388.5 2.62885 389.847 3.40012C391.064 4.10622 392.954 4.16053 394.301 3.59565L487.234 57.248H459.294L409.183 28.3198C410.161 27.5377 410.052 26.4514 408.836 25.7453C407.489 24.9632 405.305 24.9632 403.958 25.7453C402.611 26.5275 402.611 27.7876 403.958 28.5588C405.175 29.2649 407.065 29.3192 408.412 28.7544L459.001 57.9541L459.088 58.0084H488.57L520.692 76.5516V112.801L461.467 146.998V128.575L497.858 107.565L498.054 107.457V88.805C498.803 88.7616 499.531 88.5769 500.107 88.2402C501.454 87.458 501.454 86.1979 500.107 85.4267C498.76 84.6445 496.576 84.6445 495.229 85.4267C493.882 86.2088 493.882 87.4689 495.229 88.2402C495.805 88.5769 496.533 88.7507 497.282 88.805V107.011L460.891 128.02L460.696 128.129V147.444L446.932 155.395L431.735 146.618L422.512 151.941V111.715L454.612 93.1828C455.959 93.7477 457.85 93.6825 459.066 92.9873C460.413 92.2052 460.413 90.9451 459.066 90.1738C457.719 89.3917 455.536 89.3917 454.189 90.1738C452.972 90.8799 452.864 91.9662 453.841 92.7483L421.937 111.172L421.741 111.281V127.695L397.745 113.833V98.2667L450.083 68.0459C451.43 68.6107 453.32 68.5456 454.536 67.8503C455.883 67.0682 455.883 65.8081 454.536 65.0368C453.189 64.2655 451.006 64.2547 449.659 65.0368C448.442 65.7429 448.334 66.8292 449.311 67.6113L397.158 97.7236L396.962 97.8322V114.29L421.73 128.596V152.408L408.597 159.99L397.495 153.581V139.014L380.657 129.291C381.635 128.509 381.526 127.423 380.309 126.717C378.962 125.935 376.779 125.935 375.432 126.717C374.085 127.499 374.085 128.759 375.432 129.53C376.649 130.237 378.539 130.291 379.886 129.726L396.723 139.448V153.125L360.007 131.92V99.9939L415.267 68.0893L415.462 67.9807V55.9771L384.209 37.9336C385.187 37.1515 385.078 36.0652 383.862 35.3591C382.515 34.5769 380.331 34.5769 378.984 35.3591C377.637 36.1412 377.637 37.4013 378.984 38.1726C380.201 38.8787 382.091 38.933 383.438 38.3681L414.691 56.4116V67.5462L359.431 99.4508L359.235 99.5594V132.377L407.836 160.436L398.016 166.106L334.989 129.715L389.326 115.126L370.924 104.502V49.4593L295.393 5.85516C295.904 5.1382 295.654 4.28002 294.644 3.69342C293.297 2.91128 291.113 2.91128 289.766 3.69342C288.398 4.47555 288.398 5.73566 289.745 6.5178ZM431.724 147.53L522.256 199.803L431.735 252.065L341.203 199.792L431.724 147.53Z" fill="#50935F"/>
<g opacity="0.82">
<path opacity="0.82" d="M1.53811 153.81L260.697 297.777L524.581 159.676L276.687 25.7023L1.53811 153.81Z" stroke="#50935F" stroke-width="0.5984" stroke-miterlimit="10"/>
<path opacity="0.82" d="M343.386 254.498L83.174 118.33" stroke="#50935F" stroke-width="0.5984" stroke-miterlimit="10"/>
<path opacity="0.82" d="M318.205 48.145L121.411 138.341" stroke="#50935F" stroke-width="0.5984" stroke-miterlimit="10"/>
<path opacity="0.82" d="M442.652 202.552L235.929 85.8505" stroke="#50935F" stroke-width="0.5984" stroke-miterlimit="10"/>
<path opacity="0.82" d="M408.771 104.111L331.665 144.467" stroke="#50935F" stroke-width="0.5984" stroke-miterlimit="10"/>
<path opacity="0.82" d="M273.352 68.6978L374.899 121.84" stroke="#50935F" stroke-width="0.5984" stroke-miterlimit="10"/>
<path opacity="0.82" d="M156.368 122.317L117.424 101.938" stroke="#50935F" stroke-width="0.5984" stroke-miterlimit="10"/>
<path opacity="0.82" d="M232.399 196.414L155.695 236.564" stroke="#50935F" stroke-width="0.5984" stroke-miterlimit="10"/>
<path opacity="0.82" d="M468.854 132.995L389.304 174.633" stroke="#50935F" stroke-width="0.5984" stroke-miterlimit="10"/>
<path opacity="0.82" d="M389.304 174.633L287.463 225.233" stroke="#50935F" stroke-width="0.5984" stroke-miterlimit="10"/>
<path opacity="0.82" d="M364.612 243.396L308.592 214.729" stroke="#50935F" stroke-width="0.5984" stroke-miterlimit="10"/>
<path opacity="0.1" d="M389.304 174.633L442.652 202.551L524.581 159.675L468.854 132.995L389.304 174.633Z" fill="#50935F"/>
<path opacity="0.1" d="M442.652 202.552L197.518 64.1569L276.687 25.7019L524.581 159.675L442.652 202.552Z" fill="#50935F"/>
<path opacity="0.1" d="M91.5494 203.822L260.697 297.777L343.386 254.498L169.046 163.26L91.5494 203.822Z" fill="#50935F"/>
<path opacity="0.1" d="M233.387 47.6452L273.352 68.6977L318.205 48.1449L276.687 25.7019L233.387 47.6452Z" fill="#50935F"/>
<path opacity="0.1" d="M235.929 85.8504L331.664 144.467L374.899 121.84L273.352 68.6978L235.929 85.8504Z" fill="#50935F"/>
<path opacity="0.1" d="M179.322 254.498L261.349 297.429L343.386 254.498L261.349 211.568L179.322 254.498Z" fill="#50935F"/>
</g>
<g opacity="0.8">
<path opacity="0.8" d="M455.296 487.651L317.542 408.123C315.239 406.787 313.86 404.397 313.86 401.735C313.86 399.074 315.239 396.684 317.542 395.348L566.783 251.446L567.706 250.913L712.217 337.481C714.52 338.817 715.899 341.207 715.899 343.868C715.899 346.54 714.52 348.919 712.217 350.256L479.673 487.651C475.979 489.78 471.764 490.91 467.484 490.91C463.193 490.91 458.979 489.791 455.296 487.651ZM710.381 347.084C711.532 346.41 712.228 345.215 712.228 343.879C712.228 342.543 711.532 341.348 710.381 340.674L567.945 255.291L567.706 255.161L319.378 398.531C318.216 399.204 317.531 400.399 317.531 401.735C317.531 403.072 318.227 404.266 319.378 404.94L457.132 484.468C463.4 488.085 471.558 488.085 477.837 484.468L710.381 347.084Z" fill="#375344"/>
</g>
<path d="M568.011 203.866L534.857 21.2913L537.519 20.1724L533.51 17.8803L533.521 17.902C532.739 17.3806 531.642 17.4132 530.436 18.1193L256.786 139.589C254.613 140.849 252.962 144.065 253.342 146.324L295.447 354.362C295.621 355.394 296.132 356.078 296.849 356.382L300.77 358.642L301.444 354.981L301.216 355.046L564.578 210.601C566.74 209.341 568.391 206.114 568.011 203.866Z" fill="#95B89D"/>
<path opacity="0.38" d="M258.252 144.967L253.896 143.044C253.407 144.163 253.168 145.336 253.331 146.325L295.436 354.362C295.61 355.394 296.12 356.079 296.837 356.383L300.759 358.642L301.432 354.982L301.204 355.047L314.533 347.356L258.252 144.967Z" fill="#50935F"/>
<path d="M568.727 212.98L303.757 358.36C301.715 359.544 299.955 358.859 299.596 356.741L257.491 148.704C257.111 146.455 258.751 143.229 260.935 141.969L534.596 20.4986C536.638 19.3145 538.398 19.9989 538.756 22.1172L572.171 206.256C572.551 208.505 570.9 211.731 568.727 212.98Z" fill="#375344"/>
<g opacity="0.89">
<path opacity="0.89" d="M531.131 33.1541L267.029 149.106L307.396 345.607L562.633 205.843L531.131 33.1541Z" fill="white"/>
</g>
<path d="M729.847 299.244L715.388 306.793L575.82 223.083C573.398 221.682 569.161 221.856 566.359 223.474L316.292 367.854C313.902 366.518 302.985 361.271 302.985 361.271L308.275 375.067C308.275 375.067 308.297 375.057 308.297 375.046C308.514 375.654 308.982 376.23 309.775 376.686L462.487 464.85C464.909 466.252 469.146 466.078 471.948 464.459L722.427 316.711C723.579 316.049 724.285 315.245 724.578 314.43L724.6 314.441L729.847 299.244Z" fill="#95B89D"/>
<path opacity="0.38" d="M727.621 301.622L470.776 453.042C467.908 454.704 463.563 454.877 461.075 453.444L304.572 363.085C302.084 361.651 302.399 359.142 305.267 357.491L567.533 213.675C570.4 212.013 574.746 211.839 577.233 213.273L728.305 296.028C730.803 297.451 730.488 299.96 727.621 301.622Z" fill="#50935F"/>
<path d="M727.62 300.112L470.775 451.532C467.908 453.194 463.562 453.368 461.075 451.934L304.571 361.575C303.757 361.108 303.279 360.511 303.051 359.881C302.66 361.065 303.127 362.249 304.571 363.085L461.075 453.444C463.562 454.878 467.908 454.704 470.775 453.042L727.609 301.622C729.543 300.503 730.282 299.015 729.825 297.712C729.543 298.559 728.826 299.406 727.62 300.112Z" fill="white"/>
<path d="M391.671 420.289V417.411C391.671 417.139 391.834 417.009 392.041 417.128L402.187 422.983C402.393 423.103 402.556 423.418 402.556 423.689V426.568C402.556 426.84 402.393 426.97 402.187 426.851L392.041 420.995C391.834 420.876 391.671 420.561 391.671 420.289Z" fill="#375344"/>
<path d="M406.836 429.046V426.167C406.836 425.895 406.999 425.765 407.205 425.884L417.352 431.74C417.558 431.859 417.721 432.174 417.721 432.446V435.324C417.721 435.596 417.558 435.726 417.352 435.607L407.205 429.752C407.01 429.632 406.836 429.317 406.836 429.046Z" fill="#375344"/>
<path opacity="0.38" d="M345.373 354.623L563.318 228.786C564.773 227.95 566.566 227.95 568.01 228.786L645.616 273.694C646.735 274.335 646.735 275.942 645.616 276.594L427.78 402.366C426.324 403.202 424.543 403.202 423.087 402.366L345.373 357.523C344.254 356.872 344.254 355.264 345.373 354.623Z" fill="#50935F"/>
<path d="M345.373 357.523L346.155 357.969L563.318 232.588C564.773 231.752 566.566 231.752 568.01 232.588L644.845 277.039L645.627 276.594C646.746 275.953 646.746 274.345 645.627 273.694L568.021 228.786C566.566 227.95 564.773 227.95 563.329 228.786L345.373 354.623C344.254 355.264 344.254 356.872 345.373 357.523Z" fill="#375344"/>
<path d="M555.638 250.686L371.162 357.197L363.189 352.081L547.186 245.852L555.638 250.686Z" fill="#375344"/>
<path d="M567.619 267.599L400.133 364.302L394.387 357.903L559.211 262.743L567.619 267.599Z" fill="#375344"/>
<path d="M607.953 259.844L398.884 380.542L390.465 375.687L599.534 254.977L607.953 259.844Z" fill="#375344"/>
<path d="M621.391 267.599L412.321 388.309L403.903 383.442L612.972 262.743L621.391 267.599Z" fill="#375344"/>
<path d="M634.828 275.356L425.759 396.066L417.34 391.21L626.421 270.5L634.828 275.356Z" fill="#375344"/>
<path d="M373.117 356.068L364.698 360.935L356.279 356.068L364.698 351.212L373.117 356.068Z" fill="#375344"/>
<path d="M402.806 362.76L385.338 372.841L376.919 367.985L394.387 357.904L402.806 362.76Z" fill="#375344"/>
<path opacity="0.38" d="M571.714 385.072L630.483 351.147C632.775 349.822 632.775 347.671 630.483 346.345L590.301 323.142C588.009 321.817 584.283 321.817 581.98 323.142L523.211 357.067C520.919 358.392 520.919 360.543 523.211 361.869L563.393 385.072C565.696 386.397 569.411 386.397 571.714 385.072Z" fill="#50935F"/>
<path d="M523.211 359.033L581.979 325.108C584.272 323.783 587.998 323.783 590.301 325.108L630.483 348.311C631.189 348.724 631.656 349.213 631.928 349.734C632.536 348.572 632.069 347.269 630.483 346.356L590.301 323.153C588.008 321.827 584.282 321.827 581.979 323.153L523.211 357.078C521.625 357.99 521.158 359.305 521.766 360.456C522.037 359.935 522.505 359.446 523.211 359.033Z" fill="#375344"/>
<g opacity="0.26">
<path opacity="0.26" d="M597.569 104.024L615.96 200.825L705.819 150.887L693.218 55.5753L597.569 104.024Z" fill="#50935F"/>
</g>
<g opacity="0.26">
<path opacity="0.26" d="M606.498 104.404L624.889 201.204L714.748 151.267L702.147 55.9552L606.498 104.404Z" fill="#50935F"/>
</g>
<g opacity="0.26">
<path opacity="0.26" d="M615.428 104.785L633.819 201.585L723.678 151.648L711.077 56.3361L615.428 104.785Z" fill="#50935F"/>
</g>
<g opacity="0.26">
<path opacity="0.26" d="M624.357 105.165L642.748 201.965L732.607 152.028L720.006 56.7158L624.357 105.165Z" fill="#50935F"/>
</g>
<g opacity="0.26">
<path opacity="0.26" d="M633.286 105.545L651.677 202.334L741.536 152.408L728.935 57.085L633.286 105.545Z" fill="#50935F"/>
</g>
<path d="M633.286 105.545L651.677 202.334L741.536 152.408L728.935 57.085L633.286 105.545Z" stroke="#50935F" stroke-miterlimit="10"/>
<path d="M718.061 140.589L711.413 90.3147L657.685 117.537L667.407 168.746L718.061 140.589Z" fill="#50935F"/>
<g opacity="0.26">
<path opacity="0.26" d="M51.7031 354.243L75.1889 477.82L197.517 414.066L173.825 292.378L51.7031 354.243Z" fill="#50935F"/>
</g>
<g opacity="0.26">
<path opacity="0.26" d="M63.1093 354.721L86.5842 478.299L208.913 414.555L185.22 292.867L63.1093 354.721Z" fill="#50935F"/>
</g>
<g opacity="0.26">
<path opacity="0.26" d="M74.5048 355.21L97.9906 478.787L220.319 415.032L196.627 293.345L74.5048 355.21Z" fill="#50935F"/>
</g>
<g opacity="0.26">
<path opacity="0.26" d="M85.911 355.688L109.386 479.265L231.714 415.521L208.022 293.834L85.911 355.688Z" fill="#50935F"/>
</g>
<g opacity="0.26">
<path opacity="0.26" d="M97.3065 356.177L120.792 479.755L243.11 416L219.418 294.312L97.3065 356.177Z" fill="#50935F"/>
</g>
<path d="M97.3065 356.177L120.792 479.755L243.11 416L219.418 294.312L97.3065 356.177Z" stroke="#50935F" stroke-width="1.2767" stroke-miterlimit="10"/>
<path d="M209.88 400.921L197.05 336.742L128.451 371.493L140.867 436.856L209.88 400.921Z" fill="#50935F"/>
<g opacity="0.26">
<g opacity="0.26">
<path opacity="0.26" d="M388.794 478.755L263.022 403.985" stroke="#50935F" stroke-miterlimit="10"/>
<g opacity="0.26">
<path opacity="0.26" d="M389.749 476.952C390.716 477.528 391.042 478.777 390.466 479.755C389.891 480.732 388.641 481.047 387.664 480.471C386.697 479.896 386.371 478.646 386.947 477.669C387.522 476.691 388.782 476.376 389.749 476.952Z" fill="#50935F"/>
</g>
<g opacity="0.26">
<path opacity="0.26" d="M264.151 402.279C263.184 401.703 261.924 402.018 261.348 402.996C260.773 403.963 261.088 405.223 262.065 405.798C263.032 406.374 264.292 406.059 264.868 405.082C265.444 404.115 265.118 402.855 264.151 402.279Z" fill="#50935F"/>
</g>
</g>
</g>
<g opacity="0.26">
<g opacity="0.26">
<path opacity="0.26" d="M301.553 426.895L253.288 454.411L296.914 478.798" stroke="#50935F" stroke-miterlimit="10"/>
<g opacity="0.26">
<path opacity="0.26" d="M295.828 480.536C296.816 481.09 298.055 480.732 298.609 479.754C299.163 478.766 298.804 477.527 297.826 476.973C296.838 476.419 295.599 476.778 295.045 477.755C294.491 478.733 294.839 479.982 295.828 480.536Z" fill="#50935F"/>
</g>
</g>
</g>
<path d="M301.487 152.886C301.509 152.995 301.519 153.103 301.357 153.179L300.553 153.549C300.466 153.592 300.379 153.614 300.335 153.407L298.88 146.357C298.836 146.151 298.923 146.097 299.01 146.064L301.867 144.771C301.921 144.75 301.965 144.75 301.997 144.782C302.041 144.826 302.041 144.902 302.041 144.967L302.03 145.858C302.03 145.901 302.019 145.999 301.921 146.053L300.238 146.813L300.607 148.617L302.03 147.976C302.193 147.9 302.226 148.008 302.247 148.117L302.399 148.867C302.443 149.073 302.356 149.127 302.269 149.16L300.846 149.801L301.487 152.886Z" fill="black"/>
<path d="M305.973 149.801L307.743 148.997C307.82 148.964 307.917 148.943 307.961 149.138L308.113 149.877C308.156 150.072 308.069 150.138 307.982 150.17L305.223 151.419C305.071 151.485 305.028 151.376 305.006 151.278L303.561 144.239C303.518 144.043 303.605 143.978 303.692 143.946L306.581 142.642C306.614 142.631 306.657 142.62 306.69 142.653C306.722 142.686 306.722 142.74 306.722 142.794V143.685C306.722 143.739 306.722 143.859 306.592 143.924L304.919 144.684L305.288 146.498L306.722 145.847C306.874 145.781 306.918 145.89 306.94 145.988L307.092 146.727C307.135 146.922 307.048 146.987 306.961 147.02L305.527 147.672L305.973 149.801Z" fill="black"/>
<path d="M311.655 148.704C309.58 149.649 308.896 146.542 308.733 145.76C308.57 144.967 307.972 141.828 310.047 140.882C312.122 139.948 312.817 143.077 312.969 143.837C313.132 144.619 313.73 147.759 311.655 148.704ZM311.763 144.391C311.546 143.348 311.101 141.697 310.286 142.067C309.471 142.436 309.732 144.185 309.938 145.217C310.123 146.108 310.547 147.922 311.416 147.531C312.274 147.14 311.948 145.282 311.763 144.391Z" fill="black"/>
<path d="M315.793 138.504C316.228 138.308 316.901 138.069 317.542 138.591C318.129 139.069 318.487 140.144 318.715 141.252C318.976 142.534 319.02 143.577 318.737 144.391C318.411 145.337 317.759 145.728 317.325 145.923L315.663 146.673C315.489 146.749 315.457 146.564 315.446 146.51L314.012 139.547C313.99 139.449 313.968 139.318 314.131 139.242L315.793 138.504ZM316.412 145.054L317.021 144.783C317.292 144.663 317.64 144.326 317.683 143.566C317.716 143.023 317.607 142.273 317.51 141.773C317.401 141.263 317.205 140.568 316.977 140.155C316.662 139.568 316.239 139.579 315.967 139.699L315.359 139.97L316.412 145.054Z" fill="black"/>
<path d="M321.898 135.755C321.985 135.711 322.017 135.776 322.061 135.874L325.157 142.077C325.179 142.12 325.2 142.142 325.211 142.196C325.233 142.316 325.146 142.37 325.103 142.392L324.157 142.826C324.06 142.87 324.027 142.87 323.929 142.685L323.191 141.11L321.724 141.773L321.735 143.685C321.735 143.869 321.735 143.935 321.626 143.978L320.714 144.391C320.54 144.467 320.54 144.304 320.54 144.228L320.79 136.439C320.801 136.33 320.79 136.265 320.899 136.211L321.898 135.755ZM322.05 138.514C321.92 138.221 321.789 137.873 321.572 137.167L321.55 137.178C321.605 137.471 321.659 137.884 321.659 138.699L321.67 140.73L322.789 140.219L322.05 138.514Z" fill="black"/>
<path d="M329.741 138.862C329.784 138.84 329.871 138.818 329.904 138.916C329.904 138.927 329.904 138.927 329.904 138.938C329.915 139.014 329.915 139.046 329.915 139.09L329.926 139.981C329.926 140.144 329.915 140.198 329.774 140.263L326.949 141.545C326.797 141.61 326.754 141.501 326.732 141.404L325.298 134.451C325.255 134.256 325.352 134.191 325.428 134.158L326.243 133.789C326.395 133.724 326.439 133.832 326.46 133.93L327.666 139.796L329.741 138.862Z" fill="black"/>
<path d="M301.465 158.784C301.443 158.795 301.432 158.784 301.432 158.762L301.052 156.905C301.052 156.883 301.052 156.872 301.074 156.861L301.204 156.807C301.226 156.796 301.237 156.807 301.237 156.829L301.4 157.622L301.552 157.557C301.628 157.524 301.682 157.48 301.682 157.231V157.003C301.682 156.872 301.682 156.742 301.715 156.655C301.748 156.557 301.813 156.503 301.867 156.47L301.889 156.448C301.9 156.438 301.921 156.427 301.932 156.459L301.987 156.568C301.997 156.59 301.997 156.601 301.965 156.633L301.932 156.655C301.91 156.677 301.878 156.698 301.856 156.764C301.834 156.829 301.845 156.905 301.845 156.981V157.155C301.845 157.296 301.845 157.426 301.748 157.557C301.889 157.567 301.943 157.676 301.965 157.73L302.128 158.078C302.16 158.154 302.182 158.187 302.204 158.197C302.236 158.219 302.269 158.219 302.302 158.208L302.345 158.197C302.388 158.187 302.388 158.208 302.388 158.23V158.382C302.388 158.436 302.367 158.426 302.323 158.436L302.291 158.447C302.182 158.48 302.117 158.436 302.084 158.415C302.03 158.371 301.997 158.273 301.943 158.165L301.834 157.904C301.748 157.709 301.682 157.709 301.595 157.741L301.443 157.806L301.628 158.675C301.628 158.697 301.628 158.708 301.606 158.719L301.465 158.784Z" fill="black"/>
<path d="M303.496 157.111C303.616 157.676 303.398 157.936 303.203 158.023C303.018 158.11 302.736 158.067 302.616 157.513C302.497 156.948 302.714 156.687 302.91 156.6C303.105 156.513 303.387 156.546 303.496 157.111ZM302.812 157.426C302.844 157.567 302.931 157.958 303.181 157.85C303.431 157.741 303.355 157.339 303.322 157.198C303.29 157.057 303.203 156.665 302.953 156.774C302.714 156.883 302.779 157.285 302.812 157.426Z" fill="black"/>
<path d="M304.289 157.448C304.289 157.47 304.289 157.481 304.268 157.491L304.159 157.546C304.137 157.557 304.126 157.546 304.126 157.524L303.866 156.242C303.866 156.22 303.866 156.21 303.876 156.199L303.92 156.166L303.985 156.112C303.996 156.101 303.996 156.101 304.007 156.101C304.018 156.09 304.029 156.112 304.029 156.123L304.148 156.709L304.572 156.514L304.463 155.981C304.463 155.96 304.463 155.949 304.474 155.938L304.583 155.851C304.593 155.84 304.593 155.84 304.604 155.84C304.615 155.829 304.626 155.851 304.626 155.862L304.898 157.187C304.898 157.209 304.898 157.22 304.876 157.231L304.767 157.285C304.756 157.296 304.746 157.296 304.735 157.263L304.615 156.688L304.192 156.883L304.289 157.448Z" fill="black"/>
<path d="M305.105 155.84C305.083 155.851 305.072 155.84 305.072 155.818L305.05 155.699C305.04 155.666 305.061 155.655 305.072 155.655L305.822 155.319C305.854 155.308 305.854 155.34 305.854 155.351L305.843 155.471C305.843 155.492 305.843 155.503 305.811 155.514L305.55 155.634L305.778 156.763C305.778 156.785 305.778 156.796 305.756 156.807L305.648 156.861C305.626 156.872 305.615 156.861 305.615 156.839L305.387 155.71L305.105 155.84Z" fill="black"/>
<path d="M306.375 155.46C306.365 155.405 306.343 155.319 306.267 155.221C306.256 155.21 306.245 155.199 306.245 155.188C306.245 155.177 306.245 155.167 306.256 155.167L306.332 155.047C306.343 155.036 306.354 155.025 306.375 155.036C306.408 155.058 306.441 155.112 306.462 155.156L306.473 155.134C306.528 155.047 306.604 154.906 306.734 154.851C306.843 154.797 307.103 154.754 307.234 155.395C307.364 156.036 307.125 156.231 306.984 156.296C306.864 156.351 306.756 156.318 306.723 156.307L306.843 156.883C306.843 156.894 306.853 156.915 306.832 156.926L306.734 157.013C306.723 157.024 306.69 157.046 306.68 157.013L306.375 155.46ZM306.69 156.122C306.756 156.144 306.864 156.144 306.94 156.112C307.158 156.014 307.114 155.742 307.049 155.471C306.995 155.221 306.929 154.971 306.723 155.058C306.636 155.101 306.56 155.221 306.517 155.308L306.69 156.122Z" fill="black"/>
<path d="M308.537 154.809C308.657 155.374 308.439 155.634 308.244 155.721C308.048 155.808 307.777 155.765 307.657 155.211C307.538 154.646 307.755 154.385 307.951 154.298C308.146 154.211 308.418 154.244 308.537 154.809ZM307.842 155.124C307.875 155.265 307.961 155.656 308.211 155.547C308.461 155.439 308.385 155.037 308.353 154.896C308.32 154.754 308.233 154.363 307.983 154.472C307.733 154.581 307.82 154.983 307.842 155.124Z" fill="black"/>
<path d="M309.852 154.906C309.852 154.928 309.852 154.938 309.83 154.949L309.721 155.004C309.7 155.014 309.689 155.004 309.689 154.982L309.45 153.841L309.178 153.961L309.189 153.993C309.233 154.178 309.276 154.526 309.298 154.667C309.319 154.83 309.33 155.069 309.2 155.243C309.157 155.297 309.124 155.319 309.08 155.34C309.08 155.34 309.07 155.34 309.07 155.351C309.048 155.351 309.048 155.34 309.037 155.329L308.994 155.232C308.972 155.188 309.004 155.177 309.015 155.167L309.037 155.156C309.08 155.134 309.167 155.069 309.157 154.83C309.146 154.645 309.07 154.232 309.026 154.004L309.004 153.917C308.994 153.885 308.994 153.874 309.026 153.863L309.558 153.624C309.58 153.613 309.591 153.635 309.591 153.657L309.852 154.906Z" fill="black"/>
<path d="M310.58 153.754C310.569 153.678 310.558 153.548 310.569 153.407C310.612 153.146 310.753 153.005 310.862 152.95C311.047 152.864 311.329 152.907 311.438 153.461C311.557 154.015 311.34 154.287 311.155 154.374C311.014 154.439 310.851 154.406 310.732 154.243C310.666 154.156 310.623 154.026 310.601 153.917L310.438 153.993L310.558 154.569C310.558 154.591 310.558 154.602 310.536 154.612L310.427 154.667C310.406 154.678 310.395 154.667 310.395 154.645L310.134 153.363C310.134 153.342 310.134 153.331 310.145 153.32L310.254 153.233C310.264 153.222 310.264 153.222 310.275 153.222C310.286 153.211 310.297 153.233 310.297 153.244L310.417 153.819L310.58 153.754ZM310.764 153.787C310.851 154.211 310.992 154.265 311.123 154.211C311.373 154.102 311.296 153.7 311.264 153.559C311.231 153.418 311.144 153.027 310.895 153.135C310.775 153.189 310.677 153.363 310.764 153.787Z" fill="black"/>
<path d="M311.818 152.603C311.818 152.581 311.818 152.57 311.829 152.559L311.872 152.527L311.937 152.473C311.948 152.462 311.948 152.462 311.959 152.462C311.97 152.451 311.981 152.473 311.981 152.483L312.133 153.244L312.187 153.526H312.198C312.22 153.363 312.241 153.287 312.252 153.222L312.437 152.32C312.437 152.31 312.437 152.31 312.448 152.299L312.556 152.212C312.567 152.201 312.567 152.201 312.578 152.201C312.589 152.19 312.6 152.212 312.6 152.223L312.871 153.548C312.882 153.581 312.861 153.591 312.85 153.591L312.741 153.646C312.73 153.657 312.719 153.657 312.708 153.624L312.567 152.918L312.513 152.646H312.502C312.469 152.853 312.459 152.907 312.448 152.951L312.263 153.852C312.263 153.874 312.252 153.874 312.241 153.874L312.133 153.928C312.111 153.939 312.1 153.928 312.1 153.906L311.818 152.603ZM311.959 151.962C312.002 152.082 312.078 152.071 312.133 152.049C312.176 152.027 312.241 151.973 312.241 151.832V151.788C312.241 151.777 312.241 151.766 312.263 151.756H312.274L312.361 151.734C312.372 151.734 312.383 151.734 312.393 151.756C312.393 151.766 312.393 151.777 312.393 151.799C312.393 151.984 312.317 152.125 312.176 152.19C312.035 152.255 311.915 152.201 311.839 152.049C311.829 152.027 311.829 152.016 311.829 152.005C311.829 151.973 311.839 151.962 311.85 151.962L311.926 151.908C311.937 151.897 311.959 151.886 311.97 151.908L311.959 151.962Z" fill="black"/>
<path d="M314.164 152.158C314.164 152.136 314.164 152.114 314.186 152.103L314.229 152.082C314.338 152.027 314.425 151.919 314.392 151.766C314.37 151.68 314.327 151.571 314.175 151.636C314.088 151.68 314.034 151.745 313.979 151.853C313.968 151.864 313.968 151.886 313.957 151.886C313.947 151.886 313.947 151.886 313.947 151.875L313.871 151.788C313.86 151.777 313.849 151.766 313.892 151.701C313.979 151.56 314.066 151.495 314.164 151.451C314.392 151.343 314.522 151.484 314.566 151.669C314.577 151.701 314.609 151.886 314.468 152.049C314.588 152.038 314.685 152.114 314.729 152.288C314.783 152.559 314.653 152.788 314.425 152.896C314.37 152.918 314.251 152.961 314.11 152.929C314.088 152.918 314.077 152.918 314.066 152.907C314.066 152.907 314.066 152.896 314.066 152.885L314.088 152.755C314.088 152.755 314.088 152.744 314.099 152.733C314.11 152.733 314.12 152.733 314.131 152.733C314.229 152.755 314.305 152.755 314.403 152.722C314.533 152.657 314.588 152.516 314.555 152.386C314.512 152.158 314.327 152.244 314.294 152.255L314.24 152.277C314.218 152.288 314.207 152.277 314.207 152.255L314.164 152.158Z" fill="black"/>
<path d="M316 151.995C316 151.995 316 152.006 316.011 152.006C316.011 152.017 316 152.038 315.946 152.114C315.891 152.18 315.815 152.256 315.717 152.299C315.5 152.397 315.207 152.353 315.098 151.81C315 151.354 315.142 151.017 315.392 150.898C315.576 150.811 315.815 150.832 315.924 151.408V151.419C315.935 151.463 315.924 151.473 315.913 151.473L315.283 151.756V151.767C315.348 152.093 315.533 152.158 315.685 152.093C315.772 152.049 315.848 151.973 315.902 151.886C315.913 151.875 315.913 151.864 315.924 151.864C315.924 151.864 315.935 151.864 315.935 151.875L316 151.995ZM315.707 151.387C315.707 151.365 315.685 151.256 315.62 151.169C315.544 151.061 315.457 151.05 315.392 151.093C315.272 151.148 315.174 151.31 315.229 151.615L315.707 151.387Z" fill="black"/>
<path d="M316.793 150.995C316.825 151.05 316.847 151.126 316.869 151.169H316.879C316.879 151.126 316.879 151.017 316.879 150.963L316.923 150.278C316.923 150.268 316.923 150.246 316.934 150.246L317.086 150.17C317.097 150.17 317.097 150.159 317.108 150.192L317.433 151.452C317.433 151.463 317.433 151.473 317.423 151.484L317.303 151.539C317.292 151.549 317.281 151.539 317.281 151.528L317.053 150.572C317.053 150.55 317.042 150.528 317.032 150.463C317.032 150.517 317.032 150.55 317.032 150.572L316.988 151.332C316.988 151.365 316.977 151.365 316.966 151.376L316.879 151.419C316.869 151.43 316.858 151.43 316.847 151.408L316.521 150.811C316.521 150.8 316.51 150.778 316.478 150.713C316.488 150.756 316.488 150.789 316.499 150.822L316.673 151.799C316.673 151.81 316.673 151.821 316.662 151.832L316.543 151.886C316.521 151.897 316.521 151.875 316.521 151.875L316.315 150.561C316.315 150.55 316.315 150.539 316.325 150.528L316.478 150.463C316.488 150.463 316.488 150.463 316.499 150.474L316.793 150.995Z" fill="black"/>
<path d="M318.672 150.767C318.672 150.767 318.672 150.778 318.683 150.778C318.683 150.789 318.672 150.811 318.618 150.887C318.564 150.952 318.487 151.028 318.39 151.072C318.172 151.169 317.879 151.126 317.771 150.583C317.673 150.126 317.814 149.79 318.064 149.67C318.248 149.583 318.487 149.605 318.596 150.181V150.192C318.607 150.235 318.596 150.246 318.585 150.246L317.955 150.528V150.539C318.02 150.865 318.205 150.93 318.357 150.865C318.444 150.822 318.52 150.746 318.574 150.659C318.585 150.648 318.585 150.637 318.596 150.637C318.596 150.637 318.607 150.637 318.607 150.648L318.672 150.767ZM318.379 150.159C318.379 150.137 318.357 150.029 318.292 149.942C318.216 149.833 318.129 149.822 318.064 149.866C317.944 149.92 317.847 150.083 317.901 150.387L318.379 150.159Z" fill="black"/>
<path d="M319.933 150.289C319.933 150.311 319.933 150.322 319.911 150.333L319.802 150.387C319.781 150.398 319.77 150.387 319.77 150.365L319.542 149.235L319.27 149.355L319.281 149.387C319.314 149.572 319.368 149.92 319.39 150.05C319.411 150.213 319.422 150.452 319.292 150.626C319.248 150.68 319.216 150.702 319.172 150.724C319.172 150.724 319.161 150.724 319.161 150.734C319.14 150.734 319.14 150.724 319.129 150.713L319.085 150.615C319.064 150.572 319.096 150.561 319.107 150.55L319.129 150.539C319.172 150.517 319.259 150.452 319.248 150.213C319.237 150.028 319.161 149.626 319.118 149.387L319.096 149.301C319.085 149.268 319.085 149.257 319.118 149.246L319.65 149.007C319.672 148.996 319.683 149.018 319.683 149.04L319.933 150.289Z" fill="black"/>
<path d="M320.508 150.062C320.486 150.072 320.475 150.062 320.475 150.04L320.214 148.769C320.214 148.747 320.214 148.736 320.225 148.725L320.334 148.638C320.345 148.628 320.345 148.628 320.355 148.628C320.366 148.617 320.377 148.638 320.377 148.649L320.486 149.192L320.66 149.116C320.768 149.073 320.855 149.073 320.931 149.095C321.018 149.127 321.083 149.225 321.105 149.355C321.138 149.497 321.105 149.627 321.051 149.725C320.985 149.833 320.899 149.888 320.812 149.931L320.508 150.062ZM320.616 149.823L320.768 149.757C320.877 149.703 320.964 149.594 320.931 149.431C320.899 149.29 320.812 149.225 320.67 149.29L320.518 149.355L320.616 149.823Z" fill="black"/>
<path d="M321.801 149.431C321.801 149.453 321.801 149.464 321.779 149.475L321.67 149.529C321.648 149.54 321.638 149.529 321.638 149.507L321.377 148.236C321.377 148.214 321.377 148.204 321.388 148.193L321.431 148.16L321.496 148.106C321.507 148.095 321.507 148.095 321.518 148.095C321.529 148.084 321.54 148.106 321.54 148.117L321.659 148.692L322.083 148.497L321.974 147.965C321.974 147.943 321.974 147.932 321.985 147.921L322.094 147.834C322.105 147.823 322.105 147.823 322.116 147.823C322.126 147.813 322.137 147.834 322.137 147.845L322.409 149.16C322.409 149.181 322.409 149.192 322.387 149.203L322.279 149.257C322.268 149.268 322.257 149.268 322.246 149.236L322.126 148.671L321.703 148.866L321.801 149.431Z" fill="black"/>
<path d="M322.67 147.639C322.67 147.617 322.67 147.606 322.681 147.596L322.724 147.563L322.79 147.509C322.8 147.498 322.8 147.498 322.811 147.498C322.822 147.487 322.833 147.509 322.833 147.52L322.985 148.269L323.039 148.541H323.05C323.083 148.334 323.094 148.28 323.105 148.236L323.289 147.346C323.289 147.335 323.289 147.335 323.3 147.324L323.409 147.237C323.42 147.226 323.42 147.226 323.43 147.226C323.441 147.215 323.452 147.237 323.452 147.248L323.724 148.562C323.735 148.595 323.713 148.606 323.702 148.606L323.593 148.66C323.583 148.671 323.572 148.671 323.561 148.638L323.42 147.932L323.365 147.661H323.354C323.322 147.856 323.3 147.954 323.3 147.965L323.115 148.856C323.115 148.877 323.105 148.877 323.094 148.877L322.985 148.932C322.963 148.943 322.952 148.932 322.952 148.91L322.67 147.639Z" fill="black"/>
<path d="M323.995 147.041C323.995 147.019 323.995 147.008 324.006 146.997L324.05 146.965L324.115 146.911C324.126 146.9 324.126 146.9 324.137 146.9C324.147 146.889 324.158 146.911 324.158 146.921L324.31 147.671L324.365 147.943H324.376C324.397 147.78 324.419 147.704 324.43 147.638L324.615 146.748C324.615 146.737 324.615 146.737 324.625 146.726L324.734 146.639C324.745 146.628 324.745 146.628 324.756 146.628C324.767 146.617 324.777 146.639 324.777 146.65L325.049 147.964C325.06 147.997 325.038 148.008 325.027 148.008L324.919 148.062C324.908 148.073 324.897 148.073 324.886 148.04L324.745 147.334L324.691 147.063H324.68C324.647 147.269 324.636 147.323 324.625 147.367L324.441 148.258C324.441 148.279 324.43 148.279 324.419 148.279L324.31 148.334C324.289 148.344 324.278 148.334 324.278 148.312L323.995 147.041ZM324.126 146.4C324.169 146.519 324.245 146.509 324.3 146.487C324.343 146.465 324.408 146.411 324.408 146.27V146.226C324.408 146.215 324.408 146.204 324.43 146.194H324.441L324.528 146.172C324.538 146.172 324.549 146.172 324.56 146.194C324.56 146.204 324.56 146.215 324.56 146.237C324.56 146.422 324.484 146.563 324.332 146.628C324.191 146.693 324.071 146.639 323.995 146.487C323.984 146.465 323.984 146.454 323.984 146.443C323.984 146.411 323.995 146.4 324.006 146.4L324.082 146.346C324.093 146.335 324.115 146.324 324.126 146.346V146.4Z" fill="black"/>
<path d="M326.189 146.302C326.211 146.074 326.33 145.933 326.46 145.868C326.569 145.813 326.884 145.748 327.014 146.357C327.123 146.9 326.906 147.16 326.721 147.247C326.591 147.313 326.406 147.302 326.276 147.106C326.189 146.987 326.145 146.813 326.102 146.606C326.048 146.346 326.026 146.161 326.037 145.987C326.058 145.716 326.167 145.531 326.276 145.39L326.591 145.02C326.602 145.01 326.623 144.977 326.656 145.01L326.71 145.086C326.721 145.097 326.732 145.118 326.688 145.162L326.33 145.585C326.145 145.803 326.134 146.031 326.156 146.205L326.167 146.291L326.189 146.302ZM326.33 146.683C326.373 146.911 326.471 147.182 326.688 147.084C326.938 146.976 326.862 146.596 326.841 146.444C326.743 145.998 326.569 146.009 326.482 146.052C326.384 146.096 326.232 146.226 326.33 146.683Z" fill="black"/>
<path d="M328.242 146.118C328.253 146.183 328.286 146.27 328.307 146.303C328.318 146.324 328.34 146.346 328.351 146.368C328.362 146.379 328.362 146.379 328.362 146.39C328.362 146.4 328.362 146.411 328.351 146.411L328.275 146.52C328.264 146.542 328.253 146.552 328.209 146.498C328.177 146.466 328.177 146.455 328.144 146.39V146.379L328.133 146.39C328.101 146.476 328.036 146.628 327.873 146.705C327.655 146.802 327.536 146.639 327.493 146.444C327.449 146.259 327.493 146.042 327.71 145.857C327.775 145.803 327.884 145.738 327.96 145.705H327.971L327.949 145.607C327.927 145.488 327.884 145.368 327.71 145.444C327.634 145.477 327.547 145.553 327.482 145.629C327.471 145.651 327.46 145.662 327.449 145.662C327.438 145.662 327.427 145.662 327.427 145.651L327.373 145.553C327.373 145.553 327.373 145.542 327.362 145.531C327.362 145.51 327.384 145.477 327.406 145.466C327.482 145.379 327.59 145.292 327.688 145.249C327.905 145.151 328.047 145.227 328.101 145.477L328.242 146.118ZM328.014 145.89C327.645 146.053 327.645 146.259 327.666 146.379C327.699 146.542 327.797 146.563 327.873 146.531C327.971 146.487 328.047 146.324 328.079 146.27L328.09 146.248L328.014 145.89Z" fill="black"/>
<path d="M329.025 146.118C329.025 146.139 329.025 146.15 329.003 146.161L328.895 146.215C328.873 146.226 328.862 146.215 328.862 146.194L328.601 144.934C328.601 144.912 328.601 144.901 328.612 144.89L328.656 144.858L328.721 144.803C328.732 144.792 328.732 144.792 328.742 144.792C328.753 144.781 328.764 144.803 328.764 144.814L328.884 145.39L329.307 145.194L329.199 144.673C329.199 144.651 329.199 144.64 329.21 144.629L329.318 144.543C329.329 144.532 329.329 144.532 329.34 144.532C329.351 144.521 329.362 144.542 329.362 144.553L329.633 145.868C329.633 145.89 329.633 145.9 329.612 145.911L329.503 145.966C329.492 145.976 329.481 145.976 329.47 145.944L329.351 145.379L328.927 145.574L329.025 146.118Z" fill="black"/>
<path d="M330.187 145.618C330.165 145.629 330.154 145.607 330.154 145.607L329.893 144.336C329.893 144.315 329.893 144.304 329.904 144.293L329.948 144.26L330.013 144.206C330.024 144.195 330.024 144.195 330.035 144.195C330.045 144.184 330.056 144.206 330.056 144.217L330.176 144.782L330.274 144.738C330.35 144.706 330.382 144.641 330.382 144.532V144.38C330.382 144.271 330.382 144.13 330.469 144.043C330.491 144.021 330.545 143.978 330.578 143.967C330.589 143.967 330.599 143.956 330.61 143.978L330.665 144.087C330.675 144.119 330.654 144.119 330.643 144.13L330.61 144.152C330.589 144.173 330.567 144.184 330.556 144.228C330.556 144.239 330.545 144.26 330.545 144.347V144.467C330.545 144.554 330.534 144.662 330.447 144.749C330.556 144.738 330.599 144.814 330.632 144.858L330.752 145.097C330.762 145.119 330.784 145.151 330.806 145.162C330.817 145.173 330.838 145.173 330.871 145.162L330.904 145.151C330.925 145.14 330.936 145.14 330.936 145.173V145.314C330.936 145.336 330.925 145.347 330.914 145.347C330.849 145.379 330.806 145.379 330.773 145.379C330.675 145.368 330.643 145.281 330.589 145.173L330.502 144.999C330.447 144.88 330.404 144.88 330.339 144.912L330.241 144.956L330.36 145.542C330.36 145.542 330.36 145.564 330.339 145.575L330.187 145.618Z" fill="black"/>
<path d="M283.171 167.171L278.392 154.624L291.514 163.347L283.171 167.171Z" fill="#1A5632"/>
<path d="M284.932 157.524L292.829 162.749L293.774 162.315L285.757 149.344L284.932 157.524Z" fill="#007940"/>
<path d="M290.494 154.874L294.817 161.837L293.307 147.922L290.494 154.874Z" fill="#00994E"/>
<path d="M285.931 150.224L285.083 149.638L285.594 148.475L286.441 149.062L285.931 150.224Z" fill="black"/>
<path d="M278.859 155.264L278.913 153.961L277.925 153.983L277.881 155.286L278.859 155.264Z" fill="black"/>
<path d="M293.459 147.02L293.991 148.052L293.166 148.845L292.633 147.813L293.459 147.02Z" fill="black"/>
<path d="M524.255 50.8279C524.961 54.3041 523.038 58.2691 519.953 59.6921C516.868 61.1043 513.794 59.4097 513.088 55.9118C512.381 52.4139 514.304 48.438 517.389 47.0476C520.474 45.6571 523.549 47.3409 524.255 50.8279Z" fill="#4D4D4D"/>
<path d="M364.656 124.381L339.302 135.918L338.65 132.746L364.015 121.242L364.656 124.381Z" fill="#999999"/>
<path d="M382.145 179.511L356.975 191.884L356.323 188.712L381.504 176.393L382.145 179.511Z" fill="#999999"/>
<path d="M383.133 184.334L357.985 196.783L357.333 193.611L382.492 181.217L383.133 184.334Z" fill="#999999"/>
<path d="M384.122 189.157L358.985 201.671L358.334 198.499L383.481 186.039L384.122 189.157Z" fill="#999999"/>
<path d="M385.111 193.981L359.995 206.56L359.344 203.399L384.47 190.863L385.111 193.981Z" fill="#999999"/>
<path d="M386.099 198.803L360.994 211.459L360.353 208.287L385.458 195.686L386.099 198.803Z" fill="#999999"/>
<path d="M387.087 203.627L362.005 216.347L361.353 213.175L386.446 200.509L387.087 203.627Z" fill="#999999"/>
<path d="M388.077 208.45L363.016 221.235L362.364 218.074L387.436 205.321L388.077 208.45Z" fill="#999999"/>
<path d="M389.065 213.273L364.015 226.135L363.363 222.963L388.424 210.145L389.065 213.273Z" fill="#999999"/>
<path d="M390.064 218.096L365.025 231.023L364.373 227.862L389.423 214.967L390.064 218.096Z" fill="#999999"/>
<path d="M391.052 222.92L366.024 235.923L365.372 232.751L390.412 219.791L391.052 222.92Z" fill="#999999"/>
<path d="M370.544 119.993C370.717 120.851 370.294 121.807 369.598 122.133C368.903 122.448 368.197 122.002 368.013 121.144C367.839 120.275 368.262 119.319 368.958 119.004C369.653 118.689 370.37 119.135 370.544 119.993Z" fill="#999999"/>
<path d="M273.83 184.215L535.879 62.3103" stroke="#999999" stroke-width="2.4168" stroke-miterlimit="10"/>
<path d="M374.964 309.378L307.538 347.442L273.667 183.432L342.495 151.452L374.964 309.378Z" fill="black"/>
<path d="M324.788 173.7L285.508 192.254L284.476 187.268L323.778 168.811L324.788 173.7Z" fill="#50935F"/>
<path d="M389.998 142.881L350.718 161.435L349.729 156.623L389.032 138.177L389.998 142.881Z" fill="#999999"/>
<path d="M412.409 145.032L353.195 173.461L352.206 168.659L411.453 140.383L412.409 145.032Z" fill="#999999"/>
<path d="M394.822 166.4L355.661 185.486L354.673 180.685L393.856 161.696L394.822 166.4Z" fill="#999999"/>
<path d="M408.477 233.033L369.663 253.641L368.675 248.828L407.51 228.33L408.477 233.033Z" fill="#999999"/>
<path d="M410.889 244.798L372.14 265.666L371.152 260.854L409.922 240.094L410.889 244.798Z" fill="#999999"/>
<path d="M433.027 245.787L374.616 277.691L373.628 272.879L432.071 241.137L433.027 245.787Z" fill="#999999"/>
<path d="M301.248 195.675L287.56 202.225L286.539 197.239L300.227 190.732L301.248 195.675Z" fill="white"/>
<path d="M323.376 250.903L300.086 262.907L299.054 257.921L322.355 245.982L323.376 250.903Z" fill="#50935F"/>
<path d="M341.028 252.597L302.149 272.878L301.117 267.892L340.028 247.72L341.028 252.597Z" fill="white"/>
<path d="M343.038 262.364L304.203 282.851L303.182 277.865L342.039 257.475L343.038 262.364Z" fill="white"/>
<path d="M313.154 200.803L289.625 212.209L288.593 207.223L312.144 195.882L313.154 200.803Z" fill="white"/>
<path d="M330.817 202.975L291.677 222.181L290.656 217.195L329.807 198.098L330.817 202.975Z" fill="white"/>
<path d="M317.217 220.497L293.742 232.153L292.71 227.167L316.196 215.566L317.217 220.497Z" fill="white"/>
<path d="M309.417 235.282L295.795 242.125L294.773 237.139L308.396 230.328L309.417 235.282Z" fill="white"/>
<path d="M338.476 175.209C338.747 176.545 338.117 178.044 337.064 178.544C336.01 179.044 334.934 178.37 334.652 177.023C334.38 175.687 335.01 174.188 336.064 173.688C337.118 173.189 338.193 173.862 338.476 175.209Z" fill="white"/>
<path d="M340.464 184.899C340.735 186.235 340.105 187.734 339.051 188.245C337.998 188.755 336.922 188.082 336.651 186.735C336.379 185.388 337.009 183.9 338.063 183.389C339.116 182.878 340.192 183.563 340.464 184.899Z" fill="white"/>
<path d="M342.463 194.599C342.734 195.936 342.104 197.446 341.061 197.956C340.008 198.467 338.932 197.804 338.661 196.457C338.389 195.121 339.008 193.611 340.062 193.1C341.116 192.59 342.18 193.252 342.463 194.599Z" fill="white"/>
<path d="M344.451 204.289C344.722 205.625 344.103 207.135 343.049 207.657C341.996 208.178 340.92 207.515 340.649 206.168C340.377 204.821 340.996 203.322 342.05 202.801C343.104 202.29 344.179 202.953 344.451 204.289Z" fill="white"/>
<path d="M346.449 213.99C346.721 215.326 346.102 216.836 345.048 217.368C343.994 217.9 342.93 217.238 342.647 215.891C342.376 214.555 342.995 213.034 344.049 212.512C345.102 211.991 346.178 212.654 346.449 213.99Z" fill="white"/>
<path d="M309.526 288.326C309.808 289.705 309.2 291.27 308.157 291.824C307.114 292.378 306.039 291.715 305.756 290.335C305.474 288.956 306.082 287.392 307.125 286.838C308.168 286.284 309.243 286.946 309.526 288.326Z" fill="white"/>
<path d="M317.108 284.285C317.391 285.654 316.771 287.218 315.729 287.772C314.686 288.326 313.61 287.663 313.328 286.295C313.045 284.926 313.665 283.362 314.708 282.808C315.75 282.254 316.826 282.916 317.108 284.285Z" fill="white"/>
<path d="M417.613 277.625L379.038 299.232L377.224 290.411L415.842 269L417.613 277.625Z" fill="#62DDFF"/>
<path d="M437.285 266.6L419.601 276.507L417.83 267.893L435.537 258.073L437.285 266.6Z" fill="#E6E6E6"/>
<mask id="mask0" mask-type="alpha" maskUnits="userSpaceOnUse" x="412" y="71" width="146" height="195">
<path d="M440.947 265.057L412.16 126.553L533.282 71.6956L557.181 200.965L440.947 265.057Z" fill="#C4C4C4"/>
</mask>
<g mask="url(#mask0)">
<path d="M532.239 64.1891L566.773 234.619L450.702 302.708L413.235 119.569L532.239 64.1891Z" fill="#FDF9DD"/>
<path d="M492.036 194.914L482.183 200.183L477.501 202.681C477.664 203.963 477.707 205.277 477.653 206.57C477.523 209.329 477.034 212.849 475.415 215.261C473.677 217.857 471.429 219.475 469.126 220.822L470.712 228.611L496.066 214.707L494.295 206.027C491.732 207.124 489.201 207.07 487.071 206.06L493.589 202.54L492.036 194.914Z" fill="#E2D3B6" stroke="#D1C4A9" stroke-width="0.6382" stroke-miterlimit="10"/>
<path d="M472.135 284.969C472.145 282.666 472.254 279.852 471.32 278.027C469.864 275.192 466.964 275.67 464.378 275.735C461.369 275.801 458.686 275.301 456.796 272.487C455.351 270.336 454.58 267.675 454.102 264.829L447.812 268.381L453.494 296.169L472.135 285.295C472.135 285.175 472.135 285.067 472.135 284.969Z" fill="#E2D3B6"/>
<path d="M472.135 284.969C472.145 282.666 472.254 279.852 471.32 278.027C469.864 275.192 466.964 275.67 464.378 275.735C461.369 275.801 458.686 275.301 456.796 272.487C455.351 270.336 454.58 267.675 454.102 264.829L447.812 268.381L453.494 296.169L472.135 285.295C472.135 285.175 472.135 285.067 472.135 284.969Z" stroke="#D1C4A9" stroke-width="0.7333" stroke-miterlimit="10"/>
<path d="M490.026 169.81L494.187 190.243L519.606 176.599L515.533 156.579L490.026 169.81Z" fill="#E2D3B6" stroke="#D1C4A9" stroke-width="0.6382" stroke-miterlimit="10"/>
<path d="M461.022 270.499C463.357 271.662 466.171 270.847 468.702 271.118C471.624 271.423 474.036 273.074 474.981 276.68C475.524 278.766 475.578 281.015 475.567 283.274L478.653 281.471L473.069 254.107L457.448 262.928C457.948 266.197 458.86 269.413 461.022 270.499Z" fill="#E2D3B6"/>
<path d="M461.022 270.499C463.357 271.662 466.171 270.847 468.702 271.118C471.624 271.423 474.036 273.074 474.981 276.68C475.524 278.766 475.578 281.015 475.567 283.274L478.653 281.471L473.069 254.107L457.448 262.928C457.948 266.197 458.86 269.413 461.022 270.499Z" stroke="#D1C4A9" stroke-width="0.7333" stroke-miterlimit="10"/>
<path d="M500.889 238.388L506.375 265.296L481.206 279.983L475.633 252.662L500.889 238.388Z" fill="#E2D3B6"/>
<path d="M500.889 238.388L506.375 265.296L481.206 279.983L475.633 252.662L500.889 238.388Z" stroke="#D1C4A9" stroke-width="0.7333" stroke-miterlimit="10"/>
<path d="M509.004 233.815L503.67 236.824L509.145 263.678L514.457 260.582L509.004 233.815Z" fill="#E2D3B6"/>
<path d="M509.004 233.815L503.67 236.824L509.145 263.678L514.457 260.582L509.004 233.815Z" stroke="#D1C4A9" stroke-width="0.7333" stroke-miterlimit="10"/>
<path d="M518.509 228.438L512.947 231.588L518.378 258.289L523.918 255.052L518.509 228.438Z" fill="#97BC66" stroke="#8CAD56" stroke-width="0.6688" stroke-miterlimit="10"/>
<path d="M527.84 252.76L534.314 248.991L528.937 222.55L522.452 226.222L527.84 252.76Z" fill="#E2D3B6"/>
<path d="M527.84 252.76L534.314 248.991L528.937 222.55L522.452 226.222L527.84 252.76Z" stroke="#D1C4A9" stroke-width="0.7333" stroke-miterlimit="10"/>
<path d="M542.592 240.245C541.343 237.997 537.802 237.008 535.423 239.213L537.085 247.371L543.538 243.602C543.396 242.342 543.114 241.179 542.592 240.245Z" fill="#97BC66"/>
<path d="M542.592 240.245C541.343 237.997 537.802 237.008 535.423 239.213L537.085 247.371L543.538 243.602C543.396 242.342 543.114 241.179 542.592 240.245Z" stroke="#8CAD56" stroke-width="0.6688" stroke-miterlimit="10"/>
<path d="M540.409 219.834C541.343 218.346 541.875 216.727 542.169 215.087L531.718 220.986L532.772 226.189C535.683 224.972 538.671 222.637 540.409 219.834Z" fill="#97BC66"/>
<path d="M540.409 219.834C541.343 218.346 541.875 216.727 542.169 215.087L531.718 220.986L532.772 226.189C535.683 224.972 538.671 222.637 540.409 219.834Z" stroke="#8CAD56" stroke-width="0.6688" stroke-miterlimit="10"/>
<path d="M548.403 211.557L545.829 213.012C545.557 216.369 544.667 219.747 542.581 222.691C540.289 225.928 536.965 228.666 533.597 230.208L534.618 235.216C537.812 232.957 541.951 232.968 544.189 235.26C545.807 236.911 546.513 239.17 546.817 241.712L553.715 237.693L548.403 211.557Z" fill="#E2D3B6"/>
<path d="M548.403 211.557L545.829 213.012C545.557 216.369 544.667 219.747 542.581 222.691C540.289 225.928 536.965 228.666 533.597 230.208L534.618 235.216C537.812 232.957 541.951 232.968 544.189 235.26C545.807 236.911 546.513 239.17 546.817 241.712L553.715 237.693L548.403 211.557Z" stroke="#D1C4A9" stroke-width="0.7333" stroke-miterlimit="10"/>
<path d="M556.649 235.955L562.254 232.685L556.986 206.712L551.369 209.884L556.649 235.955Z" fill="#E2D3B6"/>
<path d="M556.649 235.955L562.254 232.685L556.986 206.712L551.369 209.884L556.649 235.955Z" stroke="#D1C4A9" stroke-width="0.7333" stroke-miterlimit="10"/>
<path d="M450.061 217.357L438.633 223.473L444.857 253.933L456.242 247.611L450.061 217.357Z" fill="#E2D3B6"/>
<path d="M450.061 217.357L438.633 223.473L444.857 253.933L456.242 247.611L450.061 217.357Z" stroke="#D1C4A9" stroke-width="0.8871" stroke-miterlimit="10"/>
<path d="M447.628 231.914C449.529 227.797 450.963 221.626 449.464 217.672L438.622 223.462L441.805 239.029C444.217 237.226 446.357 234.684 447.628 231.914Z" fill="#97BC66"/>
<path d="M447.628 231.914C449.529 227.797 450.963 221.626 449.464 217.672L438.622 223.462L441.805 239.029C444.217 237.226 446.357 234.684 447.628 231.914Z" stroke="#8CAD56" stroke-width="0.6688" stroke-miterlimit="10"/>
<path d="M459.653 245.319L470.103 239.529L464.053 209.884L453.559 215.489L459.653 245.319Z" fill="#97BC66" stroke="#8CAD56" stroke-width="0.6688" stroke-miterlimit="10"/>
<path d="M460.392 248.936L461.782 255.78L472.222 249.924L470.831 243.113L460.392 248.936Z" fill="#E2D3B6"/>
<path d="M460.392 248.936L461.782 255.78L472.222 249.924L470.831 243.113L460.392 248.936Z" stroke="#D1C4A9" stroke-width="0.8871" stroke-miterlimit="10"/>
<path d="M456.818 250.446L445.445 256.79L446.944 264.122L458.306 257.735L456.818 250.446Z" fill="#E2D3B6"/>
<path d="M456.818 250.446L445.445 256.79L446.944 264.122L458.306 257.735L456.818 250.446Z" stroke="#D1C4A9" stroke-width="0.8871" stroke-miterlimit="10"/>
<path d="M532.294 201.856L528.286 204.072L530.904 216.945L534.901 214.696L532.294 201.856Z" fill="#E2D3B6"/>
<path d="M532.294 201.856L528.286 204.072L530.904 216.945L534.901 214.696L532.294 201.856Z" stroke="#D1C4A9" stroke-width="0.8871" stroke-miterlimit="10"/>
<path d="M538.92 198.195L535.433 200.118L538.03 212.947L541.517 210.992L538.92 198.195Z" fill="#E2D3B6"/>
<path d="M538.92 198.195L535.433 200.118L538.03 212.947L541.517 210.992L538.92 198.195Z" stroke="#D1C4A9" stroke-width="0.8871" stroke-miterlimit="10"/>
<path d="M545.362 194.632L542.407 196.272L544.993 209.036L547.948 207.374L545.362 194.632Z" fill="#E2D3B6"/>
<path d="M545.362 194.632L542.407 196.272L544.993 209.036L547.948 207.374L545.362 194.632Z" stroke="#D1C4A9" stroke-width="0.8871" stroke-miterlimit="10"/>
<path d="M550.903 205.712L556.182 202.746L553.607 190.069L548.328 192.991L550.903 205.712Z" fill="#E2D3B6"/>
<path d="M550.903 205.712L556.182 202.746L553.607 190.069L548.328 192.991L550.903 205.712Z" stroke="#D1C4A9" stroke-width="0.8871" stroke-miterlimit="10"/>
<path d="M527.546 200.4L552.879 186.462L548.479 164.736L523.06 178.326L527.546 200.4Z" fill="#97BC66" stroke="#8CAD56" stroke-width="0.6688" stroke-miterlimit="10"/>
<path d="M450.333 199.368L460.794 193.893L459.142 185.822L448.671 191.242L450.333 199.368Z" fill="#E2D3B6"/>
<path d="M450.333 199.368L460.794 193.893L459.142 185.822L448.671 191.242L450.333 199.368Z" stroke="#D1C4A9" stroke-width="0.6382" stroke-miterlimit="10"/>
<path d="M451.245 203.844L452.929 212.1L463.368 206.538L461.695 198.336L451.245 203.844Z" fill="#E2D3B6"/>
<path d="M451.245 203.844L452.929 212.1L463.368 206.538L461.695 198.336L451.245 203.844Z" stroke="#D1C4A9" stroke-width="0.6382" stroke-miterlimit="10"/>
<path d="M445.162 193.067L433.636 199.042L437.938 220.084L449.431 213.968L445.162 193.067Z" fill="#E2D3B6"/>
<path d="M445.162 193.067L433.636 199.042L437.938 220.084L449.431 213.968L445.162 193.067Z" stroke="#D1C4A9" stroke-width="0.6382" stroke-miterlimit="10"/>
<path d="M525.483 168.322L521.463 170.451L522.408 175.111L526.428 172.971L525.483 168.322Z" fill="#E2D3B6"/>
<path d="M525.483 168.322L521.463 170.451L522.408 175.111L526.428 172.971L525.483 168.322Z" stroke="#D1C4A9" stroke-width="0.6382" stroke-miterlimit="10"/>
<path d="M534.575 166.964C534.249 165.975 533.88 165.03 533.511 164.074L527.927 167.029L528.872 171.668L535.053 168.376C534.89 167.8 534.684 167.279 534.575 166.964Z" fill="#E2D3B6"/>
<path d="M534.575 166.964C534.249 165.975 533.88 165.03 533.511 164.074L527.927 167.029L528.872 171.668L535.053 168.376C534.89 167.8 534.684 167.279 534.575 166.964Z" stroke="#D1C4A9" stroke-width="0.6382" stroke-miterlimit="10"/>
<path d="M538.551 166.518L547.839 161.575L546.905 156.991L537.074 162.195C537.66 163.596 538.236 165.03 538.551 166.518Z" fill="#E2D3B6"/>
<path d="M538.551 166.518L547.839 161.575L546.905 156.991L537.074 162.195C537.66 163.596 538.236 165.03 538.551 166.518Z" stroke="#D1C4A9" stroke-width="0.6382" stroke-miterlimit="10"/>
<path d="M523.918 160.598L519.888 162.705L520.92 167.8L524.95 165.682L523.918 160.598Z" fill="#E2D3B6"/>
<path d="M523.918 160.598L519.888 162.705L520.92 167.8L524.95 165.682L523.918 160.598Z" stroke="#D1C4A9" stroke-width="0.6382" stroke-miterlimit="10"/>
<path d="M531.751 156.492L526.374 159.305L527.406 164.378L532.653 161.608C532.164 160 531.838 158.295 531.751 156.492Z" fill="#E2D3B6"/>
<path d="M531.751 156.492L526.374 159.305L527.406 164.378L532.653 161.608C532.164 160 531.838 158.295 531.751 156.492Z" stroke="#D1C4A9" stroke-width="0.6382" stroke-miterlimit="10"/>
<path d="M535.433 157.089C535.564 157.98 535.824 158.882 536.139 159.783L546.383 154.385L545.362 149.366L535.26 154.656C535.26 155.471 535.314 156.275 535.433 157.089Z" fill="#E2D3B6"/>
<path d="M535.433 157.089C535.564 157.98 535.824 158.882 536.139 159.783L546.383 154.385L545.362 149.366L535.26 154.656C535.26 155.471 535.314 156.275 535.433 157.089Z" stroke="#D1C4A9" stroke-width="0.6382" stroke-miterlimit="10"/>
<path d="M522.376 153.037L518.345 155.123L519.345 160.066L523.386 157.958L522.376 153.037Z" fill="#E2D3B6"/>
<path d="M522.376 153.037L518.345 155.123L519.345 160.066L523.386 157.958L522.376 153.037Z" stroke="#D1C4A9" stroke-width="0.6382" stroke-miterlimit="10"/>
<path d="M531.827 153.298C532.044 151.223 532.511 149.257 533.185 147.432L524.842 151.755L525.841 156.676L531.816 153.559C531.816 153.472 531.816 153.385 531.827 153.298Z" fill="#E2D3B6"/>
<path d="M531.827 153.298C532.044 151.223 532.511 149.257 533.185 147.432L524.842 151.755L525.841 156.676L531.816 153.559C531.816 153.472 531.816 153.385 531.827 153.298Z" stroke="#D1C4A9" stroke-width="0.6382" stroke-miterlimit="10"/>
<path d="M535.52 151.625L544.83 146.769L543.841 141.913L538.421 144.727C536.965 146.715 535.966 149.094 535.52 151.625Z" fill="#E2D3B6"/>
<path d="M535.52 151.625L544.83 146.769L543.841 141.913L538.421 144.727C536.965 146.715 535.966 149.094 535.52 151.625Z" stroke="#D1C4A9" stroke-width="0.6382" stroke-miterlimit="10"/>
<path d="M440.382 181.618C437.318 178.924 433.668 179.825 430.04 181.476L432.843 195.207L444.14 189.385C443.934 186.202 442.38 183.356 440.382 181.618Z" fill="#E2D3B6"/>
<path d="M440.382 181.618C437.318 178.924 433.668 179.825 430.04 181.476L432.843 195.207L444.14 189.385C443.934 186.202 442.38 183.356 440.382 181.618Z" stroke="#D1C4A9" stroke-width="0.7333" stroke-miterlimit="10"/>
<path d="M435.222 163.411L427.173 167.42L429.204 177.338C432.104 176.078 434.994 175.209 437.688 175.48L435.222 163.411Z" fill="#E2D3B6"/>
<path d="M435.222 163.411L427.173 167.42L429.204 177.338C432.104 176.078 434.994 175.209 437.688 175.48L435.222 163.411Z" stroke="#D1C4A9" stroke-width="0.7333" stroke-miterlimit="10"/>
<path d="M441.305 172.276L442.359 177.436C442.782 177.773 443.184 178.164 443.586 178.609C445.65 180.891 447.193 184.073 447.617 187.593L451.397 185.638L447.975 168.909L441.305 172.276Z" fill="#E2D3B6"/>
<path d="M441.305 172.276L442.359 177.436C442.782 177.773 443.184 178.164 443.586 178.609C445.65 180.891 447.193 184.073 447.617 187.593L451.397 185.638L447.975 168.909L441.305 172.276Z" stroke="#D1C4A9" stroke-width="0.7333" stroke-miterlimit="10"/>
<path d="M440.425 168.018L447.117 164.661L445.791 158.154L439.1 161.478L440.425 168.018Z" fill="#E2D3B6"/>
<path d="M440.425 168.018L447.117 164.661L445.791 158.154L439.1 161.478L440.425 168.018Z" stroke="#D1C4A9" stroke-width="0.7333" stroke-miterlimit="10"/>
<path d="M454.569 183.997L458.371 182.042L452.787 154.667L448.963 156.568L454.569 183.997Z" fill="#E2D3B6"/>
<path d="M454.569 183.997L458.371 182.042L452.787 154.667L448.963 156.568L454.569 183.997Z" stroke="#D1C4A9" stroke-width="0.7333" stroke-miterlimit="10"/>
<path d="M471.7 233.391L473.069 240.148L498.38 226.07L497.033 219.422L471.7 233.391Z" fill="#E2D3B6"/>
<path d="M471.7 233.391L473.069 240.148L498.38 226.07L497.033 219.422L471.7 233.391Z" stroke="#D1C4A9" stroke-width="0.8871" stroke-miterlimit="10"/>
<path d="M472.884 212.741C473.786 210.84 474.134 208.754 474.134 206.723C474.134 206.027 474.101 205.289 474.025 204.539L466.627 208.493L468.3 216.717C470.049 215.793 472.015 214.577 472.884 212.741Z" fill="#97BC66" stroke="#8CAD56" stroke-width="0.6688" stroke-miterlimit="10"/>
<path d="M473.818 243.798L474.774 248.491L500.052 234.282L499.118 229.665L473.818 243.798Z" fill="#E2D3B6"/>
<path d="M473.818 243.798L474.774 248.491L500.052 234.282L499.118 229.665L473.818 243.798Z" stroke="#D1C4A9" stroke-width="0.8871" stroke-miterlimit="10"/>
<path d="M468.832 188.625C469.734 185.92 469.158 182.987 467.626 181.422L461.717 184.486L463.498 193.22C465.378 192.231 467.952 191.275 468.832 188.625Z" fill="#E2D3B6"/>
<path d="M468.832 188.625C469.734 185.92 469.158 182.987 467.626 181.422L461.717 184.486L463.498 193.22C465.378 192.231 467.952 191.275 468.832 188.625Z" stroke="#D1C4A9" stroke-width="0.6382" stroke-miterlimit="10"/>
<path d="M476.154 186.17C477.468 184.171 479.467 181.868 479.097 179.261C478.945 178.185 478.674 176.958 478.196 175.937L471.428 179.446C472.96 182.183 473.221 186.17 472.037 189.765C470.624 194.035 467.431 195.74 464.346 197.369L465.942 205.18L473.623 201.095C472.743 196.131 473.112 190.797 476.154 186.17Z" fill="#E2D3B6"/>
<path d="M476.154 186.17C477.468 184.171 479.467 181.868 479.097 179.261C478.945 178.185 478.674 176.958 478.196 175.937L471.428 179.446C472.96 182.183 473.221 186.17 472.037 189.765C470.624 194.035 467.431 195.74 464.346 197.369L465.942 205.18L473.623 201.095C472.743 196.131 473.112 190.797 476.154 186.17Z" stroke="#D1C4A9" stroke-width="0.6382" stroke-miterlimit="10"/>
<path d="M507.059 219.997C507.569 216.282 509.655 213.023 512.078 210.546C515.923 206.624 520.344 204.213 524.744 201.899L522.18 189.255C518.541 191.427 513.414 193.361 511.252 197.988C509.177 202.442 510.133 207.157 507.483 211.502C505.527 214.717 502.79 217.042 499.922 218.367L502.844 232.717L508.134 229.741C507.439 226.656 506.57 223.516 507.059 219.997Z" fill="#E2D3B6"/>
<path d="M507.059 219.997C507.569 216.282 509.655 213.023 512.078 210.546C515.923 206.624 520.344 204.213 524.744 201.899L522.18 189.255C518.541 191.427 513.414 193.361 511.252 197.988C509.177 202.442 510.133 207.157 507.483 211.502C505.527 214.717 502.79 217.042 499.922 218.367L502.844 232.717L508.134 229.741C507.439 226.656 506.57 223.516 507.059 219.997Z" stroke="#D1C4A9" stroke-width="0.8871" stroke-miterlimit="10"/>
<path d="M522.549 191.112C519.551 192.416 516.575 194.61 515.271 197.804C514.033 200.834 515.63 203.333 515.869 206.092C515.901 206.461 515.912 206.842 515.912 207.211C518.747 205.093 521.756 203.474 524.744 201.899L522.549 191.112Z" fill="#97BC66"/>
<path d="M522.549 191.112C519.551 192.416 516.575 194.61 515.271 197.804C514.033 200.834 515.63 203.333 515.869 206.092C515.901 206.461 515.912 206.842 515.912 207.211C518.747 205.093 521.756 203.474 524.744 201.899L522.549 191.112Z" stroke="#8CAD56" stroke-width="0.6688" stroke-miterlimit="10"/>
<path d="M509.59 213.598C509.71 213.109 509.97 212.621 510.437 212.219C513.881 209.264 511.708 205.733 511.317 202.377C511.078 200.389 511.437 198.238 512.252 196.283C511.871 196.815 511.524 197.38 511.241 197.988C509.167 202.442 510.122 207.156 507.472 211.502C505.517 214.717 502.779 217.042 499.911 218.367L502.833 232.717L508.124 229.741C507.428 226.645 506.559 223.516 507.048 219.986C507.374 217.65 508.319 215.488 509.59 213.598Z" fill="#97BC66"/>
<path d="M509.59 213.598C509.71 213.109 509.97 212.621 510.437 212.219C513.881 209.264 511.708 205.733 511.317 202.377C511.078 200.389 511.437 198.238 512.252 196.283C511.871 196.815 511.524 197.38 511.241 197.988C509.167 202.442 510.122 207.156 507.472 211.502C505.517 214.717 502.779 217.042 499.911 218.367L502.833 232.717L508.124 229.741C507.428 226.645 506.559 223.516 507.048 219.986C507.374 217.65 508.319 215.488 509.59 213.598Z" stroke="#8CAD56" stroke-width="0.6688" stroke-miterlimit="10"/>
<path d="M515.044 212.719C513.056 214.577 510.579 217.249 510.459 220.421C510.362 223.082 511.013 225.44 511.557 227.819L528.123 218.509L525.559 205.886C521.931 207.766 518.27 209.71 515.044 212.719Z" fill="#E2D3B6"/>
<path d="M515.044 212.719C513.056 214.577 510.579 217.249 510.459 220.421C510.362 223.082 511.013 225.44 511.557 227.819L528.123 218.509L525.559 205.886C521.931 207.766 518.27 209.71 515.044 212.719Z" stroke="#D1C4A9" stroke-width="0.8871" stroke-miterlimit="10"/>
<path d="M443.38 196.359L446.78 213.001L439.708 216.749L436.286 200.042L443.38 196.359Z" fill="#97BC66"/>
<path d="M443.38 196.359L446.78 213.001L439.708 216.749L436.286 200.042L443.38 196.359Z" stroke="#8CAD56" stroke-width="0.6688" stroke-miterlimit="10"/>
<path d="M506.494 179.228C507.352 178.435 507.504 176.349 507.787 174.676C508.417 171.026 511.241 172.134 512.284 169.19C512.958 167.702 511.947 163.705 510.59 163.726C508.189 163.39 507.624 168.224 505.614 168.821C503.648 169.625 501.53 166.855 499.477 167.246C497.641 167.746 495.349 169.853 496.424 172.265C497.185 173.883 499.227 173.72 500.465 174.502C502.084 175.523 502.627 178.044 504.235 179.054C505.31 179.717 506.005 179.673 506.494 179.228Z" fill="#60C2DA" stroke="#54B6C0" stroke-width="0.6688" stroke-miterlimit="10"/>
<path d="M488.266 270.282C489.928 268.359 488.364 260.104 492.014 262.298C493.524 263.2 493.415 264.699 495.642 263.71C497.989 262.678 497.576 261.57 497.261 259.278C497.152 258.452 496.837 257.257 497.054 256.367C497.359 255.063 498.217 254.639 498.793 253.466C499.966 251.087 499.759 248.143 498.825 246.275C497.913 244.45 496.577 244.102 495.392 246.547C494.306 248.806 495.186 251.402 492.568 252.195C490.808 252.728 490.385 250.772 488.875 250.479C487.745 250.251 484.997 250.848 483.889 251.739C483.009 252.456 483.291 252.901 482.683 253.597C481.944 254.444 480.901 254.672 480.184 255.487C478.913 256.932 479.055 259.321 480.695 259.832C482.02 260.245 484.671 257.996 484.095 261.059C483.965 261.766 483.128 262.233 482.911 262.895C482.563 263.971 482.791 264.699 482.857 265.698C482.857 265.698 482.976 269.152 484.714 270.977C484.725 270.977 485.92 272.998 488.266 270.282Z" fill="#60C2DA" stroke="#54B6C0" stroke-width="0.6688" stroke-miterlimit="10"/>
<path d="M495.479 123.197C493.22 123.306 490.819 123.545 488.538 124.229C486.126 124.935 483.725 126.26 481.303 126.945L482.976 135.135L503.561 124.946C501.389 123.273 497.999 123.078 495.479 123.197Z" fill="#97BC66"/>
<path d="M495.479 123.197C493.22 123.306 490.819 123.545 488.538 124.229C486.126 124.935 483.725 126.26 481.303 126.945L482.976 135.135L503.561 124.946C501.389 123.273 497.999 123.078 495.479 123.197Z" stroke="#8CAD56" stroke-width="0.6688" stroke-miterlimit="10"/>
<path d="M483.573 100.798C481.237 99.9395 478.641 100.211 476.034 101.048L480.455 122.784C483.671 122.165 486.919 120.242 490.145 119.547C490.254 119.526 490.362 119.504 490.46 119.482C491.611 112.193 489.156 102.829 483.573 100.798Z" fill="#E2D3B6"/>
<path d="M483.573 100.798C481.237 99.9395 478.641 100.211 476.034 101.048L480.455 122.784C483.671 122.165 486.919 120.242 490.145 119.547C490.254 119.526 490.362 119.504 490.46 119.482C491.611 112.193 489.156 102.829 483.573 100.798Z" stroke="#D1C4A9" stroke-width="0.8871" stroke-miterlimit="10"/>
<path d="M490.015 100.504C491.362 102.286 492.415 104.491 493.143 106.902L504.343 101.514L502.887 94.3666L490.015 100.504Z" fill="#E2D3B6"/>
<path d="M490.015 100.504C491.362 102.286 492.415 104.491 493.143 106.902L504.343 101.514L502.887 94.3666L490.015 100.504Z" stroke="#D1C4A9" stroke-width="0.8871" stroke-miterlimit="10"/>
<path d="M475.198 96.9732C479.044 95.6696 482.922 95.3112 486.202 97.1036C486.278 97.147 486.355 97.1905 486.431 97.2339L501.986 89.8797L500.737 83.7529L474.959 95.8217L475.198 96.9732Z" fill="#E2D3B6"/>
<path d="M475.198 96.9732C479.044 95.6696 482.922 95.3112 486.202 97.1036C486.278 97.147 486.355 97.1905 486.431 97.2339L501.986 89.8797L500.737 83.7529L474.959 95.8217L475.198 96.9732Z" stroke="#D1C4A9" stroke-width="0.8871" stroke-miterlimit="10"/>
<path d="M517.748 75.8019L503.583 82.4392L504.973 89.2937C509.438 87.5882 514.076 87.0559 517.64 90.1302C519.769 91.966 521.181 94.7578 521.235 97.8429C522.463 96.5719 523.614 95.2032 524.668 93.7693C520.866 89.3806 517.705 82.6564 517.748 75.8019Z" fill="#E2D3B6"/>
<path d="M517.748 75.8019L503.583 82.4392L504.973 89.2937C509.438 87.5882 514.076 87.0559 517.64 90.1302C519.769 91.966 521.181 94.7578 521.235 97.8429C522.463 96.5719 523.614 95.2032 524.668 93.7693C520.866 89.3806 517.705 82.6564 517.748 75.8019Z" stroke="#D1C4A9" stroke-width="0.8871" stroke-miterlimit="10"/>
<path d="M527.101 90.1086C527.59 89.2612 528.046 88.4139 528.459 87.5449C529.806 84.7096 530.621 81.7875 531.077 78.8328L529.361 70.3705L521.377 74.1074C520.844 80.1037 523.777 86.1544 527.101 90.1086Z" fill="#E2D3B6"/>
<path d="M527.101 90.1086C527.59 89.2612 528.046 88.4139 528.459 87.5449C529.806 84.7096 530.621 81.7875 531.077 78.8328L529.361 70.3705L521.377 74.1074C520.844 80.1037 523.777 86.1544 527.101 90.1086Z" stroke="#D1C4A9" stroke-width="0.8871" stroke-miterlimit="10"/>
<path d="M516.988 101.569C519.063 98.2119 516.64 94.323 514.37 93.1498C511.611 91.7267 508.743 92.1721 505.788 93.3018L508.461 106.468C511.296 105.479 514.164 103.85 516.869 101.764C516.901 101.699 516.945 101.634 516.988 101.569Z" fill="#E2D3B6"/>
<path d="M516.988 101.569C519.063 98.2119 516.64 94.323 514.37 93.1498C511.611 91.7267 508.743 92.1721 505.788 93.3018L508.461 106.468C511.296 105.479 514.164 103.85 516.869 101.764C516.901 101.699 516.945 101.634 516.988 101.569Z" stroke="#D1C4A9" stroke-width="0.8871" stroke-miterlimit="10"/>
<path d="M531.175 89.7716C530.708 90.6624 530.209 91.5314 529.676 92.3896L533.294 110.227L537.052 108.369L532.631 86.5344C532.207 87.6316 531.729 88.7179 531.175 89.7716Z" fill="#E2D3B6"/>
<path d="M531.175 89.7716C530.708 90.6624 530.209 91.5314 529.676 92.3896L533.294 110.227L537.052 108.369L532.631 86.5344C532.207 87.6316 531.729 88.7179 531.175 89.7716Z" stroke="#D1C4A9" stroke-width="0.8871" stroke-miterlimit="10"/>
<path d="M526.373 97.1694C525.048 98.8749 523.625 100.494 522.104 101.982L524.646 114.507L529.404 112.15L526.373 97.1694Z" fill="#E2D3B6"/>
<path d="M526.373 97.1694C525.048 98.8749 523.625 100.494 522.104 101.982L524.646 114.507L529.404 112.15L526.373 97.1694Z" stroke="#D1C4A9" stroke-width="0.8871" stroke-miterlimit="10"/>
<path d="M536.932 175.296C535.194 177.827 535.335 180.923 535.379 183.628C535.422 186.431 534.705 189.146 532.555 190.971C530.664 192.59 528.264 193.133 526.167 193.644L526.591 195.729C529.111 195.078 531.761 194.241 533.999 192.155C536.769 189.559 537.291 185.41 537.139 181.933C537.041 179.663 537.345 177.056 539.17 175.426C539.996 174.688 541.006 174.46 541.984 174.547C541.343 175.177 540.81 176.056 540.734 176.98C540.68 177.642 540.778 178.24 540.919 178.827C541.147 179.848 541.267 180.152 540.213 180.641C539.844 180.804 539.507 181.39 539.518 181.836C539.757 187.397 545.579 185.594 547.448 180.869C548.512 178.186 547.828 175.959 546.481 174.46C546.253 173.851 545.786 173.493 545.199 173.373C544.33 172.808 543.363 172.472 542.44 172.396C540.474 172.233 538.399 173.178 536.932 175.296Z" fill="#60C2DA" stroke="#54B6C0" stroke-width="0.6688" stroke-miterlimit="10"/>
<path d="M430.323 136.927C428.682 138.241 427.086 139.654 425.521 141.12C424.283 142.283 423.012 143.456 421.611 144.075L422.002 146.009C423.338 145.389 424.576 144.368 425.793 143.26C428.128 141.153 430.431 139.078 432.865 137.177C437.351 133.679 442.022 130.724 446.715 127.846C450.517 125.51 455.221 122.849 458.958 124.923C462.814 127.053 463.553 133.853 464.422 138.589C465.921 146.704 469.136 153.178 476.306 153.873C484.605 154.634 492.774 148.518 500.976 146.019C504.441 144.966 507.885 145.129 511.35 143.858C514.565 142.684 517.477 140.675 519.801 137.362C521.67 134.7 522.072 130.866 524.418 128.725C525.743 127.52 527.742 126.585 529.263 126.564C530.632 126.542 531.761 127.541 532.783 128.334C535.498 130.442 538.453 131.365 541.647 131.094L541.267 129.236C540.245 129.29 539.235 129.225 538.236 129.019C534.955 128.324 532.88 124.554 529.382 124.608C526.167 124.652 522.528 127.324 521.007 131.126C519.943 133.788 519.008 136.123 517.086 138.209C514.902 140.577 512.11 141.761 509.492 142.467C507.092 143.108 504.713 143.152 502.323 143.695C499.737 144.27 497.174 145.368 494.643 146.508C487.516 149.735 478.837 154.373 472.221 150.43C467.572 147.638 466.605 140.827 465.465 134.885C464.346 128.986 462.26 122.175 456.492 122.153C450.973 122.121 445.238 126.564 440.186 129.79C436.841 131.941 433.549 134.342 430.323 136.927Z" fill="#60C2DA" stroke="#54B6C0" stroke-width="0.6688" stroke-miterlimit="10"/>
<path d="M427.553 146.476C427.053 146.216 426.532 146.009 426.011 145.835C425.098 146.628 424.153 147.345 423.175 147.899L426.304 163.184L434.288 159.23C433.908 153.592 431.67 148.606 427.553 146.476Z" fill="#E2D3B6"/>
<path d="M427.553 146.476C427.053 146.216 426.532 146.009 426.011 145.835C425.098 146.628 424.153 147.345 423.175 147.899L426.304 163.184L434.288 159.23C433.908 153.592 431.67 148.606 427.553 146.476Z" stroke="#D1C4A9" stroke-width="0.8871" stroke-miterlimit="10"/>
<path d="M441.49 138.916C441.392 137.112 441.447 135.331 441.631 133.571C438.992 135.298 436.374 137.102 433.821 139.1C432.43 140.187 431.083 141.327 429.747 142.5C429.758 142.511 429.769 142.511 429.78 142.522C434.473 145.401 437.188 150.908 437.797 157.491L444.097 154.374C443.087 149.29 441.773 144.282 441.49 138.916Z" fill="#E2D3B6"/>
<path d="M441.49 138.916C441.392 137.112 441.447 135.331 441.631 133.571C438.992 135.298 436.374 137.102 433.821 139.1C432.43 140.187 431.083 141.327 429.747 142.5C429.758 142.511 429.769 142.511 429.78 142.522C434.473 145.401 437.188 150.908 437.797 157.491L444.097 154.374C443.087 149.29 441.773 144.282 441.49 138.916Z" stroke="#D1C4A9" stroke-width="0.8871" stroke-miterlimit="10"/>
<path d="M445.575 131.062C445.032 133.637 444.88 136.287 445.108 139.003C445.51 143.707 446.661 148.149 447.563 152.658L451.93 150.496L447.693 129.758C447.519 129.867 447.345 129.976 447.183 130.073C446.65 130.399 446.118 130.725 445.575 131.062Z" fill="#E2D3B6"/>
<path d="M445.575 131.062C445.032 133.637 444.88 136.287 445.108 139.003C445.51 143.707 446.661 148.149 447.563 152.658L451.93 150.496L447.693 129.758C447.519 129.867 447.345 129.976 447.183 130.073C446.65 130.399 446.118 130.725 445.575 131.062Z" stroke="#D1C4A9" stroke-width="0.8871" stroke-miterlimit="10"/>
<path d="M429.388 135.005C432.767 132.311 436.221 129.813 439.763 127.553C440.012 127.39 440.273 127.227 440.523 127.053C438.687 125.055 436.091 124.957 433.527 125.511C428.878 126.521 424.326 129.063 419.894 131.833L421.86 141.469C422.827 140.893 423.718 140.002 424.587 139.187C426.162 137.721 427.748 136.32 429.388 135.005Z" fill="#E2D3B6"/>
<path d="M429.388 135.005C432.767 132.311 436.221 129.813 439.763 127.553C440.012 127.39 440.273 127.227 440.523 127.053C438.687 125.055 436.091 124.957 433.527 125.511C428.878 126.521 424.326 129.063 419.894 131.833L421.86 141.469C422.827 140.893 423.718 140.002 424.587 139.187C426.162 137.721 427.748 136.32 429.388 135.005Z" stroke="#D1C4A9" stroke-width="0.8871" stroke-miterlimit="10"/>
<path d="M419.025 127.596C424.25 124.316 429.703 121.307 435.135 120.796C438.611 120.47 441.881 121.426 443.967 124.663C443.988 124.696 444.01 124.739 444.032 124.772C444.814 124.272 445.596 123.773 446.389 123.306L443.76 110.444L417.993 122.513L419.025 127.596Z" fill="#E2D3B6"/>
<path d="M419.025 127.596C424.25 124.316 429.703 121.307 435.135 120.796C438.611 120.47 441.881 121.426 443.967 124.663C443.988 124.696 444.01 124.739 444.032 124.772C444.814 124.272 445.596 123.773 446.389 123.306L443.76 110.444L417.993 122.513L419.025 127.596Z" stroke="#D1C4A9" stroke-width="0.8871" stroke-miterlimit="10"/>
<path d="M459.099 137.797C457.372 139.926 455.254 141.176 453.049 142.055L454.515 149.214L463.792 144.63C463.303 143.001 462.912 141.284 462.586 139.513C462.217 137.526 461.902 134.908 461.261 132.561C460.903 134.484 460.283 136.341 459.099 137.797Z" fill="#E2D3B6"/>
<path d="M459.099 137.797C457.372 139.926 455.254 141.176 453.049 142.055L454.515 149.214L463.792 144.63C463.303 143.001 462.912 141.284 462.586 139.513C462.217 137.526 461.902 134.908 461.261 132.561C460.903 134.484 460.283 136.341 459.099 137.797Z" stroke="#D1C4A9" stroke-width="0.8871" stroke-miterlimit="10"/>
<path d="M456.622 135.08C457.98 133.223 458.056 130.572 458.263 128.367C458.295 128.03 458.371 127.726 458.48 127.455C458.317 127.335 458.154 127.216 457.98 127.118C455.699 125.858 452.853 126.868 450.246 128.269L452.223 137.981C453.874 137.394 455.558 136.536 456.622 135.08Z" fill="#97BC66"/>
<path d="M456.622 135.08C457.98 133.223 458.056 130.572 458.263 128.367C458.295 128.03 458.371 127.726 458.48 127.455C458.317 127.335 458.154 127.216 457.98 127.118C455.699 125.858 452.853 126.868 450.246 128.269L452.223 137.981C453.874 137.394 455.558 136.536 456.622 135.08Z" stroke="#8CAD56" stroke-width="0.6688" stroke-miterlimit="10"/>
<path d="M467.3 133.788C467.311 133.853 467.322 133.908 467.333 133.973C467.821 136.569 468.256 139.459 469.06 142.022L480.14 136.537L478.467 128.324L467.3 133.788Z" fill="#E2D3B6"/>
<path d="M467.3 133.788C467.311 133.853 467.322 133.908 467.333 133.973C467.821 136.569 468.256 139.459 469.06 142.022L480.14 136.537L478.467 128.324L467.3 133.788Z" stroke="#D1C4A9" stroke-width="0.8871" stroke-miterlimit="10"/>
<path d="M463.086 114.495C463.292 111.389 462.977 108.108 461.912 105.479C461.467 104.371 460.924 103.448 460.305 102.709L446.367 109.238L448.953 121.904C451.484 120.633 454.058 119.764 456.579 119.775C458.404 119.786 459.935 120.318 461.228 121.22C462.564 119.666 462.966 116.266 463.086 114.495Z" fill="#97BC66"/>
<path d="M463.086 114.495C463.292 111.389 462.977 108.108 461.912 105.479C461.467 104.371 460.924 103.448 460.305 102.709L446.367 109.238L448.953 121.904C451.484 120.633 454.058 119.764 456.579 119.775C458.404 119.786 459.935 120.318 461.228 121.22C462.564 119.666 462.966 116.266 463.086 114.495Z" stroke="#8CAD56" stroke-width="0.6688" stroke-miterlimit="10"/>
<path d="M465.682 104.642C466.964 109.129 467.464 119.297 463.835 124.011C464.672 125.271 465.345 126.749 465.888 128.335L477.349 122.773L472.135 97.1577L464.129 100.905C464.77 102.035 465.291 103.295 465.682 104.642Z" fill="#E2D3B6"/>
<path d="M465.682 104.642C466.964 109.129 467.464 119.297 463.835 124.011C464.672 125.271 465.345 126.749 465.888 128.335L477.349 122.773L472.135 97.1577L464.129 100.905C464.77 102.035 465.291 103.295 465.682 104.642Z" stroke="#D1C4A9" stroke-width="0.8871" stroke-miterlimit="10"/>
<path d="M463.183 172.678L459.675 174.481L460.946 180.706L464.454 178.891L463.183 172.678Z" fill="#E2D3B6"/>
<path d="M463.183 172.678L459.675 174.481L460.946 180.706L464.454 178.891L463.183 172.678Z" stroke="#D1C4A9" stroke-width="0.7333" stroke-miterlimit="10"/>
<path d="M470.809 168.778L466.236 171.125L467.496 177.327L472.069 174.97L470.809 168.778Z" fill="#E2D3B6"/>
<path d="M470.809 168.778L466.236 171.125L467.496 177.327L472.069 174.97L470.809 168.778Z" stroke="#D1C4A9" stroke-width="0.7333" stroke-miterlimit="10"/>
<path d="M478.066 165.063L473.612 167.344L474.872 173.525L479.326 171.222L478.066 165.063Z" fill="#E2D3B6"/>
<path d="M478.066 165.063L473.612 167.344L474.872 173.525L479.326 171.222L478.066 165.063Z" stroke="#D1C4A9" stroke-width="0.7333" stroke-miterlimit="10"/>
<path d="M482.715 169.473L486.462 167.54L485.213 161.413L481.465 163.325L482.715 169.473Z" fill="#E2D3B6"/>
<path d="M482.715 169.473L486.462 167.54L485.213 161.413L481.465 163.325L482.715 169.473Z" stroke="#D1C4A9" stroke-width="0.7333" stroke-miterlimit="10"/>
<path d="M457.633 164.498L458.925 170.82L484.475 157.807L483.943 155.199C481.249 156.025 478.522 156.492 475.774 156.242C475.307 156.199 474.84 156.134 474.383 156.036L457.633 164.498Z" fill="#E2D3B6"/>
<path d="M457.633 164.498L458.925 170.82L484.475 157.807L483.943 155.199C481.249 156.025 478.522 156.492 475.774 156.242C475.307 156.199 474.84 156.134 474.383 156.036L457.633 164.498Z" stroke="#D1C4A9" stroke-width="0.7333" stroke-miterlimit="10"/>
<path d="M458.773 151.69L455.373 153.385L456.915 160.978L460.326 159.273L458.773 151.69Z" fill="#E2D3B6"/>
<path d="M458.773 151.69L455.373 153.385L456.915 160.978L460.326 159.273L458.773 151.69Z" stroke="#D1C4A9" stroke-width="0.7333" stroke-miterlimit="10"/>
<path d="M463.487 157.676L470.103 154.352C469.082 153.7 468.137 152.864 467.344 151.853C466.529 150.811 465.845 149.67 465.258 148.464L461.945 150.115L463.487 157.676Z" fill="#E2D3B6"/>
<path d="M463.487 157.676L470.103 154.352C469.082 153.7 468.137 152.864 467.344 151.853C466.529 150.811 465.845 149.67 465.258 148.464L461.945 150.115L463.487 157.676Z" stroke="#D1C4A9" stroke-width="0.7333" stroke-miterlimit="10"/>
<path d="M473.232 148.214C476.056 149.909 479.337 149.844 482.694 149.007L480.988 140.643L470.745 145.737C471.396 146.748 472.211 147.606 473.232 148.214Z" fill="#E2D3B6"/>
<path d="M473.232 148.214C476.056 149.909 479.337 149.844 482.694 149.007L480.988 140.643L470.745 145.737C471.396 146.748 472.211 147.606 473.232 148.214Z" stroke="#D1C4A9" stroke-width="0.7333" stroke-miterlimit="10"/>
<path d="M511.806 146.009C508.156 147.345 504.571 147.236 500.921 148.355C496.185 149.8 491.525 152.353 486.843 154.178L489.265 166.095L514.782 152.929L513.251 145.401C512.784 145.629 512.295 145.824 511.806 146.009Z" fill="#E2D3B6"/>
<path d="M511.806 146.009C508.156 147.345 504.571 147.236 500.921 148.355C496.185 149.8 491.525 152.353 486.843 154.178L489.265 166.095L514.782 152.929L513.251 145.401C512.784 145.629 512.295 145.824 511.806 146.009Z" stroke="#D1C4A9" stroke-width="0.7333" stroke-miterlimit="10"/>
<path d="M531.414 130.225C529.523 128.759 527.698 128.39 525.341 130.54C524.45 131.355 524.114 132.442 523.679 133.615C523.006 135.407 522.213 137.2 521.126 138.742C519.649 140.849 517.922 142.533 516.042 143.815L517.596 151.484L543.113 138.318L542.103 133.321C538.225 133.81 534.683 132.757 531.414 130.225Z" fill="#97BC66"/>
<path d="M531.414 130.225C529.523 128.759 527.698 128.39 525.341 130.54C524.45 131.355 524.114 132.442 523.679 133.615C523.006 135.407 522.213 137.2 521.126 138.742C519.649 140.849 517.922 142.533 516.042 143.815L517.596 151.484L543.113 138.318L542.103 133.321C538.225 133.81 534.683 132.757 531.414 130.225Z" stroke="#8CAD56" stroke-width="0.6688" stroke-miterlimit="10"/>
<path d="M481.759 174.09C482.78 176.621 482.997 179.793 482.063 182.693C481.085 185.757 478.793 187.723 477.62 190.612C476.458 193.48 476.577 196.511 477.066 199.248L491.383 191.677L489.048 180.184L487.223 171.244L481.759 174.09Z" fill="#E2D3B6" stroke="#D1C4A9" stroke-width="0.6382" stroke-miterlimit="10"/>
<path d="M485.963 206.668L487.158 212.534L488.451 218.889L496.066 214.718L494.306 206.027L493.589 202.551L485.963 206.668Z" fill="#97BC66" stroke="#8CAD56" stroke-width="0.6688" stroke-miterlimit="10"/>
<path d="M494.838 193.415L499.086 214.261C502.16 212.936 505.473 209.992 506.092 205.908C506.82 201.139 507.211 196.957 510.383 193.089C513.534 189.276 517.607 187.603 521.355 185.257L520.258 179.836L494.838 193.415Z" fill="#E2D3B6"/>
<path d="M494.838 193.415L499.086 214.261C502.16 212.936 505.473 209.992 506.092 205.908C506.82 201.139 507.211 196.957 510.383 193.089C513.534 189.276 517.607 187.603 521.355 185.257L520.258 179.836L494.838 193.415Z" stroke="#D1C4A9" stroke-width="0.8871" stroke-miterlimit="10"/>
<path d="M494.056 111.203C494.393 113.745 494.404 116.385 494.067 118.938C495.425 118.808 496.783 118.775 498.119 118.84C500.585 118.96 503.105 119.525 505.126 120.806C505.148 120.763 506.451 123.511 506.451 123.511L508.591 122.447L507.57 117.45L505.202 105.805L494.056 111.203Z" fill="#E2D3B6" stroke="#D1C4A9" stroke-width="0.8871" stroke-miterlimit="10"/>
<path d="M509.286 110.498L510.372 115.864C510.372 115.864 510.372 115.864 510.383 115.864L511.437 121.046L516.618 118.482L521.127 116.255L518.824 104.925C515.804 107.358 512.567 109.292 509.286 110.498Z" fill="#97BC66"/>
<path d="M509.286 110.498L510.372 115.864C510.372 115.864 510.372 115.864 510.383 115.864L511.437 121.046L516.618 118.482L521.127 116.255L518.824 104.925C515.804 107.358 512.567 109.292 509.286 110.498Z" stroke="#8CAD56" stroke-width="0.6688" stroke-miterlimit="10"/>
<path d="M504.876 128.747L483.801 139.23L485.605 148.094C488.581 147.019 491.536 145.541 494.208 144.336C496.902 143.119 499.65 141.978 502.399 141.359C504.8 140.816 507.179 140.783 509.568 140.143C510.383 139.925 511.198 139.654 512.013 139.306L510.524 131.963L509.416 126.488L504.876 128.747Z" fill="#E2D3B6" stroke="#D1C4A9" stroke-width="0.8871" stroke-miterlimit="10"/>
<path d="M517.542 122.447L512.252 125.087L513.403 130.747L514.816 137.677C515.305 137.297 515.772 136.873 516.217 136.395C517.825 134.657 518.553 132.506 519.432 130.28C521.377 125.424 525.972 122.36 529.98 122.317C533.587 122.263 535.521 126.021 538.834 126.738C539.486 126.879 540.159 126.945 540.833 126.955L537.878 112.345L517.542 122.447Z" fill="#E2D3B6" stroke="#D1C4A9" stroke-width="0.8871" stroke-miterlimit="10"/>
</g>
</svg>
