<svg width="96" height="66" viewBox="0 0 96 66" fill="none" xmlns="http://www.w3.org/2000/svg">
<path opacity="0.05" d="M46.9736 27H46.0422L42.7247 45.6493H48.005L51.2147 27H46.9736Z" fill="white"/>
<path opacity="0.05" d="M65.9318 39.5385C65.9318 37.3603 64.5848 35.7055 61.4751 34.3585C59.6124 33.4272 58.4732 32.9115 58.4732 31.9725C58.4732 31.1413 59.4046 30.3177 61.4751 30.3177C63.2378 30.3177 64.477 30.6256 65.4084 31.0412L65.9241 31.249L66.7554 27.2082C65.7163 26.7926 64.0614 26.377 61.9908 26.377C56.8106 26.377 53.0852 28.9631 53.0852 32.696C53.0852 35.49 55.6714 36.9447 57.7497 37.876C59.1506 38.5071 59.8741 38.992 60.2051 39.5L59.9203 39.2229C60.105 39.4076 60.2359 39.5616 60.3282 39.7232C60.3975 39.8925 60.436 40.0695 60.436 40.2543C60.436 41.5012 58.7811 42.1169 57.3263 42.1169C55.2558 42.1169 54.1166 41.809 52.3539 41.0778L51.6304 40.77L50.9069 45.0186C50.9146 45.0186 50.9223 45.0263 50.9223 45.0263L50.9069 45.1263C52.1538 45.642 54.4322 46.1654 56.8106 46.1654C60.1281 46.1654 62.8221 45.2341 64.377 43.5793L64.3077 43.5177C65.3468 42.4556 65.9318 41.1086 65.9318 39.5385Z" fill="white"/>
<path opacity="0.05" d="M36.4974 43.9406L44.0715 27.1078H39.5147H38.4756L34.8733 35.936L34.8502 35.9129L33.1953 39.8459L32.7796 37.2598C32.695 36.9827 32.5949 36.7057 32.4795 36.4209L30.8092 28.5547C30.5013 27.3079 29.5699 27 28.423 27H18.7938L22.0343 27.9929C23.2813 28.4624 24.4667 29.0243 25.5597 29.6554L30.0856 45.7494H35.6815L35.7277 45.6493H35.7816L36.4974 43.9406Z" fill="white"/>
<path opacity="0.05" d="M82.2961 38.0922L79.7098 27.0088H76.9157H75.6688C74.4295 27.0088 73.4905 27.1088 72.9747 28.3557L65.2006 45.6504H65.9241H70.7964L71.8356 42.5409H78.4629L79.0863 45.6504H84.0587L82.2961 38.0922ZM76.3923 33.8435C76.3923 33.8435 77.3698 38.2384 77.6162 39.4391H73.2826C73.6983 38.4 75.3532 33.9513 75.3532 33.9513C75.3532 33.9513 75.7688 32.8122 76.0767 32.0887L76.3923 33.8435Z" fill="white"/>
<path opacity="0.05" d="M87.0285 65.1988H15.8216C11.0416 65.1988 7.16223 61.3196 7.16223 56.5399V16.0163C7.16223 11.2366 11.0416 7.35742 15.8216 7.35742H87.0362C91.8161 7.35742 95.6955 11.2366 95.6955 16.0163V56.5399C95.6878 61.3196 91.8161 65.1988 87.0285 65.1988Z" fill="white"/>
<path opacity="0.05" d="M45.4335 25.4561H44.5022L41.1847 44.1054H46.465L49.6747 25.4561H45.4335Z" fill="white"/>
<path opacity="0.05" d="M64.3916 37.9945C64.3916 35.8163 63.0446 34.1615 59.935 32.8146C58.0722 31.8833 56.9331 31.3676 56.9331 30.4286C56.9331 29.5973 57.8644 28.7738 59.935 28.7738C61.6976 28.7738 62.9369 29.0816 63.8682 29.4973L64.3839 29.7051L65.2152 25.6643C64.1761 25.2486 62.5212 24.833 60.4507 24.833C55.2705 24.833 51.545 27.4191 51.545 31.1521C51.545 33.946 54.1313 35.4007 56.2095 36.332C57.6104 36.9632 58.3339 37.4481 58.6649 37.956L58.3801 37.679C58.5649 37.8637 58.6957 38.0176 58.7881 38.1793C58.8573 38.3486 58.8958 38.5256 58.8958 38.7103C58.8958 39.9572 57.2409 40.573 55.7862 40.573C53.7156 40.573 52.5764 40.2651 50.8138 39.5339L50.0902 39.226L49.3667 43.4747C49.3744 43.4747 49.3821 43.4823 49.3821 43.4823L49.3667 43.5824C50.6136 44.0981 52.892 44.6215 55.2705 44.6215C58.5879 44.6215 61.282 43.6902 62.8368 42.0353L62.7675 41.9738C63.8067 40.9116 64.3916 39.5647 64.3916 37.9945Z" fill="white"/>
<path opacity="0.05" d="M34.9574 42.3967L42.5314 25.5638H37.9747H36.9355L33.3333 34.392L33.3102 34.3689L31.6553 38.302L31.2396 35.7159C31.1549 35.4388 31.0549 35.1617 30.9394 34.8769L29.2691 27.0108C28.9612 25.7639 28.0299 25.4561 26.883 25.4561H17.2538L20.4943 26.4489C21.7413 26.9184 22.9266 27.4803 24.0196 28.1114L28.5456 44.2054H34.1415L34.1876 44.1054H34.2415L34.9574 42.3967Z" fill="white"/>
<path opacity="0.05" d="M80.7559 36.5482L78.1696 25.4648H75.3755H74.1286C72.8893 25.4648 71.9503 25.5649 71.4346 26.8118L63.6604 44.1065H64.3839H69.2563L70.2954 40.997H76.9227L77.5462 44.1065H82.5185L80.7559 36.5482ZM74.8521 32.2996C74.8521 32.2996 75.8297 36.6945 76.076 37.8952H71.7425C72.1581 36.8561 73.813 32.4074 73.813 32.4074C73.813 32.4074 74.2287 31.2682 74.5366 30.5447L74.8521 32.2996Z" fill="white"/>
<path opacity="0.05" d="M85.4904 63.6578H14.2835C9.50354 63.6578 5.62415 59.7786 5.62415 54.9989V14.4753C5.62415 9.69559 9.50354 5.81641 14.2835 5.81641H85.4981C90.278 5.81641 94.1574 9.69559 94.1574 14.4753V54.9989C94.1497 59.7786 90.278 63.6578 85.4904 63.6578Z" fill="white"/>
<path opacity="0.05" d="M43.8944 23.9141H42.963L39.6455 42.5634H44.9258L48.1355 23.9141H43.8944Z" fill="white"/>
<path opacity="0.05" d="M62.8526 36.4535C62.8526 34.2753 61.5056 32.6205 58.3959 31.2736C56.5332 30.3423 55.394 29.8266 55.394 28.8876C55.394 28.0563 56.3254 27.2327 58.3959 27.2327C60.1586 27.2327 61.3978 27.5406 62.3292 27.9563L62.8449 28.1641L63.6762 24.1232C62.6371 23.7076 60.9822 23.292 58.9116 23.292C53.7314 23.292 50.0059 25.8781 50.0059 29.6111C50.0059 32.405 52.5922 33.8597 54.6705 34.791C56.0713 35.4221 56.7949 35.907 57.1259 36.415L56.8411 36.1379C57.0258 36.3227 57.1566 36.4766 57.249 36.6382C57.3183 36.8076 57.3568 36.9846 57.3568 37.1693C57.3568 38.4162 55.7019 39.0319 54.2471 39.0319C52.1766 39.0319 51.0374 38.7241 49.2747 37.9929L48.5512 37.685L47.8276 41.9336C47.8353 41.9336 47.843 41.9413 47.843 41.9413L47.8276 42.0414C49.0746 42.5571 51.353 43.0805 53.7314 43.0805C57.0489 43.0805 59.7429 42.1491 61.2977 40.4943L61.2285 40.4328C62.2676 39.3706 62.8526 38.0237 62.8526 36.4535Z" fill="white"/>
<path opacity="0.05" d="M33.4182 40.8547L40.9922 24.0218H36.4355H35.3964L31.7941 32.85L31.771 32.827L30.1161 36.76L29.7004 34.1739C29.6158 33.8968 29.5157 33.6197 29.4002 33.3349L27.7299 25.4688C27.422 24.2219 26.4907 23.9141 25.3438 23.9141H15.7146L18.9551 24.9069C20.2021 25.3765 21.3874 25.9383 22.4804 26.5695L27.0064 42.6635H32.6023L32.6485 42.5634H32.7023L33.4182 40.8547Z" fill="white"/>
<path opacity="0.05" d="M79.2168 35.0062L76.6306 23.9229H73.8365H72.5895C71.3503 23.9229 70.4112 24.0229 69.8955 25.2698L62.1213 42.5645H62.8449H67.7172L68.7563 39.455H75.3836L76.0071 42.5645H80.9795L79.2168 35.0062ZM73.3131 30.7576C73.3131 30.7576 74.2906 35.1525 74.5369 36.3532H70.2034C70.6191 35.3141 72.274 30.8654 72.274 30.8654C72.274 30.8654 72.6896 29.7262 72.9975 29.0027L73.3131 30.7576Z" fill="white"/>
<path opacity="0.05" d="M83.9503 62.1168H12.7435C7.9635 62.1168 4.08411 58.2376 4.08411 53.4579V12.9343C4.08411 8.15458 7.9635 4.27539 12.7435 4.27539H83.958C88.738 4.27539 92.6174 8.15458 92.6174 12.9343V53.4579C92.6097 58.2376 88.738 62.1168 83.9503 62.1168Z" fill="white"/>
<path opacity="0.05" d="M42.3564 22.3799H41.425L38.1075 41.0292H43.3878L46.5976 22.3799H42.3564Z" fill="white"/>
<path opacity="0.05" d="M61.3146 34.9164C61.3146 32.7382 59.9676 31.0834 56.8579 29.7365C54.9952 28.8051 53.856 28.2895 53.856 27.3505C53.856 26.5192 54.7874 25.6956 56.8579 25.6956C58.6206 25.6956 59.8598 26.0035 60.7912 26.4191L61.3069 26.627L62.1382 22.5861C61.0991 22.1705 59.4442 21.7549 57.3737 21.7549C52.1934 21.7549 48.468 24.341 48.468 28.074C48.468 30.8679 51.0542 32.3226 53.1325 33.2539C54.5334 33.885 55.2569 34.3699 55.5879 34.8779L55.3031 34.6008C55.4878 34.7856 55.6187 34.9395 55.7111 35.1011C55.7803 35.2705 55.8188 35.4475 55.8188 35.6322C55.8188 36.8791 54.1639 37.4948 52.7091 37.4948C50.6386 37.4948 49.4994 37.187 47.7367 36.4558L47.0132 36.1479L46.2897 40.3965C46.2974 40.3965 46.3051 40.4042 46.3051 40.4042L46.2897 40.5043C47.5366 41.02 49.815 41.5433 52.1934 41.5433C55.5109 41.5433 58.2049 40.612 59.7598 38.9572L59.6905 38.8956C60.7296 37.8335 61.3146 36.4865 61.3146 34.9164Z" fill="white"/>
<path opacity="0.05" d="M31.8802 39.3205L39.4543 22.4876H34.8975H33.8584L30.2561 31.3159L30.233 31.2928L28.5781 35.2258L28.1625 32.6397C28.0778 32.3626 27.9777 32.0855 27.8623 31.8008L26.192 23.9346C25.8841 22.6878 24.9527 22.3799 23.8058 22.3799H14.1766L17.4172 23.3728C18.6641 23.8423 19.8495 24.4041 20.9425 25.0353L25.4684 41.1293H31.0643L31.1105 41.0292H31.1644L31.8802 39.3205Z" fill="white"/>
<path opacity="0.05" d="M77.6789 33.4701L75.0926 22.3867H72.2985H71.0516C69.8123 22.3867 68.8733 22.4868 68.3575 23.7337L60.5834 41.0284H61.3069H66.1792L67.2184 37.9189H73.8457L74.4691 41.0284H79.4415L77.6789 33.4701ZM71.7751 29.2215C71.7751 29.2215 72.7527 33.6163 72.999 34.817H68.6654C69.0811 33.778 70.736 29.3292 70.736 29.3292C70.736 29.3292 71.1516 28.1901 71.4595 27.4666L71.7751 29.2215Z" fill="white"/>
<path opacity="0.05" d="M82.4113 60.5797H11.2044C6.42444 60.5797 2.54504 56.7005 2.54504 51.9208V11.3972C2.54504 6.61747 6.42444 2.73828 11.2044 2.73828H82.419C87.1989 2.73828 91.0783 6.61747 91.0783 11.3972V51.9208C91.0706 56.7005 87.1989 60.5797 82.4113 60.5797Z" fill="white"/>
<path opacity="0.05" d="M40.815 20.8408H39.8837L36.5662 39.4902H41.8464L45.0562 20.8408H40.815Z" fill="white"/>
<path opacity="0.05" d="M59.7732 33.3803C59.7732 31.2021 58.4262 29.5473 55.3166 28.2003C53.4538 27.269 52.3146 26.7533 52.3146 25.8143C52.3146 24.9831 53.246 24.1595 55.3166 24.1595C57.0792 24.1595 58.3185 24.4674 59.2498 24.883L59.7655 25.0908L60.5968 21.05C59.5577 20.6344 57.9028 20.2188 55.8323 20.2188C50.652 20.2188 46.9266 22.8049 46.9266 26.5378C46.9266 29.3318 49.5129 30.7864 51.5911 31.7178C52.992 32.3489 53.7155 32.8338 54.0465 33.3418L53.7617 33.0647C53.9465 33.2494 54.0773 33.4034 54.1697 33.565C54.2389 33.7343 54.2774 33.9113 54.2774 34.0961C54.2774 35.3429 52.6225 35.9587 51.1678 35.9587C49.0972 35.9587 47.958 35.6508 46.1954 34.9196L45.4718 34.6118L44.7483 38.8604C44.756 38.8604 44.7637 38.8681 44.7637 38.8681L44.7483 38.9681C45.9952 39.4838 48.2736 40.0072 50.652 40.0072C53.9695 40.0072 56.6636 39.0759 58.2184 37.4211L58.1491 37.3595C59.1883 36.2974 59.7732 34.9504 59.7732 33.3803Z" fill="white"/>
<path opacity="0.05" d="M30.3388 37.7815L37.9129 20.9486H33.3561H32.317L28.7147 29.7768L28.6916 29.7537L27.0367 33.6868L26.6211 31.1007C26.5364 30.8236 26.4363 30.5465 26.3209 30.2617L24.6506 22.3956C24.3427 21.1487 23.4113 20.8408 22.2645 20.8408H12.6353L15.8758 21.8337C17.1227 22.3032 18.3081 22.8651 19.4011 23.4962L23.9271 39.5902H29.5229L29.5691 39.4902H29.623L30.3388 37.7815Z" fill="white"/>
<path opacity="0.05" d="M76.1375 31.933L73.5512 20.8496H70.7571H69.5102C68.2709 20.8496 67.3319 20.9497 66.8162 22.1965L59.042 39.4913H59.7655H64.6379L65.677 36.3817H72.3043L72.9278 39.4913H77.9001L76.1375 31.933ZM70.2337 27.6844C70.2337 27.6844 71.2113 32.0792 71.4576 33.2799H67.1241C67.5397 32.2409 69.1946 27.7921 69.1946 27.7921C69.1946 27.7921 69.6103 26.653 69.9181 25.9295L70.2337 27.6844Z" fill="white"/>
<path opacity="0.05" d="M80.8711 59.0406H9.66424C4.88428 59.0406 1.00488 55.1615 1.00488 50.3817V9.85812C1.00488 5.0784 4.88428 1.19922 9.66424 1.19922H80.8788C85.6588 1.19922 89.5382 5.0784 89.5382 9.85812V50.3817C89.5305 55.1615 85.6588 59.0406 80.8711 59.0406Z" fill="white"/>
<path d="M40.815 20.8408H39.8837L36.5662 39.4902H41.8464L45.0562 20.8408H40.815Z" stroke="white" stroke-width="0.75" stroke-miterlimit="10" stroke-linecap="round" stroke-linejoin="round"/>
<path d="M59.7732 33.3803C59.7732 31.2021 58.4262 29.5473 55.3166 28.2003C53.4538 27.269 52.3146 26.7533 52.3146 25.8143C52.3146 24.9831 53.246 24.1595 55.3166 24.1595C57.0792 24.1595 58.3185 24.4674 59.2498 24.883L59.7655 25.0908L60.5968 21.05C59.5577 20.6344 57.9028 20.2188 55.8323 20.2188C50.652 20.2188 46.9266 22.8049 46.9266 26.5378C46.9266 29.3318 49.5129 30.7864 51.5911 31.7178C52.992 32.3489 53.7155 32.8338 54.0465 33.3418L53.7617 33.0647C53.9465 33.2494 54.0773 33.4034 54.1697 33.565C54.2389 33.7343 54.2774 33.9113 54.2774 34.0961C54.2774 35.3429 52.6225 35.9587 51.1678 35.9587C49.0972 35.9587 47.958 35.6508 46.1954 34.9196L45.4718 34.6118L44.7483 38.8604C44.756 38.8604 44.7637 38.8681 44.7637 38.8681L44.7483 38.9681C45.9952 39.4838 48.2736 40.0072 50.652 40.0072C53.9695 40.0072 56.6636 39.0759 58.2184 37.4211L58.1491 37.3595C59.1883 36.2974 59.7732 34.9504 59.7732 33.3803Z" stroke="white" stroke-width="0.75" stroke-miterlimit="10" stroke-linecap="round" stroke-linejoin="round"/>
<path d="M30.3388 37.7815L37.9129 20.9486H33.3561H32.317L28.7147 29.7768L28.6916 29.7537L27.0367 33.6868L26.6211 31.1007C26.5364 30.8236 26.4363 30.5465 26.3209 30.2617L24.6506 22.3956C24.3427 21.1487 23.4113 20.8408 22.2645 20.8408H12.6353L15.8758 21.8337C17.1227 22.3032 18.3081 22.8651 19.4011 23.4962L23.9271 39.5902H29.5229L29.5691 39.4902H29.623L30.3388 37.7815Z" stroke="white" stroke-width="0.75" stroke-miterlimit="10" stroke-linecap="round" stroke-linejoin="round"/>
<path d="M76.1375 31.933L73.5512 20.8496H70.7571H69.5102C68.2709 20.8496 67.3319 20.9497 66.8162 22.1965L59.042 39.4913H59.7655H64.6379L65.677 36.3817H72.3043L72.9278 39.4913H77.9001L76.1375 31.933ZM70.2337 27.6844C70.2337 27.6844 71.2113 32.0792 71.4576 33.2799H67.1241C67.5397 32.2409 69.1946 27.7921 69.1946 27.7921C69.1946 27.7921 69.6103 26.653 69.9181 25.9295L70.2337 27.6844Z" stroke="white" stroke-width="0.75" stroke-miterlimit="10" stroke-linecap="round" stroke-linejoin="round"/>
<path d="M80.8711 59.0406H9.66424C4.88428 59.0406 1.00488 55.1615 1.00488 50.3817V9.85811C1.00488 5.0784 4.88428 1.19922 9.66424 1.19922H80.8788C85.6588 1.19922 89.5382 5.0784 89.5382 9.85811V50.3817C89.5305 55.1615 85.6588 59.0406 80.8711 59.0406Z" stroke="white" stroke-width="0.75" stroke-miterlimit="10" stroke-linecap="round" stroke-linejoin="round"/>
</svg>
