<svg width="870" height="491" fill="none" xmlns="http://www.w3.org/2000/svg"><path opacity=".26" d="M289.745 6.518c1.347.782 3.53.782 4.877 0 .054-.033.098-.076.152-.109l75.357 43.507v54.152l-98.452-56.846v.89l116.854 67.47-54.337 14.589 63.027 36.391-11.156 6.442-61.354-35.424.195-.337-58.378-33.708V96.17l-11.851-6.844 54.337 24.192-37.347-21.563v.891l36.575 21.118-54.336-25.083-15.089-8.712c.978-.782.869-1.868-.348-2.575-1.347-.782-3.53-.782-4.877 0-1.347.783-1.347 2.043 0 2.814 1.216.706 3.107.76 4.454.195l27.711 15.99v7.366l57.9 33.425h-26.886l-79.43-45.863v.89l77.887 44.973h-77.887v.772h106.881l61.072 35.261-11.559 6.67-44.266-25.561-.087-.054H217.343v.771h79.397l-24.148 13.937h-55.249v.772h55.466l25.485-14.709h30.894l43.8 25.289-10.168 5.866-38.759-22.378-.087-.054h-15.61l-31.677 18.283h-59.333v.771h59.54l31.676-18.283h15.198l28.146 16.252h-14.068l-13.731-7.93h-10.656l-23.714 13.687c-1.347-.532-3.183-.456-4.378.239-1.347.782-1.347 2.042 0 2.813 1.347.783 3.53.783 4.877 0 1.239-.717 1.326-1.835.283-2.618l23.138-13.361h10.244l13.731 7.93h15.61l8.799 5.084-14.318 8.267h-21.106l-26.137 15.088c-1.347-.565-3.237-.499-4.454.196-1.347.782-1.347 2.042 0 2.813 1.347.782 3.531.782 4.878 0 1.216-.706 1.325-1.792.347-2.574l25.572-14.763h19.564l-6.735 3.889 10.461 6.04-28.309 16.338h-29.764l-31.394-18.131c.977-.782.869-1.868-.348-2.574-1.347-.782-3.531-.782-4.878 0s-1.347 2.042 0 2.813c1.217.706 3.107.761 4.454.196l16.164 9.331h-58.703v.891l.195-.12h59.845l14.36 8.289.087.054h28.635l-11.743 6.779h-67.35l-17.381 10.037h-6.648v.771h5.312l-5.312 3.064v.891l24.246-13.992h67.351l41.942-24.214 19.553 11.287-48.797 28.168h-52.522l-51.773 29.895v.891l51.979-30.015h50.969l-64.45 37.217v29.786l-38.498 22.226v.891l39.269-22.671V284.1l114.594-66.156 16.816 9.712-68.871 39.759v59.866l-38.846 22.432h1.542l38.075-21.987V267.86l68.872-39.759 10.374 5.997-51.035 29.46v70.175l-24.528 14.166v1.825h.771v-1.38l24.529-14.165v-70.175l51.034-29.461 14.002 8.082-39.041 22.541v84.547h.771v-35.989l19.575 11.297v24.692h.771v-25.137l-20.346-11.754v-20.705l25.756 14.871c-.901.772-.76 1.836.424 2.521 1.347.782 3.53.782 4.877 0s1.347-2.043 0-2.814c-1.249-.717-3.193-.76-4.551-.152l-26.517-15.306v-25.626l39.042-22.54 12.47 7.202-18.977 10.961v16.142l4.79 2.77v8.223l34.197 19.749v13.937l27.842 16.078c-.978.782-.869 1.868.348 2.574 1.347.782 3.53.782 4.877 0s1.347-2.042 0-2.813c-1.217-.706-3.107-.761-4.454-.196l-27.842-16.077v-13.937l-34.196-19.749v-7.333l57.487 33.187c-.902.771-.761 1.836.423 2.52 1.347.782 3.531.782 4.878 0s1.347-2.042 0-2.814c-1.249-.717-3.194-.76-4.552-.152l-46.091-26.603h23.127l26.516 15.306c-.977.782-.869 1.868.348 2.574 1.347.782 3.531.782 4.878 0s1.347-2.042 0-2.813c-1.217-.706-3.107-.761-4.454-.196l-26.995-15.588-.087-.054h-24.572v.043l-15.675-9.049v-15.252l18.977-10.949 3.759 2.172 4.888-2.824 79.67 45.994.087.054h21.726c.13.38.445.728.945 1.021 1.347.782 3.53.782 4.877 0s1.347-2.042 0-2.813c-1.347-.782-3.53-.782-4.877 0-.5.293-.815.651-.945 1.021h-21.52l-79.202-45.723 12.112-6.995 66.21 38.227c-.978.782-.869 1.868.348 2.574 1.347.782 3.53.782 4.877 0s1.347-2.042 0-2.813c-1.216-.706-3.107-.761-4.454-.196l-66.21-38.227 12.547-7.246 93.552 54.011v45.223l-26.929 15.545h1.543l16.044-9.266 16.045 9.266h1.542l-16.816-9.712 9.332-5.388v-35.565l15.816 9.136v22.215l32.166 18.575a1.69 1.69 0 00-.565.75h6.724c-.13-.369-.445-.717-.934-1-1.217-.706-3.107-.76-4.454-.195l-32.165-18.576v-22.215l-16.588-9.581v-9.657l-93.552-54.011 13.785-7.962 181.368 104.708v18.478h.772v-18.923L478.12 226.135l11.156-6.442 93.476 53.968.087.054h68.014l30.003 17.327h-.174v18.402l33.98 19.618c-.978.782-.869 1.869.348 2.575 1.347.782 3.53.782 4.877 0s1.347-2.043 0-2.814c-1.217-.706-3.107-.76-4.454-.195l-33.979-19.619v-17.62l51.556 29.765.086.054h114.225l21.791-12.579v-.891l-21.997 12.699H733.303l-82.146-47.428-.087-.054h-68.013l-92.999-53.696 9.821-5.671 88.457 51.067.087.055h78.051l38.02 21.943c-.978.782-.869 1.868.348 2.574 1.347.783 3.53.783 4.877 0 1.347-.782 1.347-2.042 0-2.813-1.216-.706-3.107-.76-4.454-.196l-38.487-22.225-.087-.055H588.64l-13.09-7.56h104.307l82.483-47.624c1.347.565 3.237.5 4.453-.195 1.347-.782 1.347-2.042 0-2.814-1.347-.782-3.53-.782-4.877 0-1.217.706-1.325 1.793-.348 2.575l-81.918 47.297H574.214l-32.991-19.043 12.96-7.484h22.997l.423-1.63c1.347.565 3.238.5 4.454-.195 1.347-.782 1.347-2.042 0-2.814-1.347-.782-3.53-.782-4.877 0-1.217.706-1.326 1.793-.348 2.575l.141 1.303h-21.454l29.004-18.13h46.342l25.854 14.926c-.978.782-.869 1.868.347 2.574 1.347.783 3.531.783 4.878 0 1.347-.782 1.347-2.042 0-2.813-1.217-.706-3.107-.761-4.454-.196l-26.332-15.197-.087-.054h-46.765l-43.876 26.712-27.624-15.947h15.251l12.275-7.083c1.347.587 3.27.533 4.509-.174 1.347-.782 1.347-2.042 0-2.813-1.347-.782-3.531-.782-4.878 0-1.195.695-1.325 1.76-.391 2.542l-11.721 6.768h-16.382l-10.83-6.258 23.127-13.35-7.245-4.182 39.9-23.03h13.307l15.892 9.179c-.977.782-.869 1.869.348 2.575 1.347.782 3.53.782 4.877 0s1.347-2.042 0-2.814c-1.216-.706-3.106-.76-4.453-.195l-16.371-9.451-.087-.054h-13.731l-28.993 16.739v-15.327l27.179-15.697c1.347.565 3.237.499 4.454-.196 1.347-.782 1.347-2.042 0-2.813-1.347-.782-3.531-.782-4.878 0-1.216.706-1.325 1.792-.347 2.574l-27.179 15.697v16.219l-10.7 6.181-37.63-21.726 17.457-10.081h22.638l35.794-20.662h27.158l2.14-.825c-.978.782-.869 1.868.347 2.574 1.347.783 3.531.783 4.878 0 1.347-.782 1.347-2.042 0-2.813-1.217-.706-3.107-.761-4.454-.196l-2.618.554-.087-.054h-27.538l-35.793 20.661h-21.096l94.204-60.637 18.478-26.375 46.678-26.951.196-.109V7.17c.988.054 2.009-.13 2.77-.565 1.347-.782 1.347-2.043 0-2.814-1.347-.782-3.531-.782-4.878 0s-1.347 2.042 0 2.814c.391.228.847.38 1.336.467v41.084l-46.298 26.733-18.478 26.376-113.562 71.815-14.1-8.136 125.424-72.413.196-.109V49.144l42.909-24.778c1.347.565 3.237.5 4.454-.196 1.347-.782 1.347-2.042 0-2.813-1.347-.782-3.531-.782-4.878 0-1.217.706-1.325 1.792-.347 2.574l-42.725 24.66-.195.108v43.278l-125.62 72.521-14.806-8.549 73.575-42.474.195-.109v-37.14L395.072 3.16c.978-.782.869-1.868-.347-2.574-1.347-.783-3.531-.783-4.878 0-1.347.782-1.347 2.042 0 2.813 1.217.706 3.107.76 4.454.196l92.933 53.652h-27.94L409.183 28.32c.978-.782.869-1.869-.347-2.575-1.347-.782-3.531-.782-4.878 0s-1.347 2.043 0 2.814c1.217.706 3.107.76 4.454.195l50.589 29.2.087.054h29.482l32.122 18.544V112.8l-59.225 34.197v-18.423l36.391-21.01.196-.108V88.805c.749-.043 1.477-.228 2.053-.565 1.347-.782 1.347-2.042 0-2.813-1.347-.783-3.531-.783-4.878 0-1.347.782-1.347 2.042 0 2.813.576.337 1.304.51 2.053.565v18.206l-36.391 21.009-.195.109v19.315l-13.764 7.951-15.197-8.777-9.223 5.323v-40.226l32.1-18.532c1.347.565 3.238.5 4.454-.196 1.347-.782 1.347-2.042 0-2.813-1.347-.782-3.53-.782-4.877 0-1.217.706-1.325 1.792-.348 2.574l-31.904 18.424-.196.109v16.414l-23.996-13.862V98.267l52.338-30.221c1.347.565 3.237.5 4.453-.196 1.347-.782 1.347-2.042 0-2.813-1.347-.772-3.53-.782-4.877 0-1.217.706-1.325 1.792-.348 2.574l-52.153 30.113-.196.108v16.458l24.768 14.306v23.812l-13.133 7.582-11.102-6.409v-14.567l-16.838-9.723c.978-.782.869-1.868-.348-2.574-1.347-.782-3.53-.782-4.877 0s-1.347 2.042 0 2.813c1.217.707 3.107.761 4.454.196l16.837 9.722v13.677l-36.716-21.205V99.994l55.26-31.905.195-.108V55.977l-31.253-18.043c.978-.782.869-1.869-.347-2.575-1.347-.782-3.531-.782-4.878 0s-1.347 2.042 0 2.814c1.217.706 3.107.76 4.454.195l31.253 18.044v11.134l-55.26 31.905-.196.108v32.818l48.601 28.059-9.82 5.67-63.027-36.391 54.337-14.589-18.402-10.624V49.459L295.393 5.855c.511-.717.261-1.575-.749-2.162-1.347-.782-3.531-.782-4.878 0-1.368.783-1.368 2.043-.021 2.825zM431.724 147.53l90.532 52.273-90.521 52.262-90.532-52.273 90.521-52.262z" fill="#50935F"/><g opacity=".82"><path opacity=".82" d="M1.538 153.81l259.159 143.967 263.884-138.101L276.687 25.702 1.538 153.81zM343.386 254.498L83.174 118.33M318.205 48.145l-196.794 90.196M442.652 202.552L235.929 85.851M408.771 104.111l-77.106 40.356M273.352 68.698l101.547 53.142M156.368 122.317l-38.944-20.379M232.399 196.414l-76.704 40.15M468.854 132.995l-79.55 41.638M389.304 174.633l-101.841 50.6M364.612 243.396l-56.02-28.667" stroke="#50935F" stroke-width=".598" stroke-miterlimit="10"/><path opacity=".1" d="M389.304 174.633l53.348 27.918 81.929-42.876-55.727-26.68-79.55 41.638z" fill="#50935F"/><path opacity=".1" d="M442.652 202.552L197.518 64.157l79.169-38.455 247.894 133.973-81.929 42.877zM91.55 203.822l169.147 93.955 82.689-43.279-174.34-91.238-77.497 40.562z" fill="#50935F"/><path opacity=".1" d="M233.387 47.645l39.965 21.053 44.853-20.553-41.518-22.443-43.3 21.943z" fill="#50935F"/><path opacity=".1" d="M235.929 85.85l95.735 58.617 43.235-22.627-101.547-53.142-37.423 17.152zM179.322 254.498l82.027 42.931 82.037-42.931-82.037-42.93-82.027 42.93z" fill="#50935F"/></g><path opacity=".8" d="M455.296 487.651l-137.754-79.528a7.317 7.317 0 01-3.682-6.388 7.317 7.317 0 013.682-6.387l249.241-143.902.923-.533 144.511 86.568a7.317 7.317 0 013.682 6.387c0 2.672-1.379 5.051-3.682 6.388L479.673 487.651a24.445 24.445 0 01-12.189 3.259 24.269 24.269 0 01-12.188-3.259zm255.085-140.567a3.684 3.684 0 001.847-3.205 3.684 3.684 0 00-1.847-3.205l-142.436-85.383-.239-.13-248.328 143.37a3.659 3.659 0 00-1.847 3.204c0 1.337.696 2.531 1.847 3.205l137.754 79.528c6.268 3.617 14.426 3.617 20.705 0l232.544-137.384z" fill="#375344"/><path d="M568.011 203.866L534.857 21.291l2.662-1.119-4.009-2.292.011.022c-.782-.521-1.879-.489-3.085.217l-273.65 121.47c-2.173 1.26-3.824 4.476-3.444 6.735l42.105 208.038c.174 1.032.685 1.716 1.402 2.02l3.921 2.26.674-3.661-.228.065 263.362-144.445c2.162-1.26 3.813-4.487 3.433-6.735z" fill="#95B89D"/><path opacity=".38" d="M258.252 144.967l-4.356-1.923c-.489 1.119-.728 2.292-.565 3.281l42.105 208.037c.174 1.032.684 1.717 1.401 2.021l3.922 2.259.673-3.66-.228.065 13.329-7.691-56.281-202.389z" fill="#50935F"/><path d="M568.727 212.98l-264.97 145.38c-2.042 1.184-3.802.499-4.161-1.619l-42.105-208.037c-.38-2.249 1.26-5.475 3.444-6.735l273.661-121.47c2.042-1.184 3.802-.5 4.16 1.618l33.415 184.139c.38 2.249-1.271 5.475-3.444 6.724z" fill="#375344"/><path opacity=".89" d="M531.131 33.154L267.029 149.106l40.367 196.501 255.237-139.764-31.502-172.689z" fill="#fff"/><path d="M729.847 299.244l-14.459 7.549-139.568-83.71c-2.422-1.401-6.659-1.227-9.461.391l-250.067 144.38c-2.39-1.336-13.307-6.583-13.307-6.583l5.29 13.796s.022-.01.022-.021c.217.608.685 1.184 1.478 1.64l152.712 88.164c2.422 1.402 6.659 1.228 9.461-.391l250.479-147.748c1.152-.662 1.858-1.466 2.151-2.281l.022.011 5.247-15.197z" fill="#95B89D"/><path opacity=".38" d="M727.621 301.622l-256.845 151.42c-2.868 1.662-7.213 1.835-9.701.402l-156.503-90.359c-2.488-1.434-2.173-3.943.695-5.594l262.266-143.816c2.867-1.662 7.213-1.836 9.7-.402l151.072 82.755c2.498 1.423 2.183 3.932-.684 5.594z" fill="#50935F"/><path d="M727.62 300.112l-256.845 151.42c-2.867 1.662-7.213 1.836-9.7.402l-156.504-90.359c-.814-.467-1.292-1.064-1.52-1.694-.391 1.184.076 2.368 1.52 3.204l156.504 90.359c2.487 1.434 6.833 1.26 9.7-.402l256.834-151.42c1.934-1.119 2.673-2.607 2.216-3.91-.282.847-.999 1.694-2.205 2.4z" fill="#fff"/><path d="M391.671 420.289v-2.878c0-.272.163-.402.37-.283l10.146 5.855c.206.12.369.435.369.706v2.879c0 .272-.163.402-.369.283l-10.146-5.856c-.207-.119-.37-.434-.37-.706zM406.836 429.046v-2.879c0-.272.163-.402.369-.283l10.147 5.856c.206.119.369.434.369.706v2.878c0 .272-.163.402-.369.283l-10.147-5.855c-.195-.12-.369-.435-.369-.706z" fill="#375344"/><path opacity=".38" d="M345.373 354.623l217.945-125.837a4.702 4.702 0 014.692 0l77.606 44.908c1.119.641 1.119 2.248 0 2.9L427.78 402.366a4.704 4.704 0 01-4.693 0l-77.714-44.843c-1.119-.651-1.119-2.259 0-2.9z" fill="#50935F"/><path d="M345.373 357.523l.782.446 217.163-125.381a4.702 4.702 0 014.692 0l76.835 44.451.782-.445c1.119-.641 1.119-2.249 0-2.9l-77.606-44.908a4.702 4.702 0 00-4.692 0L345.373 354.623c-1.119.641-1.119 2.249 0 2.9z" fill="#375344"/><path d="M555.638 250.686L371.162 357.197l-7.973-5.116 183.997-106.229 8.452 4.834zM567.619 267.599l-167.486 96.703-5.746-6.399 164.824-95.16 8.408 4.856zM607.953 259.844L398.884 380.542l-8.419-4.855 209.069-120.71 8.419 4.867zM621.391 267.599l-209.07 120.71-8.418-4.867 209.069-120.699 8.419 4.856zM634.828 275.356l-209.069 120.71-8.419-4.856L626.421 270.5l8.407 4.856z" fill="#375344"/><path d="M373.117 356.068l-8.419 4.867-8.419-4.867 8.419-4.856 8.419 4.856zM402.806 362.76l-17.468 10.081-8.419-4.856 17.468-10.081 8.419 4.856z" fill="#375344"/><path opacity=".38" d="M571.714 385.072l58.769-33.925c2.292-1.325 2.292-3.476 0-4.802l-40.182-23.203c-2.292-1.325-6.018-1.325-8.321 0l-58.769 33.925c-2.292 1.325-2.292 3.476 0 4.802l40.182 23.203c2.303 1.325 6.018 1.325 8.321 0z" fill="#50935F"/><path d="M523.211 359.033l58.768-33.925c2.293-1.325 6.019-1.325 8.322 0l40.182 23.203c.706.413 1.173.902 1.445 1.423.608-1.162.141-2.465-1.445-3.378l-40.182-23.203c-2.293-1.326-6.019-1.326-8.322 0l-58.768 33.925c-1.586.912-2.053 2.227-1.445 3.378.271-.521.739-1.01 1.445-1.423z" fill="#375344"/><path opacity=".26" d="M597.569 104.024l18.391 96.801 89.859-49.938-12.601-95.312-95.649 48.449z" fill="#50935F"/><path opacity=".26" d="M606.498 104.404l18.391 96.8 89.859-49.937-12.601-95.312-95.649 48.449z" fill="#50935F"/><path opacity=".26" d="M615.428 104.785l18.391 96.8 89.859-49.937-12.601-95.312-95.649 48.449z" fill="#50935F"/><path opacity=".26" d="M624.357 105.165l18.391 96.8 89.859-49.937-12.601-95.312-95.649 48.449z" fill="#50935F"/><path opacity=".26" d="M633.286 105.545l18.391 96.789 89.859-49.926-12.601-95.323-95.649 48.46z" fill="#50935F"/><path d="M633.286 105.545l18.391 96.789 89.859-49.926-12.601-95.323-95.649 48.46z" stroke="#50935F" stroke-miterlimit="10"/><path d="M718.061 140.589l-6.648-50.274-53.728 27.222 9.722 51.209 50.654-28.157z" fill="#50935F"/><path opacity=".26" d="M51.703 354.243L75.19 477.82l122.328-63.754-23.692-121.688-122.122 61.865z" fill="#50935F"/><path opacity=".26" d="M63.11 354.721l23.474 123.578 122.329-63.744-23.693-121.688-122.11 61.854z" fill="#50935F"/><path opacity=".26" d="M74.505 355.21L97.99 478.787l122.328-63.755-23.692-121.687L74.505 355.21z" fill="#50935F"/><path opacity=".26" d="M85.911 355.688l23.475 123.577 122.328-63.744-23.692-121.687-122.111 61.854z" fill="#50935F"/><path opacity=".26" d="M97.306 356.177l23.486 123.578L243.11 416l-23.692-121.688-122.112 61.865z" fill="#50935F"/><path d="M97.306 356.177l23.486 123.578L243.11 416l-23.692-121.688-122.112 61.865z" stroke="#50935F" stroke-width="1.277" stroke-miterlimit="10"/><path d="M209.88 400.921l-12.83-64.179-68.599 34.751 12.416 65.363 69.013-35.935z" fill="#50935F"/><g opacity=".26"><path opacity=".26" d="M388.794 478.755l-125.772-74.77" stroke="#50935F" stroke-miterlimit="10"/><path opacity=".26" d="M389.749 476.952a2.049 2.049 0 01.717 2.803 2.039 2.039 0 01-2.802.716 2.048 2.048 0 01-.717-2.802 2.04 2.04 0 012.802-.717zM264.151 402.279a2.042 2.042 0 00-2.803.717 2.042 2.042 0 00.717 2.802 2.042 2.042 0 002.803-.716 2.051 2.051 0 00-.717-2.803z" fill="#50935F"/></g><g opacity=".26"><path opacity=".26" d="M301.553 426.895l-48.265 27.516 43.626 24.387" stroke="#50935F" stroke-miterlimit="10"/><path opacity=".26" d="M295.828 480.536a2.046 2.046 0 002.781-.782 2.046 2.046 0 00-.783-2.781 2.046 2.046 0 00-2.781.782 2.039 2.039 0 00.783 2.781z" fill="#50935F"/></g><path d="M301.487 152.886c.022.109.032.217-.13.293l-.804.37c-.087.043-.174.065-.218-.142l-1.455-7.05c-.044-.206.043-.26.13-.293l2.857-1.293c.054-.021.098-.021.13.011.044.044.044.12.044.185l-.011.891a.216.216 0 01-.109.195l-1.683.76.369 1.804 1.423-.641c.163-.076.196.032.217.141l.152.75c.044.206-.043.26-.13.293l-1.423.641.641 3.085zM305.973 149.801l1.77-.804c.077-.033.174-.054.218.141l.152.739c.043.195-.044.261-.131.293l-2.759 1.249c-.152.066-.195-.043-.217-.141l-1.445-7.039c-.043-.196.044-.261.131-.293l2.889-1.304c.033-.011.076-.022.109.011.032.033.032.087.032.141v.891c0 .054 0 .174-.13.239l-1.673.76.369 1.814 1.434-.651c.152-.066.196.043.218.141l.152.739c.043.195-.044.26-.131.293l-1.434.652.446 2.129zM311.655 148.704c-2.075.945-2.759-2.162-2.922-2.944-.163-.793-.761-3.932 1.314-4.878 2.075-.934 2.77 2.195 2.922 2.955.163.782.761 3.922-1.314 4.867zm.108-4.313c-.217-1.043-.662-2.694-1.477-2.324-.815.369-.554 2.118-.348 3.15.185.891.609 2.705 1.478 2.314.858-.391.532-2.249.347-3.14zM315.793 138.504c.435-.196 1.108-.435 1.749.087.587.478.945 1.553 1.173 2.661.261 1.282.305 2.325.022 3.139-.326.946-.978 1.337-1.412 1.532l-1.662.75c-.174.076-.206-.109-.217-.163l-1.434-6.963c-.022-.098-.044-.229.119-.305l1.662-.738zm.619 6.55l.609-.271c.271-.12.619-.457.662-1.217.033-.543-.076-1.293-.173-1.793-.109-.51-.305-1.205-.533-1.618-.315-.587-.738-.576-1.01-.456l-.608.271 1.053 5.084zM321.898 135.755c.087-.044.119.021.163.119l3.096 6.203c.022.043.043.065.054.119.022.12-.065.174-.108.196l-.946.434c-.097.044-.13.044-.228-.141l-.738-1.575-1.467.663.011 1.912c0 .184 0 .25-.109.293l-.912.413c-.174.076-.174-.087-.174-.163l.25-7.789c.011-.109 0-.174.109-.228l.999-.456zm.152 2.759c-.13-.293-.261-.641-.478-1.347l-.022.011c.055.293.109.706.109 1.521l.011 2.031 1.119-.511-.739-1.705zM329.741 138.862c.043-.022.13-.044.163.054v.022a.872.872 0 01.011.152l.011.891c0 .163-.011.217-.152.282l-2.825 1.282c-.152.065-.195-.044-.217-.141l-1.434-6.953c-.043-.195.054-.26.13-.293l.815-.369c.152-.065.196.043.217.141l1.206 5.866 2.075-.934zM301.465 158.784c-.022.011-.033 0-.033-.022l-.38-1.857c0-.022 0-.033.022-.044l.13-.054c.022-.011.033 0 .033.022l.163.793.152-.065c.076-.033.13-.077.13-.326v-.228c0-.131 0-.261.033-.348a.339.339 0 01.152-.185l.022-.022c.011-.01.032-.021.043.011l.055.109c.01.022.01.033-.022.065l-.033.022c-.022.022-.054.043-.076.109-.022.065-.011.141-.011.217v.174c0 .141 0 .271-.097.402.141.01.195.119.217.173l.163.348c.032.076.054.109.076.119a.105.105 0 00.098.011l.043-.011c.043-.01.043.011.043.033v.152c0 .054-.021.044-.065.054l-.032.011c-.109.033-.174-.011-.207-.032-.054-.044-.087-.142-.141-.25l-.109-.261c-.086-.195-.152-.195-.239-.163l-.152.065.185.869c0 .022 0 .033-.022.044l-.141.065zM303.496 157.111c.12.565-.098.825-.293.912-.185.087-.467.044-.587-.51-.119-.565.098-.826.294-.913.195-.087.477-.054.586.511zm-.684.315c.032.141.119.532.369.424.25-.109.174-.511.141-.652-.032-.141-.119-.533-.369-.424-.239.109-.174.511-.141.652zM304.289 157.448c0 .022 0 .033-.021.043l-.109.055c-.022.011-.033 0-.033-.022l-.26-1.282c0-.022 0-.032.01-.043l.044-.033.065-.054c.011-.011.011-.011.022-.011.011-.011.022.011.022.022l.119.586.424-.195-.109-.533c0-.021 0-.032.011-.043l.109-.087c.01-.011.01-.011.021-.011.011-.011.022.011.022.022l.272 1.325c0 .022 0 .033-.022.044l-.109.054c-.011.011-.021.011-.032-.022l-.12-.575-.423.195.097.565zM305.105 155.84c-.022.011-.033 0-.033-.022l-.022-.119c-.01-.033.011-.044.022-.044l.75-.336c.032-.011.032.021.032.032l-.011.12c0 .021 0 .032-.032.043l-.261.12.228 1.129c0 .022 0 .033-.022.044l-.108.054c-.022.011-.033 0-.033-.022l-.228-1.129-.282.13zM306.375 155.46a.53.53 0 00-.108-.239c-.011-.011-.022-.022-.022-.033 0-.011 0-.021.011-.021l.076-.12c.011-.011.022-.022.043-.011a.327.327 0 01.087.12l.011-.022c.055-.087.131-.228.261-.283.109-.054.369-.097.5.544.13.641-.109.836-.25.901a.354.354 0 01-.261.011l.12.576c0 .011.01.032-.011.043l-.098.087c-.011.011-.044.033-.054 0l-.305-1.553zm.315.662a.4.4 0 00.25-.01c.218-.098.174-.37.109-.641-.054-.25-.12-.5-.326-.413-.087.043-.163.163-.206.25l.173.814zM308.537 154.809c.12.565-.098.825-.293.912-.196.087-.467.044-.587-.51-.119-.565.098-.826.294-.913.195-.087.467-.054.586.511zm-.695.315c.033.141.119.532.369.423.25-.108.174-.51.142-.651-.033-.142-.12-.533-.37-.424-.25.109-.163.511-.141.652zM309.852 154.906c0 .022 0 .032-.022.043l-.109.055c-.021.01-.032 0-.032-.022l-.239-1.141-.272.12.011.032c.044.185.087.533.109.674.021.163.032.402-.098.576a.304.304 0 01-.12.097s-.01 0-.01.011c-.022 0-.022-.011-.033-.022l-.043-.097c-.022-.044.01-.055.021-.065l.022-.011c.043-.022.13-.087.12-.326a9.005 9.005 0 00-.131-.826l-.022-.087c-.01-.032-.01-.043.022-.054l.532-.239c.022-.011.033.011.033.033l.261 1.249zM310.58 153.754c-.011-.076-.022-.206-.011-.347.043-.261.184-.402.293-.457.185-.086.467-.043.576.511.119.554-.098.826-.283.913-.141.065-.304.032-.423-.131a.848.848 0 01-.131-.326l-.163.076.12.576c0 .022 0 .033-.022.043l-.109.055c-.021.011-.032 0-.032-.022l-.261-1.282c0-.021 0-.032.011-.043l.109-.087c.01-.011.01-.011.021-.011.011-.011.022.011.022.022l.12.575.163-.065zm.184.033c.087.424.228.478.359.424.25-.109.173-.511.141-.652-.033-.141-.12-.532-.369-.424-.12.054-.218.228-.131.652zM311.818 152.603c0-.022 0-.033.011-.044l.043-.032.065-.054c.011-.011.011-.011.022-.011.011-.011.022.011.022.021l.152.761.054.282h.011c.022-.163.043-.239.054-.304l.185-.902c0-.01 0-.01.011-.021l.108-.087c.011-.011.011-.011.022-.011.011-.011.022.011.022.022l.271 1.325c.011.033-.01.043-.021.043l-.109.055c-.011.011-.022.011-.033-.022l-.141-.706-.054-.272h-.011a3.987 3.987 0 01-.054.305l-.185.901c0 .022-.011.022-.022.022l-.108.054c-.022.011-.033 0-.033-.022l-.282-1.303zm.141-.641c.043.12.119.109.174.087.043-.022.108-.076.108-.217v-.044c0-.011 0-.022.022-.032h.011l.087-.022c.011 0 .022 0 .032.022v.043c0 .185-.076.326-.217.391-.141.065-.261.011-.337-.141-.01-.022-.01-.033-.01-.044 0-.032.01-.043.021-.043l.076-.054c.011-.011.033-.022.044 0l-.011.054zM314.164 152.158c0-.022 0-.044.022-.055l.043-.021c.109-.055.196-.163.163-.316-.022-.086-.065-.195-.217-.13a.438.438 0 00-.196.217c-.011.011-.011.033-.022.033-.01 0-.01 0-.01-.011l-.076-.087c-.011-.011-.022-.022.021-.087a.584.584 0 01.272-.25c.228-.108.358.033.402.218a.43.43 0 01-.098.38c.12-.011.217.065.261.239a.527.527 0 01-.619.641c-.022-.011-.033-.011-.044-.022v-.022l.022-.13s0-.011.011-.022h.032a.46.46 0 00.272-.011.291.291 0 00.152-.336c-.043-.228-.228-.142-.261-.131l-.054.022c-.022.011-.033 0-.033-.022l-.043-.097zM316 151.995s0 .011.011.011c0 .011-.011.032-.065.108a.65.65 0 01-.229.185c-.217.098-.51.054-.619-.489-.098-.456.044-.793.294-.912.184-.087.423-.066.532.51v.011c.011.044 0 .054-.011.054l-.63.283v.011c.065.326.25.391.402.326a.566.566 0 00.217-.207c.011-.011.011-.022.022-.022 0 0 .011 0 .011.011l.065.12zm-.293-.608a.477.477 0 00-.087-.218c-.076-.108-.163-.119-.228-.076-.12.055-.218.217-.163.522l.478-.228zM316.793 150.995c.032.055.054.131.076.174h.01v-.206l.044-.685c0-.01 0-.032.011-.032l.152-.076c.011 0 .011-.011.022.022l.325 1.26c0 .011 0 .021-.01.032l-.12.055c-.011.01-.022 0-.022-.011l-.228-.956c0-.022-.011-.044-.021-.109v.109l-.044.76c0 .033-.011.033-.022.044l-.087.043c-.01.011-.021.011-.032-.011l-.326-.597c0-.011-.011-.033-.043-.098.01.043.01.076.021.109l.174.977c0 .011 0 .022-.011.033l-.119.054c-.022.011-.022-.011-.022-.011l-.206-1.314c0-.011 0-.022.01-.033l.153-.065c.01 0 .01 0 .021.011l.294.521zM318.672 150.767s0 .011.011.011c0 .011-.011.033-.065.109a.669.669 0 01-.228.185c-.218.097-.511.054-.619-.489-.098-.457.043-.793.293-.913.184-.087.423-.065.532.511v.011c.011.043 0 .054-.011.054l-.63.282v.011c.065.326.25.391.402.326a.556.556 0 00.217-.206c.011-.011.011-.022.022-.022 0 0 .011 0 .011.011l.065.119zm-.293-.608a.475.475 0 00-.087-.217c-.076-.109-.163-.12-.228-.076-.12.054-.217.217-.163.521l.478-.228zM319.933 150.289c0 .022 0 .033-.022.044l-.109.054c-.021.011-.032 0-.032-.022l-.228-1.13-.272.12.011.032c.033.185.087.533.109.663.021.163.032.402-.098.576a.324.324 0 01-.12.098s-.011 0-.011.01c-.021 0-.021-.01-.032-.021l-.044-.098c-.021-.043.011-.054.022-.065l.022-.011c.043-.022.13-.087.119-.326-.011-.185-.087-.587-.13-.826l-.022-.086c-.011-.033-.011-.044.022-.055l.532-.239c.022-.011.033.011.033.033l.25 1.249zM320.508 150.062c-.022.01-.033 0-.033-.022l-.261-1.271c0-.022 0-.033.011-.044l.109-.087c.011-.01.011-.01.021-.01.011-.011.022.01.022.021l.109.543.174-.076a.403.403 0 01.271-.021c.087.032.152.13.174.26a.52.52 0 01-.054.37.537.537 0 01-.239.206l-.304.131zm.108-.239l.152-.066c.109-.054.196-.163.163-.326-.032-.141-.119-.206-.261-.141l-.152.065.098.468zM321.801 149.431c0 .022 0 .033-.022.044l-.109.054c-.022.011-.032 0-.032-.022l-.261-1.271c0-.022 0-.032.011-.043l.043-.033.065-.054c.011-.011.011-.011.022-.011.011-.011.022.011.022.022l.119.575.424-.195-.109-.532c0-.022 0-.033.011-.044l.109-.087c.011-.011.011-.011.022-.011.01-.01.021.011.021.022l.272 1.315c0 .021 0 .032-.022.043l-.108.054c-.011.011-.022.011-.033-.021l-.12-.565-.423.195.098.565zM322.67 147.639c0-.022 0-.033.011-.043l.043-.033.066-.054c.01-.011.01-.011.021-.011.011-.011.022.011.022.022l.152.749.054.272h.011c.033-.207.044-.261.055-.305l.184-.89c0-.011 0-.011.011-.022l.109-.087c.011-.011.011-.011.021-.011.011-.011.022.011.022.022l.272 1.314c.011.033-.011.044-.022.044l-.109.054c-.01.011-.021.011-.032-.022l-.141-.706-.055-.271h-.011c-.032.195-.054.293-.054.304l-.185.891c0 .021-.01.021-.021.021l-.109.055c-.022.011-.033 0-.033-.022l-.282-1.271zM323.995 147.041c0-.022 0-.033.011-.044l.044-.032.065-.054c.011-.011.011-.011.022-.011.01-.011.021.011.021.021l.152.75.055.272h.011c.021-.163.043-.239.054-.305l.185-.89c0-.011 0-.011.01-.022l.109-.087c.011-.011.011-.011.022-.011.011-.011.021.011.021.022l.272 1.314c.011.033-.011.044-.022.044l-.108.054c-.011.011-.022.011-.033-.022l-.141-.706-.054-.271h-.011a3.73 3.73 0 01-.055.304l-.184.891c0 .021-.011.021-.022.021l-.109.055c-.021.01-.032 0-.032-.022l-.283-1.271zm.131-.641c.043.119.119.109.174.087.043-.022.108-.076.108-.217v-.044c0-.011 0-.022.022-.032h.011l.087-.022c.01 0 .021 0 .032.022v.043c0 .185-.076.326-.228.391-.141.065-.261.011-.337-.141-.011-.022-.011-.033-.011-.044 0-.032.011-.043.022-.043l.076-.054c.011-.011.033-.022.044 0v.054zM326.189 146.302c.022-.228.141-.369.271-.434.109-.055.424-.12.554.489.109.543-.108.803-.293.89-.13.066-.315.055-.445-.141-.087-.119-.131-.293-.174-.5a2.302 2.302 0 01-.065-.619c.021-.271.13-.456.239-.597l.315-.37c.011-.01.032-.043.065-.01l.054.076c.011.011.022.032-.022.076l-.358.423a.764.764 0 00-.174.62l.011.086.022.011zm.141.381c.043.228.141.499.358.401.25-.108.174-.488.153-.64-.098-.446-.272-.435-.359-.392-.098.044-.25.174-.152.631zM328.242 146.118a.637.637 0 00.065.185c.011.021.033.043.044.065.011.011.011.011.011.022 0 .01 0 .021-.011.021l-.076.109c-.011.022-.022.032-.066-.022-.032-.032-.032-.043-.065-.108v-.011l-.011.011a.531.531 0 01-.26.315c-.218.097-.337-.066-.38-.261-.044-.185 0-.402.217-.587a1.21 1.21 0 01.25-.152h.011l-.022-.098c-.022-.119-.065-.239-.239-.163a.719.719 0 00-.228.185c-.011.022-.022.033-.033.033-.011 0-.022 0-.022-.011l-.054-.098s0-.011-.011-.022c0-.021.022-.054.044-.065a.883.883 0 01.282-.217c.217-.098.359-.022.413.228l.141.641zm-.228-.228c-.369.163-.369.369-.348.489.033.163.131.184.207.152.098-.044.174-.207.206-.261l.011-.022-.076-.358zM329.025 146.118c0 .021 0 .032-.022.043l-.108.054c-.022.011-.033 0-.033-.021l-.261-1.26c0-.022 0-.033.011-.044l.044-.032.065-.055c.011-.011.011-.011.021-.011.011-.011.022.011.022.022l.12.576.423-.196-.108-.521c0-.022 0-.033.011-.044l.108-.086c.011-.011.011-.011.022-.011.011-.011.022.01.022.021l.271 1.315c0 .022 0 .032-.021.043l-.109.055c-.011.01-.022.01-.033-.022l-.119-.565-.424.195.098.544zM330.187 145.618c-.022.011-.033-.011-.033-.011l-.261-1.271c0-.021 0-.032.011-.043l.044-.033.065-.054c.011-.011.011-.011.022-.011.01-.011.021.011.021.022l.12.565.098-.044c.076-.032.108-.097.108-.206v-.152c0-.109 0-.25.087-.337a.387.387 0 01.109-.076c.011 0 .021-.011.032.011l.055.109c.01.032-.011.032-.022.043l-.033.022c-.021.021-.043.032-.054.076 0 .011-.011.032-.011.119v.12c0 .087-.011.195-.098.282.109-.011.152.065.185.109l.12.239a.15.15 0 00.054.065c.011.011.032.011.065 0l.033-.011c.021-.011.032-.011.032.022v.141c0 .022-.011.033-.022.033-.065.032-.108.032-.141.032-.098-.011-.13-.098-.184-.206l-.087-.174c-.055-.119-.098-.119-.163-.087l-.098.044.119.586s0 .022-.021.033l-.152.043z" fill="#000"/><path d="M283.171 167.171l-4.779-12.547 13.122 8.723-8.343 3.824z" fill="#1A5632"/><path d="M284.932 157.524l7.897 5.225.945-.434-8.017-12.971-.825 8.18z" fill="#007940"/><path d="M290.494 154.874l4.323 6.963-1.51-13.915-2.813 6.952z" fill="#00994E"/><path d="M285.931 150.224l-.848-.586.511-1.163.847.587-.51 1.162zM278.859 155.264l.054-1.303-.988.022-.044 1.303.978-.022zM293.459 147.02l.532 1.032-.825.793-.533-1.032.826-.793z" fill="#000"/><path d="M524.255 50.828c.706 3.476-1.217 7.441-4.302 8.864-3.085 1.412-6.159-.282-6.865-3.78-.707-3.498 1.216-7.474 4.301-8.864 3.085-1.39 6.16.293 6.866 3.78z" fill="#4D4D4D"/><path d="M364.656 124.381l-25.354 11.537-.652-3.172 25.365-11.504.641 3.139zM382.145 179.511l-25.17 12.373-.652-3.172 25.181-12.319.641 3.118zM383.133 184.334l-25.148 12.449-.652-3.172 25.159-12.394.641 3.117zM384.122 189.157l-25.137 12.514-.651-3.172 25.147-12.46.641 3.118zM385.111 193.981l-25.116 12.579-.651-3.161 25.126-12.536.641 3.118zM386.099 198.803l-25.105 12.656-.641-3.172 25.105-12.601.641 3.117zM387.087 203.627l-25.082 12.72-.652-3.172 25.093-12.666.641 3.118zM388.077 208.45l-25.061 12.785-.652-3.161 25.072-12.753.641 3.129zM389.065 213.273l-25.05 12.862-.652-3.172 25.061-12.818.641 3.128zM390.064 218.096l-25.039 12.927-.652-3.161 25.05-12.895.641 3.129zM391.052 222.92l-25.028 13.003-.652-3.172 25.04-12.96.64 3.129zM370.544 119.993c.173.858-.25 1.814-.946 2.14-.695.315-1.401-.131-1.585-.989-.174-.869.249-1.825.945-2.14.695-.315 1.412.131 1.586.989z" fill="#999"/><path d="M273.83 184.215L535.879 62.31" stroke="#999" stroke-width="2.417" stroke-miterlimit="10"/><path d="M374.964 309.378l-67.426 38.064-33.871-164.01 68.828-31.98 32.469 157.926z" fill="#000"/><path d="M324.788 173.7l-39.28 18.554-1.032-4.986 39.302-18.457 1.01 4.889z" fill="#50935F"/><path d="M389.998 142.881l-39.28 18.554-.989-4.812 39.303-18.446.966 4.704zM412.409 145.032l-59.214 28.429-.989-4.802 59.247-28.276.956 4.649zM394.822 166.4l-39.161 19.086-.988-4.801 39.183-18.989.966 4.704zM408.477 233.033l-38.814 20.608-.988-4.813 38.835-20.498.967 4.703zM410.889 244.798l-38.749 20.868-.988-4.812 38.77-20.76.967 4.704zM433.027 245.787l-58.411 31.904-.988-4.812 58.443-31.742.956 4.65z" fill="#999"/><path d="M301.248 195.675l-13.688 6.55-1.021-4.986 13.688-6.507 1.021 4.943z" fill="#fff"/><path d="M323.376 250.903l-23.29 12.004-1.032-4.986 23.301-11.939 1.021 4.921z" fill="#50935F"/><path d="M341.028 252.597l-38.879 20.281-1.032-4.986 38.911-20.172 1 4.877zM343.038 262.364l-38.835 20.487-1.021-4.986 38.857-20.39.999 4.889zM313.154 200.803l-23.529 11.406-1.032-4.986 23.551-11.341 1.01 4.921zM330.817 202.975l-39.14 19.206-1.021-4.986 39.151-19.097 1.01 4.877zM317.217 220.497l-23.475 11.656-1.032-4.986 23.486-11.601 1.021 4.931zM309.417 235.282l-13.622 6.843-1.022-4.986 13.623-6.811 1.021 4.954zM338.476 175.209c.271 1.336-.359 2.835-1.412 3.335-1.054.5-2.13-.174-2.412-1.521-.272-1.336.358-2.835 1.412-3.335 1.054-.499 2.129.174 2.412 1.521zM340.464 184.899c.271 1.336-.359 2.835-1.413 3.346-1.053.51-2.129-.163-2.4-1.51-.272-1.347.358-2.835 1.412-3.346 1.053-.511 2.129.174 2.401 1.51zM342.463 194.599c.271 1.337-.359 2.847-1.402 3.357-1.053.511-2.129-.152-2.4-1.499-.272-1.336.347-2.846 1.401-3.357 1.054-.51 2.118.152 2.401 1.499zM344.451 204.289c.271 1.336-.348 2.846-1.402 3.368-1.053.521-2.129-.142-2.4-1.489-.272-1.347.347-2.846 1.401-3.367 1.054-.511 2.129.152 2.401 1.488zM346.449 213.99c.272 1.336-.347 2.846-1.401 3.378s-2.118-.13-2.401-1.477c-.271-1.336.348-2.857 1.402-3.379 1.053-.521 2.129.142 2.4 1.478zM309.526 288.326c.282 1.379-.326 2.944-1.369 3.498-1.043.554-2.118-.109-2.401-1.489-.282-1.379.326-2.943 1.369-3.497 1.043-.554 2.118.108 2.401 1.488zM317.108 284.285c.283 1.369-.337 2.933-1.379 3.487-1.043.554-2.119-.109-2.401-1.477-.283-1.369.337-2.933 1.38-3.487 1.042-.554 2.118.108 2.4 1.477z" fill="#fff"/><path d="M417.613 277.625l-38.575 21.607-1.814-8.821L415.842 269l1.771 8.625z" fill="#62DDFF"/><path d="M437.285 266.6l-17.684 9.907-1.771-8.614 17.707-9.82 1.748 8.527z" fill="#E6E6E6"/><mask id="a" maskUnits="userSpaceOnUse" x="412" y="71" width="146" height="195"><path d="M440.947 265.057L412.16 126.553l121.122-54.857 23.899 129.269-116.234 64.092z" fill="#C4C4C4"/></mask><g mask="url(#a)"><path d="M532.239 64.19l34.534 170.429-116.071 68.089-37.467-183.139 119.004-55.38z" fill="#FDF9DD"/><path d="M492.036 194.914l-9.853 5.269-4.682 2.498a23.28 23.28 0 01.152 3.889c-.13 2.759-.619 6.279-2.238 8.691-1.738 2.596-3.986 4.214-6.289 5.561l1.586 7.789 25.354-13.904-1.771-8.68c-2.563 1.097-5.094 1.043-7.224.033l6.518-3.52-1.553-7.626z" fill="#E2D3B6" stroke="#D1C4A9" stroke-width=".638" stroke-miterlimit="10"/><path d="M472.135 284.969c.01-2.303.119-5.117-.815-6.942-1.456-2.835-4.356-2.357-6.942-2.292-3.009.066-5.692-.434-7.582-3.248-1.445-2.151-2.216-4.812-2.694-7.658l-6.29 3.552 5.682 27.788 18.641-10.874v-.326z" fill="#E2D3B6"/><path d="M472.135 284.969c.01-2.303.119-5.117-.815-6.942-1.456-2.835-4.356-2.357-6.942-2.292-3.009.066-5.692-.434-7.582-3.248-1.445-2.151-2.216-4.812-2.694-7.658l-6.29 3.552 5.682 27.788 18.641-10.874v-.326z" stroke="#D1C4A9" stroke-width=".733" stroke-miterlimit="10"/><path d="M490.026 169.81l4.161 20.433 25.419-13.644-4.073-20.02-25.507 13.231z" fill="#E2D3B6" stroke="#D1C4A9" stroke-width=".638" stroke-miterlimit="10"/><path d="M461.022 270.499c2.335 1.163 5.149.348 7.68.619 2.922.305 5.334 1.956 6.279 5.562.543 2.086.597 4.335.586 6.594l3.086-1.803-5.584-27.364-15.621 8.821c.5 3.269 1.412 6.485 3.574 7.571z" fill="#E2D3B6"/><path d="M461.022 270.499c2.335 1.163 5.149.348 7.68.619 2.922.305 5.334 1.956 6.279 5.562.543 2.086.597 4.335.586 6.594l3.086-1.803-5.584-27.364-15.621 8.821c.5 3.269 1.412 6.485 3.574 7.571z" stroke="#D1C4A9" stroke-width=".733" stroke-miterlimit="10"/><path d="M500.889 238.388l5.486 26.908-25.169 14.687-5.573-27.321 25.256-14.274z" fill="#E2D3B6"/><path d="M500.889 238.388l5.486 26.908-25.169 14.687-5.573-27.321 25.256-14.274z" stroke="#D1C4A9" stroke-width=".733" stroke-miterlimit="10"/><path d="M509.004 233.815l-5.334 3.009 5.475 26.854 5.312-3.096-5.453-26.767z" fill="#E2D3B6"/><path d="M509.004 233.815l-5.334 3.009 5.475 26.854 5.312-3.096-5.453-26.767z" stroke="#D1C4A9" stroke-width=".733" stroke-miterlimit="10"/><path d="M518.509 228.438l-5.562 3.15 5.431 26.701 5.54-3.237-5.409-26.614z" fill="#97BC66" stroke="#8CAD56" stroke-width=".669" stroke-miterlimit="10"/><path d="M527.84 252.76l6.474-3.769-5.377-26.441-6.485 3.672 5.388 26.538z" fill="#E2D3B6"/><path d="M527.84 252.76l6.474-3.769-5.377-26.441-6.485 3.672 5.388 26.538z" stroke="#D1C4A9" stroke-width=".733" stroke-miterlimit="10"/><path d="M542.592 240.245c-1.249-2.248-4.79-3.237-7.169-1.032l1.662 8.158 6.453-3.769c-.142-1.26-.424-2.423-.946-3.357z" fill="#97BC66"/><path d="M542.592 240.245c-1.249-2.248-4.79-3.237-7.169-1.032l1.662 8.158 6.453-3.769c-.142-1.26-.424-2.423-.946-3.357z" stroke="#8CAD56" stroke-width=".669" stroke-miterlimit="10"/><path d="M540.409 219.834c.934-1.488 1.466-3.107 1.76-4.747l-10.451 5.899 1.054 5.203c2.911-1.217 5.899-3.552 7.637-6.355z" fill="#97BC66"/><path d="M540.409 219.834c.934-1.488 1.466-3.107 1.76-4.747l-10.451 5.899 1.054 5.203c2.911-1.217 5.899-3.552 7.637-6.355z" stroke="#8CAD56" stroke-width=".669" stroke-miterlimit="10"/><path d="M548.403 211.557l-2.574 1.455c-.272 3.357-1.162 6.735-3.248 9.679-2.292 3.237-5.616 5.975-8.984 7.517l1.021 5.008c3.194-2.259 7.333-2.248 9.571.044 1.618 1.651 2.324 3.91 2.628 6.452l6.898-4.019-5.312-26.136z" fill="#E2D3B6"/><path d="M548.403 211.557l-2.574 1.455c-.272 3.357-1.162 6.735-3.248 9.679-2.292 3.237-5.616 5.975-8.984 7.517l1.021 5.008c3.194-2.259 7.333-2.248 9.571.044 1.618 1.651 2.324 3.91 2.628 6.452l6.898-4.019-5.312-26.136z" stroke="#D1C4A9" stroke-width=".733" stroke-miterlimit="10"/><path d="M556.649 235.955l5.605-3.27-5.268-25.973-5.617 3.172 5.28 26.071z" fill="#E2D3B6"/><path d="M556.649 235.955l5.605-3.27-5.268-25.973-5.617 3.172 5.28 26.071z" stroke="#D1C4A9" stroke-width=".733" stroke-miterlimit="10"/><path d="M450.061 217.357l-11.428 6.116 6.224 30.46 11.385-6.322-6.181-30.254z" fill="#E2D3B6"/><path d="M450.061 217.357l-11.428 6.116 6.224 30.46 11.385-6.322-6.181-30.254z" stroke="#D1C4A9" stroke-width=".887" stroke-miterlimit="10"/><path d="M447.628 231.914c1.901-4.117 3.335-10.288 1.836-14.242l-10.842 5.79 3.183 15.567c2.412-1.803 4.552-4.345 5.823-7.115z" fill="#97BC66"/><path d="M447.628 231.914c1.901-4.117 3.335-10.288 1.836-14.242l-10.842 5.79 3.183 15.567c2.412-1.803 4.552-4.345 5.823-7.115z" stroke="#8CAD56" stroke-width=".669" stroke-miterlimit="10"/><path d="M459.653 245.319l10.45-5.79-6.05-29.645-10.494 5.605 6.094 29.83z" fill="#97BC66" stroke="#8CAD56" stroke-width=".669" stroke-miterlimit="10"/><path d="M460.392 248.936l1.39 6.844 10.44-5.856-1.391-6.811-10.439 5.823z" fill="#E2D3B6"/><path d="M460.392 248.936l1.39 6.844 10.44-5.856-1.391-6.811-10.439 5.823z" stroke="#D1C4A9" stroke-width=".887" stroke-miterlimit="10"/><path d="M456.818 250.446l-11.373 6.344 1.499 7.332 11.362-6.387-1.488-7.289z" fill="#E2D3B6"/><path d="M456.818 250.446l-11.373 6.344 1.499 7.332 11.362-6.387-1.488-7.289z" stroke="#D1C4A9" stroke-width=".887" stroke-miterlimit="10"/><path d="M532.294 201.856l-4.008 2.216 2.618 12.873 3.997-2.249-2.607-12.84z" fill="#E2D3B6"/><path d="M532.294 201.856l-4.008 2.216 2.618 12.873 3.997-2.249-2.607-12.84z" stroke="#D1C4A9" stroke-width=".887" stroke-miterlimit="10"/><path d="M538.92 198.195l-3.487 1.923 2.597 12.829 3.487-1.955-2.597-12.797z" fill="#E2D3B6"/><path d="M538.92 198.195l-3.487 1.923 2.597 12.829 3.487-1.955-2.597-12.797z" stroke="#D1C4A9" stroke-width=".887" stroke-miterlimit="10"/><path d="M545.362 194.632l-2.955 1.64 2.586 12.764 2.955-1.662-2.586-12.742z" fill="#E2D3B6"/><path d="M545.362 194.632l-2.955 1.64 2.586 12.764 2.955-1.662-2.586-12.742z" stroke="#D1C4A9" stroke-width=".887" stroke-miterlimit="10"/><path d="M550.903 205.712l5.279-2.966-2.575-12.677-5.279 2.922 2.575 12.721z" fill="#E2D3B6"/><path d="M550.903 205.712l5.279-2.966-2.575-12.677-5.279 2.922 2.575 12.721z" stroke="#D1C4A9" stroke-width=".887" stroke-miterlimit="10"/><path d="M527.546 200.4l25.333-13.938-4.4-21.726-25.419 13.59 4.486 22.074z" fill="#97BC66" stroke="#8CAD56" stroke-width=".669" stroke-miterlimit="10"/><path d="M450.333 199.368l10.461-5.475-1.652-8.071-10.471 5.42 1.662 8.126z" fill="#E2D3B6"/><path d="M450.333 199.368l10.461-5.475-1.652-8.071-10.471 5.42 1.662 8.126z" stroke="#D1C4A9" stroke-width=".638" stroke-miterlimit="10"/><path d="M451.245 203.844l1.684 8.256 10.439-5.562-1.673-8.202-10.45 5.508z" fill="#E2D3B6"/><path d="M451.245 203.844l1.684 8.256 10.439-5.562-1.673-8.202-10.45 5.508z" stroke="#D1C4A9" stroke-width=".638" stroke-miterlimit="10"/><path d="M445.162 193.067l-11.526 5.975 4.302 21.042 11.493-6.116-4.269-20.901z" fill="#E2D3B6"/><path d="M445.162 193.067l-11.526 5.975 4.302 21.042 11.493-6.116-4.269-20.901z" stroke="#D1C4A9" stroke-width=".638" stroke-miterlimit="10"/><path d="M525.483 168.322l-4.02 2.129.945 4.66 4.02-2.14-.945-4.649z" fill="#E2D3B6"/><path d="M525.483 168.322l-4.02 2.129.945 4.66 4.02-2.14-.945-4.649z" stroke="#D1C4A9" stroke-width=".638" stroke-miterlimit="10"/><path d="M534.575 166.964c-.326-.989-.695-1.934-1.064-2.89l-5.584 2.955.945 4.639 6.181-3.292c-.163-.576-.369-1.097-.478-1.412z" fill="#E2D3B6"/><path d="M534.575 166.964c-.326-.989-.695-1.934-1.064-2.89l-5.584 2.955.945 4.639 6.181-3.292c-.163-.576-.369-1.097-.478-1.412z" stroke="#D1C4A9" stroke-width=".638" stroke-miterlimit="10"/><path d="M538.551 166.518l9.288-4.943-.934-4.584-9.831 5.204c.586 1.401 1.162 2.835 1.477 4.323z" fill="#E2D3B6"/><path d="M538.551 166.518l9.288-4.943-.934-4.584-9.831 5.204c.586 1.401 1.162 2.835 1.477 4.323z" stroke="#D1C4A9" stroke-width=".638" stroke-miterlimit="10"/><path d="M523.918 160.598l-4.03 2.107 1.032 5.095 4.03-2.118-1.032-5.084z" fill="#E2D3B6"/><path d="M523.918 160.598l-4.03 2.107 1.032 5.095 4.03-2.118-1.032-5.084z" stroke="#D1C4A9" stroke-width=".638" stroke-miterlimit="10"/><path d="M531.751 156.492l-5.377 2.813 1.032 5.073 5.247-2.77a21.006 21.006 0 01-.902-5.116z" fill="#E2D3B6"/><path d="M531.751 156.492l-5.377 2.813 1.032 5.073 5.247-2.77a21.006 21.006 0 01-.902-5.116z" stroke="#D1C4A9" stroke-width=".638" stroke-miterlimit="10"/><path d="M535.433 157.089c.131.891.391 1.793.706 2.694l10.244-5.398-1.021-5.019-10.102 5.29c0 .815.054 1.619.173 2.433z" fill="#E2D3B6"/><path d="M535.433 157.089c.131.891.391 1.793.706 2.694l10.244-5.398-1.021-5.019-10.102 5.29c0 .815.054 1.619.173 2.433z" stroke="#D1C4A9" stroke-width=".638" stroke-miterlimit="10"/><path d="M522.376 153.037l-4.031 2.086 1 4.943 4.041-2.108-1.01-4.921z" fill="#E2D3B6"/><path d="M522.376 153.037l-4.031 2.086 1 4.943 4.041-2.108-1.01-4.921z" stroke="#D1C4A9" stroke-width=".638" stroke-miterlimit="10"/><path d="M531.827 153.298a24.179 24.179 0 011.358-5.866l-8.343 4.323.999 4.921 5.975-3.117c0-.087 0-.174.011-.261z" fill="#E2D3B6"/><path d="M531.827 153.298a24.179 24.179 0 011.358-5.866l-8.343 4.323.999 4.921 5.975-3.117c0-.087 0-.174.011-.261z" stroke="#D1C4A9" stroke-width=".638" stroke-miterlimit="10"/><path d="M535.52 151.625l9.31-4.856-.989-4.856-5.42 2.814c-1.456 1.988-2.455 4.367-2.901 6.898z" fill="#E2D3B6"/><path d="M535.52 151.625l9.31-4.856-.989-4.856-5.42 2.814c-1.456 1.988-2.455 4.367-2.901 6.898z" stroke="#D1C4A9" stroke-width=".638" stroke-miterlimit="10"/><path d="M440.382 181.618c-3.064-2.694-6.714-1.793-10.342-.142l2.803 13.731 11.297-5.822c-.206-3.183-1.76-6.029-3.758-7.767z" fill="#E2D3B6"/><path d="M440.382 181.618c-3.064-2.694-6.714-1.793-10.342-.142l2.803 13.731 11.297-5.822c-.206-3.183-1.76-6.029-3.758-7.767z" stroke="#D1C4A9" stroke-width=".733" stroke-miterlimit="10"/><path d="M435.222 163.411l-8.049 4.009 2.031 9.918c2.9-1.26 5.79-2.129 8.484-1.858l-2.466-12.069z" fill="#E2D3B6"/><path d="M435.222 163.411l-8.049 4.009 2.031 9.918c2.9-1.26 5.79-2.129 8.484-1.858l-2.466-12.069z" stroke="#D1C4A9" stroke-width=".733" stroke-miterlimit="10"/><path d="M441.305 172.276l1.054 5.16c.423.337.825.728 1.227 1.173 2.064 2.282 3.607 5.464 4.031 8.984l3.78-1.955-3.422-16.729-6.67 3.367z" fill="#E2D3B6"/><path d="M441.305 172.276l1.054 5.16c.423.337.825.728 1.227 1.173 2.064 2.282 3.607 5.464 4.031 8.984l3.78-1.955-3.422-16.729-6.67 3.367z" stroke="#D1C4A9" stroke-width=".733" stroke-miterlimit="10"/><path d="M440.425 168.018l6.692-3.357-1.326-6.507-6.691 3.324 1.325 6.54z" fill="#E2D3B6"/><path d="M440.425 168.018l6.692-3.357-1.326-6.507-6.691 3.324 1.325 6.54z" stroke="#D1C4A9" stroke-width=".733" stroke-miterlimit="10"/><path d="M454.569 183.997l3.802-1.955-5.584-27.375-3.824 1.901 5.606 27.429z" fill="#E2D3B6"/><path d="M454.569 183.997l3.802-1.955-5.584-27.375-3.824 1.901 5.606 27.429z" stroke="#D1C4A9" stroke-width=".733" stroke-miterlimit="10"/><path d="M471.7 233.391l1.369 6.757 25.311-14.078-1.347-6.648-25.333 13.969z" fill="#E2D3B6"/><path d="M471.7 233.391l1.369 6.757 25.311-14.078-1.347-6.648-25.333 13.969z" stroke="#D1C4A9" stroke-width=".887" stroke-miterlimit="10"/><path d="M472.884 212.741c.902-1.901 1.25-3.987 1.25-6.018 0-.696-.033-1.434-.109-2.184l-7.398 3.954 1.673 8.224c1.749-.924 3.715-2.14 4.584-3.976z" fill="#97BC66" stroke="#8CAD56" stroke-width=".669" stroke-miterlimit="10"/><path d="M473.818 243.798l.956 4.693 25.278-14.209-.934-4.617-25.3 14.133z" fill="#E2D3B6"/><path d="M473.818 243.798l.956 4.693 25.278-14.209-.934-4.617-25.3 14.133z" stroke="#D1C4A9" stroke-width=".887" stroke-miterlimit="10"/><path d="M468.832 188.625c.902-2.705.326-5.638-1.206-7.203l-5.909 3.064 1.781 8.734c1.88-.989 4.454-1.945 5.334-4.595z" fill="#E2D3B6"/><path d="M468.832 188.625c.902-2.705.326-5.638-1.206-7.203l-5.909 3.064 1.781 8.734c1.88-.989 4.454-1.945 5.334-4.595z" stroke="#D1C4A9" stroke-width=".638" stroke-miterlimit="10"/><path d="M476.154 186.17c1.314-1.999 3.313-4.302 2.943-6.909-.152-1.076-.423-2.303-.901-3.324l-6.768 3.509c1.532 2.737 1.793 6.724.609 10.319-1.413 4.27-4.606 5.975-7.691 7.604l1.596 7.811 7.681-4.085c-.88-4.964-.511-10.298 2.531-14.925z" fill="#E2D3B6"/><path d="M476.154 186.17c1.314-1.999 3.313-4.302 2.943-6.909-.152-1.076-.423-2.303-.901-3.324l-6.768 3.509c1.532 2.737 1.793 6.724.609 10.319-1.413 4.27-4.606 5.975-7.691 7.604l1.596 7.811 7.681-4.085c-.88-4.964-.511-10.298 2.531-14.925z" stroke="#D1C4A9" stroke-width=".638" stroke-miterlimit="10"/><path d="M507.059 219.997c.51-3.715 2.596-6.974 5.019-9.451 3.845-3.922 8.266-6.333 12.666-8.647l-2.564-12.644c-3.639 2.172-8.766 4.106-10.928 8.733-2.075 4.454-1.119 9.169-3.769 13.514-1.956 3.215-4.693 5.54-7.561 6.865l2.922 14.35 5.29-2.976c-.695-3.085-1.564-6.225-1.075-9.744z" fill="#E2D3B6"/><path d="M507.059 219.997c.51-3.715 2.596-6.974 5.019-9.451 3.845-3.922 8.266-6.333 12.666-8.647l-2.564-12.644c-3.639 2.172-8.766 4.106-10.928 8.733-2.075 4.454-1.119 9.169-3.769 13.514-1.956 3.215-4.693 5.54-7.561 6.865l2.922 14.35 5.29-2.976c-.695-3.085-1.564-6.225-1.075-9.744z" stroke="#D1C4A9" stroke-width=".887" stroke-miterlimit="10"/><path d="M522.549 191.112c-2.998 1.304-5.974 3.498-7.278 6.692-1.238 3.03.359 5.529.598 8.288.032.369.043.75.043 1.119 2.835-2.118 5.844-3.737 8.832-5.312l-2.195-10.787z" fill="#97BC66"/><path d="M522.549 191.112c-2.998 1.304-5.974 3.498-7.278 6.692-1.238 3.03.359 5.529.598 8.288.032.369.043.75.043 1.119 2.835-2.118 5.844-3.737 8.832-5.312l-2.195-10.787z" stroke="#8CAD56" stroke-width=".669" stroke-miterlimit="10"/><path d="M509.59 213.598c.12-.489.38-.977.847-1.379 3.444-2.955 1.271-6.486.88-9.842-.239-1.988.12-4.139.935-6.094a10.666 10.666 0 00-1.011 1.705c-2.074 4.454-1.119 9.168-3.769 13.514-1.955 3.215-4.693 5.54-7.561 6.865l2.922 14.35 5.291-2.976c-.696-3.096-1.565-6.225-1.076-9.755.326-2.336 1.271-4.498 2.542-6.388z" fill="#97BC66"/><path d="M509.59 213.598c.12-.489.38-.977.847-1.379 3.444-2.955 1.271-6.486.88-9.842-.239-1.988.12-4.139.935-6.094a10.666 10.666 0 00-1.011 1.705c-2.074 4.454-1.119 9.168-3.769 13.514-1.955 3.215-4.693 5.54-7.561 6.865l2.922 14.35 5.291-2.976c-.696-3.096-1.565-6.225-1.076-9.755.326-2.336 1.271-4.498 2.542-6.388z" stroke="#8CAD56" stroke-width=".669" stroke-miterlimit="10"/><path d="M515.044 212.719c-1.988 1.858-4.465 4.53-4.585 7.702-.097 2.661.554 5.019 1.098 7.398l16.566-9.31-2.564-12.623c-3.628 1.88-7.289 3.824-10.515 6.833z" fill="#E2D3B6"/><path d="M515.044 212.719c-1.988 1.858-4.465 4.53-4.585 7.702-.097 2.661.554 5.019 1.098 7.398l16.566-9.31-2.564-12.623c-3.628 1.88-7.289 3.824-10.515 6.833z" stroke="#D1C4A9" stroke-width=".887" stroke-miterlimit="10"/><path d="M443.38 196.359l3.4 16.642-7.072 3.748-3.422-16.707 7.094-3.683z" fill="#97BC66"/><path d="M443.38 196.359l3.4 16.642-7.072 3.748-3.422-16.707 7.094-3.683z" stroke="#8CAD56" stroke-width=".669" stroke-miterlimit="10"/><path d="M506.494 179.228c.858-.793 1.01-2.879 1.293-4.552.63-3.65 3.454-2.542 4.497-5.486.674-1.488-.337-5.485-1.694-5.464-2.401-.336-2.966 4.498-4.976 5.095-1.966.804-4.084-1.966-6.137-1.575-1.836.5-4.128 2.607-3.053 5.019.761 1.618 2.803 1.455 4.041 2.237 1.619 1.021 2.162 3.542 3.77 4.552 1.075.663 1.77.619 2.259.174zM488.266 270.282c1.662-1.923.098-10.178 3.748-7.984 1.51.902 1.401 2.401 3.628 1.412 2.347-1.032 1.934-2.14 1.619-4.432-.109-.826-.424-2.021-.207-2.911.305-1.304 1.163-1.728 1.739-2.901 1.173-2.379.966-5.323.032-7.191-.912-1.825-2.248-2.173-3.433.272-1.086 2.259-.206 4.855-2.824 5.648-1.76.533-2.183-1.423-3.693-1.716-1.13-.228-3.878.369-4.986 1.26-.88.717-.598 1.162-1.206 1.858-.739.847-1.782 1.075-2.499 1.89-1.271 1.445-1.129 3.834.511 4.345 1.325.413 3.976-1.836 3.4 1.227-.13.707-.967 1.174-1.184 1.836-.348 1.076-.12 1.804-.054 2.803 0 0 .119 3.454 1.857 5.279.011 0 1.206 2.021 3.552-.695z" fill="#60C2DA" stroke="#54B6C0" stroke-width=".669" stroke-miterlimit="10"/><path d="M495.479 123.197c-2.259.109-4.66.348-6.941 1.032-2.412.706-4.813 2.031-7.235 2.716l1.673 8.19 20.585-10.189c-2.172-1.673-5.562-1.868-8.082-1.749z" fill="#97BC66"/><path d="M495.479 123.197c-2.259.109-4.66.348-6.941 1.032-2.412.706-4.813 2.031-7.235 2.716l1.673 8.19 20.585-10.189c-2.172-1.673-5.562-1.868-8.082-1.749z" stroke="#8CAD56" stroke-width=".669" stroke-miterlimit="10"/><path d="M483.573 100.798c-2.336-.859-4.932-.587-7.539.25l4.421 21.736c3.216-.619 6.464-2.542 9.69-3.237.109-.021.217-.043.315-.065 1.151-7.289-1.304-16.653-6.887-18.684z" fill="#E2D3B6"/><path d="M483.573 100.798c-2.336-.859-4.932-.587-7.539.25l4.421 21.736c3.216-.619 6.464-2.542 9.69-3.237.109-.021.217-.043.315-.065 1.151-7.289-1.304-16.653-6.887-18.684z" stroke="#D1C4A9" stroke-width=".887" stroke-miterlimit="10"/><path d="M490.015 100.504c1.347 1.782 2.4 3.987 3.128 6.398l11.2-5.388-1.456-7.147-12.872 6.137z" fill="#E2D3B6"/><path d="M490.015 100.504c1.347 1.782 2.4 3.987 3.128 6.398l11.2-5.388-1.456-7.147-12.872 6.137z" stroke="#D1C4A9" stroke-width=".887" stroke-miterlimit="10"/><path d="M475.198 96.973c3.846-1.303 7.724-1.662 11.004.13l.229.13 15.555-7.353-1.249-6.127-25.778 12.069.239 1.151z" fill="#E2D3B6"/><path d="M475.198 96.973c3.846-1.303 7.724-1.662 11.004.13l.229.13 15.555-7.353-1.249-6.127-25.778 12.069.239 1.151z" stroke="#D1C4A9" stroke-width=".887" stroke-miterlimit="10"/><path d="M517.748 75.802l-14.165 6.637 1.39 6.855c4.465-1.706 9.103-2.238 12.667.836a10.468 10.468 0 013.595 7.713 39.787 39.787 0 003.433-4.074c-3.802-4.388-6.963-11.113-6.92-17.967z" fill="#E2D3B6"/><path d="M517.748 75.802l-14.165 6.637 1.39 6.855c4.465-1.706 9.103-2.238 12.667.836a10.468 10.468 0 013.595 7.713 39.787 39.787 0 003.433-4.074c-3.802-4.388-6.963-11.113-6.92-17.967z" stroke="#D1C4A9" stroke-width=".887" stroke-miterlimit="10"/><path d="M527.101 90.109c.489-.848.945-1.695 1.358-2.564 1.347-2.835 2.162-5.758 2.618-8.712l-1.716-8.462-7.984 3.736c-.533 5.997 2.4 12.047 5.724 16.002z" fill="#E2D3B6"/><path d="M527.101 90.109c.489-.848.945-1.695 1.358-2.564 1.347-2.835 2.162-5.758 2.618-8.712l-1.716-8.462-7.984 3.736c-.533 5.997 2.4 12.047 5.724 16.002z" stroke="#D1C4A9" stroke-width=".887" stroke-miterlimit="10"/><path d="M516.988 101.569c2.075-3.357-.348-7.246-2.618-8.42-2.759-1.422-5.627-.977-8.582.153l2.673 13.166c2.835-.989 5.703-2.618 8.408-4.704.032-.065.076-.13.119-.195z" fill="#E2D3B6"/><path d="M516.988 101.569c2.075-3.357-.348-7.246-2.618-8.42-2.759-1.422-5.627-.977-8.582.153l2.673 13.166c2.835-.989 5.703-2.618 8.408-4.704.032-.065.076-.13.119-.195z" stroke="#D1C4A9" stroke-width=".887" stroke-miterlimit="10"/><path d="M531.175 89.772c-.467.89-.966 1.76-1.499 2.618l3.618 17.837 3.758-1.858-4.421-21.835a30.815 30.815 0 01-1.456 3.238z" fill="#E2D3B6"/><path d="M531.175 89.772c-.467.89-.966 1.76-1.499 2.618l3.618 17.837 3.758-1.858-4.421-21.835a30.815 30.815 0 01-1.456 3.238z" stroke="#D1C4A9" stroke-width=".887" stroke-miterlimit="10"/><path d="M526.373 97.17a47.467 47.467 0 01-4.269 4.812l2.542 12.525 4.758-2.357-3.031-14.98z" fill="#E2D3B6"/><path d="M526.373 97.17a47.467 47.467 0 01-4.269 4.812l2.542 12.525 4.758-2.357-3.031-14.98z" stroke="#D1C4A9" stroke-width=".887" stroke-miterlimit="10"/><path d="M536.932 175.296c-1.738 2.531-1.597 5.627-1.553 8.332.043 2.803-.674 5.518-2.824 7.343-1.891 1.619-4.291 2.162-6.388 2.673l.424 2.085c2.52-.651 5.17-1.488 7.408-3.574 2.77-2.596 3.292-6.745 3.14-10.222-.098-2.27.206-4.877 2.031-6.507.826-.738 1.836-.966 2.814-.879-.641.63-1.174 1.509-1.25 2.433-.054.662.044 1.26.185 1.847.228 1.021.348 1.325-.706 1.814-.369.163-.706.749-.695 1.195.239 5.561 6.061 3.758 7.93-.967 1.064-2.683.38-4.91-.967-6.409-.228-.609-.695-.967-1.282-1.087-.869-.565-1.836-.901-2.759-.977-1.966-.163-4.041.782-5.508 2.9zM430.323 136.927a82.39 82.39 0 00-4.802 4.193c-1.238 1.163-2.509 2.336-3.91 2.955l.391 1.934c1.336-.62 2.574-1.641 3.791-2.749 2.335-2.107 4.638-4.182 7.072-6.083 4.486-3.498 9.157-6.453 13.85-9.331 3.802-2.336 8.506-4.997 12.243-2.923 3.856 2.13 4.595 8.93 5.464 13.666 1.499 8.115 4.714 14.589 11.884 15.284 8.299.761 16.468-5.355 24.67-7.854 3.465-1.053 6.909-.89 10.374-2.161 3.215-1.174 6.127-3.183 8.451-6.496 1.869-2.662 2.271-6.496 4.617-8.637 1.325-1.205 3.324-2.14 4.845-2.161 1.369-.022 2.498.977 3.52 1.77 2.715 2.108 5.67 3.031 8.864 2.76l-.38-1.858a11.843 11.843 0 01-3.031-.217c-3.281-.695-5.356-4.465-8.854-4.411-3.215.044-6.854 2.716-8.375 6.518-1.064 2.662-1.999 4.997-3.921 7.083-2.184 2.368-4.976 3.552-7.594 4.258-2.4.641-4.779.685-7.169 1.228-2.586.575-5.149 1.673-7.68 2.813-7.127 3.227-15.806 7.865-22.422 3.922-4.649-2.792-5.616-9.603-6.756-15.545-1.119-5.899-3.205-12.71-8.973-12.732-5.519-.032-11.254 4.411-16.306 7.637-3.345 2.151-6.637 4.552-9.863 7.137z" fill="#60C2DA" stroke="#54B6C0" stroke-width=".669" stroke-miterlimit="10"/><path d="M427.553 146.476c-.5-.26-1.021-.467-1.542-.641-.913.793-1.858 1.51-2.836 2.064l3.129 15.285 7.984-3.954c-.38-5.638-2.618-10.624-6.735-12.754z" fill="#E2D3B6"/><path d="M427.553 146.476c-.5-.26-1.021-.467-1.542-.641-.913.793-1.858 1.51-2.836 2.064l3.129 15.285 7.984-3.954c-.38-5.638-2.618-10.624-6.735-12.754z" stroke="#D1C4A9" stroke-width=".887" stroke-miterlimit="10"/><path d="M441.49 138.916a33.718 33.718 0 01.141-5.345c-2.639 1.727-5.257 3.531-7.81 5.529a92.702 92.702 0 00-4.074 3.4c.011.011.022.011.033.022 4.693 2.879 7.408 8.386 8.017 14.969l6.3-3.117c-1.01-5.084-2.324-10.092-2.607-15.458z" fill="#E2D3B6"/><path d="M441.49 138.916a33.718 33.718 0 01.141-5.345c-2.639 1.727-5.257 3.531-7.81 5.529a92.702 92.702 0 00-4.074 3.4c.011.011.022.011.033.022 4.693 2.879 7.408 8.386 8.017 14.969l6.3-3.117c-1.01-5.084-2.324-10.092-2.607-15.458z" stroke="#D1C4A9" stroke-width=".887" stroke-miterlimit="10"/><path d="M445.575 131.062c-.543 2.575-.695 5.225-.467 7.941.402 4.704 1.553 9.146 2.455 13.655l4.367-2.162-4.237-20.738c-.174.109-.348.218-.51.315-.533.326-1.065.652-1.608.989z" fill="#E2D3B6"/><path d="M445.575 131.062c-.543 2.575-.695 5.225-.467 7.941.402 4.704 1.553 9.146 2.455 13.655l4.367-2.162-4.237-20.738c-.174.109-.348.218-.51.315-.533.326-1.065.652-1.608.989z" stroke="#D1C4A9" stroke-width=".887" stroke-miterlimit="10"/><path d="M429.388 135.005c3.379-2.694 6.833-5.192 10.375-7.452.249-.163.51-.326.76-.5-1.836-1.998-4.432-2.096-6.996-1.542-4.649 1.01-9.201 3.552-13.633 6.322l1.966 9.636c.967-.576 1.858-1.467 2.727-2.282a86.34 86.34 0 014.801-4.182z" fill="#E2D3B6"/><path d="M429.388 135.005c3.379-2.694 6.833-5.192 10.375-7.452.249-.163.51-.326.76-.5-1.836-1.998-4.432-2.096-6.996-1.542-4.649 1.01-9.201 3.552-13.633 6.322l1.966 9.636c.967-.576 1.858-1.467 2.727-2.282a86.34 86.34 0 014.801-4.182z" stroke="#D1C4A9" stroke-width=".887" stroke-miterlimit="10"/><path d="M419.025 127.596c5.225-3.28 10.678-6.289 16.11-6.8 3.476-.326 6.746.63 8.832 3.867.021.033.043.076.065.109.782-.5 1.564-.999 2.357-1.466l-2.629-12.862-25.767 12.069 1.032 5.083z" fill="#E2D3B6"/><path d="M419.025 127.596c5.225-3.28 10.678-6.289 16.11-6.8 3.476-.326 6.746.63 8.832 3.867.021.033.043.076.065.109.782-.5 1.564-.999 2.357-1.466l-2.629-12.862-25.767 12.069 1.032 5.083z" stroke="#D1C4A9" stroke-width=".887" stroke-miterlimit="10"/><path d="M459.099 137.797c-1.727 2.129-3.845 3.379-6.05 4.258l1.466 7.159 9.277-4.584c-.489-1.629-.88-3.346-1.206-5.117-.369-1.987-.684-4.605-1.325-6.952-.358 1.923-.978 3.78-2.162 5.236z" fill="#E2D3B6"/><path d="M459.099 137.797c-1.727 2.129-3.845 3.379-6.05 4.258l1.466 7.159 9.277-4.584c-.489-1.629-.88-3.346-1.206-5.117-.369-1.987-.684-4.605-1.325-6.952-.358 1.923-.978 3.78-2.162 5.236z" stroke="#D1C4A9" stroke-width=".887" stroke-miterlimit="10"/><path d="M456.622 135.08c1.358-1.857 1.434-4.508 1.641-6.713a3.26 3.26 0 01.217-.912 4.973 4.973 0 00-.5-.337c-2.281-1.26-5.127-.25-7.734 1.151l1.977 9.712c1.651-.587 3.335-1.445 4.399-2.901z" fill="#97BC66"/><path d="M456.622 135.08c1.358-1.857 1.434-4.508 1.641-6.713a3.26 3.26 0 01.217-.912 4.973 4.973 0 00-.5-.337c-2.281-1.26-5.127-.25-7.734 1.151l1.977 9.712c1.651-.587 3.335-1.445 4.399-2.901z" stroke="#8CAD56" stroke-width=".669" stroke-miterlimit="10"/><path d="M467.3 133.788l.033.185c.488 2.596.923 5.486 1.727 8.049l11.08-5.485-1.673-8.213-11.167 5.464z" fill="#E2D3B6"/><path d="M467.3 133.788l.033.185c.488 2.596.923 5.486 1.727 8.049l11.08-5.485-1.673-8.213-11.167 5.464z" stroke="#D1C4A9" stroke-width=".887" stroke-miterlimit="10"/><path d="M463.086 114.495c.206-3.106-.109-6.387-1.174-9.016-.445-1.108-.988-2.031-1.607-2.77l-13.938 6.529 2.586 12.666c2.531-1.271 5.105-2.14 7.626-2.129 1.825.011 3.356.543 4.649 1.445 1.336-1.554 1.738-4.954 1.858-6.725z" fill="#97BC66"/><path d="M463.086 114.495c.206-3.106-.109-6.387-1.174-9.016-.445-1.108-.988-2.031-1.607-2.77l-13.938 6.529 2.586 12.666c2.531-1.271 5.105-2.14 7.626-2.129 1.825.011 3.356.543 4.649 1.445 1.336-1.554 1.738-4.954 1.858-6.725z" stroke="#8CAD56" stroke-width=".669" stroke-miterlimit="10"/><path d="M465.682 104.642c1.282 4.487 1.782 14.655-1.847 19.369.837 1.26 1.51 2.738 2.053 4.324l11.461-5.562-5.214-25.615-8.006 3.747a17.43 17.43 0 011.553 3.737z" fill="#E2D3B6"/><path d="M465.682 104.642c1.282 4.487 1.782 14.655-1.847 19.369.837 1.26 1.51 2.738 2.053 4.324l11.461-5.562-5.214-25.615-8.006 3.747a17.43 17.43 0 011.553 3.737z" stroke="#D1C4A9" stroke-width=".887" stroke-miterlimit="10"/><path d="M463.183 172.678l-3.508 1.803 1.271 6.225 3.508-1.815-1.271-6.213z" fill="#E2D3B6"/><path d="M463.183 172.678l-3.508 1.803 1.271 6.225 3.508-1.815-1.271-6.213z" stroke="#D1C4A9" stroke-width=".733" stroke-miterlimit="10"/><path d="M470.809 168.778l-4.573 2.347 1.26 6.202 4.573-2.357-1.26-6.192z" fill="#E2D3B6"/><path d="M470.809 168.778l-4.573 2.347 1.26 6.202 4.573-2.357-1.26-6.192z" stroke="#D1C4A9" stroke-width=".733" stroke-miterlimit="10"/><path d="M478.066 165.063l-4.454 2.281 1.26 6.181 4.454-2.303-1.26-6.159z" fill="#E2D3B6"/><path d="M478.066 165.063l-4.454 2.281 1.26 6.181 4.454-2.303-1.26-6.159z" stroke="#D1C4A9" stroke-width=".733" stroke-miterlimit="10"/><path d="M482.715 169.473l3.747-1.933-1.249-6.127-3.748 1.912 1.25 6.148z" fill="#E2D3B6"/><path d="M482.715 169.473l3.747-1.933-1.249-6.127-3.748 1.912 1.25 6.148z" stroke="#D1C4A9" stroke-width=".733" stroke-miterlimit="10"/><path d="M457.633 164.498l1.292 6.322 25.55-13.013-.532-2.608c-2.694.826-5.421 1.293-8.169 1.043a11.807 11.807 0 01-1.391-.206l-16.75 8.462z" fill="#E2D3B6"/><path d="M457.633 164.498l1.292 6.322 25.55-13.013-.532-2.608c-2.694.826-5.421 1.293-8.169 1.043a11.807 11.807 0 01-1.391-.206l-16.75 8.462z" stroke="#D1C4A9" stroke-width=".733" stroke-miterlimit="10"/><path d="M458.773 151.69l-3.4 1.695 1.542 7.593 3.411-1.705-1.553-7.583z" fill="#E2D3B6"/><path d="M458.773 151.69l-3.4 1.695 1.542 7.593 3.411-1.705-1.553-7.583z" stroke="#D1C4A9" stroke-width=".733" stroke-miterlimit="10"/><path d="M463.487 157.676l6.616-3.324a11.097 11.097 0 01-2.759-2.499c-.815-1.042-1.499-2.183-2.086-3.389l-3.313 1.651 1.542 7.561z" fill="#E2D3B6"/><path d="M463.487 157.676l6.616-3.324a11.097 11.097 0 01-2.759-2.499c-.815-1.042-1.499-2.183-2.086-3.389l-3.313 1.651 1.542 7.561z" stroke="#D1C4A9" stroke-width=".733" stroke-miterlimit="10"/><path d="M473.232 148.214c2.824 1.695 6.105 1.63 9.462.793l-1.706-8.364-10.243 5.094c.651 1.011 1.466 1.869 2.487 2.477z" fill="#E2D3B6"/><path d="M473.232 148.214c2.824 1.695 6.105 1.63 9.462.793l-1.706-8.364-10.243 5.094c.651 1.011 1.466 1.869 2.487 2.477z" stroke="#D1C4A9" stroke-width=".733" stroke-miterlimit="10"/><path d="M511.806 146.009c-3.65 1.336-7.235 1.227-10.885 2.346-4.736 1.445-9.396 3.998-14.078 5.823l2.422 11.917 25.517-13.166-1.531-7.528c-.467.228-.956.423-1.445.608z" fill="#E2D3B6"/><path d="M511.806 146.009c-3.65 1.336-7.235 1.227-10.885 2.346-4.736 1.445-9.396 3.998-14.078 5.823l2.422 11.917 25.517-13.166-1.531-7.528c-.467.228-.956.423-1.445.608z" stroke="#D1C4A9" stroke-width=".733" stroke-miterlimit="10"/><path d="M531.414 130.225c-1.891-1.466-3.716-1.835-6.073.315-.891.815-1.227 1.902-1.662 3.075-.673 1.792-1.466 3.585-2.553 5.127-1.477 2.107-3.204 3.791-5.084 5.073l1.554 7.669 25.517-13.166-1.01-4.997c-3.878.489-7.42-.564-10.689-3.096z" fill="#97BC66"/><path d="M531.414 130.225c-1.891-1.466-3.716-1.835-6.073.315-.891.815-1.227 1.902-1.662 3.075-.673 1.792-1.466 3.585-2.553 5.127-1.477 2.107-3.204 3.791-5.084 5.073l1.554 7.669 25.517-13.166-1.01-4.997c-3.878.489-7.42-.564-10.689-3.096z" stroke="#8CAD56" stroke-width=".669" stroke-miterlimit="10"/><path d="M481.759 174.09c1.021 2.531 1.238 5.703.304 8.603-.978 3.064-3.27 5.03-4.443 7.919-1.162 2.868-1.043 5.899-.554 8.636l14.317-7.571-2.335-11.493-1.825-8.94-5.464 2.846z" fill="#E2D3B6" stroke="#D1C4A9" stroke-width=".638" stroke-miterlimit="10"/><path d="M485.963 206.668l1.195 5.866 1.293 6.355 7.615-4.171-1.76-8.691-.717-3.476-7.626 4.117z" fill="#97BC66" stroke="#8CAD56" stroke-width=".669" stroke-miterlimit="10"/><path d="M494.838 193.415l4.248 20.846c3.074-1.325 6.387-4.269 7.006-8.353.728-4.769 1.119-8.951 4.291-12.819 3.151-3.813 7.224-5.486 10.972-7.832l-1.097-5.421-25.42 13.579z" fill="#E2D3B6"/><path d="M494.838 193.415l4.248 20.846c3.074-1.325 6.387-4.269 7.006-8.353.728-4.769 1.119-8.951 4.291-12.819 3.151-3.813 7.224-5.486 10.972-7.832l-1.097-5.421-25.42 13.579z" stroke="#D1C4A9" stroke-width=".887" stroke-miterlimit="10"/><path d="M494.056 111.203c.337 2.542.348 5.182.011 7.735a28.203 28.203 0 014.052-.098c2.466.12 4.986.685 7.007 1.966.022-.043 1.325 2.705 1.325 2.705l2.14-1.064-1.021-4.997-2.368-11.645-11.146 5.398z" fill="#E2D3B6" stroke="#D1C4A9" stroke-width=".887" stroke-miterlimit="10"/><path d="M509.286 110.498l1.086 5.366h.011l1.054 5.182 5.181-2.564 4.509-2.227-2.303-11.33c-3.02 2.433-6.257 4.367-9.538 5.573z" fill="#97BC66"/><path d="M509.286 110.498l1.086 5.366h.011l1.054 5.182 5.181-2.564 4.509-2.227-2.303-11.33c-3.02 2.433-6.257 4.367-9.538 5.573z" stroke="#8CAD56" stroke-width=".669" stroke-miterlimit="10"/><path d="M504.876 128.747l-21.075 10.483 1.804 8.864c2.976-1.075 5.931-2.553 8.603-3.758 2.694-1.217 5.442-2.358 8.191-2.977 2.401-.543 4.78-.576 7.169-1.216a18.12 18.12 0 002.445-.837l-1.489-7.343-1.108-5.475-4.54 2.259zM517.542 122.447l-5.29 2.64 1.151 5.66 1.413 6.93c.489-.38.956-.804 1.401-1.282 1.608-1.738 2.336-3.889 3.215-6.115 1.945-4.856 6.54-7.92 10.548-7.963 3.607-.054 5.541 3.704 8.854 4.421.652.141 1.325.207 1.999.217l-2.955-14.61-20.336 10.102z" fill="#E2D3B6" stroke="#D1C4A9" stroke-width=".887" stroke-miterlimit="10"/></g></svg>