<svg width="583" height="661" fill="none" xmlns="http://www.w3.org/2000/svg"><g opacity=".82"><path opacity=".82" d="M582 515.207L291.436 660.055.998 515.207l290.438-132.389L582 515.207zM200.478 614.75l286.395-142.834M243.177 404.841l201.627 88.091M91.2 560.259l244.326-121.818M128.468 456.942l84.895 42.409M277.54 419.817l-111.804 55.749M406.272 476.068l42.953-21.394M322.639 553.842l90.959 45.304M62.27 487.269l87.548 43.668M149.818 530.938l112.183 53.106M177.106 603.046l61.65-30.077" stroke="#50935F" stroke-width=".554" stroke-miterlimit="10"/><path opacity=".38" d="M149.817 530.937l-58.618 29.322L1 515.206l61.27-27.937 87.548 43.668z" fill="#50935F"/><path opacity=".38" d="M91.2 560.259l280.078-140.443-79.842-36.998L.998 515.207l90.201 45.052zM483.336 564.412l-191.899 95.643-90.959-45.305 191.898-95.768 90.96 45.43z" fill="#50935F"/><path opacity=".38" d="M321.504 397.793l-43.964 22.023-32.215-14.094 46.111-22.904 30.068 14.975zM327.82 441.84l-114.457 57.511-47.627-23.785 111.804-55.749 50.28 22.023zM381.006 614.75l-90.327 44.927-90.201-44.927 90.201-45.052 90.327 45.052z" fill="#50935F"/></g><path opacity=".12" d="M98.147 384.203l79.463 39.641-79.463 39.767-79.463-39.767 79.463-39.641z" fill="#50935F"/><path opacity=".19" d="M98.147 370.989l79.463 39.641-79.463 39.767-79.463-39.767 79.463-39.641z" fill="#50935F"/><path opacity=".23" d="M98.147 366.333l79.463 39.641-79.463 39.641-79.463-39.641 79.463-39.641z" fill="#50935F"/><path opacity=".23" d="M98.147 361.551l79.463 39.767-79.463 39.641-79.463-39.641 79.463-39.767z" fill="#50935F"/><path opacity=".23" d="M98.147 356.895l79.463 39.641-79.463 39.767-79.463-39.767 79.463-39.641z" fill="#50935F"/><path opacity=".23" d="M98.147 352.238l79.463 39.641-79.463 39.641-79.463-39.641 79.463-39.641z" fill="#50935F"/><path opacity=".23" d="M98.147 347.456l79.463 39.767-79.463 39.641-79.463-39.641 79.463-39.767z" fill="#50935F"/><path opacity=".23" d="M98.147 342.799l79.463 39.642-79.463 39.767-79.463-39.767 79.463-39.642z" fill="#50935F"/><path d="M98.147 342.799l79.463 39.642-79.463 39.767-79.463-39.767 79.463-39.642z" stroke="#50935F" stroke-width="1.012" stroke-miterlimit="10"/><path d="M98.148 366.333l32.468 16.108-32.468 16.234-32.467-16.234 32.467-16.108z" fill="#50935F"/><path opacity=".12" d="M483.965 382.818l79.463 39.641-79.463 39.768-79.589-39.768 79.589-39.641z" fill="#50935F"/><path opacity=".19" d="M483.965 370.989l79.463 39.641-79.463 39.767-79.589-39.767 79.589-39.641z" fill="#50935F"/><path opacity=".23" d="M483.965 366.333l79.463 39.641-79.463 39.641-79.589-39.641 79.589-39.641z" fill="#50935F"/><path opacity=".23" d="M483.965 361.551l79.463 39.767-79.463 39.641-79.589-39.641 79.589-39.767z" fill="#50935F"/><path opacity=".23" d="M483.965 356.895l79.463 39.641-79.463 39.767-79.589-39.767 79.589-39.641z" fill="#50935F"/><path opacity=".23" d="M483.965 352.238l79.463 39.641-79.463 39.641-79.589-39.641 79.589-39.641z" fill="#50935F"/><path opacity=".23" d="M483.965 347.456l79.463 39.767-79.463 39.641-79.589-39.641 79.589-39.767z" fill="#50935F"/><path opacity=".23" d="M483.965 342.799l79.463 39.642-79.463 39.767-79.589-39.767 79.589-39.642z" fill="#50935F"/><path d="M483.965 342.799l79.463 39.642-79.463 39.767-79.589-39.767 79.589-39.642z" stroke="#50935F" stroke-width="1.012" stroke-miterlimit="10"/><path d="M483.965 366.333l32.467 16.108-32.467 16.234-32.468-16.234 32.468-16.108z" fill="#50935F"/><path opacity=".12" d="M291.435 257.476l125.954 65.062-125.954 65.188-125.953-65.188 125.953-65.062z" fill="#50935F"/><path d="M291.435 268.802l125.954 65.188-125.954 65.062-125.953-65.062 125.953-65.188z" stroke="#50935F" stroke-width=".554" stroke-miterlimit="10"/><path opacity=".05" d="M291.435 233.313l125.954 65.188-125.954 65.062-125.953-65.062 125.953-65.188z" fill="#fff"/><path opacity=".37" d="M291.436 225.637l125.953 65.188-125.953 65.062-125.953-65.062 125.953-65.188z" fill="#50935F"/><path d="M291.434 247.535l83.506 43.291-83.506 43.165-83.505-43.165 83.505-43.291z" fill="#50935F"/><path opacity=".38" d="M291.434 236.209l83.506 43.165-83.506 43.164-83.505-43.164 83.505-43.165z" fill="#50935F"/><path opacity=".45" d="M165.482 298.502v-7.677l125.953 65.062 125.954-65.062v7.677l-125.954 65.062-125.953-65.062z" fill="#50935F"/><path d="M291.436 236.209l83.506 43.165-83.506 43.164-83.505-43.164 83.505-43.165zM207.93 279.374v11.451M291.435 322.538v11.453M374.941 279.374v11.451" stroke="#375344" stroke-width=".816" stroke-miterlimit="10" stroke-linecap="round" stroke-linejoin="round"/><g opacity=".63"><path d="M141.228 179.2c-48.132 25.421-90.706 63.803-122.416 115.274-3.663-45.178-7.453-105.836-5.558-147.616C30.182 111.999 85.01 65.184 135.038 38.757c2.148 46.814 4.169 93.629 6.19 140.443z" fill="#375344"/><path d="M126.448 171.899c-4.422 2.643-8.843 5.412-13.139 8.306-1.389-27.308-2.779-54.617-4.295-81.925 4.422-2.894 8.843-5.789 13.391-8.432 1.39 27.309 2.78 54.743 4.043 82.051zM106.74 184.736c-4.295 3.021-8.464 6.041-12.507 9.313-1.137-19.506-2.274-39.012-3.411-58.644 4.169-3.272 8.464-6.418 12.76-9.438 1.137 19.506 2.147 39.137 3.158 58.769zM87.917 198.957c-4.043 3.272-8.085 6.795-12.002 10.319-1.39-21.519-2.779-43.039-4.042-64.559 4.042-3.649 8.085-7.173 12.254-10.571 1.137 21.646 2.527 43.291 3.79 64.811zM69.978 214.941c-3.916 3.649-7.58 7.424-11.37 11.326-1.263-17.996-2.527-35.992-3.664-53.988 3.79-3.901 7.58-7.802 11.497-11.578 1.137 18.122 2.274 36.118 3.537 54.24zM52.922 232.431c-3.664 4.027-7.2 8.18-10.612 12.458-1.137-15.353-2.274-30.832-3.41-46.185 3.537-4.278 7.074-8.557 10.737-12.584 1.137 15.353 2.274 30.832 3.285 46.311zM37.131 251.434c-3.41 4.405-6.695 8.81-9.854 13.466-1.01-12.333-1.895-24.666-2.905-37.124 3.158-4.657 6.57-9.187 9.854-13.592 1.01 12.459 2.021 24.918 2.905 37.25zM114.826 66.065c2.147-1.258 3.663-.126 3.79 2.894v.378c-.632.377-1.137.755-1.769 1.132v-.251c-.126-2.014-.884-2.265-1.895-1.762.127 2.013.253 4.027.253 6.04 2.021-.754 3.916-.503 4.169 3.398.126 3.398-1.264 6.67-3.537 8.18 0 .755.126 1.51.126 2.391-.253.126-.505.378-.758.504 0-.756-.126-1.51-.126-2.391-2.148 1.384-3.917.377-4.169-3.65v-.252l1.895-1.132v.377c.126 2.265.884 3.02 2.274 2.391-.127-2.265-.253-4.404-.379-6.67-1.769.756-3.664.378-3.917-3.02-.252-3.65 1.39-6.292 3.285-7.802 0-.63-.126-1.258-.126-2.013.252-.126.505-.378.884-.504-.126.504-.126 1.133 0 1.762zm-.758 2.894c-1.137.881-1.769 2.391-1.642 4.027.126 1.888 1.01 1.888 2.021 1.636l-.379-5.663zm1.642 14.724c1.137-.755 1.895-2.643 1.895-4.53-.126-1.636-.758-2.266-2.147-1.888 0 2.14.126 4.279.252 6.418zM96.003 103.316c2.147-1.511 3.537-.504 3.663 2.517v.377c-.505.378-1.137.755-1.642 1.259v-.252c-.127-2.014-.758-2.265-1.895-1.636.126 2.013.252 4.027.379 5.915 1.895-.881 3.79-.756 4.043 3.02.252 3.398-1.138 6.795-3.412 8.431 0 .756.127 1.511.127 2.266-.253.251-.506.377-.758.503 0-.755-.126-1.51-.126-2.265-2.148 1.51-3.79.755-4.043-3.272v-.252c.632-.377 1.137-.881 1.769-1.384v.377c.126 2.266.884 2.895 2.147 2.14-.126-2.265-.252-4.405-.379-6.67-1.768.881-3.537.755-3.663-2.769-.253-3.649 1.263-6.418 3.158-8.054 0-.629-.126-1.258-.126-2.013.252-.252.505-.378.758-.629v2.391zm-.632 2.894c-1.01 1.007-1.642 2.517-1.642 4.153.126 1.888 1.01 1.762 1.895 1.51 0-1.888-.127-3.775-.253-5.663zm1.642 14.598c1.137-.881 1.895-2.768 1.769-4.656-.126-1.636-.758-2.14-2.148-1.636.127 2.013.253 4.153.38 6.292zM76.547 112.375c2.021-1.636 3.411-.755 3.537 2.266v.377c-.505.503-1.01.881-1.642 1.384v-.251c-.126-2.014-.758-2.14-1.769-1.51.127 2.013.253 4.027.38 5.914 1.768-1.006 3.663-1.132 3.916 2.769.252 3.398-1.137 6.921-3.159 8.683 0 .755.127 1.51.127 2.391-.253.252-.506.378-.758.63 0-.755-.127-1.511-.127-2.391-2.021 1.761-3.663 1.006-3.916-2.895v-.252c.505-.503 1.137-1.006 1.642-1.51v.378c.127 2.265.885 2.894 2.022 2.013-.127-2.265-.253-4.404-.38-6.544-1.642 1.007-3.41 1.007-3.537-2.517-.252-3.649 1.137-6.544 2.906-8.305 0-.63-.126-1.259-.126-2.014.252-.252.505-.377.758-.629 0 .629.126 1.258.126 2.013zm-.632 2.895c-1.01 1.007-1.642 2.643-1.516 4.279.127 1.887 1.011 1.761 1.895 1.384l-.379-5.663zm1.769 14.472c1.137-1.007 1.769-2.894 1.642-4.782-.126-1.636-.758-2.139-2.021-1.51.126 2.013.253 4.153.379 6.292zM59.113 138.93c1.895-1.762 3.159-1.007 3.411 2.013v.378l-1.516 1.51v-.126c-.126-2.014-.758-2.139-1.768-1.384.126 2.013.252 3.901.379 5.914 1.768-1.132 3.41-1.384 3.663 2.391.253 3.398-1.01 7.048-2.905 8.935 0 .755.126 1.51.126 2.265l-.758.756c0-.756-.126-1.511-.126-2.266-1.895 1.888-3.411 1.385-3.664-2.642v-.252c.505-.503 1.01-1.133 1.516-1.636v.377c.126 2.266.884 2.769 2.021 1.888-.126-2.139-.252-4.404-.379-6.544-1.642 1.133-3.158 1.259-3.41-2.139-.253-3.65 1.01-6.544 2.652-8.558 0-.629-.126-1.258-.126-1.887l.758-.755c0 .503.126 1.132.126 1.762zm-.505 3.02c-1.01 1.132-1.516 2.768-1.39 4.404.127 1.888.885 1.636 1.769 1.259-.253-1.888-.253-3.776-.379-5.663zm1.642 14.346c1.011-1.133 1.643-3.02 1.516-4.908-.126-1.636-.758-2.013-1.895-1.384.127 2.139.253 4.153.38 6.292zM42.563 164.35c1.769-2.013 3.032-1.258 3.159 1.636v.378c-.506.503-1.011 1.133-1.39 1.636v-.126c-.126-2.013-.758-2.013-1.642-1.258.126 2.013.252 3.901.379 5.914 1.642-1.258 3.284-1.762 3.537 2.14.253 3.397-.884 7.047-2.653 9.312 0 .755.126 1.51.126 2.265-.252.252-.379.504-.631.755 0-.755-.127-1.51-.127-2.265-1.768 2.014-3.158 1.636-3.537-2.265v-.252c.505-.629 1.01-1.132 1.516-1.762v.378c.126 2.139.758 2.768 1.895 1.636-.126-2.139-.379-4.405-.505-6.544-1.516 1.258-3.032 1.51-3.285-1.888-.253-3.523.884-6.669 2.527-8.809 0-.629-.127-1.258-.127-1.887.253-.252.38-.504.632-.755 0 .503.126 1.132.126 1.761zm-.505 3.147c-.884 1.258-1.39 2.894-1.263 4.53.126 1.888.884 1.51 1.642 1.007-.126-1.762-.253-3.65-.379-5.537zm1.769 14.094c1.01-1.133 1.516-3.272 1.39-5.034-.127-1.636-.759-2.013-1.896-1.132.253 2.013.38 4.152.506 6.166zM27.53 194.427c1.643-2.139 2.78-1.636 3.033 1.384v.378c-.38.629-.885 1.132-1.264 1.762v-.126c-.126-1.888-.758-2.014-1.516-1.007.127 2.013.253 3.901.506 5.789 1.516-1.51 3.032-2.014 3.284 1.762.253 3.271-.758 7.173-2.4 9.564 0 .755.126 1.51.126 2.265-.252.252-.379.503-.631.755 0-.755-.127-1.51-.127-2.265-1.642 2.265-3.032 1.887-3.284-2.014v-.251c.379-.63.884-1.259 1.39-1.888v.377c.126 2.14.757 2.643 1.768 1.511-.126-2.14-.38-4.279-.505-6.544-1.39 1.384-2.78 1.887-3.032-1.51-.253-3.524.758-6.796 2.274-9.061 0-.629-.127-1.259-.127-1.888.253-.251.38-.503.632-.881-.253.504-.126 1.133-.126 1.888zm-.378 3.146c-.885 1.258-1.264 3.02-1.137 4.656.126 1.888.884 1.51 1.516.881-.127-1.888-.253-3.775-.38-5.537zm1.768 13.969c.885-1.259 1.39-3.398 1.264-5.16-.127-1.636-.632-1.888-1.77-1.007.127 2.014.254 4.027.506 6.167z" fill="#50935F"/><path d="M434.192 174.92c-78.831-38.634-171.054-43.164-252.917-13.339-1.516-47.066-3.032-94.132-4.548-141.072C262.001-10.45 357.888-5.793 440.004 34.478c-2.022 46.688-3.917 93.628-5.812 140.442z" fill="#375344"/><path d="M288.657.248c0 38.76.126 77.52.126 116.407M350.181 5.282c-.632 38.76-1.263 77.52-1.895 116.155M410.189 21.516c-1.263 38.634-2.527 77.143-3.79 115.651" stroke="#999" stroke-width=".987" stroke-miterlimit="10"/><path d="M435.33 148.115c-27.035-19.758-47.249-110.618-85.401-117.79-37.268-5.412-37.773 56.126-62.408 73.241-22.866 14.85-79.968 33.6-107.382 19.883.252 8.054.505 15.983.758 24.037 82.242-29.826 174.843-25.295 253.927 13.465.127-4.279.253-8.557.506-12.836z" fill="#50935F"/><path d="M213.111 105.202a288.627 288.627 0 00-14.023 3.775c-.253-8.18-.379-16.234-.632-24.414a289.286 289.286 0 0114.023-3.775c.253 8.18.505 16.36.632 24.414zM237.365 100.294a255.02 255.02 0 00-14.149 2.643c-.252-14.346-.505-28.818-.884-43.165 4.8-1.006 9.601-1.887 14.402-2.768.252 14.472.379 28.818.631 43.29zM261.874 97.148c-4.8.378-9.601 1.007-14.275 1.636-.379-25.42-.632-50.841-1.011-76.262 4.927-.629 9.728-1.258 14.654-1.636.253 25.295.506 50.842.632 76.262z" fill="#999"/><path d="M181.023 154.282c82.116-29.825 174.465-25.294 253.422 13.466" stroke="#999" stroke-width="1.973" stroke-miterlimit="10"/><path d="M565.074 294.474c-22.488-36.495-50.407-66.446-81.99-89.853 2.653-46.437 5.18-92.874 7.833-139.31 32.846 24.287 74.536 61.16 84.642 80.162-3.79 45.179-6.822 103.823-10.485 149.001z" fill="#375344"/><path d="M519.846 144.467c-7.074-6.796-14.275-13.214-21.855-19.255-1.39 23.533-2.78 46.941-4.169 70.474 9.98 8.054 19.581 16.863 28.803 26.301 1.264-17.87 2.401-35.74 3.664-53.484-2.148-8.054-4.295-16.108-6.443-24.036z" fill="#50935F"/><path d="M518.709 161.833l1.137-17.366c2.148 7.928 4.422 15.856 6.443 23.91-2.526-2.139-5.053-4.404-7.58-6.544z" fill="#999"/><path d="M501.149 73.239c-.379 7.298-.884 14.723-1.263 22.022 10.359 8.306 20.213 17.367 29.688 27.057.505-7.299 1.011-17.241 1.516-24.54-9.98-7.928-19.582-16.234-29.941-24.54zM560.272 141.698c-6.064-8.306-12.507-16.234-19.076-23.785-1.642 23.281-3.285 46.437-4.927 69.718 8.843 10.068 17.308 20.891 25.14 32.468l4.169-52.855a8529.693 8529.693 0 00-5.306-25.546z" fill="#50935F"/><path d="M559.008 158.939c.505-5.789.884-11.452 1.263-17.241 1.769 8.432 3.538 16.863 5.18 25.421-2.021-2.769-4.295-5.537-6.443-8.18z" fill="#999"/><path d="M552.945 236.586c-5.938-8.054-12.128-15.857-18.571-23.156-.884 12.082-1.769 24.037-2.527 36.118 8.717 9.942 17.055 20.513 24.761 31.839l1.516-19.632c-1.768-8.432-3.411-16.737-5.179-25.169z" fill="#50935F"/><path d="M551.682 253.827c.505-5.789.884-11.452 1.263-17.241 1.769 8.306 3.411 16.738 5.054 25.17-2.022-2.643-4.169-5.286-6.317-7.929z" fill="#999"/></g><g opacity=".12"><path opacity=".11" d="M277.789 438.567a19.361 19.361 0 0119.203 0l114.33 65.565c1.769 1.007 1.769 3.65 0 4.657l-115.341 66.32c-5.18 3.02-11.749 3.02-16.928 0l-115.468-66.32c-1.769-1.007-1.769-3.65 0-4.657l114.204-65.565z" fill="#50935F"/><path opacity=".11" d="M277.789 419.312a19.361 19.361 0 0119.203 0l114.33 65.565c1.769 1.007 1.769 3.65 0 4.656l-115.341 66.321c-5.18 3.02-11.749 3.02-16.928 0l-115.468-66.321c-1.769-1.006-1.769-3.649 0-4.656l114.204-65.565z" fill="#50935F"/><path opacity=".11" d="M277.789 400.183a19.366 19.366 0 0119.203 0l114.33 65.566c1.769 1.006 1.769 3.649 0 4.656l-115.341 66.32c-5.18 3.021-11.749 3.021-16.928 0l-115.468-66.32c-1.769-1.007-1.769-3.65 0-4.656l114.204-65.566z" fill="#50935F"/><path opacity=".11" d="M277.79 380.929a19.361 19.361 0 0119.203 0l114.33 65.566c1.769 1.006 1.769 3.649 0 4.656l-115.341 66.32c-5.18 3.02-11.749 3.02-16.929 0l-115.467-66.32c-1.769-1.007-1.769-3.65 0-4.656l114.204-65.566z" fill="#50935F"/><path opacity=".5" d="M163.587 446.621l114.204-65.692a19.364 19.364 0 0119.202 0l114.331 65.566a2.696 2.696 0 011.39 2.391v57.637c0 .881-.506 1.762-1.39 2.391l-115.341 66.321c-5.18 3.02-11.749 3.02-16.929 0l-115.467-66.321a2.695 2.695 0 01-1.39-2.391v-57.637c0-.755.505-1.762 1.39-2.265z" fill="#50935F"/><path opacity=".11" d="M277.79 380.929a19.361 19.361 0 0119.203 0l114.33 65.566c1.769 1.006 1.769 3.649 0 4.656l-115.341 66.32c-5.18 3.02-11.749 3.02-16.929 0l-115.467-66.32c-1.769-1.007-1.769-3.65 0-4.656l114.204-65.566z" fill="#50935F"/><path opacity=".12" d="M163.587 448.635l115.468 66.32c5.179 3.02 11.748 3.02 16.928 0l115.341-66.32c.506-.252.758-.629 1.011-1.007.632 1.259.379 2.895-1.011 3.65l-115.341 66.32c-5.18 3.02-11.749 3.02-16.928 0l-115.468-66.32c-1.39-.755-1.642-2.391-1.011-3.65.253.504.506.755 1.011 1.007z" fill="#50935F"/></g><path opacity=".12" d="M287.393 444.357l123.932 65.439-123.932 65.44-123.806-65.44 123.806-65.439z" fill="#50935F"/><path opacity=".19" d="M287.393 422.585l123.932 65.314-123.932 65.439-123.806-65.439 123.806-65.314z" fill="#50935F"/><path opacity=".23" d="M287.393 414.783l123.932 65.439-123.932 65.44-123.806-65.44 123.806-65.439z" fill="#50935F"/><path opacity=".23" d="M287.393 407.106l123.932 65.44-123.932 65.439-123.806-65.439 123.806-65.44z" fill="#50935F"/><path opacity=".23" d="M287.393 399.304l123.932 65.439-123.932 65.44-123.806-65.44 123.806-65.439z" fill="#50935F"/><path opacity=".23" d="M287.393 391.501l123.932 65.439-123.932 65.44-123.806-65.44 123.806-65.439z" fill="#50935F"/><path opacity=".23" d="M287.393 383.825l123.932 65.44-123.932 65.439-123.806-65.439 123.806-65.44z" fill="#50935F"/><path opacity=".23" d="M287.393 376.023l123.932 65.439-123.932 65.439-123.806-65.439 123.806-65.439z" fill="#50935F"/><path d="M287.392 376.023l123.932 65.439-123.932 65.439-123.805-65.439 123.805-65.439z" stroke="#50935F" stroke-width="1.622" stroke-miterlimit="10"/><path d="M287.392 485.381c34.816 0 63.04-16.227 63.04-36.244 0-20.016-28.224-36.243-63.04-36.243s-63.04 16.227-63.04 36.243c0 20.017 28.224 36.244 63.04 36.244z" fill="#50935F"/><path d="M277.411 162.212c5.685 16.486 34.868 12.333 34.868 12.333s-3.917 22.526-4.927 22.652c-1.011.126-22.866 3.398-22.866 3.398s-11.623-14.472-15.287-19.632c6.822-4.153 4.675-14.598 4.675-14.598l-.506-3.524c2.653.755 4.043-.629 4.043-.629z" fill="#E3B9B0"/><path d="M311.395 418.433s1.516 1.636 3.159 3.524c1.642 1.887 6.064 4.53 7.958 5.663 1.895 1.132 10.486 7.676 12.255 14.094 1.768 6.418-4.296 7.299-10.612 6.167-6.317-1.133-12.128-6.922-13.897-8.935-1.768-2.014-7.706-6.796-15.412-10.823-7.707-4.027-3.032-9.313-3.032-9.313l19.581-.377z" fill="#17241D"/><path d="M288.908 117.033c-28.551.881-19.708 30.329-19.708 30.329s-2.021.881-.758 4.656c1.264 3.775 1.516 4.153 2.148 6.041.631 1.887 1.01 3.146 2.779 4.656 2.527.881 3.916-.503 3.916-.503 5.685 16.485 21.856 21.267 21.856 21.267s7.201-.125 7.959-3.271c.758-3.021 1.263-6.167 2.021-7.803.758-1.636 3.79-9.312 3.916-12.333 0-3.146-.126-8.683 1.264-11.578 1.389-2.768 3.158-32.216-25.393-31.461z" fill="#FCD1C5"/><path d="M254.167 437.435s-1.264 2.894-1.643 6.544c-.379 3.649-.884 11.703-1.137 14.094-.126 2.392-.252 8.055 3.916 13.592 4.169 5.537 6.317 7.676 11.749 5.537 5.433-2.139 5.433-11.326 4.422-16.108-1.011-4.782-1.895-15.353-1.769-16.486.127-1.133-.379-1.888-.379-1.888l-15.159-5.285z" fill="#17241D"/><path d="M330.47 299.761s-1.137 52.351-10.991 74.751c0 0-7.074 19.758-7.959 43.165 0 0 1.643 4.027-.631 7.299-2.274 3.272-16.803 6.292-19.203-4.53-2.4-10.823-1.516-30.958 1.137-39.39 2.653-8.431-.884-31.587-.884-31.587s-3.917 2.517-9.223 19.255c-5.306 16.737-8.969 23.029-10.864 27.685-1.895 4.657-3.411 32.846-2.274 46.689 0 0-11.749 1.636-15.16-3.901-3.411-5.538-4.548-34.482-3.664-43.669.885-9.186 4.675-38.76 4.169-47.821-.505-9.186-2.4-16.611-.379-25.672 2.148-9.187 64.051-29.448 64.051-29.448l11.875 7.174z" fill="#263B30"/><path d="M254.798 347.456c-.506-9.187-2.022-46.186 0-55.372.758-3.398 9.601 5.914 20.844 1.007 18.95-1.762 42.953-3.776 44.596-3.524 1.516.252 5.432 1.762 8.717 3.02l1.263 1.888s-.126 2.517-.379 6.795c-4.422 1.259.758 3.902.758 3.902-1.263 3.02-.884 4.278-10.107 8.809-9.222 4.53-57.607 8.18-59.123 9.942-1.516 1.761-1.895 40.144-1.642 43.039.252 2.894-2.527 21.393-5.054 37.753-2.4 16.108 1.264 35.614 1.39 36.243a5.83 5.83 0 01-2.148-2.139c-3.411-5.537-4.548-34.481-3.663-43.668 1.263-9.061 5.179-38.635 4.548-47.695z" fill="#213329"/><path d="M328.828 258.106s.758-36.998 2.653-56.127c1.895-19.002-2.653-25.672-2.653-25.672L309.5 172.28c-2.274 7.173-2.274 17.618-10.36 20.387-8.211 2.894-24.508 1.006-27.161-14.347l-.505-2.013c-13.013 6.921-26.025 17.492-32.341 21.771 17.181 20.135 17.433 64.81 15.033 82.806-2.4 17.996-2.274 27.182-2.274 27.182s20.087 13.592 60.387 6.041c23.119-8.683 21.476-13.088 21.476-13.088l-4.927-42.913z" fill="#999"/><path d="M345.125 215.697c-6.822 2.139-10.106 5.285-15.665 10.067-.126 5.537 0 9.816-.126 10.823-.253 2.265 4.169 10.319 4.169 10.319-3.917 1.888-8.086 7.047-8.086 7.047l-21.981 8.432s-2.274 5.915-1.643 5.915c10.612-1.51 36.258-3.776 49.27-13.969 1.516-1.51-1.516-29.322-5.938-38.634z" fill="#FFD0C6"/><path d="M341.713 201.602c-9.854-24.791-12.886-25.169-12.886-25.169s.758 41.403.632 49.331c5.559-4.782 11.37-8.809 18.065-10.948-2.021-4.405-4.042-8.809-5.811-13.214z" fill="#666"/><path d="M315.942 241.745s3.031-2.014 3.789-2.265c.758-.252 4.801-1.636 5.559-2.014.632-.251 2.906-.126 4.169.126.379 0 .758.252 1.011.629.884 1.762 3.537 6.796 3.284 8.684 0 0-7.327 4.656-8.211 6.669l-1.137.252c-.127 0-4.927-10.571-8.464-12.081z" fill="#E3B9B0"/><path d="M255.303 258.106c.884-3.147-1.769-7.048-.505-11.326l49.522 21.141s-8.843 14.095-32.341 13.088c-6.443-.251-13.518-7.55-16.929-9.438 1.011-7.299-1.01-9.061.253-13.465z" fill="#8A8A8A"/><path d="M325.29 253.828c-2.4-11.578-9.475-11.955-9.475-11.955-2.779 2.013-17.686 8.809-27.666 13.213-4.801 2.14-10.233-.755-11.118-5.914l-.379-2.014s-5.432-7.676-10.612-17.744c-7.58 1.258-16.296-3.272-25.013 3.901 6.695 19.758 32.593 42.284 37.394 43.794 6.064 1.762 33.857-14.472 46.869-23.281z" fill="#E3B9B0"/><path d="M260.483 214.815c-9.475-14.975-21.224-16.611-21.224-16.611-6.696 2.894-4.422 16.611-2.274 26.931.631 3.146 4.169 11.452 7.327 19.38 8.591-9.439 16.55-14.221 24.256-15.479-2.4-4.656-5.18-9.564-8.085-14.221z" fill="gray"/><path d="M282.591 257.351s-4.927 4.656-7.201 2.14c-2.147-2.517-1.516-2.895-1.516-2.895s-4.548 0-5.053-2.894c-.505-2.769-2.779-1.385-2.906-4.405-.126-3.146 3.664-2.517 3.664-2.517l13.012 10.571z" fill="#CCA69E"/><path d="M288.655 254.834s-1.39-1.258-3.158-2.768c-1.769-1.511-4.675-7.677-5.18-8.18-.505-.504-6.443-5.16-9.348-5.16-2.906 0-.758 3.146-.127 3.65.632.503 3.538 1.887 3.538 1.887s2.905 2.391 3.284 2.769c.379.377-8.085-.629-9.348.252-1.39.755-1.011 2.894-.127 3.523.885.629 1.643.504 1.643.504s-1.011 2.516 1.516 3.649c2.526 1.133 3.032.503 3.032.503s.252 4.279 4.421 3.524l9.854-4.153z" fill="#FFD0C6"/><path d="M314.932 133.519s3.79 11.83-6.064 8.432c-9.854-3.398-18.697-8.935-21.729-6.796-2.401 1.636-2.274 6.67-2.022 8.935.127.755-.126 1.51-.631 2.265l-2.906 4.279c-.379.503-.505 1.007-.505 1.636l-.253 2.895a1.4 1.4 0 01-1.39 1.384h-.631c-.758 0-1.39-.504-1.516-1.259l-.758-4.278s-2.274-5.789-7.201-3.524c0 0-3.285-4.405-2.148-13.717 1.137-9.313 5.306-19.003 23.751-20.639 18.191-1.636 24.003 20.387 24.003 20.387z" fill="#AA8383"/><path d="M291.687 349.469s-.127 0-.127.126l7.075-7.425c-3.285 4.531.505 25.421.884 30.203s-3.79 14.598-5.306 26.176c-1.516 11.578 1.643 28.063 1.643 28.063-2.022-1.132-3.664-3.146-4.296-6.04-2.4-10.823-1.516-30.958 1.137-39.39 2.527-8.557-1.01-31.713-1.01-31.713z" fill="#213329"/><path d="M278.675 156.423c-.758 0-1.39-.504-1.516-1.259l-.758-4.278s-2.274-5.789-7.201-3.524c0 0-3.032-4.153-2.274-12.962 5.433 8.054 17.434 11.829 17.434 11.829l-2.906 4.279c-.379.503-.505 1.007-.505 1.636l-.253 2.895c0 .755-.631 1.384-1.389 1.384h-.632z" fill="#936D6D"/><g opacity=".81"><path opacity=".81" d="M439.876 424.977c-81.611 45.052-181.034 49.96-266.561 14.724-1.642-43.291-3.158-86.456-4.801-129.747 88.938 36.621 192.531 31.588 277.426-15.353-2.022 43.543-4.043 86.959-6.064 130.376z" fill="#375344"/><path opacity=".35" d="M444.424 326.566c-84.137 46.436-186.593 51.47-274.773 15.227-.379-10.571-.758-21.142-1.137-31.839 88.938 36.621 192.531 31.587 277.426-15.353-.506 10.697-1.011 21.394-1.516 31.965z" fill="#E6E6E6"/><path opacity=".81" d="M208.94 349.595c-8.591-2.265-16.929-4.907-25.267-7.802-.253-6.921-.505-13.843-.632-20.764 8.338 3.02 16.929 5.663 25.393 7.928.127 6.796.379 13.717.506 20.638zM226.248 456.186c-18.192-3.901-36.131-9.438-53.439-16.611-1.263-32.594-2.4-65.314-3.663-97.908 17.813 7.425 36.257 13.088 55.081 17.115.758 32.343 1.389 64.936 2.021 97.404z" fill="#1A1A1A"/><g opacity=".81"><path opacity=".81" d="M329.335 443.225c-3.664.503-7.453.881-11.117 1.132v-6.921c3.79-.378 7.453-.755 11.117-1.133a63.414 63.414 0 010 6.922zM408.673 422.712c-22.108 8.935-45.101 15.353-68.472 19.003 0-2.266.126-4.657.126-6.922 23.372-3.649 46.491-10.067 68.599-19.002-.127 2.265-.253 4.656-.253 6.921z" fill="#CCC"/><path opacity=".81" d="M283.856 386.218c-15.16-.378-30.319-1.762-45.227-4.279 0-2.266-.126-4.657-.126-6.922 15.034 2.517 30.193 3.901 45.353 4.279v6.922zM308.49 385.84c-4.421.252-8.843.377-13.391.503v-6.921c4.422 0 8.97-.252 13.391-.504v6.922zM341.084 382.316c-7.453 1.132-14.907 2.013-22.36 2.768v-6.921c7.453-.629 15.033-1.51 22.36-2.769a62.915 62.915 0 010 6.922zM395.534 368.726c-14.402 5.034-29.183 8.935-44.09 11.829 0-2.265.126-4.656.126-6.921 14.908-2.895 29.688-6.796 44.09-11.83 0 2.266 0 4.657-.126 6.922z" fill="gray"/><path opacity=".81" d="M301.668 397.919c-21.097.63-42.195-.629-62.913-4.152 0-2.265-.127-4.656-.127-6.922a312.43 312.43 0 0063.166 4.153c0 2.391 0 4.656-.126 6.921zM395.154 380.681c-7.201 2.517-14.402 4.782-21.729 6.669 0-2.265.127-4.656.127-6.921 7.327-2.013 14.654-4.153 21.855-6.669 0 2.265-.126 4.656-.253 6.921zM426.991 367.592a306.432 306.432 0 01-20.845 9.061c.127-2.266.127-4.657.253-6.922a305.933 305.933 0 0020.845-9.061c-.126 2.266-.253 4.657-.253 6.922zM363.193 389.867a322.549 322.549 0 01-51.418 7.551v-6.921c17.308-1.133 34.615-3.65 51.544-7.551 0 2.391 0 4.656-.126 6.921zM313.419 409.246c-24.888 1.762-49.902.503-74.536-3.524 0-2.265-.127-4.656-.127-6.921 24.635 4.153 49.775 5.285 74.663 3.523.126 2.266 0 4.531 0 6.922zM337.548 406.604c-4.422.629-8.717 1.259-13.139 1.636 0-2.265 0-4.656.126-6.921 4.422-.504 8.844-1.007 13.139-1.636-.126 2.391-.126 4.656-.126 6.921zM401.977 389.993c-17.813 6.67-36.131 11.704-54.828 14.976 0-2.265.127-4.657.127-6.922 18.697-3.272 37.015-8.306 54.954-15.101-.126 2.391-.126 4.782-.253 7.047zM283.857 421.831c-15.034-.377-29.941-1.762-44.722-4.279 0-2.265-.126-4.656-.126-6.921 14.907 2.517 29.814 3.901 44.848 4.278v6.922zM308.238 421.455c-4.422.251-8.843.377-13.139.377v-6.922c4.422 0 8.844-.251 13.265-.503-.126 2.391-.126 4.656-.126 7.048zM425.98 391.628c-4.043 1.888-8.086 3.775-12.128 5.537.126-2.265.126-4.656.252-6.921 4.043-1.762 8.212-3.524 12.128-5.538-.126 2.266-.252 4.531-.252 6.922zM352.834 415.791a318.192 318.192 0 01-34.363 4.908v-6.922a325.032 325.032 0 0034.489-4.908c0 2.391-.126 4.656-.126 6.922zM405.009 400.563c-14.023 5.538-28.551 9.942-43.205 13.214 0-2.265.126-4.656.126-6.921 14.654-3.398 29.183-7.803 43.206-13.34.126 2.517 0 4.782-.127 7.047z" fill="#CCC"/><path opacity=".81" d="M303.184 433.535c-21.35.755-42.7-.503-63.798-4.027 0-2.265-.126-4.656-.126-6.922 21.098 3.524 42.574 4.908 63.924 4.027v6.922zM338.685 430.137c-8.464 1.259-16.929 2.265-25.393 2.769v-6.922c8.464-.629 17.055-1.51 25.393-2.768.126 2.391 0 4.656 0 6.921zM425.475 403.583c-23.877 11.451-49.144 19.631-74.789 24.539 0-2.265.126-4.656.126-6.921 25.772-4.908 51.038-13.088 74.915-24.54-.126 2.265-.252 4.531-.252 6.922z" fill="gray"/><path opacity=".81" d="M283.982 445.489a330.167 330.167 0 01-44.468-4.153c0-2.265-.127-4.656-.127-6.922a293.61 293.61 0 0044.469 4.153c.126 2.391.126 4.657.126 6.922zM308.113 445.112a229.59 229.59 0 01-13.139.377v-6.921c4.422 0 8.717-.251 13.139-.377v6.921z" fill="#CCC"/></g></g><path d="M517.065 334.62c.253-.378.632-.63.884-1.007.253-.378.632-1.636.632-2.265 0-.378-.126-.881 0-1.259.253-.755.505-1.636.758-2.265.379-.755.632-1.384.632-2.517 0-.629.379-1.762.631-2.391.885-2.265 1.264-4.782 1.011-6.292-.126-.755 0-2.014.505-2.769.253-.503.506-.881.758-1.258.127-.252.253-.378.379-.629 0 .88-.126 1.761-.126 2.768.379-.881.505-2.517.884-1.762.127-1.384.379-1.258.632-1.384v.755c.505-.126.758-.629.884-1.762.632-1.132.253.755.505.629.379-.629.758-1.384 1.264-2.139-.127-.126-.253-.126-.379-.252-.127-.251-.253-.629-.379-.881-.127-.377-.379-.88-.632-1.132-.379-.252-.758-.378-1.137-.504.127-1.51.379-2.768.505-3.901.127-1.384 0-2.265-.379-2.517-.505-.251-1.137-.629-1.642-.881-.126 0-.379.126-.631.378-.253.378-.379.126-.379-.503v-3.398c-.253 1.51-.506 2.894-1.137 3.901-.632 1.007-1.011 1.007-1.39.755 0 .629 0 1.133-.126 1.888-.127 0-.127-.126-.127-.126-.252.503-.505 1.007-.631 1.384-.253.629-.506 1.384-.758 2.014-.379 1.636-.758 2.391-1.39 3.02-.884.881-1.895 2.265-2.653 5.034-.505 0-.884-.629-1.011-1.888 0 .252-.126.629-.126.755-.253.504-.505.881-.632 1.259 0 .125-.126.251-.126.251-.379-.377-1.137 1.007-1.516 0-.126.378-.379.63-.505 1.007-.253.503-.506.755-.758.503-.127-.125-.632.378-.885.63-.126.126-.252.629-.505 1.006v-1.51h-.126c-.632.755-.885.504-1.137-.377-.127-.504-.506-.755-.632-1.133.126-.503.253-.881.379-1.384.126-.378.126-.755.253-1.133.252-1.384.505-2.894.758-4.278.126-.881.379-.756.631-.881.127-.126.253 0 .632-.252 0-.503 0-1.259-.126-1.636-.127-.503-.253-1.007-.127-1.762.127-1.007.127-1.888.253-2.894.253-1.636.632-3.272 1.263-4.657.506-1.006.885-2.265 1.137-3.649a12.515 12.515 0 011.137-3.272c.379-.629.632-1.51 1.011-2.265.126-.252.126-.755.126-1.133v-.503c-.126-.881-.252-1.762.253-2.895-.253-1.006-.505-2.013-.758-2.894-.253-1.007-.126-2.643-.126-4.279.379-.629.758-1.007 1.01-.377.758-1.511 1.39-3.272 1.643-4.657l.758-.755a12.06 12.06 0 002.021-2.642.761.761 0 01.632-.504c.505-.126.884-.377 1.389-1.51.253-.629.506-.755.632-.503.379.377.758.125 1.263-.126.758-.504 1.642-1.385 2.148-.378.126.252.126.881.126 1.385.505-.63.505-.63.758-2.643.253-.126.632-.126.884-.126 0-.378.127-.629.127-1.133h1.642c0-.377.126-.755.126-1.132.506-.755.885-1.385 1.264-2.014 0 .629.126 1.259.252 2.014.506-1.259.885-2.391 1.39-2.517v.881c.379-.755.758-1.51 1.263-2.265 0 .755.127 1.51.127 2.265.631-1.385.631-1.636.631-2.895-.126-1.636.253-3.523.885-5.537.126-.503.379-1.007.505-1.51.379-1.51.758-2.517 1.263-2.894.253-.126.379-.504.632-.756.505-.629 1.011-1.384 1.263-.629.506-1.636 1.137-3.02 1.011-4.908.253 0 .505 0 .632-.126.379-.125.884-.377 1.389-1.887.632-1.888 1.264-2.14 1.895-3.02.253-.378.758 1.132.632 1.887-.126 1.007-.126 1.762.126 2.014.127.126.253.629.379 1.006-.252.63-.505 1.259-.631 1.762 0 1.51-.127 2.895-.127 4.279 0 .126.127.378.127.252.505-.63 1.01-1.385 1.516-2.14.505-.881.884-.629.758.881 0 .881-.127 1.762-.127 2.643 0 .252 0 .503.127.503.126-.125.126.126.126.63 0 .377 0 .755-.126 1.006-.127 1.385 0 1.888.252 1.888.379-.881.758-1.762 1.137-2.769-.126 1.259.127 1.259.379 1.007.127-.126.127-.126.253-.126.379 0 .632-.251 1.137-1.761.379-1.259.884-2.266 1.39-3.398.252-.504.379-.504.252.251-.126.755 0 .881.127.881.126 0 .126.252.126.504-.126.755 0 .881.253.881.252 0 .505 0 .758.125 0-.503.126-1.006.126-1.51l.379-.755v1.007c0-.126.126-.126.253-.252.379-.629.631-.755.884-.377.253.503.505 0 .884-1.133.253-.126.379-.126.632-.252 0 0 .126 0 .126.126.253 1.007.632 1.385 1.39-.755v.126c-.126.503-.253 1.133-.253 1.636v.126c.253 1.258 0 2.139-.631 4.027-.379 1.007-.506 1.636-.379 2.391 0 .378 0 .629.252.252.127-.252.253-.378.379-.504-.379 1.511-.884 3.146-1.263 4.657.505.377.505 2.265.126 4.782-.126.629-.126 1.384-.252 1.887 0 .63-.379 1.636-.632 2.014-.505.881-1.011 1.636-1.516 2.391-.253.252-.379.755-.505 1.384-.127.881-.379 1.385-.632 1.762-.379.629-.758 2.139-.884 3.398 0 .503 0 1.133-.127 1.636-.126 1.133-.379 2.013-.631 1.888-.506 0-.506 0-1.264 2.139-.252 1.007-.631 2.013-.631 3.146-.253.378-.506.755-.632 1.007-.253.252-.379.629-.505 1.384-.127.755-.379 1.133-.506 1.384-.252.252-.505.881-.758 1.636-.379 1.133-.631 1.888-1.01 2.517-.379.504-.758 1.51-1.137 2.14-.506.755-.758 1.636-1.137 2.894-.506 1.636-1.011 3.272-1.643 3.901-.126.126-.379.126-.505 1.133-.126 0-.253.126-.379.126s-.253-.252-.379-.378c-.126.629-.126 1.133-.253 1.762-.379 0-.631.126-1.01.126 0 .126-.127.377-.127.503.127.126.379.252.506.378.126.126.379-.252.379.629 0 .126.126.126.126 0 .126-.377.126-.629.379-1.133.253-.629.379 1.133.758-.755.126.252.126.252-.379 2.769.253-.503.505-1.133.758-1.762.253 0-.253 1.007-.126 1.133.252.126.505.251.758.503v.755l-.379 1.51c.252 0 .505.252.758.126.126-.126.505-.881.758-1.384.252-.629.505-1.51.758-2.391.126 0 .252.126.379.126.379-1.636 1.263-3.021 1.389-2.266-.379 1.133-.631 2.266-.631 3.398 0 .126-.253.755-.253 1.007-.379.755-.632 1.384-1.011 2.139-.252.63-.505.63-.505.252-.126-.755-.379-.377-.632.252 0 .377 0 .755-.126 1.132v-.125c-.253.755-.505 1.51-.632 2.265-.126.629-.379 1.007-.505 1.132-.505.504-1.516 2.769-1.895 4.657-.379 1.761-1.39 4.027-1.769 4.278 0 0-.126 0-.126-.125 0-.504 0-.756-.253-.504 0 .126-.126-.377-.126-.503 0-.378-.126-.629-.126-1.007.252-.755.505-1.51.631-2.391.127-.755.253-1.636.379-2.517 0 .126-.126.252-.126.503 0-.251 0-.503-.126-.755.126-.377.252-.629.379-1.006-.127-.378-.253-.126-.885 1.761-.252-.251-.505-.503-.631-1.006-.127-.252-.379-.126-.632.629s-.505.881-.505.629c0-.126.126-.881.126-1.384.253-1.259.758-2.14 1.137-3.02.632-1.259 1.137-2.517 1.642-3.902.506-1.384.632-1.762.379-2.768 0-.252-.126-.504-.126-.881 0 .503 0 .755-.126 1.132 0 .378-.127.63-.253 1.133-.253-.378-.379-.755-.632-1.133 0 .126 0 .252-.126.378v.755c-.379 1.007-.758 1.762-1.137 1.762 0 0-.126.126-.253.377-.505 1.007-.884 1.007-1.137.252 0-.126-.126 0-.252 0l-.379.378c-.253.125-.379-.252-.379-1.133 0-1.762-.127-3.272-.127-4.782 0 .126-.126.126-.126.252-.126 1.258-.253 2.517-.379 3.901-.253.377-.632.755-.884 1.132-.127.252-.253.378-.379 1.007-.379 1.636-.758 3.146-1.137 4.782 0 .252-.127.504-.253.755-.379 1.133-.758 2.266-1.011 3.398-.126.629-.252 1.259-.505 1.888-.126.377-.253.629-.379 1.007 0-.252-.126-.378-.126-.63-.127.378-.253.755-.379 1.259-.253-.252-.253-.252-.758 2.013-.253.504-.506.755-.758 1.259.126.377.126.629.252.881-.126.251-.126.503-.379.881l-.379-2.643c0 .126-.126.126-.126.252-.126.503-.252 1.132-.252 1.51 0 1.636 0 3.02.505 3.901.126.377 0 2.517-.253 3.272-.126.252-.252.377-.379.629v-.755c0-1.384-.126-1.636-.631-1.133-.758.63-1.517 2.266-2.274 3.65-.253.377-.379 1.384-.632 2.139-.253 0-.505-.126-.758-.126v1.385c-.379.503-.884 1.007-1.263 1.384-.127.126-.127 0-.253-.126-.253-.252-.505-.629-.758-.629-.505-.503-.632-1.007-.379-2.139z" fill="#375344"/><path d="M491.672 300.138c1.263-1.132 2.779-2.391 4.043-1.761.758.377 1.263 1.258 1.642 2.139l.379.755c1.263 2.139 3.158 1.636 4.548.881 1.137-.629 2.4-1.762 3.664-3.146.631-3.146 1.516-6.292 2.653-8.809.379-1.51.758-2.895 1.263-4.279-.632-2.265-.505-5.16-.379-6.796v-.629c.126-4.027 1.516-8.935 3.285-11.704.252-.377.505-.755.758-1.006.758-2.265 1.768-4.279 2.779-5.286l.505-.503.505-.504s.001-.125.127-.125c.253-.252.379-.504.631-.881.506-.755.885-1.385 1.264-1.888.379-.378.632-.629 1.011-.755.378-.503.757-1.007 1.01-1.384.632-.63 1.39-1.259 2.148-.755 0 0 .126 0 .126-.126.126-.126.126-.126.253-.126.505-.378 1.263-.881 2.021-.881l.253-.252.758-1.132c.126-.252.379-.378.505-.504v-.755c-.126-.503-.379-1.007-.632-1.51a10.446 10.446 0 01-1.01-3.02c-.506-3.524.126-9.313 1.768-16.108-12.127 13.717-25.14 26.05-39.036 36.998-.758 13.214-1.516 26.553-2.401 39.767 2.022-2.391 3.79-4.279 5.559-5.915zM530.582 229.037c-.884 3.146-1.642 7.173-1.389 9.061.126.629.379 1.133.631 1.636.379.629.632 1.384.885 2.643.252 1.258.252 3.02 0 5.034.126-.126.379-.126.505-.126.126-.504.253-1.133.505-1.636 0-.126.127-.252.127-.378 1.01-4.279 2.526-7.676 3.916-9.438.126-.252.379-.378.505-.629.127-.378.127-.63.253-1.007.758-2.265 1.516-4.027 2.4-5.034.379-.503.885-.881 1.264-.881.631-1.133 1.137-2.265 1.768-3.02.253-.252.506-.504.632-.755 0-.126.126-.126.253-.252.758-1.007 1.768-1.762 2.526-.126.379.629.758 2.014.758 4.279.127.252.127.503.127.755v.126c.126.629.252 1.384.252 2.391 1.137-.252 1.769 1.762 1.643 5.411a.385.385 0 01.505 0c.126-.251.253-.503.253-.629.126-.126.126-.378.252-.503.379-1.007.758-1.762 1.264-2.266.884-1.384 1.642-1.51 2.147-.503.127.126.126.378.253.755.505-.629 1.01-.755 1.389-.377.127 0 .253-.126.379-.126.253-.378.632-.755.885-.881 0 0 .126 0 .126-.126.126-.126.379-.126.505-.252.253-.126.506 0 .632.126.884-1.258 1.642-1.133 1.895.755v.126c.126 1.258.126 3.272-.126 5.537 0 1.007-.127 2.014-.253 3.398-.126.503-.126 1.133-.253 1.636 0 1.888-.379 4.279-.884 6.67 0 1.888-.253 4.153-.632 6.67v.125c1.895-2.894 3.664-3.901 4.927-3.02 1.516 1.133 2.274 5.16 2.906 9.187 0 .252.126.377.126.629.632 3.272 1.137 6.292 2.148 7.173 3.158-37.753 6.19-87.588 9.349-125.342-9.981 41.529-26.909 59.273-43.585 78.905-.884 1.133-1.39 2.769-1.769 4.279zM527.93 250.429v-.629c-.127.251-.38.629-.38.881.127-.126.253-.252.38-.252z" fill="#375344"/><path d="M564.818 281.136c-1.642-.252-2.526-4.279-3.284-8.557 0-.252-.127-.378-.127-.63-.631-3.649-1.263-7.173-2.526-8.179-1.39-1.133-3.79 1.51-6.064 6.795v-.126c-.126.378-.379.755-.632 1.133 0 0-.379.629-.505.755a41.366 41.366 0 01-1.137 5.411c-.632 2.391-1.39 4.531-2.148 5.789-.631 2.391-1.389 4.405-2.147 5.663-.127.252-.127.504-.253.629.126.126.253.378.253.755.505 1.888.252 5.664-.632 9.565-.505 3.775-1.642 7.928-2.779 10.319-.253.503-.506 1.007-.632 1.51 0 .126-.126.252-.253.504-.379 1.006-.884 1.761-1.263 2.391l-.126.125a16.274 16.274 0 01-1.769 3.902c-1.011 3.901-2.527 7.424-3.79 9.186-.379.629-.884 1.007-1.263 1.133-.506.252-.885 0-1.264-.755-.379-.252-.631-1.007-.758-2.265 0-.252-.126-.504-.126-.755v-.252c-.126-.504-.126-1.259-.126-1.888-.632.126-1.011-.377-1.264-1.384-.379-1.259-.379-3.272-.126-5.663l-.126.503c-.127.504-.379 1.007-.506 1.51-.126.504-.252 1.259-.505 2.014-.505 1.888-1.011 3.146-1.263 3.649-.127.252-.253.63-.379.881-.253 2.895-.758 6.167-1.643 8.935-.631 2.14-1.389 3.776-2.274 5.034-.252.378-.379.629-.631.881-.632.755-1.263 1.007-1.769.629-.505 1.259-1.137 2.265-1.642 3.021a5.464 5.464 0 01-.884 1.258c-.253.252-.506.503-.632.755-.253.252-.505.503-.632.755-1.137 1.133-1.768.503-2.021.252l-.126-.126v.126c-1.264 3.272-2.527 4.908-3.664 6.166-.632.755-1.263 1.51-1.642 2.391-.632 1.259-1.264 3.65-1.895 5.789-1.516 5.663-3.032 11.452-4.043 16.737 23.624-23.281 44.216-51.218 60.26-83.938.379-4.153.632-8.18 1.011-12.333h-.253z" fill="#29ABE2"/><path d="M491.418 351.106l1.137-.755c4.043-2.643 8.211-6.292 12.128-10.949.884-1.007 1.895-2.265 2.4-3.775.505-1.384.758-3.524 1.137-5.789.126-.629.253-1.384.379-2.014.253-1.636.632-3.146.884-4.53l-.252.252c-.379.377-.632.503-.885.629-.252.378-.631.755-.884 1.007-.632.503-1.137.755-1.642.629-.506-.126-.758-.629-1.137-1.384-.379-.252-.758-.881-1.137-1.762a1.722 1.722 0 01-.379-.504c-1.264-1.761-1.011-6.795.379-11.326v-.251c.126-.63.252-1.259.379-2.014l-.127.126c-1.01.881-2.021 1.762-3.032 2.265-1.894 1.133-4.674 1.762-6.569-1.51-.126-.252-.379-.629-.505-.881-.253-.629-.505-1.132-.884-1.258-.506-.252-1.264.377-2.022 1.132-1.768 1.636-3.663 3.776-5.432 6.293-.884 14.346-1.642 28.566-2.527 42.787 3.285-3.272 5.938-4.908 8.591-6.418z" fill="#375344"/><path d="M505.568 358.531c.758-3.02 1.895-7.047 3.537-10.193 1.011-2.139 2.022-3.272 2.906-4.405.632-.629 1.137-1.384 1.516-2.139-.126-1.762 0-3.901.505-6.292.379-2.391 1.137-4.656 1.895-6.544 0-.126.127-.378.127-.504.379-1.636.884-3.02 1.263-4.152.253-1.259.632-2.392.884-3.398 0-1.51.127-3.272.506-5.16.505-2.517 1.137-5.034 2.021-7.047h-.379c0 .126-.126.126-.126.251-1.011 3.398-2.274 6.167-3.79 7.677l-.253.252c-.758 2.265-1.642 3.901-2.527 4.908l-.505.503c-.253.252-.758 1.888-1.137 4.53-.126.63-.126 1.133-.253 1.762-.505 3.146-1.137 7.048-2.4 10.823-1.642 4.656-3.664 7.047-4.674 8.306-4.169 4.908-8.591 8.683-12.76 11.452-.379.251-.758.503-1.263.755-2.527 1.636-5.053 3.146-7.454 6.292 0 .126-.126.126-.126.252-.632 10.445-1.263 20.764-1.895 31.209 6.696-5.285 13.139-10.822 19.329-16.737 1.01-7.299 3.032-14.976 5.053-22.401z" fill="#375344"/><g opacity=".83"><path opacity=".83" d="M67.828 243.131a297.063 297.063 0 01-20.593-22.778c2.527 9.186 5.054 18.247 7.58 27.308 4.17-1.384 8.465-2.894 13.013-4.53z" fill="#375344"/><path opacity=".83" d="M78.313 328.956c12.886-5.537 26.909-12.333 42.195-20.638-.379-7.929-.884-15.857-1.263-23.911-18.318-11.703-35.5-25.546-51.417-41.277a565.843 565.843 0 01-13.139 4.531c7.833 27.56 15.665 54.616 23.624 81.295z" fill="#50935F"/><path opacity=".83" d="M78.313 328.957c-7.959-26.554-15.918-53.736-23.624-81.296-.126 0-.126.126-.253.126.127 0 .127-.126.253-.126-2.527-9.061-5.053-18.122-7.58-27.309-10.612-12.836-19.455-22.148-29.056-41.906 10.106 42.913 30.446 125.593 46.869 184.866a302.89 302.89 0 0033.857 32.343c-6.822-22.023-13.644-44.172-20.466-66.698z" fill="#2E7A51"/><path opacity=".83" d="M78.314 328.957c6.695 22.526 13.643 44.675 20.465 66.572 8.717 7.047 17.813 13.717 27.162 19.632-1.643-32.846-3.411-65.817-5.053-98.663-.127-2.769-.253-5.411-.379-8.18-15.16 8.306-29.31 15.102-42.195 20.639z" fill="#375344"/><path opacity=".83" d="M18.18 178.446c0-8.809-4.927-16.108-4.927-32.971-1.895 23.533 2.147 113.764 4.927 147.867 0 .126.126.126.126.252 2.021 4.153 4.169 8.306 6.317 12.333 6.443-2.894 13.77-6.418 22.108-10.823-9.854-38.005-19.455-76.891-28.551-116.658z" fill="#50935F"/><path opacity=".83" d="M46.73 295.105c-8.337 4.405-15.665 7.928-22.108 10.823.38.629.632 1.258 1.011 1.888 6.317-2.517 13.391-5.789 21.35-9.816-7.959 4.027-15.16 7.299-21.35 9.816 3.158 5.537 6.317 10.948 9.728 16.233 8.97 14.221 18.95 27.183 29.688 39.264-6.19-22.526-12.38-45.178-18.319-68.208z" fill="#375344"/></g></svg>