<svg width="236" height="46" fill="none" xmlns="http://www.w3.org/2000/svg"><path d="M10.179 45.167L2.826 7.45l37.896 37.717H10.18z" fill="#fff"/><path d="M22.736 22.514l22.795 22.653h3.507L31.164 2.447l-8.428 20.067z" fill="#DEDADA"/><path d="M43.155 22.122l9.672 23.046 4.525-37.66-14.197 14.614z" fill="#A8A8A8"/><path d="M33.656 2.507L31.22 0l-2.523 2.421 2.436 2.507 2.523-2.421zM3.937 9.692l1.084-3.315-3.336-1.076L.602 8.615l3.335 1.077zM55.202 6.377l1.084 3.315 3.335-1.077-1.083-3.314-3.336 1.076zM78.558 44.154c0 .461-.085 1.016-.935 1.016h-4.419c-.51 0-.935-.093-.935-1.016V11.36c0-.924.51-1.016.935-1.016h15.722c.255 0 .51.092.68.277.17.277.085.647 0 .832l-1.02 3.787c-.085.185-.17.647-.764.647h-9.264v8.406h7.819c.85 0 .935.554.935 1.016v3.51c0 .924-.51 1.016-.935 1.016h-7.819v14.319zM104.308 39.626h9.688c.425 0 .935.092.935 1.016v3.418c0 .924-.51 1.016-.935 1.016H98.869c-.85 0-.935-.554-.935-1.016V11.266c0-.923.51-1.016.935-1.016h15.892c.17 0 .425.093.595.277.17.185.085.462.085.647l-.935 3.788c-.085.277-.17.739-.85.739h-9.178v8.406h7.819c.849 0 .934.554.934 1.016v3.418c0 .924-.509 1.016-.934 1.016h-7.819v10.069h-.17zM134.054 46c-11.388 0-11.643-14.595-11.643-18.29 0-3.695.255-18.29 11.643-18.29s11.643 14.78 11.643 18.29c0 3.695-.255 18.29-11.643 18.29zm5.014-18.29c0-4.896-.51-12.84-5.014-12.84-4.505 0-5.014 7.944-5.014 12.84 0 4.156.254 12.748 5.014 12.748 4.674.092 5.014-8.5 5.014-12.748zM165.413 10.344c2.38 0 6.034.277 8.669 3.788 2.465 3.233 3.144 8.498 3.144 13.763 0 6.005-.849 10.531-3.144 13.487-2.635 3.418-6.289 3.788-8.669 3.788h-9.093c-.935 0-.935-.832-.935-1.109V11.453c0-.462.085-1.109.935-1.109h9.093zm-3.739 29.283h3.314c1.53 0 3.57-.739 4.59-3.88.68-2.309 1.02-5.727 1.02-8.036 0-2.402-.255-5.728-1.02-7.945-1.02-3.14-3.06-3.88-4.59-3.88h-3.314v23.741zM198.898 10.344c.424 0 .594.277.679.831l9.179 32.794c.085.185.17.37.17.646 0 .555-.51.647-.765.647h-5.184c-.595 0-.68-.092-1.02-1.108l-2.04-8.222h-8.073l-1.955 8.222c-.17.831-.255 1.108-.85 1.108h-5.014c-1.02 0-.765-.739-.68-1.016l9.349-33.07c.17-.462.17-.74.764-.74h5.44v-.092zm-2.04 12.194c-.34-1.57-.68-3.233-1.02-6.744h-.17c-.085 1.386-.17 3.233-1.02 6.744l-2.039 8.775h6.204l-1.955-8.775zM235.101 39.073c.255 0 .68.092.765.554v.092c0 .37-.085.462-.085.647l-.85 3.88c-.17.739-.255.924-1.02.924h-15.552c-.85 0-.935-.555-.935-1.016V11.36c0-.924.51-1.016.935-1.016h4.504c.85 0 .935.554.935 1.016v27.713h11.303z" fill="#fff"/></svg>