<svg width="265" height="42" fill="none" xmlns="http://www.w3.org/2000/svg"><path d="M13.271 40.756l-.053-6.795-3.238 5.415H7.75l-3.238-5.203v6.53H0V25.839h4.14l4.831 7.91 4.725-7.91h4.14l.054 14.864H13.27v.053zM26.276 39.272c-1.274-1.221-1.911-2.973-1.911-5.202v-8.175h4.99v8.015c0 1.115.212 1.858.584 2.39.371.477.955.742 1.698.742s1.274-.265 1.699-.743c.372-.478.584-1.274.584-2.389v-8.015h4.937v8.175c0 2.23-.637 3.928-1.911 5.202-1.274 1.22-3.026 1.858-5.309 1.858-2.282 0-4.087-.637-5.361-1.858zM51.438 35.874l-1.115 1.274v3.663h-4.937V25.948h4.937v5.414l4.884-5.467h5.467l-5.945 6.582 6.264 8.334h-5.786l-3.77-4.937zM68.85 40.121c-1.273-.69-2.282-1.593-2.972-2.76-.743-1.168-1.062-2.495-1.062-3.982 0-1.486.372-2.813 1.062-3.981.743-1.168 1.699-2.123 2.973-2.76 1.274-.69 2.707-1.01 4.3-1.01 1.592 0 3.025.32 4.3 1.01 1.273.69 2.282 1.592 2.972 2.76.743 1.168 1.062 2.495 1.062 3.981 0 1.487-.372 2.814-1.062 3.982-.743 1.168-1.699 2.123-2.973 2.76-1.274.69-2.707 1.009-4.3 1.009-1.592 0-3.025-.319-4.3-1.009zm6-3.504a4.012 4.012 0 001.22-1.274c.319-.584.425-1.22.425-1.964 0-.743-.16-1.38-.425-1.964-.318-.584-.69-1.008-1.22-1.274-.479-.318-1.063-.478-1.7-.478s-1.167.16-1.698.478a4.011 4.011 0 00-1.221 1.274c-.319.584-.425 1.221-.425 1.964 0 .744.16 1.38.425 1.964.318.584.69 1.009 1.22 1.274.479.319 1.063.478 1.7.478.636-.053 1.167-.159 1.698-.477zM102.985 25.895l-6.264 14.863h-4.937l-6.317-14.864h5.414l3.557 8.706 3.61-8.706h4.937zM110.946 40.121c-1.274-.69-2.283-1.593-2.973-2.76-.743-1.168-1.062-2.495-1.062-3.982 0-1.486.372-2.813 1.062-3.981.743-1.168 1.699-2.123 2.973-2.76 1.274-.69 2.707-1.01 4.3-1.01 1.592 0 3.026.32 4.3 1.01s2.282 1.592 2.972 2.76c.743 1.168 1.062 2.495 1.062 3.981 0 1.487-.372 2.814-1.062 3.982-.743 1.168-1.698 2.123-2.972 2.76-1.274.69-2.708 1.009-4.3 1.009-1.593 0-3.026-.319-4.3-1.009zm5.998-3.504a4.004 4.004 0 001.221-1.274c.319-.584.425-1.22.425-1.964 0-.743-.159-1.38-.425-1.964-.318-.584-.69-1.008-1.221-1.274-.477-.318-1.061-.478-1.698-.478a3.16 3.16 0 00-1.699.478 4.014 4.014 0 00-1.221 1.274c-.318.584-.425 1.221-.425 1.964 0 .744.16 1.38.425 1.964.319.584.69 1.009 1.221 1.274.478.319 1.062.478 1.699.478.637-.053 1.221-.159 1.698-.477zM142.744 36.883v3.875h-13.643V37.68l6.795-7.856h-6.583v-3.928h13.112v3.078l-6.795 7.91h7.114zM148.904 40.225c-.531-.53-.796-1.168-.796-1.964s.265-1.486.796-1.964 1.221-.743 2.017-.743c.797 0 1.487.265 2.018.743.53.478.796 1.168.796 1.964s-.266 1.486-.796 1.964c-.531.531-1.221.796-2.018.796-.796-.053-1.486-.265-2.017-.796zM159.575 25.895h7.326c1.645 0 3.132.318 4.406.902 1.274.584 2.229 1.486 2.972 2.601.691 1.115 1.062 2.442 1.062 3.928 0 1.54-.371 2.814-1.062 3.929-.69 1.114-1.698 1.964-2.972 2.6-1.274.585-2.708.903-4.406.903h-7.326V25.894zm7.113 10.988c1.062 0 1.911-.318 2.601-.902.637-.637.956-1.487.956-2.602 0-1.114-.319-1.964-.956-2.6-.637-.638-1.486-.956-2.601-.956h-2.123v7.06h2.123zM193.759 36.99v3.768H181.39V25.894h12.103v3.77h-7.166v1.751h6.264v3.61h-6.264v1.964h7.432zM201.879 40.701c-1.168-.265-2.123-.637-2.867-1.114l1.593-3.663c.69.425 1.486.743 2.389 1.008a8.705 8.705 0 002.548.372c.69 0 1.168-.053 1.486-.212.319-.16.425-.319.425-.584 0-.319-.213-.531-.584-.69-.372-.16-1.009-.319-1.911-.531-1.168-.266-2.124-.478-2.867-.797-.743-.265-1.433-.743-2.017-1.38-.584-.637-.849-1.486-.849-2.548 0-.955.265-1.805.796-2.548.531-.743 1.327-1.38 2.336-1.805 1.061-.424 2.282-.637 3.769-.637 1.008 0 2.017.106 3.026.319 1.008.212 1.857.53 2.601.955l-1.54 3.663c-1.433-.743-2.813-1.115-4.14-1.115-1.274 0-1.911.319-1.911.956 0 .318.212.53.583.69.372.16 1.009.319 1.912.478a22.17 22.17 0 012.866.743c.796.265 1.433.743 2.017 1.327.584.637.85 1.486.85 2.548 0 .956-.266 1.805-.797 2.548-.53.743-1.327 1.38-2.335 1.805-1.062.425-2.283.69-3.769.69a19.737 19.737 0 01-3.61-.478zM218.124 25.895h4.99v14.863h-4.99V25.894zM239.625 32.953h4.353v6.264a10.866 10.866 0 01-3.079 1.38 12.787 12.787 0 01-3.397.478c-1.593 0-3.026-.319-4.247-1.009-1.274-.637-2.229-1.593-2.973-2.76-.69-1.168-1.061-2.548-1.061-4.035 0-1.486.371-2.866 1.061-4.034a7.129 7.129 0 012.973-2.76c1.274-.638 2.707-1.01 4.353-1.01 1.433 0 2.761.266 3.928.744a7.248 7.248 0 012.867 2.123l-3.185 2.814c-.956-1.115-2.07-1.646-3.344-1.646-1.115 0-1.965.319-2.655 1.009-.637.69-.955 1.592-.955 2.707 0 1.115.318 2.017.955 2.707s1.487 1.01 2.601 1.01c.637 0 1.221-.107 1.805-.373v-3.61zM264.998 25.895v14.863h-4.14l-5.627-6.742v6.742h-4.884V25.894h4.141l5.627 6.795v-6.794h4.883zM87.606 9.588v2.88H86.49v-1.836h-6.912l-.012 1.836H78.45l.012-2.88h.408c.528-.032.9-.448 1.116-1.248.216-.808.348-1.944.396-3.408l.084-2.7h5.904v7.356h1.236zM81.438 5.04c-.04 1.184-.136 2.164-.288 2.94-.144.776-.38 1.312-.708 1.608h4.74V3.276h-3.684l-.06 1.764zM89.847 2.232h1.188v6.48l4.968-6.48h1.104v8.4H95.93V4.164l-4.98 6.468h-1.104v-8.4zM104.346 6.252c.528.144.94.396 1.236.756.296.352.444.776.444 1.272s-.16.932-.48 1.308c-.312.368-.732.652-1.26.852a4.884 4.884 0 01-1.704.288 5.7 5.7 0 01-1.668-.252 4.969 4.969 0 01-1.512-.756l.42-.888c.368.288.78.504 1.236.648.456.144.916.216 1.38.216.672 0 1.236-.14 1.692-.42.456-.288.684-.68.684-1.176 0-.424-.172-.748-.516-.972-.344-.232-.828-.348-1.452-.348h-1.872v-.972h1.788c.536 0 .952-.108 1.248-.324.304-.224.456-.532.456-.924 0-.44-.196-.788-.588-1.044-.392-.256-.888-.384-1.488-.384-.392 0-.792.056-1.2.168-.4.112-.78.28-1.14.504l-.384-.984c.424-.24.872-.42 1.344-.54.472-.12.944-.18 1.416-.18.592 0 1.136.092 1.632.276.496.184.888.452 1.176.804.296.352.444.764.444 1.236 0 .424-.12.796-.36 1.116-.232.32-.556.56-.972.72zM114.085 8.532h-4.464l-.924 2.1h-1.236l3.804-8.4h1.188l3.816 8.4h-1.26l-.924-2.1zm-.42-.96l-1.812-4.116-1.812 4.116h3.624zM118.319 2.232h1.188v6.48l4.968-6.48h1.104v8.4h-1.176V4.164l-4.98 6.468h-1.104v-8.4zm3.612-.588c-.656 0-1.164-.14-1.524-.42-.352-.288-.532-.696-.54-1.224h.852c.008.312.116.556.324.732.216.168.512.252.888.252.36 0 .648-.084.864-.252.224-.176.34-.42.348-.732h.84c-.008.52-.192.924-.552 1.212-.352.288-.852.432-1.5.432zM136.022 2.232v8.4h-1.2V6.888h-4.824v3.744h-1.2v-8.4h1.2v3.612h4.824V2.232h1.2zM146.82 10.728c-.84 0-1.6-.184-2.28-.552a4.175 4.175 0 01-1.584-1.536c-.384-.656-.576-1.392-.576-2.208 0-.816.192-1.548.576-2.196a4.04 4.04 0 011.596-1.536c.68-.376 1.44-.564 2.28-.564.656 0 1.256.112 1.8.336.544.216 1.008.54 1.392.972l-.78.756c-.632-.664-1.42-.996-2.364-.996-.624 0-1.188.14-1.692.42-.504.28-.9.668-1.188 1.164a3.244 3.244 0 00-.42 1.644c0 .608.14 1.16.42 1.656.288.488.684.872 1.188 1.152.504.28 1.068.42 1.692.42.936 0 1.724-.336 2.364-1.008l.78.756c-.384.432-.852.76-1.404.984a4.684 4.684 0 01-1.8.336zM157.538 8.532h-4.464l-.924 2.1h-1.236l3.804-8.4h1.188l3.816 8.4h-1.26l-.924-2.1zm-.42-.96l-1.812-4.116-1.812 4.116h3.624zM161.772 2.232h1.188v6.48l4.968-6.48h1.104v8.4h-1.176V4.164l-4.98 6.468h-1.104v-8.4zm3.612-.588c-.656 0-1.164-.14-1.524-.42-.352-.288-.532-.696-.54-1.224h.852c.008.312.116.556.324.732.216.168.512.252.888.252.36 0 .648-.084.864-.252.224-.176.34-.42.348-.732h.84c-.008.52-.192.924-.552 1.212-.352.288-.852.432-1.5.432zM178.023 3.276h-2.88v7.356h-1.176V3.276h-2.868V2.232h6.924v1.044zM186.594 2.232l-3.732 6.924c-.296.552-.644.964-1.044 1.236s-.836.408-1.308.408c-.368 0-.744-.084-1.128-.252l.312-.96c.296.104.56.156.792.156.528 0 .964-.28 1.308-.84l.192-.3-3.384-6.372h1.284l2.724 5.328 2.796-5.328h1.188z" fill="#fff"/></svg>