<?xml version="1.0" encoding="UTF-8" standalone="no"?>
<!DOCTYPE svg PUBLIC "-//W3C//DTD SVG 1.1//EN" "http://www.w3.org/Graphics/SVG/1.1/DTD/svg11.dtd">
<svg version="1.1" xmlns="http://www.w3.org/2000/svg" xmlns:xlink="http://www.w3.org/1999/xlink" preserveAspectRatio="xMidYMid meet" viewBox="0 0 620 142.44" width="620" height="142.44"><defs><path d="M181.52 62.19L169.29 62.19L166.51 72.42L152.61 72.42L169.2 19.04L183 19.04L198.66 72.42L184.21 72.42L181.52 62.19ZM175.77 34.73C175.59 36.74 175.13 39.52 174.38 42.96C174.25 43.54 173.57 46.44 172.35 51.67L179.02 51.67L176.7 41.91C176.08 38.46 175.77 36.07 175.77 34.73Z" id="c5HQTejM2"></path><path d="M234.79 41.43C235.34 41.91 236.64 43.92 236.64 46.21C236.64 53.77 229.32 58.36 220.89 58.36C220.47 58.36 217.14 58.36 216.72 58.36C216.26 58.94 215.89 59.22 215.89 59.7C215.89 60.47 217.28 60.95 219.32 60.95C219.87 60.95 224.32 60.95 224.88 60.95C233.95 60.95 238.86 65.35 238.86 72.33C238.86 81.32 232.38 87.83 218.11 87.83C205.51 87.83 200.6 82.76 200.6 77.4C200.6 75.68 200.79 73.67 201.16 72.23C202.32 72.23 211.58 72.23 212.74 72.23C212.65 73 212.65 73.96 212.65 74.62C212.65 76.92 214.78 77.97 219.13 77.97C223.67 77.97 225.99 75.96 225.99 73.67C225.99 70.8 224.5 70.32 219.04 70.32C218.36 70.32 212.95 70.32 212.28 70.32C206.07 70.32 202.27 67.64 202.27 62.67C202.27 59.89 203.85 56.74 207 55.3C203.29 53.29 201.53 49.94 201.53 45.26C201.53 36.93 208.39 31.67 219.04 31.67C225.52 31.67 227.1 33.39 230.53 33.39C233.31 33.39 235.44 32.25 237.1 30.81C237.46 31.74 240.27 39.16 240.62 40.09C239.42 40.86 237.66 41.62 236.09 41.62C235.62 41.62 235.16 41.62 234.79 41.43ZM214.5 45.45C214.5 48.32 216.07 49.85 218.85 49.85C221.73 49.85 223.49 48.51 223.49 45.45C223.49 42.39 221.73 40.95 218.95 40.95C216.17 40.95 214.5 42.39 214.5 45.45Z" id="c1UIkCYb6B"></path><path d="M262.67 42.58C260.45 42.58 259.06 43.82 258.13 45.45C258.13 47.25 258.13 56.24 258.13 72.42L245.26 72.42C245.26 58.02 245.26 50.01 245.26 48.41C245.26 43.34 245.07 38.37 244.05 34.06C245.24 33.85 254.73 32.17 255.91 31.96C256.28 33.3 256.74 35.02 256.74 36.65C258.32 34.54 260.54 31.77 264.62 31.77C266.47 31.77 267.68 32.15 269.44 32.92C269.24 33.63 268.25 37.2 266.47 43.63C264.93 42.93 263.66 42.58 262.67 42.58Z" id="b1uYuh0Tmw"></path><path d="M271.29 52.81C271.29 40.47 278.52 31.96 289.73 31.96C299.18 31.96 307.24 37.51 307.24 51.67C307.24 67.26 298.06 73.38 288.98 73.38C278.05 73.38 271.29 65.92 271.29 52.81ZM285.19 53.1C285.19 60.75 285.65 64.1 289.26 64.1C292.32 64.1 293.25 60.75 293.25 51.28C293.25 43.44 292.23 41.24 289.17 41.24C286.48 41.24 285.19 43.34 285.19 53.1Z" id="gaJLvwQNu"></path><path d="M327.52 53.48L327.52 72.42L314.28 72.42L314.28 19.04C324.39 19.04 330.01 19.04 331.14 19.04C344.29 19.04 351.98 23.44 351.98 35.69C351.89 43.53 348.55 53.48 331.69 53.48C331.14 53.48 329.75 53.48 327.52 53.48ZM327.43 30.33L327.43 42.58C329.77 42.58 331.06 42.58 331.32 42.58C335.49 42.58 337.44 41.43 337.44 35.59C337.44 31.19 335.31 30.33 332.06 30.33C331.45 30.33 329.9 30.33 327.43 30.33Z" id="g2W1IXehSc"></path><path d="M355.22 52.81C355.22 40.47 362.45 31.96 373.66 31.96C383.11 31.96 391.17 37.51 391.17 51.67C391.17 67.26 382.09 73.38 372.92 73.38C361.99 73.38 355.22 65.92 355.22 52.81ZM369.21 53.1C369.21 60.75 369.68 64.1 373.29 64.1C376.35 64.1 377.27 60.75 377.27 51.28C377.27 43.44 376.16 41.24 373.2 41.24C370.51 41.24 369.21 43.34 369.21 53.1Z" id="anpKUPusp"></path><path d="M398.21 59.7C398.21 57 398.21 35.42 398.21 32.72C398.21 27.56 398.3 21.44 397.75 18.37C399.03 18.15 409.25 16.39 410.53 16.17C410.9 18.57 411.09 22.01 411.09 26.03C411.09 28.95 411.09 52.37 411.09 55.3C411.09 62.28 411.27 64.1 414.24 64.1C414.7 64.1 415.17 64.01 415.54 63.91C415.74 64.73 417.37 71.32 417.57 72.14C415.91 72.9 412.85 73.38 409.33 73.38C398.4 73.38 398.21 67.55 398.21 59.7Z" id="eX3y47StT"></path><path d="M420.54 22.58C420.54 18.47 423.97 15.12 428.14 15.12C432.21 15.12 435.36 18.47 435.36 22.58C435.36 26.7 432.03 30.05 427.86 30.05C423.87 30.05 420.54 26.7 420.54 22.58ZM421.47 33.59L434.34 32.34L434.34 72.42L421.47 72.42L421.47 33.59Z" id="e13hNOXbx7"></path><path d="M444.72 63.91C444.72 62.42 444.72 54.99 444.72 41.62L441.66 41.62L441.66 32.92C443.55 32.92 444.6 32.92 444.81 32.92C444.81 28.99 444.9 25.74 445.27 23.16C446.55 22.96 456.78 21.35 458.06 21.15C457.6 25.36 457.69 29.28 457.69 32.92C458.16 32.92 460.5 32.92 464.73 32.92L463.06 41.62L457.69 41.62C457.69 51.21 457.69 56.53 457.69 57.6C457.69 63.15 458.43 64.29 461.67 64.29C462.88 64.29 464.08 64.01 464.91 63.53C465.07 64.29 466.33 70.42 466.49 71.18C463.25 72.81 459.91 73.48 456.76 73.48C449.54 73.48 444.72 71.56 444.72 63.91Z" id="aTYQitRPL"></path><path d="M470.84 65.92C470.84 61.71 474.27 58.17 478.44 58.17C482.61 58.17 486.04 61.71 486.04 65.92C486.13 70.32 482.61 73.76 478.44 73.76C474.27 73.76 470.84 70.22 470.84 65.92Z" id="c6AFIoxnHx"></path><path d="M492.06 53C492.06 39.8 498.91 31.86 510.4 31.86C515.13 31.86 518.37 33.3 522.17 36.55C521.58 37.35 516.83 43.78 516.24 44.59C514.76 42.96 512.63 41.72 510.87 41.72C507.81 41.72 506.23 43.44 506.23 52.24C506.23 60.28 507.07 63.53 510.77 63.53C513.65 63.53 516.05 62.09 517.81 59.99C518.35 60.77 522.65 67.05 523.19 67.83C519.02 72.04 514.02 73.38 509.38 73.38C498.73 73.38 492.06 66.4 492.06 53Z" id="f4YUAkE1G0"></path><path d="M526.43 52.81C526.43 40.47 533.66 31.96 544.87 31.96C554.32 31.96 562.38 37.51 562.38 51.67C562.38 67.26 553.3 73.38 544.12 73.38C533.19 73.38 526.43 65.92 526.43 52.81ZM540.42 53.1C540.42 60.75 540.88 64.1 544.5 64.1C547.55 64.1 548.48 60.75 548.48 51.28C548.48 43.44 547.37 41.24 544.4 41.24C541.72 41.24 540.42 43.34 540.42 53.1Z" id="byjEIqw0F"></path><path d="M607.68 48.03C607.68 42.77 607.12 42.48 604.9 42.48C604.07 42.48 602.12 43.15 600.73 44.01C600.73 45.91 600.73 55.42 600.73 72.52L588.69 72.52C588.69 57.83 588.69 49.66 588.69 48.03C588.69 42.86 588.5 42.29 586.09 42.29C584.89 42.29 582.94 42.96 581.92 43.82C581.92 45.73 581.92 55.3 581.92 72.52L569.42 72.52C569.42 57.48 569.42 49.13 569.42 47.46C569.42 42.67 569.23 38.46 568.21 34.25C569.4 34.04 578.88 32.36 580.07 32.15C580.44 33.49 580.72 34.54 580.81 35.98C583.5 33.49 586.83 32.05 590.08 32.05C594.15 32.05 596.65 33.78 598.69 36.36C601.75 33.49 605.18 32.05 609.62 32.05C615 32.05 620 33.87 620 43.73C620 45.65 620 55.24 620 72.52L607.68 72.52C607.68 57.82 607.68 49.66 607.68 48.03Z" id="c7vMSKg4Tw"></path><path d="M158.17 108.97L158.17 122.84L154.93 122.84L154.93 106.19L163.73 106.19L163.27 108.97L158.17 108.97Z" id="jhYYF5s4w"></path><path d="M185.32 118.92L180.59 118.92L179.48 122.84L176.15 122.84L181.43 106.19L184.95 106.19L190.04 122.84L186.43 122.84L185.32 118.92ZM183.56 112.79C183.37 111.93 183.19 111.46 182.91 109.93C182.63 110.88 182.35 112.32 182.17 113.08C181.7 114.71 181.61 115.28 181.33 116.14C181.54 116.14 182.59 116.14 184.48 116.14C183.99 114.49 183.68 113.37 183.56 112.79Z" id="e11n6eF0Q"></path><path d="M212.65 107.06C214.13 107.92 214.96 109.45 214.96 111.36C214.96 112.7 214.59 115 212.18 116.14C211.35 116.62 210.61 116.72 208.94 116.72C208.82 116.72 208.24 116.72 207.18 116.72L207.18 122.84L203.94 122.84L203.94 106.19L208.94 106.19C210.92 106.51 212.15 106.8 212.65 107.06ZM210.98 113.18C211.16 112.89 211.35 112.41 211.35 111.46C211.35 110.59 211.07 110.02 210.79 109.64C210.61 109.35 210.05 108.87 209.13 108.87C208.99 108.87 208.31 108.87 207.09 108.87L207.09 113.94L208.85 113.94C210.08 113.82 210.79 113.56 210.98 113.18Z" id="fbVvx3WgR"></path><path d="M237.29 122.84L237.29 116.05C236.46 116.05 235.99 116.05 235.9 116.05C235.25 116.05 234.7 116.33 234.33 116.62C234.05 116.91 233.68 117.58 233.58 118.06C233.55 118.23 233.25 119.61 233.21 119.78C233.03 120.54 232.84 121.31 232.47 121.79C231.92 122.55 230.99 122.65 230.53 122.74C230.4 122.76 229.79 122.82 228.67 122.94L228.12 120.64C228.4 120.58 228.55 120.55 228.58 120.54C228.86 120.45 229.32 120.26 229.51 120.16C229.97 119.87 230.16 119.4 230.25 118.92C230.3 118.73 230.75 117.2 230.8 117C230.99 116.33 231.27 115.76 231.73 115.28C232.1 115 232.66 114.71 233.03 114.52C232.1 114.33 231.27 113.85 230.71 113.27C230.06 112.6 229.79 111.55 229.79 110.5C229.79 109.26 230.34 108.01 231.27 107.25C232.47 106.29 233.86 106.19 235.07 106.19C235.44 106.19 237.29 106.19 240.62 106.19L240.62 122.84L237.29 122.84ZM233.95 109.26C233.58 109.45 233.03 110.02 233.03 111.07C233.03 111.65 233.12 112.32 233.49 112.79C233.95 113.46 234.79 113.46 235.16 113.46C235.29 113.46 235.97 113.46 237.2 113.46L237.2 108.97L235.44 108.97C234.76 108.97 234.26 109.06 233.95 109.26Z" id="i2Y36EP884"></path><path d="M263.23 115.95C262.03 116.53 260.73 116.72 259.89 116.72C259.15 116.72 257.76 116.62 256.74 115.57C255.82 114.61 255.73 113.46 255.73 112.79C255.73 112.36 255.73 110.19 255.73 106.29L258.97 106.29C258.97 109.39 258.97 111.11 258.97 111.46C258.97 111.93 258.97 112.89 259.43 113.37C259.89 114.04 260.64 114.13 261.01 114.13C261.66 114.13 262.21 114.04 263.23 113.66C263.23 113.16 263.23 110.71 263.23 106.29L266.47 106.29L266.47 122.94L263.23 122.94C263.23 118.74 263.23 116.41 263.23 115.95Z" id="b3Ii0MVey"></path><path d="M289.73 118.92L285 118.92L283.89 122.84L280.46 122.84L285.74 106.19L289.26 106.19L294.36 122.84L290.84 122.84L289.73 118.92ZM287.97 112.79C287.78 111.93 287.6 111.46 287.32 109.93C287.04 110.88 286.76 112.32 286.58 113.08C286.11 114.71 286.02 115.28 285.74 116.14C285.95 116.14 287 116.14 288.89 116.14C288.4 114.49 288.09 113.37 287.97 112.79Z" id="b4k3Gg5meO"></path><path d="M333.18 118.92L328.45 118.92L327.34 122.84L324 122.84L329.28 106.19L332.81 106.19L337.9 122.84L334.29 122.84L333.18 118.92ZM331.42 112.79C331.23 111.93 331.04 111.46 330.77 109.93C330.49 110.88 330.21 112.32 330.03 113.08C329.56 114.71 329.47 115.28 329.19 116.14C329.4 116.14 330.45 116.14 332.34 116.14C331.85 114.49 331.54 113.37 331.42 112.79Z" id="d7oqCJPd75"></path><path d="M355.04 108.97L355.04 122.84L351.8 122.84L351.8 106.19L360.6 106.19L360.14 108.97L355.04 108.97Z" id="dEL4k3x0S"></path><path d="M383.48 107.06C384.96 107.92 385.8 109.45 385.8 111.36C385.8 112.7 385.43 115 383.02 116.14C382.18 116.62 381.44 116.72 379.78 116.72C379.66 116.72 379.07 116.72 378.02 116.72L378.02 122.84L374.77 122.84L374.77 106.19L379.78 106.19C381.75 106.51 382.99 106.8 383.48 107.06ZM381.81 113.18C382 112.89 382.18 112.41 382.18 111.46C382.18 110.59 382 110.02 381.72 109.64C381.54 109.35 380.98 108.87 380.05 108.87C379.92 108.87 379.24 108.87 378.02 108.87L378.02 113.94L379.68 113.94C380.92 113.82 381.63 113.56 381.81 113.18Z" id="appzDMOgi"></path><path d="M413.59 114.61C413.59 117.2 412.85 119.49 411.64 121.02C410.72 122.07 409.14 123.22 406.64 123.22C404.14 123.22 402.57 122.07 401.64 121.02C400.34 119.49 399.69 117.29 399.69 114.61C399.69 111.93 400.43 109.73 401.64 108.2C402.57 107.15 404.14 106 406.64 106C409.24 106 410.81 107.06 411.64 108.2C412.94 109.64 413.59 111.93 413.59 114.61ZM403.4 114.61C403.4 117.2 403.77 118.25 404.05 118.82C404.42 119.68 405.16 120.54 406.64 120.54C408.22 120.54 408.87 119.59 409.24 118.82C409.51 118.15 409.88 117.2 409.88 114.61C409.88 111.93 409.51 110.98 409.24 110.31C408.96 109.73 408.31 108.59 406.64 108.59C404.97 108.49 404.33 109.73 404.05 110.31C403.77 110.88 403.4 111.93 403.4 114.61Z" id="b5TtQkOX76"></path><path d="M436.38 108.97L431.93 108.97L431.93 122.84L428.69 122.84L428.69 106.19L439.62 106.19L439.62 122.84L436.38 122.84L436.38 108.97Z" id="f1doIJtYsB"></path><path d="M468.62 114.61C468.62 117.2 467.88 119.49 466.68 121.02C465.75 122.07 464.17 123.22 461.67 123.22C459.17 123.22 457.6 122.07 456.67 121.02C455.37 119.49 454.72 117.29 454.72 114.61C454.72 111.93 455.47 109.73 456.67 108.2C457.6 107.15 459.17 106 461.67 106C464.17 106 465.75 107.06 466.68 108.2C467.97 109.64 468.62 111.93 468.62 114.61ZM458.34 114.61C458.34 117.2 458.71 118.25 458.99 118.82C459.36 119.68 460.1 120.54 461.58 120.54C463.15 120.54 463.8 119.59 464.17 118.82C464.45 118.15 464.82 117.2 464.82 114.61C464.82 111.93 464.45 110.98 464.17 110.31C463.9 109.73 463.25 108.59 461.58 108.59C459.91 108.49 459.26 109.73 458.99 110.31C458.71 110.88 458.34 111.93 458.34 114.61Z" id="c1FdqFsrhd"></path><path d="M491.23 108.97L488.26 108.97C488.21 110.46 488.17 111.29 488.17 111.46C488.17 112.7 487.98 115.95 487.61 118.34C487.43 119.49 487.15 120.74 486.41 121.6C485.57 122.55 484.37 122.74 483.44 122.94C483.38 122.95 483.04 123.01 482.42 123.13L481.87 120.74C482.09 120.68 482.21 120.65 482.24 120.64C482.7 120.54 482.98 120.45 483.44 120.07C483.72 119.87 484.18 119.49 484.37 118.82C484.46 118.53 484.74 117.87 484.83 116.05C485.11 113.66 485.2 110.79 485.2 109.26C485.21 109.06 485.24 108.07 485.3 106.29L494.47 106.29L494.47 122.94L491.23 122.94L491.23 108.97Z" id="a28vbByG2Z"></path><path d="M510.31 106.19L513.55 106.19L513.55 122.84L510.31 122.84L510.31 106.19Z" id="h2Ozv3Fhe"></path><path d="M535.23 108.97L535.23 122.84L531.99 122.84L531.99 108.97L528.1 108.97L528.1 106.19L539.68 106.19L539.03 108.97L535.23 108.97Z" id="cp8DdVvgP"></path><path d="M561.45 114.61C561.45 113.75 561.54 112.13 561.63 111.07C561.26 112.41 560.89 113.08 560.52 113.94C560.26 114.53 558.97 117.46 556.63 122.74L553.2 122.74L553.2 106.1L556.45 106.1C556.45 111.03 556.45 113.78 556.45 114.33C556.45 115.19 556.35 116.81 556.26 117.87C556.63 116.53 557 115.86 557.37 115C557.63 114.41 558.93 111.47 561.26 106.19L564.69 106.19L564.69 122.84L561.45 122.84C561.45 117.9 561.45 115.16 561.45 114.61Z" id="d2GUqkxmew"></path><path d="M591.93 108.39C591.65 108.49 591.47 108.49 591.19 108.68C590.91 108.87 590.72 109.06 590.54 109.73C590.49 109.89 590.12 111.11 590.08 111.26C589.89 111.84 589.71 112.51 589.24 113.08C588.96 113.46 588.5 113.75 587.95 113.85C588.59 114.04 588.96 114.33 589.15 114.61C589.71 115.19 589.89 115.86 590.08 116.33C590.15 116.58 590.74 118.57 590.82 118.82C590.91 119.3 591.1 119.78 591.56 120.07C591.74 120.16 592.21 120.35 592.48 120.45C592.52 120.45 592.67 120.49 592.95 120.54L592.3 122.84C591.19 122.72 590.57 122.66 590.45 122.65C589.43 122.55 588.87 122.07 588.5 121.69C588.04 121.12 587.95 120.45 587.76 119.68C587.7 119.44 587.26 117.53 587.2 117.29C587.11 116.81 586.74 116.05 586.46 115.76C586 115.38 585.35 115.28 584.89 115.28C584.81 115.28 584.41 115.28 583.68 115.28L583.68 122.65L580.44 122.65L580.44 106L583.68 106L583.68 112.41C584.52 112.41 584.98 112.41 585.07 112.41C585.63 112.41 586.28 112.22 586.65 111.93C587.02 111.55 587.2 110.98 587.3 110.4C587.34 110.19 587.71 108.51 587.76 108.3C587.85 107.82 588.04 107.15 588.5 106.58C588.96 106.1 589.52 105.91 590.17 105.81C590.27 105.8 590.8 105.73 591.74 105.62L592.67 108.2C592.23 108.32 591.98 108.38 591.93 108.39Z" id="couWZqdJz"></path><path d="M615.09 118.92L610.27 118.92L609.16 122.84L605.83 122.84L611.11 106.19L614.63 106.19L619.72 122.84L616.2 122.84L615.09 118.92ZM613.33 112.79C613.14 111.93 612.96 111.46 612.68 109.93C612.4 110.88 612.13 112.32 611.94 113.08C611.48 114.71 611.38 115.28 611.11 116.14C611.32 116.14 612.37 116.14 614.26 116.14C613.76 114.49 613.45 113.37 613.33 112.79Z" id="a4CqhwPb"></path><path d="M115.56 13.78C115.56 13.78 115.56 13.78 115.56 13.78C115.56 80.48 115.56 117.53 115.56 124.94C115.56 124.94 115.56 124.94 115.56 124.94C50.97 124.94 15.08 124.94 7.9 124.94C7.9 124.94 7.9 124.94 7.9 124.94C7.9 58.25 7.9 21.19 7.9 13.78C7.9 13.78 7.9 13.78 7.9 13.78C72.5 13.78 108.38 13.78 115.56 13.78Z" id="b2gcST834V"></path><path d="M94.06 45.73C94.71 46.12 95.36 46.31 96.1 46.31C97.12 46.31 98.14 45.93 98.88 45.16C101.15 42.83 119.31 24.15 121.58 21.82C122.41 20.96 122.88 19.71 122.97 18.47C122.97 17.23 122.5 15.98 121.67 15.12C121.49 14.93 121.3 14.83 121.11 14.64C121.86 13.78 122.23 12.73 122.23 11.58C122.23 10.34 121.76 9.1 120.93 8.23C120.1 7.37 118.89 6.89 117.69 6.89C116.58 6.89 115.46 7.28 114.63 8.04C114.54 7.85 114.35 7.66 114.17 7.47C113.33 6.61 112.13 6.13 110.92 6.13C109.72 6.13 108.52 6.61 107.68 7.47C105.42 9.8 87.34 28.48 85.08 30.81C83.78 32.15 83.59 34.16 84.52 35.79C84.64 36 85.6 37.68 85.73 37.89C85.63 37.99 85.63 37.99 85.54 38.08C83.07 40.64 63.28 61.07 60.8 63.62C59.97 64.48 59.41 65.63 59.32 66.78C59.23 68.22 59.69 69.55 60.62 70.51C61.45 71.37 62.56 71.85 63.77 71.85C65.07 71.85 66.36 71.28 67.29 70.32C69.76 67.77 89.55 47.33 92.02 44.78C92.02 44.59 92.12 44.59 92.12 44.49C92.51 44.74 93.87 45.61 94.06 45.73ZM63.31 67.55C63.31 67.55 63.31 67.55 63.31 67.55C62.75 66.97 62.84 66.02 63.49 65.44C65.96 62.89 85.75 42.45 88.23 39.9C88.87 39.23 89.8 39.13 90.26 39.71C90.26 39.71 90.26 39.71 90.26 39.71C90.82 40.28 90.73 41.24 90.08 41.81C88.43 43.52 80.18 52.03 65.34 67.35C64.29 67.86 63.61 67.93 63.31 67.55ZM90.64 29.66C90.91 29.38 91.38 29.38 91.56 29.66C91.56 29.66 91.65 29.76 91.65 29.76C91.87 30.12 93.57 33.03 93.79 33.39C93.97 33.68 93.88 34.06 93.69 34.25C93.41 34.56 91.11 37.01 90.82 37.32C90.54 37.6 90.08 37.6 89.89 37.32C89.89 37.32 89.8 37.22 89.8 37.22C89.59 36.86 87.88 33.95 87.67 33.59C87.49 33.3 87.58 32.92 87.76 32.72C88.34 32.11 90.35 29.97 90.64 29.66ZM96.19 24.02C96.47 23.73 96.93 23.73 97.12 24.02C97.12 24.02 97.21 24.11 97.21 24.11C97.43 24.48 99.13 27.39 99.34 27.75C99.53 28.04 99.44 28.42 99.25 28.61C98.96 28.92 96.67 31.37 96.38 31.67C96.1 31.96 95.64 31.96 95.45 31.67C95.45 31.67 95.36 31.58 95.36 31.58C95.15 31.21 93.44 28.3 93.23 27.94C93.04 27.65 93.04 27.27 93.32 27.08C93.9 26.47 95.91 24.32 96.19 24.02ZM108.05 30.91C107.87 31.1 107.5 31.19 107.22 31C106.87 30.78 104.05 29.02 103.7 28.8C103.61 28.8 103.61 28.71 103.61 28.71C103.33 28.42 103.33 28.04 103.61 27.75C103.9 27.45 106.27 25.08 106.57 24.78C106.76 24.59 107.13 24.5 107.4 24.69C107.76 24.91 110.57 26.67 110.92 26.89C111.02 26.89 111.02 26.98 111.02 26.98C111.29 27.18 111.29 27.65 111.02 27.94C110.42 28.53 108.35 30.61 108.05 30.91ZM98.05 33.49C98.34 33.19 100.71 30.82 101.01 30.52C101.2 30.33 101.57 30.24 101.85 30.43C102.2 30.65 105.01 32.41 105.37 32.63C105.46 32.63 105.46 32.72 105.46 32.72C105.74 33.01 105.74 33.39 105.46 33.68C105.16 33.98 102.79 36.35 102.49 36.65C102.31 36.84 101.94 36.93 101.66 36.74C101.31 36.52 98.49 34.76 98.14 34.54C98.14 34.54 98.14 34.45 98.05 34.45C97.77 34.16 97.77 33.78 98.05 33.49ZM105.37 18.47C104.98 17.78 104.76 17.4 104.72 17.32C104.62 17.13 104.44 16.94 104.25 16.75C104.16 16.65 103.98 16.56 103.88 16.46C103.79 16.46 103.79 16.37 103.7 16.37C104.37 15.67 109.78 10.08 110.46 9.38C111.02 8.81 111.85 8.81 112.31 9.38C112.31 9.38 112.31 9.38 112.31 9.38C112.78 9.86 112.78 10.82 112.31 11.3C111.39 12.25 109.07 14.64 105.37 18.47ZM95.55 36.17C95.73 35.98 96.1 35.88 96.38 36.07C96.73 36.29 99.55 38.05 99.9 38.27C99.99 38.27 99.99 38.37 99.99 38.37C100.27 38.66 100.27 39.04 99.99 39.32C99.7 39.62 97.32 41.99 97.03 42.29C96.84 42.48 96.47 42.58 96.19 42.39C95.84 42.17 93.03 40.41 92.67 40.19C92.58 40.19 92.58 40.09 92.58 40.09C92.3 39.8 92.3 39.42 92.58 39.13C93.17 38.54 95.25 36.46 95.55 36.17ZM112.96 25.93C112.96 25.84 112.87 25.84 112.87 25.74C112.78 25.55 112.68 25.45 112.59 25.36C112.41 25.17 112.22 25.07 112.04 24.88C111.96 24.84 111.59 24.61 110.92 24.21C115.09 19.91 117.41 17.51 117.87 17.04C118.43 16.46 119.26 16.46 119.73 17.04C119.73 17.04 119.73 17.04 119.73 17.04C120.28 17.51 120.28 18.37 119.73 18.95C118.37 20.35 113.64 25.23 112.96 25.93ZM118.98 10.15C118.98 10.15 118.98 10.15 118.98 10.15C119.54 10.72 119.54 11.58 118.98 12.06C117.96 13.11 109.81 21.53 108.79 22.58C108.7 22.68 108.61 22.68 108.52 22.78C108.52 22.78 108.52 22.78 108.52 22.78C108.14 22.49 107.68 22.39 107.22 22.39C107.22 21.91 107.03 21.44 106.85 21.05C106.85 21.04 106.85 20.97 106.85 20.96C106.94 20.86 106.94 20.77 107.03 20.67C107.71 19.97 111.07 16.46 117.13 10.15C118.06 9.76 118.68 9.76 118.98 10.15ZM101.66 18.28C101.94 17.99 102.4 17.99 102.59 18.28C102.59 18.28 102.68 18.37 102.68 18.37C102.89 18.74 104.6 21.65 104.81 22.01C104.99 22.3 104.9 22.68 104.72 22.87C104.43 23.18 102.13 25.63 101.85 25.93C101.57 26.22 101.1 26.22 100.92 25.93C100.92 25.93 100.83 25.84 100.83 25.84C100.61 25.47 98.91 22.56 98.7 22.2C98.51 21.91 98.6 21.53 98.79 21.34C99.36 20.73 101.37 18.58 101.66 18.28Z" id="aHxq2LQVb"></path><path d="M110.46 9.38C109.78 10.08 104.37 15.67 103.7 16.37C103.79 16.37 103.79 16.46 103.88 16.46C104.07 16.56 104.16 16.65 104.25 16.75C104.44 16.94 104.53 17.13 104.72 17.32C104.76 17.4 104.98 17.78 105.37 18.47C109.53 14.17 111.85 11.77 112.31 11.3C112.78 10.82 112.78 9.86 112.31 9.38C112.31 9.38 112.31 9.38 112.31 9.38C111.39 9 110.77 9 110.46 9.38Z" id="a6g4kKHFF"></path><path d="M117.87 17.04C117.41 17.51 115.09 19.91 110.92 24.21C111.59 24.61 111.96 24.84 112.04 24.88C112.22 24.98 112.41 25.17 112.59 25.36C112.68 25.45 112.78 25.64 112.87 25.74C112.87 25.84 112.96 25.84 112.96 25.93C113.64 25.23 119.05 19.65 119.73 18.95C120.28 18.37 120.28 17.51 119.73 17.04C119.73 17.04 119.73 17.04 119.73 17.04C118.8 16.65 118.18 16.65 117.87 17.04Z" id="f1gwvWszA1"></path><path d="M106.76 20.96C106.76 20.97 106.76 21.04 106.76 21.05C107.03 21.44 107.13 21.91 107.13 22.39C107.59 22.39 108.05 22.58 108.42 22.78C108.42 22.78 108.42 22.78 108.42 22.78C108.52 22.68 108.61 22.68 108.7 22.58C109.72 21.53 117.87 13.11 118.89 12.06C119.45 11.49 119.45 10.63 118.89 10.15C118.89 10.15 118.89 10.15 118.89 10.15C118.34 9.57 117.5 9.57 117.04 10.15C116.37 10.85 113 14.36 106.94 20.67C106.88 20.8 106.82 20.89 106.76 20.96Z" id="i6YaasQ6ch"></path><path d="M96.19 42.39C96.47 42.58 96.84 42.48 97.03 42.29C97.32 41.99 99.7 39.62 99.99 39.32C100.27 39.04 100.27 38.56 99.99 38.37C99.99 38.37 99.9 38.27 99.9 38.27C99.55 38.05 96.73 36.29 96.38 36.07C96.1 35.88 95.73 35.98 95.55 36.17C95.25 36.46 92.88 38.84 92.58 39.13C92.3 39.42 92.3 39.9 92.58 40.09C92.58 40.19 92.67 40.19 92.67 40.19C93.38 40.63 95.84 42.17 96.19 42.39Z" id="b6SFzL1l4"></path><path d="M89.89 37.32C90.17 37.6 90.54 37.6 90.82 37.32C91.11 37.01 93.41 34.56 93.69 34.25C93.88 34.06 93.97 33.68 93.79 33.39C93.57 33.03 91.87 30.12 91.65 29.76C91.65 29.66 91.56 29.66 91.56 29.66C91.28 29.38 90.91 29.38 90.64 29.66C90.35 29.97 88.05 32.42 87.76 32.72C87.58 32.92 87.49 33.3 87.67 33.59C87.81 33.83 88.52 35.04 89.8 37.22C89.85 37.27 89.88 37.3 89.89 37.32Z" id="agXU2zIwH"></path><path d="M105.55 33.68C105.83 33.39 105.83 32.92 105.55 32.72C105.55 32.72 105.46 32.63 105.46 32.63C105.11 32.41 102.29 30.65 101.94 30.43C101.66 30.24 101.29 30.33 101.1 30.52C100.81 30.82 98.44 33.19 98.14 33.49C97.86 33.78 97.86 34.25 98.14 34.45C98.14 34.45 98.23 34.54 98.23 34.54C98.58 34.76 101.4 36.52 101.75 36.74C102.03 36.93 102.4 36.84 102.59 36.65C103.18 36.05 105.25 33.98 105.55 33.68Z" id="c3dSTBtRp9"></path><path d="M95.45 31.67C95.73 31.96 96.1 31.96 96.38 31.67C96.67 31.37 98.96 28.92 99.25 28.61C99.44 28.42 99.53 28.04 99.34 27.75C99.13 27.39 97.43 24.48 97.21 24.11C97.21 24.02 97.12 24.02 97.12 24.02C96.84 23.73 96.47 23.73 96.19 24.02C95.91 24.32 93.61 26.77 93.32 27.08C93.14 27.27 93.04 27.65 93.23 27.94C93.37 28.18 94.08 29.39 95.36 31.58C95.41 31.63 95.44 31.66 95.45 31.67Z" id="mXKSKBLaB"></path><path d="M107.4 24.59C107.13 24.4 106.76 24.5 106.57 24.69C106.27 24.98 103.9 27.36 103.61 27.65C103.33 27.94 103.33 28.42 103.61 28.61C103.61 28.61 103.7 28.71 103.7 28.71C104.05 28.93 106.87 30.69 107.22 30.91C107.5 31.1 107.87 31 108.05 30.81C108.35 30.51 110.72 28.14 111.02 27.85C111.29 27.56 111.29 27.08 111.02 26.89C111.02 26.89 110.92 26.89 110.92 26.79C110.22 26.35 107.76 24.81 107.4 24.59Z" id="a5aSRT2IAB"></path><path d="M100.92 25.93C101.2 26.22 101.57 26.22 101.85 25.93C102.13 25.63 104.43 23.18 104.72 22.87C104.9 22.68 104.99 22.3 104.81 22.01C104.6 21.65 102.89 18.74 102.68 18.37C102.68 18.28 102.59 18.28 102.59 18.28C102.31 17.99 101.94 17.99 101.66 18.28C101.37 18.58 99.07 21.03 98.79 21.34C98.6 21.53 98.51 21.91 98.7 22.2C98.84 22.44 99.55 23.66 100.83 25.84C100.88 25.89 100.91 25.92 100.92 25.93Z" id="cmO0q6aBh"></path><path d="M90.26 39.71C89.71 39.13 88.78 39.23 88.23 39.9C85.75 42.45 65.96 62.89 63.49 65.44C62.84 66.11 62.75 67.07 63.31 67.55C63.31 67.55 63.31 67.55 63.31 67.55C63.86 68.12 64.79 68.02 65.34 67.35C67.82 64.8 87.61 44.37 90.08 41.81C90.73 41.24 90.82 40.28 90.26 39.71C90.26 39.71 90.26 39.71 90.26 39.71Z" id="d3vDwCbYpk"></path><path d="M134.36 52.34C133.53 50.9 132.05 49.94 130.38 49.94C129.64 49.94 128.99 50.13 128.34 50.42C128.25 50.23 128.16 49.94 128.06 49.75C127.23 48.32 125.75 47.36 124.08 47.36C123.25 47.36 122.5 47.55 121.76 48.03C118.99 49.69 96.83 62.93 94.06 64.58C92.49 65.54 91.75 67.45 92.21 69.27C92.25 69.42 92.47 70.19 92.86 71.56C82.24 77.93 76.34 81.47 75.16 82.18C74.14 82.76 73.31 83.71 72.94 84.86C72.48 86.2 72.57 87.64 73.22 88.78C74.05 90.22 75.53 91.08 77.2 91.08C78.04 91.08 78.96 90.79 79.7 90.41C80.88 89.7 86.78 86.12 97.4 79.7C98.34 80.73 98.87 81.3 98.97 81.42C99.71 82.18 100.73 82.66 101.85 82.66C102.49 82.66 103.23 82.47 103.79 82.09C106.57 80.43 128.8 67.19 131.58 65.54C132.6 64.87 133.44 63.91 133.71 62.67C133.99 61.42 133.9 60.18 133.25 59.13C133.16 58.94 132.97 58.74 132.88 58.55C133.9 57.88 134.55 57.02 134.83 55.87C135.1 54.63 135.01 53.39 134.36 52.34ZM102.77 78.83C102.49 79.03 102.12 78.93 101.94 78.74C101.65 78.43 99.35 75.98 99.07 75.68C99.07 75.68 98.97 75.58 98.97 75.58C98.79 75.29 98.88 74.82 99.25 74.62C99.61 74.41 102.5 72.73 102.86 72.52C103.14 72.33 103.51 72.42 103.7 72.62C103.99 72.92 106.28 75.37 106.57 75.68C106.57 75.68 106.66 75.77 106.66 75.77C106.85 76.16 106.76 76.54 106.38 76.73C105.66 77.15 103.13 78.62 102.77 78.83ZM76.65 86.77C76.65 86.77 76.65 86.77 76.65 86.77C76.28 86.1 76.65 85.24 77.39 84.77C79.14 83.71 93.15 75.29 94.9 74.24C95.64 73.76 96.56 73.96 96.93 74.62C96.93 74.62 96.93 74.62 96.93 74.62C97.31 75.29 96.93 76.16 96.19 76.63C95.03 77.34 89.19 80.84 78.68 87.16C77.57 87.35 76.89 87.22 76.65 86.77ZM99.9 65.06C100.27 64.87 100.64 64.96 100.83 65.35C100.83 65.44 100.92 65.44 100.92 65.54C101.03 65.95 101.92 69.24 102.03 69.65C102.12 69.94 102.03 70.32 101.75 70.42C101.39 70.63 98.5 72.31 98.14 72.52C97.77 72.71 97.4 72.62 97.21 72.23C97.21 72.14 97.12 72.14 97.12 72.04C97.01 71.63 96.12 68.34 96.01 67.93C95.82 67.64 96.01 67.26 96.29 67.16C97.01 66.74 99.54 65.27 99.9 65.06ZM106.66 61.04C107.03 60.85 107.4 60.95 107.59 61.33C107.59 61.42 107.68 61.42 107.68 61.52C107.79 61.93 108.68 65.22 108.79 65.63C108.89 65.92 108.79 66.3 108.52 66.4C108.15 66.61 105.26 68.29 104.9 68.5C104.53 68.69 104.16 68.6 103.98 68.22C103.98 68.12 103.88 68.12 103.88 68.02C103.77 67.61 102.88 64.32 102.77 63.91C102.59 63.62 102.77 63.24 103.05 63.15C103.77 62.72 106.3 61.25 106.66 61.04ZM125.84 51.09C125.84 51.09 125.84 51.09 125.84 51.09C126.21 51.76 126.02 52.62 125.38 53C124.81 53.34 121.97 55.03 116.85 58.08C116.63 57.27 116.51 56.83 116.48 56.74C116.39 56.54 116.3 56.26 116.2 56.07C116.11 55.87 116.02 55.78 115.93 55.68C115.93 55.68 115.83 55.59 115.83 55.59C116.38 55.26 119.1 53.6 123.99 50.61C124.97 50.49 125.59 50.65 125.84 51.09ZM109.63 68.5C109.9 68.31 110.28 68.41 110.46 68.6C110.75 68.9 113.05 71.35 113.33 71.66C113.33 71.66 113.43 71.76 113.43 71.76C113.61 72.04 113.52 72.52 113.15 72.71C112.79 72.92 109.9 74.61 109.53 74.82C109.26 75.01 108.89 74.91 108.7 74.72C108.41 74.41 106.12 71.97 105.83 71.66C105.83 71.66 105.74 71.56 105.74 71.56C105.64 71.18 105.74 70.8 106.01 70.61C106.74 70.19 109.27 68.71 109.63 68.5ZM116.39 64.48C116.67 64.29 117.04 64.39 117.22 64.58C117.51 64.89 119.81 67.34 120.1 67.64C120.1 67.64 120.19 67.74 120.19 67.74C120.37 68.02 120.28 68.5 119.91 68.69C119.55 68.9 116.66 70.59 116.3 70.8C116.02 70.99 115.65 70.89 115.46 70.7C115.18 70.4 112.88 67.95 112.59 67.64C112.59 67.64 112.5 67.55 112.5 67.55C112.41 67.16 112.5 66.78 112.78 66.59C113.5 66.17 116.03 64.7 116.39 64.48ZM119.08 62.95C118.98 63.05 118.89 63.05 118.8 63.05C118.79 63.04 118.72 62.96 118.71 62.95C118.34 62.57 117.96 62.38 117.59 62.19C117.69 61.71 117.69 61.23 117.5 60.75C117.5 60.74 117.5 60.67 117.5 60.66C117.59 60.56 117.69 60.56 117.78 60.47C119.03 59.72 129.04 53.75 130.29 53C130.94 52.62 131.77 52.81 132.14 53.48C132.14 53.48 132.14 53.48 132.14 53.48C132.42 54.34 132.23 55.11 131.58 55.49C129.08 56.98 120.33 62.21 119.08 62.95ZM113.43 57.02C113.8 56.83 114.17 56.93 114.35 57.31C114.35 57.41 114.44 57.41 114.44 57.5C114.56 57.91 115.45 61.2 115.56 61.61C115.65 61.9 115.56 62.28 115.28 62.38C114.92 62.59 112.03 64.27 111.67 64.48C111.29 64.68 110.92 64.58 110.74 64.2C110.74 64.1 110.65 64.1 110.65 64.01C110.53 63.59 109.65 60.3 109.53 59.89C109.35 59.61 109.53 59.22 109.81 59.13C110.53 58.71 113.06 57.23 113.43 57.02ZM122.23 67.07C122.13 66.88 122.13 66.78 122.04 66.59C121.95 66.4 121.76 66.21 121.67 66.02C121.61 65.95 121.3 65.63 120.74 65.06C125.86 62.02 128.7 60.33 129.27 59.99C129.92 59.61 130.75 59.8 131.12 60.47C131.12 60.47 131.12 60.47 131.12 60.47C131.49 61.14 131.31 62 130.66 62.38C130.1 62.71 127.32 64.33 122.32 67.26C122.32 67.2 122.29 67.13 122.23 67.07Z" id="a1plSC9uhk"></path><path d="M116.11 56.07C116.2 56.26 116.3 56.45 116.39 56.74C116.41 56.83 116.54 57.27 116.76 58.08C121.87 55.03 124.72 53.34 125.28 53C125.93 52.62 126.12 51.76 125.75 51.09C125.75 51.09 125.75 51.09 125.75 51.09C125.38 50.42 124.54 50.23 123.89 50.61C123.07 51.1 116.47 55 115.65 55.49C115.74 55.59 115.83 55.59 115.83 55.68C115.93 55.78 116.02 55.97 116.11 56.07Z" id="g7HMKxjxGh"></path><path d="M131.12 60.47C130.75 59.8 129.92 59.61 129.27 59.99C128.7 60.33 125.86 62.02 120.74 65.06C121.3 65.63 121.61 65.95 121.67 66.02C121.86 66.21 121.95 66.4 122.04 66.59C122.13 66.78 122.23 66.88 122.23 67.07C122.23 67.16 122.23 67.16 122.32 67.26C123.14 66.77 129.74 62.87 130.56 62.38C131.21 62 131.4 61.14 131.12 60.47C131.12 60.47 131.12 60.47 131.12 60.47Z" id="a1hkMvUsPv"></path><path d="M132.05 53.67C131.68 53 130.84 52.81 130.19 53.2C128.94 53.94 118.94 59.91 117.69 60.66C117.59 60.75 117.5 60.75 117.41 60.85C117.41 60.86 117.41 60.94 117.41 60.95C117.5 61.42 117.59 61.9 117.5 62.38C117.96 62.57 118.34 62.76 118.61 63.15C118.62 63.15 118.7 63.23 118.71 63.24C118.8 63.24 118.89 63.15 118.98 63.15C120.23 62.4 130.24 56.43 131.49 55.68C132.23 55.11 132.42 54.34 132.05 53.67C132.05 53.67 132.05 53.67 132.05 53.67Z" id="h1ItXqb2qF"></path><path d="M103.7 72.62C103.51 72.42 103.14 72.33 102.86 72.52C102.5 72.73 99.61 74.41 99.25 74.62C98.88 74.82 98.79 75.29 98.97 75.58C98.97 75.68 99.07 75.68 99.07 75.68C99.35 75.98 101.65 78.43 101.94 78.74C102.12 78.93 102.49 79.03 102.77 78.83C103.13 78.62 106.02 76.94 106.38 76.73C106.76 76.54 106.85 76.06 106.66 75.77C106.66 75.77 106.57 75.68 106.57 75.68C106 75.07 103.99 72.92 103.7 72.62Z" id="b1bw4r65N5"></path><path d="M97.21 72.23C97.4 72.52 97.77 72.71 98.14 72.52C98.5 72.31 101.39 70.63 101.75 70.42C102.03 70.22 102.12 69.94 102.03 69.65C101.92 69.24 101.03 65.95 100.92 65.54C100.92 65.44 100.92 65.44 100.83 65.35C100.64 65.06 100.27 64.87 99.9 65.06C99.54 65.27 96.65 66.95 96.29 67.16C96.01 67.35 95.92 67.64 96.01 67.93C96.08 68.2 96.45 69.57 97.12 72.04C97.12 72.11 97.15 72.17 97.21 72.23Z" id="akBajXqlD"></path><path d="M108.79 74.72C108.98 74.91 109.35 75.01 109.63 74.82C109.99 74.61 112.88 72.92 113.24 72.71C113.61 72.52 113.7 72.04 113.52 71.76C113.52 71.66 113.43 71.66 113.43 71.66C113.14 71.35 110.84 68.9 110.55 68.6C110.37 68.41 110 68.31 109.72 68.5C109.36 68.71 106.47 70.4 106.11 70.61C105.74 70.8 105.64 71.28 105.83 71.56C105.83 71.56 105.83 71.66 105.92 71.66C106.5 72.27 108.51 74.41 108.79 74.72Z" id="a3BbnrmEN8"></path><path d="M103.98 68.22C104.16 68.5 104.53 68.69 104.9 68.5C105.26 68.29 108.15 66.61 108.52 66.4C108.79 66.21 108.89 65.92 108.79 65.63C108.68 65.22 107.79 61.93 107.68 61.52C107.68 61.42 107.68 61.42 107.59 61.33C107.4 61.04 107.03 60.85 106.66 61.04C106.3 61.25 103.41 62.93 103.05 63.15C102.77 63.34 102.68 63.62 102.77 63.91C102.85 64.18 103.22 65.56 103.88 68.02C103.88 68.09 103.91 68.15 103.98 68.22Z" id="c2HlT6rtc"></path><path d="M115.56 70.7C115.74 70.89 116.11 70.99 116.39 70.8C116.75 70.59 119.64 68.9 120 68.69C120.37 68.5 120.47 68.02 120.28 67.74C120.28 67.64 120.19 67.64 120.19 67.64C119.9 67.34 117.6 64.89 117.32 64.58C117.13 64.39 116.76 64.29 116.48 64.48C116.12 64.7 113.23 66.38 112.87 66.59C112.5 66.78 112.41 67.26 112.59 67.55C112.59 67.55 112.59 67.64 112.68 67.64C113.26 68.25 115.27 70.4 115.56 70.7Z" id="e65HclgWpq"></path><path d="M110.74 64.2C110.92 64.48 111.29 64.68 111.67 64.48C112.03 64.27 114.92 62.59 115.28 62.38C115.56 62.19 115.65 61.9 115.56 61.61C115.45 61.2 114.56 57.91 114.44 57.5C114.44 57.41 114.44 57.41 114.35 57.31C114.17 57.02 113.8 56.83 113.43 57.02C113.06 57.23 110.17 58.92 109.81 59.13C109.53 59.32 109.44 59.61 109.53 59.89C109.61 60.17 109.98 61.54 110.65 64.01C110.65 64.07 110.68 64.13 110.74 64.2Z" id="arFXkRnMP"></path><path d="M96.93 74.62C96.56 73.96 95.64 73.76 94.9 74.24C93.15 75.29 79.14 83.71 77.39 84.77C76.65 85.24 76.28 86.1 76.65 86.77C76.65 86.77 76.65 86.77 76.65 86.77C77.02 87.44 77.94 87.64 78.68 87.16C80.44 86.1 94.44 77.69 96.19 76.63C96.93 76.16 97.31 75.2 96.93 74.62C96.93 74.62 96.93 74.62 96.93 74.62Z" id="aQZktK5Az"></path><path d="M61.73 37.7C62.1 37.79 62.47 37.89 62.84 37.89C64.23 37.89 65.53 37.12 66.27 35.88C67.87 33.02 80.69 10.14 82.3 7.28C82.95 6.23 83.04 4.89 82.76 3.64C82.48 2.4 81.65 1.44 80.63 0.77C80.44 0.68 80.26 0.58 79.98 0.49C80.44 -0.57 80.54 -1.71 80.26 -2.77C79.98 -4.01 79.15 -4.97 78.13 -5.64C77.48 -6.02 76.65 -6.31 75.81 -6.31C74.24 -6.31 72.85 -5.54 72.01 -4.2C71.83 -4.39 71.64 -4.49 71.46 -4.58C70.72 -4.97 69.98 -5.25 69.14 -5.25C67.47 -5.25 65.99 -4.39 65.16 -2.86C63.56 0 50.73 22.88 49.13 25.74C48.2 27.37 48.48 29.38 49.78 30.72C49.95 30.88 51.28 32.18 51.45 32.34C51.45 32.44 51.35 32.44 51.35 32.53C50.39 34.15 42.68 47.08 41.72 48.7C41.16 49.75 40.89 51 41.07 52.14C41.26 53.48 42.09 54.73 43.2 55.4C43.85 55.78 44.59 55.97 45.43 55.97C47.09 55.97 48.76 55.01 49.59 53.39C50.56 51.77 58.27 38.84 59.23 37.22C59.41 37.22 59.41 37.12 59.51 37.03C59.95 37.16 61.51 37.63 61.73 37.7ZM63.12 8.9C63.21 8.9 63.21 9 63.21 9C63.51 9.3 65.88 11.67 66.18 11.97C66.36 12.16 66.46 12.54 66.27 12.83C66.07 13.2 64.44 16.18 64.23 16.56C64.05 16.94 63.58 17.04 63.31 16.84C63.21 16.84 63.21 16.75 63.21 16.75C62.92 16.45 60.54 14.08 60.25 13.78C60.06 13.59 59.97 13.21 60.16 12.92C60.29 12.67 60.97 11.43 62.19 9.19C62.63 8.87 62.93 8.78 63.12 8.9ZM70.16 -2.29C70.16 -2.29 70.16 -2.29 70.16 -2.29C70.81 -1.91 70.99 -1.05 70.62 -0.38C70.3 0.21 68.66 3.14 65.71 8.43C65.16 7.85 64.85 7.53 64.79 7.47C64.6 7.28 64.42 7.18 64.23 7.09C64.05 6.99 63.95 6.89 63.77 6.89C63.68 6.89 63.68 6.89 63.58 6.8C63.9 6.23 65.47 3.36 68.31 -1.81C69.11 -2.38 69.73 -2.54 70.16 -2.29ZM71.55 19.71C71.37 20 71.09 20.1 70.81 20C70.41 19.89 67.22 18.97 66.83 18.85C66.73 18.85 66.73 18.85 66.64 18.76C66.36 18.57 66.18 18.18 66.36 17.8C66.57 17.43 68.2 14.44 68.4 14.07C68.59 13.78 68.86 13.69 69.14 13.78C69.54 13.9 72.73 14.82 73.13 14.93C73.22 14.93 73.22 14.93 73.31 15.03C73.68 15.22 73.77 15.7 73.59 15.98C73.18 16.73 71.75 19.34 71.55 19.71ZM62.38 24.78C62.58 24.41 64.21 21.43 64.42 21.05C64.6 20.77 64.88 20.67 65.16 20.77C65.56 20.88 68.74 21.8 69.14 21.91C69.23 21.91 69.23 21.91 69.33 22.01C69.61 22.2 69.79 22.58 69.61 22.97C69.4 23.34 67.77 26.32 67.57 26.7C67.38 26.98 67.1 27.08 66.83 26.98C66.43 26.87 63.24 25.95 62.84 25.84C62.84 25.74 62.75 25.74 62.66 25.74C62.38 25.55 62.19 25.17 62.38 24.78ZM56.45 32.92C57.1 33.3 57.19 34.25 56.82 35.02C55.86 36.64 48.15 49.57 47.19 51.19C46.72 51.95 45.89 52.34 45.24 51.95C45.24 51.95 45.24 51.95 45.24 51.95C44.59 51.57 44.5 50.61 44.87 49.85C45.83 48.23 53.54 35.3 54.5 33.68C54.97 32.92 55.89 32.53 56.45 32.92C56.45 32.92 56.45 32.92 56.45 32.92ZM60.62 28.04C60.8 27.75 61.08 27.65 61.36 27.75C61.76 27.86 64.95 28.78 65.34 28.9C65.44 28.9 65.44 28.9 65.53 28.99C65.81 29.18 65.99 29.57 65.81 29.95C65.59 30.32 63.89 33.31 63.68 33.68C63.49 33.97 63.21 34.06 62.93 33.97C62.54 33.85 59.35 32.93 58.95 32.82C58.86 32.82 58.86 32.82 58.77 32.72C58.49 32.53 58.4 32.05 58.58 31.77C58.99 31.02 60.41 28.41 60.62 28.04ZM74.89 13.5C74.89 13.5 74.79 13.4 74.79 13.4C74.7 13.3 74.52 13.21 74.42 13.11C74.24 13.02 74.05 12.92 73.77 12.83C73.69 12.8 73.26 12.67 72.48 12.44C75.42 7.16 77.06 4.23 77.39 3.64C77.76 2.97 78.59 2.78 79.24 3.16C79.24 3.16 79.24 3.16 79.24 3.16C79.89 3.55 80.07 4.31 79.7 4.98C78.74 6.68 75.37 12.64 74.89 13.5ZM76.83 -3.34C76.83 -3.34 76.83 -3.34 76.83 -3.34C77.48 -2.96 77.67 -2.1 77.29 -1.43C76.57 -0.14 70.79 10.2 70.07 11.49C69.98 11.58 69.98 11.68 69.88 11.77C69.87 11.77 69.8 11.77 69.79 11.77C69.33 11.68 68.86 11.58 68.4 11.68C68.22 11.2 68.03 10.82 67.66 10.53C67.65 10.52 67.58 10.44 67.57 10.43C67.57 10.34 67.66 10.24 67.66 10.15C68.15 9.28 70.59 4.94 74.98 -2.86C75.78 -3.44 76.4 -3.6 76.83 -3.34ZM59.23 15.89C59.32 15.89 59.32 15.98 59.32 15.98C59.62 16.28 61.99 18.65 62.29 18.95C62.47 19.14 62.56 19.52 62.38 19.81C62.18 20.18 60.54 23.17 60.34 23.54C60.16 23.92 59.69 24.02 59.41 23.83C59.32 23.83 59.32 23.73 59.32 23.73C59.03 23.44 56.65 21.06 56.36 20.77C56.17 20.57 56.08 20.19 56.26 19.91C56.4 19.66 57.08 18.41 58.3 16.17C58.73 15.86 59.04 15.76 59.23 15.89ZM55.34 22.87C55.43 22.87 55.43 22.97 55.43 22.97C55.73 23.26 58.1 25.64 58.4 25.93C58.58 26.12 58.67 26.51 58.49 26.79C58.28 27.17 56.65 30.15 56.45 30.52C56.26 30.91 55.8 31 55.52 30.81C55.43 30.81 55.43 30.72 55.43 30.72C55.13 30.42 52.76 28.05 52.47 27.75C52.28 27.56 52.19 27.18 52.37 26.89C52.51 26.64 53.19 25.4 54.41 23.16C54.84 22.84 55.15 22.74 55.34 22.87Z" id="am8kV8uj2"></path><path d="M64.23 6.99C64.42 7.09 64.6 7.28 64.79 7.37C64.85 7.44 65.16 7.76 65.71 8.33C68.66 3.05 70.3 0.12 70.62 -0.47C70.99 -1.14 70.81 -2 70.16 -2.38C70.16 -2.38 70.16 -2.38 70.16 -2.38C69.51 -2.77 68.68 -2.58 68.31 -1.91C67.84 -1.05 64.06 5.76 63.58 6.61C63.58 6.7 63.68 6.8 63.77 6.8C63.95 6.89 64.05 6.89 64.23 6.99Z" id="c7kgJLdEB"></path><path d="M79.24 3.16C78.59 2.78 77.76 2.97 77.39 3.64C77.06 4.23 75.42 7.16 72.48 12.44C73.26 12.67 73.69 12.8 73.77 12.83C73.96 12.92 74.24 13.02 74.42 13.11C74.61 13.21 74.7 13.3 74.79 13.4C74.79 13.4 74.89 13.5 74.89 13.5C75.37 12.64 79.22 5.83 79.7 4.98C80.07 4.31 79.89 3.55 79.24 3.16C79.24 3.16 79.24 3.16 79.24 3.16Z" id="eHrrVMG76"></path><path d="M67.66 10.34C68.03 10.72 68.31 11.1 68.4 11.58C68.86 11.49 69.33 11.49 69.79 11.68C69.8 11.68 69.87 11.68 69.88 11.68C69.98 11.58 69.98 11.49 70.07 11.39C70.79 10.1 76.57 -0.23 77.29 -1.52C77.67 -2.19 77.48 -3.05 76.83 -3.44C76.83 -3.44 76.83 -3.44 76.83 -3.44C76.18 -3.82 75.35 -3.63 74.98 -2.96C74.26 -1.67 68.47 8.66 67.75 9.96C67.75 10.15 67.66 10.24 67.66 10.34C67.66 10.34 67.66 10.34 67.66 10.34Z" id="i1DWm3c2c"></path><path d="M58.95 32.82C59.35 32.93 62.54 33.85 62.93 33.97C63.21 34.06 63.58 33.97 63.68 33.68C63.88 33.31 65.51 30.32 65.71 29.95C65.9 29.57 65.81 29.18 65.44 28.99C65.34 28.99 65.34 28.9 65.25 28.9C64.85 28.78 61.67 27.86 61.27 27.75C60.99 27.65 60.62 27.75 60.53 28.04C60.32 28.41 58.69 31.39 58.49 31.77C58.4 32.05 58.49 32.53 58.77 32.72C58.86 32.72 58.86 32.82 58.95 32.82Z" id="a106yunZXk"></path><path d="M55.43 30.62C55.43 30.62 55.52 30.72 55.52 30.72C55.8 30.91 56.26 30.81 56.45 30.43C56.65 30.06 58.28 27.07 58.49 26.7C58.67 26.41 58.58 26.03 58.4 25.84C58.1 25.54 55.73 23.17 55.43 22.87C55.43 22.87 55.34 22.78 55.34 22.78C55.06 22.58 54.6 22.68 54.41 23.06C54.21 23.44 52.58 26.42 52.37 26.79C52.19 27.08 52.19 27.46 52.47 27.65C53.06 28.25 55.13 30.32 55.43 30.62Z" id="bucNQF5SG"></path><path d="M69.61 22.97C69.79 22.58 69.7 22.2 69.33 22.01C69.23 22.01 69.23 21.91 69.14 21.91C68.74 21.8 65.56 20.88 65.16 20.77C64.88 20.67 64.51 20.77 64.42 21.05C64.21 21.43 62.58 24.41 62.38 24.78C62.19 25.17 62.29 25.55 62.66 25.74C62.75 25.74 62.75 25.84 62.84 25.84C63.24 25.95 66.43 26.87 66.83 26.98C67.1 27.08 67.47 26.98 67.57 26.7C67.97 25.95 69.4 23.34 69.61 22.97Z" id="b4aBVH8X0"></path><path d="M59.32 23.73C59.32 23.73 59.41 23.83 59.41 23.83C59.69 24.02 60.16 23.92 60.34 23.54C60.54 23.17 62.18 20.18 62.38 19.81C62.56 19.52 62.47 19.14 62.29 18.95C61.99 18.65 59.62 16.28 59.32 15.98C59.32 15.98 59.23 15.89 59.23 15.89C58.95 15.7 58.49 15.79 58.3 16.17C58.1 16.55 56.47 19.53 56.26 19.91C56.08 20.19 56.08 20.48 56.36 20.77C56.95 21.36 59.03 23.44 59.32 23.73Z" id="b3cAOXxTc"></path><path d="M69.23 13.78C68.96 13.69 68.59 13.78 68.49 14.07C68.29 14.44 66.66 17.43 66.46 17.8C66.27 18.18 66.36 18.57 66.73 18.76C66.83 18.76 66.83 18.85 66.92 18.85C67.32 18.97 70.5 19.89 70.9 20C71.18 20.1 71.55 20 71.64 19.71C71.85 19.34 73.48 16.36 73.68 15.98C73.87 15.6 73.77 15.22 73.4 15.03C73.31 15.03 73.22 15.03 73.22 14.93C72.42 14.7 69.63 13.9 69.23 13.78Z" id="a8BgrpAix"></path><path d="M60.25 13.78C60.54 14.08 62.92 16.45 63.21 16.75C63.21 16.75 63.31 16.84 63.31 16.84C63.58 17.04 64.05 16.94 64.23 16.56C64.44 16.18 66.07 13.2 66.27 12.83C66.46 12.54 66.36 12.16 66.18 11.97C65.88 11.67 63.51 9.3 63.21 9C63.21 9 63.12 8.9 63.12 8.9C62.84 8.71 62.38 8.81 62.19 9.19C62.06 9.44 61.38 10.68 60.16 12.92C60.09 13.37 60.12 13.66 60.25 13.78Z" id="alqpiR46"></path><path d="M45.24 52.05C45.89 52.43 46.72 52.05 47.19 51.28C48.15 49.67 55.86 36.73 56.82 35.12C57.28 34.35 57.1 33.39 56.45 33.01C56.45 33.01 56.45 33.01 56.45 33.01C55.8 32.63 54.97 33.01 54.5 33.78C53.54 35.39 45.83 48.33 44.87 49.94C44.5 50.71 44.68 51.67 45.24 52.05C45.24 52.05 45.24 52.05 45.24 52.05Z" id="d3F7Jsy"></path><path d="M38.29 92.61C34.22 87.92 30.6 82.66 28.19 77.49C27.82 81.51 27.17 86.01 26.43 90.12C26.34 90.51 26.25 90.89 26.25 91.27C26.16 91.46 26.16 91.75 25.97 91.94C25.96 91.95 25.89 92.03 25.88 92.04C25.78 92.23 25.69 92.32 25.51 92.51C24.86 93.12 19.67 97.94 19.02 98.54C20.23 101.12 21.89 103.71 24.02 106.1C26.06 108.39 28.19 110.31 30.51 111.84C31.18 111.23 36.51 106.33 37.18 105.72C37.55 105.33 37.92 105.14 38.48 105.14C42.74 104.66 47.56 104.57 51.82 104.66C47.37 101.79 42.65 97.58 38.29 92.61Z" id="b3WHnmES"></path><path d="M35.6 131.74C37.37 130.88 39.59 129.54 40.79 128.39C39.68 127.72 37.83 126.95 36.35 126.28C33.2 124.85 29.68 123.32 26.99 121.4C26.83 121.56 26.03 122.32 24.58 123.7C31.2 128.52 34.87 131.2 35.6 131.74Z" id="bQ6z4vKr8"></path><path d="M16.98 99.31C16.04 100.19 8.48 107.23 7.53 108.11C5.68 109.83 4.57 112.32 4.38 114.9C4.29 117.48 5.13 120.07 6.79 121.98C8.55 124.08 11.15 125.23 13.93 125.23C13.93 125.23 13.93 125.23 13.93 125.23C16.24 125.23 18.56 124.37 20.32 122.74C21.26 121.86 28.82 114.82 29.77 113.94C27.08 112.32 24.58 110.12 22.36 107.53C20.13 104.95 18.28 102.18 16.98 99.31Z" id="k2XYKHpbNB"></path><path d="M30.14 62.38C27.64 64.68 29.31 72.23 34.68 80.84C35.67 80.46 43.6 77.4 44.59 77.02C44.59 77.02 44.59 77.02 44.59 77.02C45.05 76.63 45.7 76.35 46.35 76.35C48.02 76.35 50.06 77.59 51.82 79.6C52.93 80.84 53.76 82.28 54.13 83.62C54.69 85.44 54.23 86.58 53.76 87.06C53.26 88.08 49.26 96.27 48.76 97.3C54.41 102.08 60.06 105.05 63.86 105.05C64.97 105.05 65.9 104.76 66.46 104.19C69.79 101.12 65.71 88.69 55.34 76.73C47.65 67.74 38.29 61.52 32.73 61.52C31.62 61.52 30.69 61.81 30.14 62.38Z" id="f3g17RnRb6"></path><path d="M41.35 89.74C43.2 91.84 45.15 93.85 47.19 95.67C47.57 94.88 50.69 88.52 51.08 87.73C49.59 87.35 47.93 86.3 46.44 84.57C44.96 82.85 44.13 81.13 43.94 79.6C43.41 79.81 40.76 80.86 35.98 82.76C38.2 85.88 39.99 88.21 41.35 89.74Z" id="mqrwaquhG"></path><path d="M32.73 57.31C30.6 57.31 28.75 57.98 27.45 59.22C25.6 60.95 24.86 63.43 24.95 66.3C24.77 70.42 24.12 80.84 22.45 89.26C22.45 89.45 22.36 89.55 22.36 89.74C20.54 91.41 6.01 104.81 4.2 106.48C-0.99 111.26 -1.45 119.59 3.27 124.94C5.5 127.53 8.65 129.06 11.98 129.25C12.26 129.25 12.44 129.25 12.72 129.25C15.78 129.25 18.65 128.1 20.97 126.09C22.29 127.06 32.89 134.79 34.22 135.75C34.59 136.04 34.96 136.14 35.42 136.14C35.7 136.14 35.98 136.04 36.25 135.95C37.37 135.47 43.2 132.69 45.05 129.54C45.43 128.87 45.52 128.01 45.33 127.24C44.78 125.33 42.55 124.27 37.92 122.27C35.23 121.12 31.99 119.59 29.68 118.06C30.65 117.16 38.43 109.96 39.4 109.06C49.69 108.3 63.12 109.16 63.21 109.16C63.4 109.16 63.58 109.16 63.77 109.06C63.86 109.06 63.86 109.06 63.95 109.06C66.08 109.06 67.94 108.39 69.23 107.15C75.81 101.22 68.59 85.63 58.4 73.96C49.59 63.81 39.59 57.31 32.73 57.31ZM35.6 131.64C34.87 131.11 31.2 128.43 24.58 123.6C26.03 122.17 26.83 121.37 26.99 121.21C29.68 123.13 33.2 124.75 36.35 126.09C37.83 126.86 39.68 127.72 40.79 128.29C39.59 129.44 37.46 130.68 35.6 131.64ZM13.83 125.23C13.83 125.23 13.83 125.23 13.83 125.23C11.15 125.23 8.55 124.08 6.7 121.98C5.03 120.07 4.11 117.48 4.29 114.9C4.38 112.32 5.59 109.83 7.44 108.11C8.39 107.23 15.95 100.19 16.89 99.31C18.19 102.08 20.04 104.95 22.26 107.53C24.49 110.12 26.99 112.32 29.58 113.94C28.96 114.53 25.84 117.46 20.23 122.74C17.57 124.4 15.44 125.23 13.83 125.23ZM37.09 105.62C36.42 106.23 31.08 111.13 30.42 111.74C28.19 110.21 25.97 108.3 23.93 106C21.89 103.61 20.13 101.03 18.93 98.45C19.58 97.84 24.77 93.02 25.41 92.42C25.6 92.32 25.69 92.13 25.78 91.94C25.79 91.93 25.87 91.85 25.88 91.84C25.97 91.65 26.06 91.46 26.16 91.17C26.25 90.79 26.34 90.41 26.34 90.03C27.17 85.91 27.73 81.42 28.1 77.4C30.51 82.47 34.12 87.83 38.2 92.51C42.55 97.58 47.28 101.7 51.72 104.57C47.56 104.57 42.74 104.66 38.38 105.05C37.92 105.05 37.46 105.33 37.09 105.62ZM46.35 84.67C47.83 86.3 49.5 87.44 50.98 87.83C50.59 88.62 47.48 94.97 47.09 95.77C45.15 93.95 43.2 92.04 41.26 89.84C39.22 87.54 37.46 85.15 35.88 82.85C36.41 82.64 39.07 81.59 43.85 79.7C44.59 81.86 45.43 83.52 46.35 84.67ZM50.24 81.03C51.17 82.09 51.82 83.23 52.1 84.19C52.37 85.05 52.28 85.44 52.19 85.53C52.19 85.53 52.1 85.63 51.91 85.63C51.08 85.63 49.5 84.77 48.11 83.14C46.17 80.84 45.89 78.93 46.17 78.64C46.17 78.64 46.26 78.55 46.44 78.55C47.28 78.55 48.85 79.41 50.24 81.03ZM63.95 105.05C60.16 105.05 54.5 102.08 48.85 97.3C49.35 96.27 53.36 88.08 53.86 87.06C54.32 86.49 54.78 85.44 54.23 83.62C53.86 82.28 53.02 80.84 51.91 79.6C50.15 77.59 48.02 76.35 46.44 76.35C45.8 76.35 45.15 76.54 44.68 77.02C44.68 77.02 44.68 77.02 44.68 77.02C43.69 77.4 35.76 80.46 34.77 80.84C29.4 72.14 27.73 64.68 30.23 62.38C30.79 61.81 31.71 61.52 32.83 61.52C38.38 61.52 47.65 67.74 55.43 76.73C65.81 88.69 69.88 101.12 66.55 104.19C65.99 104.76 65.07 105.05 63.95 105.05Z" id="dCXRrhfbV"></path><path d="M51.82 85.63C52 85.63 52.1 85.63 52.1 85.53C52.19 85.44 52.28 85.05 52 84.19C51.72 83.23 51.08 82.09 50.15 81.03C48.76 79.41 47.19 78.55 46.35 78.55C46.17 78.55 46.07 78.55 46.07 78.64C45.89 78.93 46.07 80.84 48.02 83.14C49.41 84.77 50.98 85.63 51.82 85.63Z" id="d9D6RTh4S"></path></defs><g><g><g><use xlink:href="#c5HQTejM2" opacity="1" fill="#b12028" fill-opacity="1"></use><g><use xlink:href="#c5HQTejM2" opacity="1" fill-opacity="0" stroke="#000000" stroke-width="1" stroke-opacity="0"></use></g></g><g><use xlink:href="#c1UIkCYb6B" opacity="1" fill="#b12028" fill-opacity="1"></use><g><use xlink:href="#c1UIkCYb6B" opacity="1" fill-opacity="0" stroke="#000000" stroke-width="1" stroke-opacity="0"></use></g></g><g><use xlink:href="#b1uYuh0Tmw" opacity="1" fill="#b12028" fill-opacity="1"></use><g><use xlink:href="#b1uYuh0Tmw" opacity="1" fill-opacity="0" stroke="#000000" stroke-width="1" stroke-opacity="0"></use></g></g><g><use xlink:href="#gaJLvwQNu" opacity="1" fill="#b12028" fill-opacity="1"></use><g><use xlink:href="#gaJLvwQNu" opacity="1" fill-opacity="0" stroke="#000000" stroke-width="1" stroke-opacity="0"></use></g></g><g><use xlink:href="#g2W1IXehSc" opacity="1" fill="#b12028" fill-opacity="1"></use><g><use xlink:href="#g2W1IXehSc" opacity="1" fill-opacity="0" stroke="#000000" stroke-width="1" stroke-opacity="0"></use></g></g><g><use xlink:href="#anpKUPusp" opacity="1" fill="#b12028" fill-opacity="1"></use><g><use xlink:href="#anpKUPusp" opacity="1" fill-opacity="0" stroke="#000000" stroke-width="1" stroke-opacity="0"></use></g></g><g><use xlink:href="#eX3y47StT" opacity="1" fill="#b12028" fill-opacity="1"></use><g><use xlink:href="#eX3y47StT" opacity="1" fill-opacity="0" stroke="#000000" stroke-width="1" stroke-opacity="0"></use></g></g><g><use xlink:href="#e13hNOXbx7" opacity="1" fill="#b12028" fill-opacity="1"></use><g><use xlink:href="#e13hNOXbx7" opacity="1" fill-opacity="0" stroke="#000000" stroke-width="1" stroke-opacity="0"></use></g></g><g><use xlink:href="#aTYQitRPL" opacity="1" fill="#b12028" fill-opacity="1"></use><g><use xlink:href="#aTYQitRPL" opacity="1" fill-opacity="0" stroke="#000000" stroke-width="1" stroke-opacity="0"></use></g></g><g><use xlink:href="#c6AFIoxnHx" opacity="1" fill="#101820" fill-opacity="1"></use><g><use xlink:href="#c6AFIoxnHx" opacity="1" fill-opacity="0" stroke="#000000" stroke-width="1" stroke-opacity="0"></use></g></g><g><use xlink:href="#f4YUAkE1G0" opacity="1" fill="#101820" fill-opacity="1"></use><g><use xlink:href="#f4YUAkE1G0" opacity="1" fill-opacity="0" stroke="#000000" stroke-width="1" stroke-opacity="0"></use></g></g><g><use xlink:href="#byjEIqw0F" opacity="1" fill="#101820" fill-opacity="1"></use><g><use xlink:href="#byjEIqw0F" opacity="1" fill-opacity="0" stroke="#000000" stroke-width="1" stroke-opacity="0"></use></g></g><g><use xlink:href="#c7vMSKg4Tw" opacity="1" fill="#101820" fill-opacity="1"></use><g><use xlink:href="#c7vMSKg4Tw" opacity="1" fill-opacity="0" stroke="#000000" stroke-width="1" stroke-opacity="0"></use></g></g><g><use xlink:href="#jhYYF5s4w" opacity="1" fill="#101820" fill-opacity="1"></use><g><use xlink:href="#jhYYF5s4w" opacity="1" fill-opacity="0" stroke="#000000" stroke-width="1" stroke-opacity="0"></use></g></g><g><use xlink:href="#e11n6eF0Q" opacity="1" fill="#101820" fill-opacity="1"></use><g><use xlink:href="#e11n6eF0Q" opacity="1" fill-opacity="0" stroke="#000000" stroke-width="1" stroke-opacity="0"></use></g></g><g><use xlink:href="#fbVvx3WgR" opacity="1" fill="#101820" fill-opacity="1"></use><g><use xlink:href="#fbVvx3WgR" opacity="1" fill-opacity="0" stroke="#000000" stroke-width="1" stroke-opacity="0"></use></g></g><g><use xlink:href="#i2Y36EP884" opacity="1" fill="#101820" fill-opacity="1"></use><g><use xlink:href="#i2Y36EP884" opacity="1" fill-opacity="0" stroke="#000000" stroke-width="1" stroke-opacity="0"></use></g></g><g><use xlink:href="#b3Ii0MVey" opacity="1" fill="#101820" fill-opacity="1"></use><g><use xlink:href="#b3Ii0MVey" opacity="1" fill-opacity="0" stroke="#000000" stroke-width="1" stroke-opacity="0"></use></g></g><g><use xlink:href="#b4k3Gg5meO" opacity="1" fill="#101820" fill-opacity="1"></use><g><use xlink:href="#b4k3Gg5meO" opacity="1" fill-opacity="0" stroke="#000000" stroke-width="1" stroke-opacity="0"></use></g></g><g><use xlink:href="#d7oqCJPd75" opacity="1" fill="#101820" fill-opacity="1"></use><g><use xlink:href="#d7oqCJPd75" opacity="1" fill-opacity="0" stroke="#000000" stroke-width="1" stroke-opacity="0"></use></g></g><g><use xlink:href="#dEL4k3x0S" opacity="1" fill="#101820" fill-opacity="1"></use><g><use xlink:href="#dEL4k3x0S" opacity="1" fill-opacity="0" stroke="#000000" stroke-width="1" stroke-opacity="0"></use></g></g><g><use xlink:href="#appzDMOgi" opacity="1" fill="#101820" fill-opacity="1"></use><g><use xlink:href="#appzDMOgi" opacity="1" fill-opacity="0" stroke="#000000" stroke-width="1" stroke-opacity="0"></use></g></g><g><use xlink:href="#b5TtQkOX76" opacity="1" fill="#101820" fill-opacity="1"></use><g><use xlink:href="#b5TtQkOX76" opacity="1" fill-opacity="0" stroke="#000000" stroke-width="1" stroke-opacity="0"></use></g></g><g><use xlink:href="#f1doIJtYsB" opacity="1" fill="#101820" fill-opacity="1"></use><g><use xlink:href="#f1doIJtYsB" opacity="1" fill-opacity="0" stroke="#000000" stroke-width="1" stroke-opacity="0"></use></g></g><g><use xlink:href="#c1FdqFsrhd" opacity="1" fill="#101820" fill-opacity="1"></use><g><use xlink:href="#c1FdqFsrhd" opacity="1" fill-opacity="0" stroke="#000000" stroke-width="1" stroke-opacity="0"></use></g></g><g><use xlink:href="#a28vbByG2Z" opacity="1" fill="#101820" fill-opacity="1"></use><g><use xlink:href="#a28vbByG2Z" opacity="1" fill-opacity="0" stroke="#000000" stroke-width="1" stroke-opacity="0"></use></g></g><g><use xlink:href="#h2Ozv3Fhe" opacity="1" fill="#101820" fill-opacity="1"></use><g><use xlink:href="#h2Ozv3Fhe" opacity="1" fill-opacity="0" stroke="#000000" stroke-width="1" stroke-opacity="0"></use></g></g><g><use xlink:href="#cp8DdVvgP" opacity="1" fill="#101820" fill-opacity="1"></use><g><use xlink:href="#cp8DdVvgP" opacity="1" fill-opacity="0" stroke="#000000" stroke-width="1" stroke-opacity="0"></use></g></g><g><use xlink:href="#d2GUqkxmew" opacity="1" fill="#101820" fill-opacity="1"></use><g><use xlink:href="#d2GUqkxmew" opacity="1" fill-opacity="0" stroke="#000000" stroke-width="1" stroke-opacity="0"></use></g></g><g><use xlink:href="#couWZqdJz" opacity="1" fill="#101820" fill-opacity="1"></use><g><use xlink:href="#couWZqdJz" opacity="1" fill-opacity="0" stroke="#000000" stroke-width="1" stroke-opacity="0"></use></g></g><g><use xlink:href="#a4CqhwPb" opacity="1" fill="#101820" fill-opacity="1"></use><g><use xlink:href="#a4CqhwPb" opacity="1" fill-opacity="0" stroke="#000000" stroke-width="1" stroke-opacity="0"></use></g></g><g><use xlink:href="#b2gcST834V" opacity="1" fill="#b12028" fill-opacity="1"></use><g><use xlink:href="#b2gcST834V" opacity="1" fill-opacity="0" stroke="#000000" stroke-width="1" stroke-opacity="0"></use></g></g><g><use xlink:href="#aHxq2LQVb" opacity="1" fill="#101820" fill-opacity="1"></use><g><use xlink:href="#aHxq2LQVb" opacity="1" fill-opacity="0" stroke="#000000" stroke-width="1" stroke-opacity="0"></use></g></g><g><use xlink:href="#a6g4kKHFF" opacity="1" fill="#ffffff" fill-opacity="1"></use><g><use xlink:href="#a6g4kKHFF" opacity="1" fill-opacity="0" stroke="#000000" stroke-width="1" stroke-opacity="0"></use></g></g><g><use xlink:href="#f1gwvWszA1" opacity="1" fill="#ffffff" fill-opacity="1"></use><g><use xlink:href="#f1gwvWszA1" opacity="1" fill-opacity="0" stroke="#000000" stroke-width="1" stroke-opacity="0"></use></g></g><g><use xlink:href="#i6YaasQ6ch" opacity="1" fill="#ffffff" fill-opacity="1"></use><g><use xlink:href="#i6YaasQ6ch" opacity="1" fill-opacity="0" stroke="#000000" stroke-width="1" stroke-opacity="0"></use></g></g><g><use xlink:href="#b6SFzL1l4" opacity="1" fill="#ffffff" fill-opacity="1"></use><g><use xlink:href="#b6SFzL1l4" opacity="1" fill-opacity="0" stroke="#000000" stroke-width="1" stroke-opacity="0"></use></g></g><g><use xlink:href="#agXU2zIwH" opacity="1" fill="#ffffff" fill-opacity="1"></use><g><use xlink:href="#agXU2zIwH" opacity="1" fill-opacity="0" stroke="#000000" stroke-width="1" stroke-opacity="0"></use></g></g><g><use xlink:href="#c3dSTBtRp9" opacity="1" fill="#ffffff" fill-opacity="1"></use><g><use xlink:href="#c3dSTBtRp9" opacity="1" fill-opacity="0" stroke="#000000" stroke-width="1" stroke-opacity="0"></use></g></g><g><use xlink:href="#mXKSKBLaB" opacity="1" fill="#ffffff" fill-opacity="1"></use><g><use xlink:href="#mXKSKBLaB" opacity="1" fill-opacity="0" stroke="#000000" stroke-width="1" stroke-opacity="0"></use></g></g><g><use xlink:href="#a5aSRT2IAB" opacity="1" fill="#ffffff" fill-opacity="1"></use><g><use xlink:href="#a5aSRT2IAB" opacity="1" fill-opacity="0" stroke="#000000" stroke-width="1" stroke-opacity="0"></use></g></g><g><use xlink:href="#cmO0q6aBh" opacity="1" fill="#ffffff" fill-opacity="1"></use><g><use xlink:href="#cmO0q6aBh" opacity="1" fill-opacity="0" stroke="#000000" stroke-width="1" stroke-opacity="0"></use></g></g><g><use xlink:href="#d3vDwCbYpk" opacity="1" fill="#ffffff" fill-opacity="1"></use><g><use xlink:href="#d3vDwCbYpk" opacity="1" fill-opacity="0" stroke="#000000" stroke-width="1" stroke-opacity="0"></use></g></g><g><use xlink:href="#a1plSC9uhk" opacity="1" fill="#101820" fill-opacity="1"></use><g><use xlink:href="#a1plSC9uhk" opacity="1" fill-opacity="0" stroke="#000000" stroke-width="1" stroke-opacity="0"></use></g></g><g><use xlink:href="#g7HMKxjxGh" opacity="1" fill="#ffffff" fill-opacity="1"></use><g><use xlink:href="#g7HMKxjxGh" opacity="1" fill-opacity="0" stroke="#000000" stroke-width="1" stroke-opacity="0"></use></g></g><g><use xlink:href="#a1hkMvUsPv" opacity="1" fill="#ffffff" fill-opacity="1"></use><g><use xlink:href="#a1hkMvUsPv" opacity="1" fill-opacity="0" stroke="#000000" stroke-width="1" stroke-opacity="0"></use></g></g><g><use xlink:href="#h1ItXqb2qF" opacity="1" fill="#ffffff" fill-opacity="1"></use><g><use xlink:href="#h1ItXqb2qF" opacity="1" fill-opacity="0" stroke="#000000" stroke-width="1" stroke-opacity="0"></use></g></g><g><use xlink:href="#b1bw4r65N5" opacity="1" fill="#ffffff" fill-opacity="1"></use><g><use xlink:href="#b1bw4r65N5" opacity="1" fill-opacity="0" stroke="#000000" stroke-width="1" stroke-opacity="0"></use></g></g><g><use xlink:href="#akBajXqlD" opacity="1" fill="#ffffff" fill-opacity="1"></use><g><use xlink:href="#akBajXqlD" opacity="1" fill-opacity="0" stroke="#000000" stroke-width="1" stroke-opacity="0"></use></g></g><g><use xlink:href="#a3BbnrmEN8" opacity="1" fill="#ffffff" fill-opacity="1"></use><g><use xlink:href="#a3BbnrmEN8" opacity="1" fill-opacity="0" stroke="#000000" stroke-width="1" stroke-opacity="0"></use></g></g><g><use xlink:href="#c2HlT6rtc" opacity="1" fill="#ffffff" fill-opacity="1"></use><g><use xlink:href="#c2HlT6rtc" opacity="1" fill-opacity="0" stroke="#000000" stroke-width="1" stroke-opacity="0"></use></g></g><g><use xlink:href="#e65HclgWpq" opacity="1" fill="#ffffff" fill-opacity="1"></use><g><use xlink:href="#e65HclgWpq" opacity="1" fill-opacity="0" stroke="#000000" stroke-width="1" stroke-opacity="0"></use></g></g><g><use xlink:href="#arFXkRnMP" opacity="1" fill="#ffffff" fill-opacity="1"></use><g><use xlink:href="#arFXkRnMP" opacity="1" fill-opacity="0" stroke="#000000" stroke-width="1" stroke-opacity="0"></use></g></g><g><use xlink:href="#aQZktK5Az" opacity="1" fill="#ffffff" fill-opacity="1"></use><g><use xlink:href="#aQZktK5Az" opacity="1" fill-opacity="0" stroke="#000000" stroke-width="1" stroke-opacity="0"></use></g></g><g><use xlink:href="#am8kV8uj2" opacity="1" fill="#101820" fill-opacity="1"></use><g><use xlink:href="#am8kV8uj2" opacity="1" fill-opacity="0" stroke="#000000" stroke-width="1" stroke-opacity="0"></use></g></g><g><use xlink:href="#c7kgJLdEB" opacity="1" fill="#ffffff" fill-opacity="1"></use><g><use xlink:href="#c7kgJLdEB" opacity="1" fill-opacity="0" stroke="#000000" stroke-width="1" stroke-opacity="0"></use></g></g><g><use xlink:href="#eHrrVMG76" opacity="1" fill="#ffffff" fill-opacity="1"></use><g><use xlink:href="#eHrrVMG76" opacity="1" fill-opacity="0" stroke="#000000" stroke-width="1" stroke-opacity="0"></use></g></g><g><use xlink:href="#i1DWm3c2c" opacity="1" fill="#ffffff" fill-opacity="1"></use><g><use xlink:href="#i1DWm3c2c" opacity="1" fill-opacity="0" stroke="#000000" stroke-width="1" stroke-opacity="0"></use></g></g><g><use xlink:href="#a106yunZXk" opacity="1" fill="#ffffff" fill-opacity="1"></use><g><use xlink:href="#a106yunZXk" opacity="1" fill-opacity="0" stroke="#000000" stroke-width="1" stroke-opacity="0"></use></g></g><g><use xlink:href="#bucNQF5SG" opacity="1" fill="#ffffff" fill-opacity="1"></use><g><use xlink:href="#bucNQF5SG" opacity="1" fill-opacity="0" stroke="#000000" stroke-width="1" stroke-opacity="0"></use></g></g><g><use xlink:href="#b4aBVH8X0" opacity="1" fill="#ffffff" fill-opacity="1"></use><g><use xlink:href="#b4aBVH8X0" opacity="1" fill-opacity="0" stroke="#000000" stroke-width="1" stroke-opacity="0"></use></g></g><g><use xlink:href="#b3cAOXxTc" opacity="1" fill="#ffffff" fill-opacity="1"></use><g><use xlink:href="#b3cAOXxTc" opacity="1" fill-opacity="0" stroke="#000000" stroke-width="1" stroke-opacity="0"></use></g></g><g><use xlink:href="#a8BgrpAix" opacity="1" fill="#ffffff" fill-opacity="1"></use><g><use xlink:href="#a8BgrpAix" opacity="1" fill-opacity="0" stroke="#000000" stroke-width="1" stroke-opacity="0"></use></g></g><g><use xlink:href="#alqpiR46" opacity="1" fill="#ffffff" fill-opacity="1"></use><g><use xlink:href="#alqpiR46" opacity="1" fill-opacity="0" stroke="#000000" stroke-width="1" stroke-opacity="0"></use></g></g><g><use xlink:href="#d3F7Jsy" opacity="1" fill="#ffffff" fill-opacity="1"></use><g><use xlink:href="#d3F7Jsy" opacity="1" fill-opacity="0" stroke="#000000" stroke-width="1" stroke-opacity="0"></use></g></g><g><use xlink:href="#b3WHnmES" opacity="1" fill="#ffffff" fill-opacity="1"></use><g><use xlink:href="#b3WHnmES" opacity="1" fill-opacity="0" stroke="#000000" stroke-width="1" stroke-opacity="0"></use></g></g><g><use xlink:href="#bQ6z4vKr8" opacity="1" fill="#ffffff" fill-opacity="1"></use><g><use xlink:href="#bQ6z4vKr8" opacity="1" fill-opacity="0" stroke="#000000" stroke-width="1" stroke-opacity="0"></use></g></g><g><use xlink:href="#k2XYKHpbNB" opacity="1" fill="#b12028" fill-opacity="1"></use><g><use xlink:href="#k2XYKHpbNB" opacity="1" fill-opacity="0" stroke="#000000" stroke-width="1" stroke-opacity="0"></use></g></g><g><use xlink:href="#f3g17RnRb6" opacity="1" fill="#ffffff" fill-opacity="1"></use><g><use xlink:href="#f3g17RnRb6" opacity="1" fill-opacity="0" stroke="#000000" stroke-width="1" stroke-opacity="0"></use></g></g><g><use xlink:href="#mqrwaquhG" opacity="1" fill="#ffffff" fill-opacity="1"></use><g><use xlink:href="#mqrwaquhG" opacity="1" fill-opacity="0" stroke="#000000" stroke-width="1" stroke-opacity="0"></use></g></g><g><use xlink:href="#dCXRrhfbV" opacity="1" fill="#101820" fill-opacity="1"></use><g><use xlink:href="#dCXRrhfbV" opacity="1" fill-opacity="0" stroke="#000000" stroke-width="1" stroke-opacity="0"></use></g></g><g><use xlink:href="#d9D6RTh4S" opacity="1" fill="#b12028" fill-opacity="1"></use><g><use xlink:href="#d9D6RTh4S" opacity="1" fill-opacity="0" stroke="#000000" stroke-width="1" stroke-opacity="0"></use></g></g></g></g></svg>