<?xml version="1.0" encoding="UTF-8" standalone="no"?>
<!DOCTYPE svg PUBLIC "-//W3C//DTD SVG 1.1//EN" "http://www.w3.org/Graphics/SVG/1.1/DTD/svg11.dtd">
<svg version="1.1" xmlns="http://www.w3.org/2000/svg" xmlns:xlink="http://www.w3.org/1999/xlink" preserveAspectRatio="xMidYMid meet" viewBox="0 0 620 150.02" width="620" height="150.02"><defs><path d="M105.74 96.29C107.26 92.99 107.35 89.42 106.01 86.11C103.6 79.95 96.81 75.22 87.52 73.08C86.01 72.73 73.94 69.94 72.43 69.59C66 68.08 62.79 65.13 61.8 62.9C61.27 61.47 61.45 60.13 62.34 58.7C65.47 54.06 75.91 50.66 86.45 53.07C90.92 54.15 96.18 56.74 96.18 60.93C96.18 62.9 97.79 64.5 99.76 64.5C101.72 64.5 103.33 62.9 103.33 60.93C103.33 52.63 95.47 47.9 88.06 46.2C75.56 43.34 61.63 47.09 56.45 54.86C54.21 58.25 53.77 62 55.2 65.58C57.25 70.76 62.97 74.77 70.82 76.65C72.33 77 84.41 79.78 85.92 80.13C92.7 81.74 97.88 85.04 99.4 88.88C100.2 90.85 99.93 92.81 98.6 94.69C94.13 101.38 80.2 104.69 68.23 101.92C68.22 101.92 68.07 101.92 68.06 101.92C61.27 100.31 56.09 97.01 54.57 93.17C53.77 91.2 54.04 89.24 55.38 87.28C56.45 85.67 56 83.44 54.39 82.36C52.79 81.29 50.55 81.74 49.48 83.35C47.87 85.76 47.07 88.44 47.07 91.03C46.03 89.99 40.82 84.81 31.44 75.49L23.41 75.49L79.13 130.85L134.67 75.49L126.63 75.31C114.1 87.9 107.13 94.9 105.74 96.29ZM64.31 107.99C65.02 108.17 65.73 108.35 66.45 108.53C66.47 108.53 66.61 108.53 66.63 108.53C70.11 109.33 73.59 109.69 77.07 109.69C84.31 109.69 91.27 107.99 96.72 105.05C95.55 106.22 89.68 112.12 79.13 122.73C70.23 113.89 65.29 108.97 64.31 107.99Z" id="a4t2huAlMK"></path><path d="M79.04 19.77L23.41 75.4L31.44 75.4C46.77 60.08 55.28 51.56 56.98 49.86C61.98 44.95 70.11 42 79.04 42C87.88 42 96.09 44.95 101.1 49.86C102.8 51.56 111.31 60.08 126.63 75.4L134.67 75.4L79.04 19.77ZM69.48 37.36C70.12 36.72 73.31 33.54 79.04 27.8C84.77 33.54 87.96 36.72 88.59 37.36C85.56 36.64 82.34 36.29 79.04 36.29C75.74 36.29 72.52 36.64 69.48 37.36Z" id="fkKy9ouCq"></path><path d="M79.04 8.78C76.72 8.78 74.75 6.91 74.75 4.5C74.75 2.09 76.63 0.21 79.04 0.21C81.45 0.21 83.33 2.18 83.33 4.5C83.33 6.82 81.45 8.78 79.04 8.78Z" id="cyOt5syo7"></path><path d="M74.75 145.94C74.75 143.62 76.63 141.66 79.04 141.66C81.36 141.66 83.33 143.53 83.33 145.94C83.33 148.35 81.45 150.23 79.04 150.23C76.72 150.23 74.75 148.35 74.75 145.94Z" id="b3mJjgnMrW"></path><path d="M12.6 75.31C12.6 77.63 10.73 79.6 8.32 79.6C5.99 79.6 4.03 77.72 4.03 75.31C4.03 72.9 5.99 71.02 8.32 71.02C10.64 71.02 12.6 72.9 12.6 75.31Z" id="b3HzL6GXAs"></path><path d="M149.85 79.51C147.53 79.51 145.57 77.63 145.57 75.22C145.57 72.9 147.44 70.93 149.85 70.93C152.17 71.02 154.14 72.9 154.14 75.22C154.14 77.54 152.26 79.51 149.85 79.51Z" id="cIjT3Gl2l"></path><path d="M52.85 24.37C52.85 24.37 52.85 24.37 52.85 24.37C55.88 27.4 57.57 29.08 57.9 29.42C57.9 29.42 57.9 29.42 57.9 29.42C57.07 30.26 56.61 30.72 56.52 30.81C56.52 30.81 56.52 30.81 56.52 30.81C53.48 27.78 51.8 26.1 51.46 25.76C51.46 25.76 51.46 25.76 51.46 25.76C52.3 24.93 52.76 24.46 52.85 24.37Z" id="e1j59MAzs"></path><path d="M29.72 47.49C29.72 47.49 29.72 47.49 29.72 47.49C32.75 50.52 34.44 52.2 34.77 52.54C34.77 52.54 34.77 52.54 34.77 52.54C33.94 53.37 33.48 53.84 33.39 53.93C33.39 53.93 33.39 53.93 33.39 53.93C30.35 50.9 28.67 49.22 28.33 48.88C28.33 48.88 28.33 48.88 28.33 48.88C29.17 48.05 29.63 47.58 29.72 47.49Z" id="a1owzzupMQ"></path><path d="M61.23 9.56C61.23 9.56 61.23 9.56 61.23 9.56C66.16 14.49 68.89 17.22 69.44 17.77C69.44 17.77 69.44 17.77 69.44 17.77C68.61 18.6 68.14 19.07 68.05 19.16C68.05 19.16 68.05 19.16 68.05 19.16C63.13 14.24 60.39 11.5 59.84 10.95C59.84 10.95 59.84 10.95 59.84 10.95C60.67 10.12 61.14 9.66 61.23 9.56Z" id="b1IlVEmXpX"></path><path d="M38.03 32.75C38.03 32.75 38.03 32.75 38.03 32.75C42.96 37.67 45.7 40.4 46.25 40.95C46.25 40.95 46.25 40.95 46.25 40.95C45.41 41.79 44.95 42.25 44.86 42.34C44.86 42.34 44.86 42.34 44.86 42.34C39.93 37.42 37.19 34.68 36.65 34.14C36.65 34.14 36.65 34.14 36.65 34.14C37.48 33.3 37.94 32.84 38.03 32.75Z" id="c94sTMpYbX"></path><path d="M14.9 55.88C14.9 55.88 14.9 55.88 14.9 55.88C19.83 60.8 22.56 63.54 23.11 64.08C23.11 64.08 23.11 64.08 23.11 64.08C22.28 64.92 21.82 65.38 21.72 65.47C21.72 65.47 21.72 65.47 21.72 65.47C16.8 60.55 14.06 57.81 13.51 57.27C13.51 57.27 13.51 57.27 13.51 57.27C14.35 56.43 14.81 55.97 14.9 55.88Z" id="aPe40OCcf"></path><path d="M101.64 119.66C101.64 119.66 101.64 119.66 101.64 119.66C104.67 122.69 106.35 124.37 106.69 124.71C106.69 124.71 106.69 124.71 106.69 124.71C105.86 125.54 105.39 126 105.3 126.1C105.3 126.1 105.3 126.1 105.3 126.1C102.27 123.07 100.58 121.38 100.25 121.05C100.25 121.05 100.25 121.05 100.25 121.05C101.08 120.21 101.54 119.75 101.64 119.66Z" id="eWvNjNVQ2"></path><path d="M124.77 96.52C124.77 96.52 124.77 96.52 124.77 96.52C127.8 99.55 129.49 101.23 129.83 101.57C129.83 101.57 129.83 101.57 129.83 101.57C128.99 102.4 128.53 102.87 128.44 102.96C128.44 102.96 128.44 102.96 128.44 102.96C125.4 99.93 123.72 98.25 123.38 97.91C123.38 97.91 123.38 97.91 123.38 97.91C124.22 97.08 124.68 96.61 124.77 96.52Z" id="c8e9znlbLx"></path><path d="M90.1 131.3C90.1 131.3 90.1 131.3 90.1 131.3C95.03 136.22 97.77 138.96 98.31 139.5C98.31 139.5 98.31 139.5 98.31 139.5C97.48 140.34 97.02 140.8 96.93 140.89C96.93 140.89 96.93 140.89 96.93 140.89C92 135.97 89.26 133.23 88.71 132.69C88.71 132.69 88.71 132.69 88.71 132.69C89.55 131.85 90.01 131.39 90.1 131.3Z" id="cNYtjNolW"></path><path d="M113.19 108.12C113.19 108.12 113.19 108.12 113.19 108.12C118.12 113.04 120.86 115.78 121.41 116.33C121.41 116.33 121.41 116.33 121.41 116.33C120.57 117.16 120.11 117.62 120.02 117.72C120.02 117.72 120.02 117.72 120.02 117.72C115.09 112.79 112.35 110.06 111.81 109.51C111.81 109.51 111.81 109.51 111.81 109.51C112.64 108.68 113.1 108.21 113.19 108.12Z" id="bazzcrBbO"></path><path d="M136.31 84.98C136.31 84.98 136.31 84.98 136.31 84.98C141.23 89.91 143.97 92.64 144.52 93.19C144.52 93.19 144.52 93.19 144.52 93.19C143.68 94.02 143.22 94.49 143.13 94.58C143.13 94.58 143.13 94.58 143.13 94.58C138.2 89.65 135.47 86.92 134.92 86.37C134.92 86.37 134.92 86.37 134.92 86.37C135.75 85.54 136.21 85.08 136.31 84.98Z" id="a5V5BWOgM"></path><path d="M187.62 52.27C185.3 51.47 183.7 50.57 183.7 48.97C183.7 47.18 185.12 46.11 188.16 46.11C191.64 46.11 193.25 48.07 195.57 48.07C197.36 48.07 198.61 46.73 198.61 45.04C198.61 43.43 197.36 42.36 195.75 41.73C193.52 40.75 190.57 40.48 188.52 40.48C180.93 40.48 176.91 44.06 176.91 49.06C176.91 52.63 178.52 54.77 180.75 56.2C183.34 57.9 186.37 58.43 188.87 59.33C191.11 60.13 192.71 61.11 192.71 62.9C192.71 64.5 191.73 66.38 187.89 66.38C183.87 66.38 181.91 63.88 179.94 63.88C178.25 63.88 176.82 65.22 176.82 67C176.82 68.7 178.16 69.77 179.86 70.49C182.45 71.56 185.57 72.01 187.98 72.01C194.68 72.01 199.77 68.43 199.77 62.36C199.68 58.97 198.16 56.82 196.2 55.49C193.7 53.7 190.39 53.07 187.62 52.27Z" id="dceMeelUn"></path><path d="M221.65 47.98C221.65 49.25 221.65 59.4 221.65 60.66C221.65 62.45 221.2 63.88 220.4 64.86C219.5 66.02 218.07 66.56 216.11 66.56C214.15 66.56 212.81 66.02 211.91 64.86C211.11 63.88 210.66 62.45 210.66 60.66C210.66 59.39 210.66 49.17 210.66 47.9C210.66 46.2 209.32 44.86 207.63 44.86C205.93 44.86 204.59 46.2 204.59 47.9C204.59 49.23 204.59 59.95 204.59 61.29C204.59 64.24 205.39 66.83 207 68.7C209.06 71.02 212.27 72.27 216.2 72.27C220.13 72.27 223.25 71.02 225.4 68.7C227 66.83 227.81 64.24 227.81 61.29C227.81 59.95 227.81 49.23 227.81 47.9C227.72 46.29 226.38 44.95 224.68 44.95C222.99 44.95 221.65 46.29 221.65 47.98Z" id="cDXc16Nuu"></path><path d="M244.77 45.22C243.92 45.22 237.06 45.22 236.2 45.22C234.51 45.22 233.17 46.56 233.17 48.25C233.17 50.35 233.17 67.14 233.17 69.24C233.17 70.93 234.51 72.27 236.2 72.27C237.9 72.27 239.24 70.93 239.24 69.24C239.24 68.89 239.24 67.17 239.24 64.06C242.56 64.06 244.41 64.06 244.77 64.06C246.38 64.06 248.79 63.88 250.94 62.27C253.17 60.58 254.51 57.81 254.51 54.68C254.51 51.65 253.35 48.97 251.2 47.27C249.51 45.93 247.45 45.22 244.77 45.22ZM243.97 58.61C243.66 58.61 242.08 58.61 239.24 58.61L239.24 50.75C242.13 50.75 243.74 50.75 244.06 50.75C245.22 50.75 246.11 50.93 246.74 51.47C247.72 52.09 248.26 53.25 248.26 54.68C248.26 56.2 247.72 57.27 246.74 57.99C246.11 58.43 245.22 58.61 243.97 58.61Z" id="c1vyrdu9Qw"></path><path d="M279.51 47.98C279.51 46.47 278.26 45.22 276.83 45.22C275.33 45.22 263.33 45.22 261.83 45.22C260.13 45.22 258.79 46.56 258.79 48.25C258.79 50.32 258.79 66.82 258.79 68.88C258.79 70.58 260.13 71.92 261.83 71.92C263.33 71.92 275.33 71.92 276.83 71.92C278.35 71.92 279.51 70.67 279.51 69.15C279.51 67.63 278.26 66.38 276.83 66.38C276.03 66.38 272.05 66.38 264.87 66.38L264.87 61.29C270.87 61.29 274.2 61.29 274.87 61.29C276.3 61.29 277.55 60.04 277.55 58.52C277.55 57 276.39 55.75 274.87 55.75C274.2 55.75 270.87 55.75 264.87 55.75L264.87 50.84L276.83 50.84C278.62 49.95 279.51 49 279.51 47.98Z" id="a1ppuJvIaG"></path><path d="M302.37 60.58C304.34 58.88 305.41 56.56 305.41 53.97C305.41 51.02 304.25 48.52 302.28 47C300.58 45.75 298.44 45.22 295.49 45.22C294.6 45.22 287.46 45.22 286.57 45.22C284.87 45.22 283.53 46.56 283.53 48.25C283.53 50.35 283.53 67.14 283.53 69.24C283.53 70.93 284.87 72.27 286.57 72.27C288.26 72.27 289.6 70.93 289.6 69.24C289.6 68.81 289.6 66.67 289.6 62.81L294.42 62.81C297.58 67.58 299.34 70.23 299.69 70.76C300.32 71.74 301.21 72.18 302.28 72.18C303.98 72.18 305.32 70.84 305.32 69.06C305.32 68.43 305.14 67.9 304.78 67.45C304.52 67.06 303.21 65.13 300.85 61.65C301.57 61.23 302.07 60.87 302.37 60.58ZM295.05 57.54C294.69 57.54 292.91 57.54 289.69 57.54L289.69 50.57C292.96 50.57 294.77 50.57 295.14 50.57C296.3 50.57 297.19 50.75 297.91 51.2C298.8 51.82 299.25 52.72 299.25 54.06C299.16 55.4 298.71 56.38 297.82 56.91C297.19 57.27 296.3 57.54 295.05 57.54Z" id="c7E7dy3hq"></path><path d="M523.47 68.79C523.47 70.67 524.99 72.18 526.77 72.18C528.65 72.18 530.17 70.67 530.17 68.79C530.17 67 528.65 65.49 526.77 65.49C524.9 65.49 523.47 66.92 523.47 68.79Z" id="eJUP1s3NR"></path><path d="M323.44 40.48C320.05 40.48 317.28 41.64 315.32 43.25C312.28 45.84 310.85 49.59 310.85 53.25C310.85 54.81 310.85 67.24 310.85 68.79C310.85 70.58 312.28 71.92 314.07 71.92C315.85 71.92 317.28 70.49 317.28 68.79C317.28 68.35 317.28 66.15 317.28 62.18L329.61 62.18C329.61 66.2 329.61 68.43 329.61 68.88C329.61 70.67 331.04 72.01 332.82 72.01C334.61 72.01 336.04 70.58 336.04 68.88C336.04 67.32 336.04 54.82 336.04 53.25C336.13 49.59 334.7 45.75 331.66 43.25C329.7 41.56 326.93 40.48 323.44 40.48ZM317.37 56.38C317.37 54.66 317.37 53.71 317.37 53.52C317.37 51.11 318.09 49.23 319.25 48.16C320.41 47 321.93 46.56 323.53 46.56C325.23 46.56 326.75 47.09 327.91 48.16C329.07 49.32 329.7 51.11 329.7 53.52C329.7 53.71 329.7 54.66 329.7 56.38L317.37 56.38Z" id="c3Xj0P6kg"></path><path d="M357.11 57.18C355.59 57.18 354.43 58.43 354.43 59.95C354.43 61.47 355.68 62.72 357.11 62.72C357.34 62.72 358.47 62.72 360.5 62.72C360.5 64.49 360.5 65.47 360.5 65.67C359.52 66.11 357.82 66.74 355.5 66.74C350.95 66.74 347.73 63.34 347.73 58.61C347.73 54.15 351.13 50.57 355.5 50.57C357.29 50.57 358.27 50.93 359.16 51.29C359.79 51.56 360.41 51.73 361.22 51.73C362.82 51.73 364.08 50.48 364.08 48.88C364.08 47.54 363.18 46.38 361.66 45.93C359.79 45.31 358 45.04 355.59 45.04C347.64 45.04 341.39 51.02 341.39 58.61C341.39 66.92 346.84 72.27 355.15 72.27C357.2 72.27 359.34 71.83 361.04 71.11C361.57 71.92 362.47 72.27 363.54 72.27C365.33 72.27 366.58 71.02 366.58 69.24C366.58 68.34 366.58 61.12 366.58 60.22C366.58 58.34 365.5 57.18 363.81 57.18C362.47 57.18 357.78 57.18 357.11 57.18Z" id="arFMVFbbn"></path><path d="M390.77 47C389.08 45.75 386.94 45.22 383.99 45.22C383.1 45.22 375.95 45.22 375.06 45.22C373.36 45.22 372.02 46.56 372.02 48.25C372.02 50.35 372.02 67.14 372.02 69.24C372.02 70.93 373.36 72.27 375.06 72.27C376.76 72.27 378.09 70.93 378.09 69.24C378.09 68.81 378.09 66.67 378.09 62.81L382.92 62.81C386.08 67.58 387.83 70.23 388.19 70.76C388.81 71.74 389.7 72.18 390.77 72.18C392.47 72.18 393.81 70.84 393.81 69.06C393.81 68.43 393.63 67.9 393.28 67.45C392.87 66.87 389.66 62.23 389.26 61.65C389.79 61.38 390.33 61.02 390.77 60.58C392.83 58.88 393.9 56.65 393.9 53.97C393.9 51.02 392.74 48.52 390.77 47ZM383.45 57.54C383.1 57.54 381.31 57.54 378.09 57.54L378.09 50.57C381.36 50.57 383.18 50.57 383.54 50.57C384.7 50.57 385.6 50.75 386.31 51.2C387.2 51.82 387.65 52.72 387.65 54.06C387.65 55.4 387.2 56.38 386.22 56.91C385.6 57.27 384.7 57.54 383.45 57.54Z" id="cjN2PpPPP"></path><path d="M397.56 58.61C397.56 66.47 403.54 72.18 411.76 72.18C419.97 72.18 425.96 66.47 425.96 58.61C425.96 50.66 419.97 44.95 411.76 44.95C403.54 44.95 397.56 50.66 397.56 58.61ZM403.99 58.61C403.99 54.15 407.29 50.75 411.76 50.75C416.14 50.75 419.44 54.15 419.44 58.61C419.44 63.08 416.14 66.47 411.76 66.47C407.38 66.47 403.99 63.08 403.99 58.61Z" id="advAsUihi"></path><path d="M448.19 47.81C448.19 48.72 448.19 53.27 448.19 61.47C441.33 52.47 437.52 47.47 436.76 46.47C436.05 45.48 434.98 44.95 433.82 44.95C431.94 44.95 430.33 46.47 430.33 48.25C430.33 50.37 430.33 67.3 430.33 69.42C430.33 70.93 431.67 72.18 433.28 72.18C434.89 72.18 436.23 70.93 436.23 69.42C436.23 68.5 436.23 63.95 436.23 55.75C443.08 64.75 446.89 69.76 447.66 70.76C448.37 71.74 449.44 72.27 450.6 72.27C452.57 72.27 454.09 70.84 454.09 68.97C454.09 66.85 454.09 49.92 454.09 47.81C454.09 46.2 452.75 44.95 451.14 44.95C449.53 44.95 448.19 46.2 448.19 47.81Z" id="a1U5klRY9m"></path><path d="M458.55 58.61C458.55 66.47 464.53 72.18 472.75 72.18C480.96 72.18 486.95 66.47 486.95 58.61C486.95 50.66 480.96 44.95 472.75 44.95C464.53 44.95 458.55 50.66 458.55 58.61ZM464.98 58.61C464.98 54.15 468.28 50.75 472.75 50.75C477.12 50.75 480.43 54.15 480.43 58.61C480.43 63.08 477.12 66.47 472.75 66.47C468.37 66.47 464.98 63.08 464.98 58.61Z" id="a34QbI8laG"></path><path d="M511.77 46.82C511.33 47.59 509.09 51.43 505.07 58.34C501.11 51.38 498.91 47.51 498.47 46.73C497.75 45.48 496.59 44.86 495.16 44.86C493.02 44.86 491.41 46.38 491.41 48.52C491.41 50.6 491.41 67.25 491.41 69.33C491.41 71.02 492.66 72.18 494.36 72.18C496.06 72.18 497.4 70.93 497.4 69.33C497.4 68.46 497.4 64.11 497.4 56.29C500.29 61.16 501.9 63.87 502.22 64.42C502.93 65.58 503.91 66.29 505.16 66.29C506.41 66.29 507.4 65.67 508.11 64.42C508.43 63.87 510.04 61.16 512.93 56.29C512.93 64.11 512.93 68.46 512.93 69.33C512.93 71.02 514.18 72.18 515.88 72.18C517.58 72.18 518.92 70.93 518.92 69.33C518.92 67.25 518.92 50.68 518.92 48.61C518.74 46.47 517.13 44.95 514.99 44.95C513.56 44.95 512.4 45.66 511.77 46.82Z" id="k5OVHctvcF"></path><path d="M552.13 65.75C551.24 66.11 550.17 66.56 548.03 66.56C543.56 66.56 540.26 63.16 540.26 58.52C540.26 54.06 543.65 50.48 548.03 50.48C549.99 50.48 550.88 50.84 551.78 51.2C552.4 51.47 552.94 51.65 553.74 51.65C555.35 51.65 556.6 50.4 556.6 48.79C556.6 47.45 555.71 46.47 554.19 45.84C552.31 45.13 550.53 44.86 548.21 44.86C540.35 44.86 533.92 50.93 533.92 58.43C533.92 66.47 539.72 72.09 548.12 72.09C550.44 72.09 552.58 71.74 554.55 71.02C556.15 70.4 557.05 69.33 557.05 68.08C556.87 66.47 555.62 65.31 554.01 65.31C553.3 65.31 552.76 65.49 552.13 65.75Z" id="e4iEZctFU9"></path><path d="M559.64 58.61C559.64 66.47 565.62 72.18 573.83 72.18C582.05 72.18 588.03 66.47 588.03 58.61C588.03 50.66 582.05 44.95 573.83 44.95C565.62 44.95 559.64 50.66 559.64 58.61ZM566.06 58.61C566.06 54.15 569.37 50.75 573.83 50.75C578.21 50.75 581.51 54.15 581.51 58.61C581.51 63.08 578.21 66.47 573.83 66.47C569.46 66.47 566.06 63.08 566.06 58.61Z" id="bG55HLDFn"></path><path d="M612.86 46.82C612.41 47.59 610.18 51.43 606.16 58.34C602.19 51.38 599.99 47.51 599.55 46.73C598.84 45.48 597.68 44.86 596.25 44.86C594.1 44.86 592.5 46.38 592.5 48.52C592.5 50.6 592.5 67.25 592.5 69.33C592.5 71.02 593.75 72.18 595.44 72.18C597.14 72.18 598.48 70.93 598.48 69.33C598.48 68.46 598.48 64.11 598.48 56.29C601.37 61.16 602.98 63.87 603.3 64.42C604.02 65.58 605 66.29 606.25 66.29C607.5 66.29 608.48 65.67 609.2 64.42C609.52 63.87 611.12 61.16 614.02 56.29C614.02 64.11 614.02 68.46 614.02 69.33C614.02 71.02 615.27 72.18 616.96 72.18C618.66 72.18 620 70.93 620 69.33C620 67.25 620 50.68 620 48.61C619.91 46.47 618.3 44.95 616.07 44.95C614.64 44.95 613.48 45.66 612.86 46.82Z" id="ah2kGKOdi"></path><path d="M180.48 88.88C179.32 88.88 178.52 89.78 178.52 90.85C178.52 92.37 178.52 104.59 178.52 106.12C178.52 107.19 179.41 108.08 180.48 108.08C181.55 108.08 182.45 107.19 182.45 106.12C182.45 105.21 182.45 100.65 182.45 92.45C186.62 92.45 188.95 92.45 189.41 92.45C190.39 92.45 191.11 91.65 191.11 90.67C191.11 89.69 190.3 88.88 189.41 88.88C187.62 88.88 181.37 88.88 180.48 88.88Z" id="b1xOLeLqgD"></path><path d="M198.16 94.78C196.29 94.78 194.59 95.4 193.34 96.56C192 97.72 191.29 99.42 191.29 101.47C191.29 103.53 192.09 105.22 193.34 106.3C194.59 107.46 196.29 108.08 198.16 108.08C199.95 108.08 201.73 107.46 202.89 106.3C204.23 105.13 204.95 103.44 204.95 101.47C204.95 99.42 204.23 97.72 202.89 96.56C201.64 95.49 199.95 94.78 198.16 94.78ZM198.16 105.05C197.18 105.05 196.38 104.69 195.84 104.06C195.21 103.44 194.86 102.46 194.86 101.47C194.86 100.4 195.21 99.51 195.84 98.79C196.38 98.17 197.18 97.81 198.16 97.81C199.05 97.81 199.86 98.17 200.39 98.79C201.02 99.42 201.38 100.4 201.38 101.47C201.38 102.54 201.02 103.44 200.39 104.06C199.86 104.69 199.05 105.05 198.16 105.05Z" id="ceMHb2Tio"></path><path d="M213.16 95.04C212.18 95.04 211.38 95.85 211.38 96.83C211.38 99.42 211.2 101.21 210.75 102.63C210.13 104.51 208.97 105.13 208.97 106.3C208.97 107.28 209.77 108.08 210.75 108.08C211.82 108.08 212.72 107.37 213.43 105.85C214.41 103.8 214.77 100.94 214.95 98.35C215.22 98.35 216.59 98.35 219.06 98.35C219.06 103.17 219.06 105.85 219.06 106.38C219.06 107.37 219.86 108.17 220.84 108.17C221.83 108.17 222.63 107.37 222.63 106.38C222.63 105.44 222.63 97.87 222.63 96.92C222.72 95.85 221.83 95.04 220.84 95.04C219.31 95.04 213.93 95.04 213.16 95.04Z" id="eHH61b3j"></path><path d="M234.95 94.78C233.08 94.78 231.38 95.4 230.13 96.56C228.79 97.72 228.08 99.42 228.08 101.47C228.08 103.53 228.88 105.22 230.13 106.3C231.38 107.46 233.08 108.08 234.95 108.08C236.74 108.08 238.52 107.46 239.68 106.3C241.02 105.13 241.74 103.44 241.74 101.47C241.74 99.42 241.02 97.72 239.68 96.56C238.43 95.49 236.74 94.78 234.95 94.78ZM234.95 105.05C233.97 105.05 233.17 104.69 232.63 104.06C232 103.44 231.65 102.46 231.65 101.47C231.65 100.4 232 99.51 232.63 98.79C233.17 98.17 233.97 97.81 234.95 97.81C235.84 97.81 236.65 98.17 237.18 98.79C237.81 99.42 238.17 100.4 238.17 101.47C238.17 102.54 237.81 103.44 237.18 104.06C236.65 104.69 235.84 105.05 234.95 105.05Z" id="a1sYhEOfHa"></path><path d="M257.28 98.44C257.28 96.2 255.4 95.04 252.99 95.04C252.6 95.04 249.45 95.04 249.06 95.04C248.08 95.04 247.27 95.85 247.27 96.83C247.27 97.75 247.27 105.11 247.27 106.03C247.27 107.01 248.08 107.81 249.06 107.81C249.53 107.81 253.32 107.81 253.79 107.81C256.38 107.81 258.44 106.83 258.44 104.33C258.35 102.63 257.63 101.47 256.03 101.03C256.83 100.4 257.28 99.51 257.28 98.44ZM252.36 97.72C253.08 97.72 253.79 98.08 253.79 98.79C253.79 99.69 252.99 99.96 252.36 99.96C252.25 99.96 251.69 99.96 250.67 99.96L250.67 97.72C251.69 97.72 252.25 97.72 252.36 97.72ZM250.76 105.13L250.76 102.63C252.1 102.63 252.84 102.63 252.99 102.63C254.33 102.63 254.86 103.17 254.86 103.88C254.78 104.87 253.79 105.13 252.99 105.13C252.69 105.13 251.95 105.13 250.76 105.13Z" id="d1AAt3JMge"></path><path d="M272.81 96.65C272.81 96.86 272.81 97.9 272.81 99.78L267.46 99.78C267.46 97.9 267.46 96.86 267.46 96.65C267.46 95.67 266.65 94.87 265.67 94.87C264.69 94.87 263.88 95.67 263.88 96.65C263.88 97.62 263.88 105.41 263.88 106.38C263.88 107.37 264.69 108.17 265.67 108.17C266.65 108.17 267.46 107.37 267.46 106.38C267.46 106.16 267.46 105.03 267.46 102.99L272.81 102.99C272.81 105.03 272.81 106.16 272.81 106.38C272.81 107.37 273.62 108.17 274.6 108.17C275.58 108.17 276.39 107.37 276.39 106.38C276.39 105.41 276.39 97.62 276.39 96.65C276.39 95.58 275.58 94.87 274.6 94.87C273.62 94.87 272.81 95.67 272.81 96.65Z" id="d1lryZhzD"></path><path d="M291.83 96.65C291.83 96.68 291.83 96.83 291.83 97.1L286.21 102.1C286.21 98.83 286.21 97.01 286.21 96.65C286.21 95.67 285.4 94.87 284.42 94.87C283.44 94.87 282.64 95.67 282.64 96.65C282.64 97.62 282.64 105.33 282.64 106.3C282.64 107.28 283.44 108.08 284.42 108.08C285.4 108.08 286.21 107.28 286.21 106.3C286.21 106.27 286.21 106.12 286.21 105.85L291.83 100.85C291.83 104.12 291.83 105.93 291.83 106.3C291.83 107.28 292.64 108.08 293.62 108.08C294.6 108.08 295.41 107.28 295.41 106.3C295.41 105.33 295.41 97.62 295.41 96.65C295.41 95.67 294.6 94.87 293.62 94.87C292.64 94.87 291.83 95.67 291.83 96.65Z" id="b3GbYy1p4"></path><path d="M312.46 88.44C312.46 87.72 311.84 87.19 311.12 87.19C309.69 87.19 309.78 89.33 308 89.33C306.21 89.33 306.21 87.19 304.87 87.19C304.16 87.19 303.53 87.72 303.53 88.44C303.53 90.49 305.85 91.92 308 91.92C310.14 91.92 312.46 90.4 312.46 88.44Z" id="a7dtwrb5DF"></path><path d="M310.94 96.65C310.94 96.68 310.94 96.83 310.94 97.1L305.32 102.1C305.32 98.83 305.32 97.01 305.32 96.65C305.32 95.67 304.51 94.87 303.53 94.87C302.55 94.87 301.75 95.67 301.75 96.65C301.75 97.62 301.75 105.33 301.75 106.3C301.75 107.28 302.55 108.08 303.53 108.08C304.51 108.08 305.32 107.28 305.32 106.3C305.32 106.27 305.32 106.12 305.32 105.85L310.94 100.85C310.94 104.12 310.94 105.93 310.94 106.3C310.94 107.28 311.75 108.08 312.73 108.08C313.71 108.08 314.52 107.28 314.52 106.3C314.52 105.33 314.52 97.62 314.52 96.65C314.52 95.67 313.71 94.87 312.73 94.87C311.75 94.87 310.94 95.67 310.94 96.65Z" id="c15XTM1q9t"></path><path d="M336.75 104.96C335.68 104.96 334.79 104.6 334.16 103.97C333.54 103.35 333.27 102.46 333.27 101.47C333.27 100.49 333.62 99.69 334.16 99.06C334.79 98.44 335.68 97.99 336.75 97.99C338.18 97.99 338.71 98.71 339.7 98.71C340.5 98.71 341.13 98.08 341.13 97.19C341.13 96.38 340.59 95.85 339.7 95.4C338.54 94.87 337.38 94.78 336.75 94.78C334.34 94.78 332.29 95.67 330.95 97.28C330.05 98.35 329.61 99.69 329.61 101.38C329.61 103.26 330.23 104.87 331.3 105.94C332.55 107.28 334.34 107.99 336.66 107.99C337.55 107.99 338.45 107.9 339.25 107.63C340.41 107.28 341.13 106.65 341.13 105.85C341.13 104.96 340.5 104.33 339.7 104.33C338.89 104.33 338.36 104.96 336.75 104.96Z" id="b1ka3HfnNo"></path><path d="M347.38 95.49C346.48 95.85 345.77 96.38 345.77 97.28C345.77 97.99 346.39 98.62 347.11 98.62C348.18 98.62 349.16 97.72 350.59 97.72C351.22 97.72 351.75 97.9 352.11 98.26C352.38 98.62 352.47 99.06 352.47 99.78C352.47 99.79 352.47 99.94 352.47 99.96C348.81 100.22 345.14 100.94 345.14 104.15C345.14 106.56 347.02 108.08 349.34 108.08C350.59 108.08 351.66 107.9 352.73 107.28C353 107.72 353.63 108.08 354.25 108.08C355.23 108.08 356.04 107.28 356.04 106.3C356.04 105.63 356.04 100.35 356.04 99.69C356.04 98.08 355.59 97.1 354.97 96.29C353.98 95.04 352.29 94.87 351.04 94.87C349.79 94.87 348.45 95.04 347.38 95.49ZM350.59 105.31C349.61 105.31 348.72 104.87 348.72 103.97C348.72 102.63 350.86 102.37 352.56 102.37C352.56 102.53 352.56 103.33 352.56 104.78C351.66 105.13 351.01 105.31 350.59 105.31Z" id="foL8AXKT7"></path><path d="M371.4 96.65C371.4 96.68 371.4 96.83 371.4 97.1L365.77 102.1C365.77 98.83 365.77 97.01 365.77 96.65C365.77 95.67 364.97 94.87 363.99 94.87C363 94.87 362.2 95.67 362.2 96.65C362.2 97.62 362.2 105.33 362.2 106.3C362.2 107.28 363 108.08 363.99 108.08C364.97 108.08 365.77 107.28 365.77 106.3C365.77 106.27 365.77 106.12 365.77 105.85L371.4 100.85C371.4 104.12 371.4 105.93 371.4 106.3C371.4 107.28 372.2 108.08 373.18 108.08C374.17 108.08 374.97 107.28 374.97 106.3C374.97 105.33 374.97 97.62 374.97 96.65C374.97 95.67 374.17 94.87 373.18 94.87C372.2 94.87 371.4 95.67 371.4 96.65Z" id="c243LDvkJj"></path><path d="M373 88.44C373 87.72 372.38 87.19 371.67 87.19C370.24 87.19 370.33 89.33 368.54 89.33C366.75 89.33 366.75 87.19 365.41 87.19C364.7 87.19 364.08 87.72 364.08 88.44C364.08 90.49 366.31 91.92 368.54 91.92C370.68 91.92 373 90.4 373 88.44Z" id="a30YFsLhwA"></path><path d="M381.13 95.04C380.24 95.04 379.52 95.76 379.52 96.74C379.52 97.63 380.24 98.35 381.13 98.35C381.33 98.35 382.35 98.35 384.17 98.35C384.17 103.17 384.17 105.85 384.17 106.38C384.17 107.37 385.06 108.17 385.95 108.17C386.94 108.17 387.74 107.37 387.74 106.38C387.74 105.85 387.74 103.17 387.74 98.35C389.56 98.35 390.57 98.35 390.77 98.35C391.67 98.35 392.38 97.63 392.38 96.74C392.47 95.85 391.76 95.04 390.86 95.04C388.92 95.04 382.1 95.04 381.13 95.04Z" id="e2GxKLQxQN"></path><path d="M420.96 104.51C420.96 99.85 420.96 97.26 420.96 96.74C420.96 95.76 420.15 94.95 419.17 94.95C418.43 94.95 412.5 94.95 411.76 94.95C410.78 94.95 409.97 95.76 409.97 96.74C409.97 99.69 409.71 102.28 408.46 104.51C408.35 104.51 407.49 104.51 407.38 104.51C406.4 104.51 405.6 105.31 405.6 106.3C405.6 106.75 405.6 110.39 405.6 110.85C405.6 111.83 406.4 112.64 407.38 112.64C408.37 112.64 409.17 111.83 409.17 110.85C409.17 110.64 409.17 109.6 409.17 107.72L421.14 107.72C421.14 109.55 421.14 110.56 421.14 110.76C421.14 111.74 421.94 112.55 422.92 112.55C423.9 112.55 424.71 111.74 424.71 110.76C424.71 110.3 424.71 106.66 424.71 106.21C424.71 105.31 423.9 104.51 422.83 104.51C422.58 104.51 421.96 104.51 420.96 104.51ZM412.03 104.51C413.01 102.63 413.37 100.58 413.46 98.26C413.71 98.26 414.99 98.26 417.3 98.26L417.3 104.51C414.13 104.51 412.38 104.51 412.03 104.51Z" id="b4Yr9sL8qg"></path><path d="M432.3 95.04C431.32 95.04 430.51 95.85 430.51 96.83C430.51 99.42 430.33 101.21 429.89 102.63C429.26 104.51 428.1 105.13 428.1 106.3C428.1 107.28 428.9 108.08 429.89 108.08C430.96 108.08 431.85 107.37 432.57 105.85C433.55 103.8 433.91 100.94 434.08 98.35C434.36 98.35 435.73 98.35 438.19 98.35C438.19 103.17 438.19 105.85 438.19 106.38C438.19 107.37 439 108.17 439.98 108.17C440.96 108.17 441.76 107.37 441.76 106.38C441.76 105.44 441.76 97.87 441.76 96.92C441.76 95.85 440.96 95.04 439.98 95.04C438.44 95.04 433.07 95.04 432.3 95.04Z" id="c1iTDErchA"></path><path d="M452.3 95.04C449.35 95.04 447.39 96.47 447.39 99.33C447.39 101.03 448.19 102.19 449.44 102.9C449.27 103.16 447.92 105.23 447.75 105.49C447.57 105.76 447.39 106.12 447.39 106.47C447.39 107.46 448.19 108.08 449.17 108.08C449.98 108.08 450.34 107.81 450.69 107.28C450.84 107.05 451.59 105.88 452.93 103.8L454.62 103.8C454.62 105.4 454.62 106.3 454.62 106.47C454.62 107.46 455.43 108.17 456.41 108.17C457.39 108.17 458.19 107.46 458.19 106.47C458.19 105.52 458.19 97.87 458.19 96.92C458.28 95.85 457.48 95.04 456.41 95.04C455.59 95.04 452.71 95.04 452.3 95.04ZM453.01 100.67C451.94 100.67 451.05 100.58 451.05 99.42C451.05 98.35 451.76 98.08 452.48 98.08C452.63 98.08 453.37 98.08 454.71 98.08L454.71 100.67C453.69 100.67 453.13 100.67 453.01 100.67Z" id="a1Dx4HrnF"></path><path d="M475.34 95.49C474.45 95.85 473.73 96.38 473.73 97.28C473.73 97.99 474.36 98.62 475.07 98.62C476.14 98.62 477.12 97.72 478.55 97.72C479.18 97.72 479.71 97.9 480.07 98.26C480.34 98.62 480.43 99.06 480.43 99.78C480.43 99.79 480.43 99.94 480.43 99.96C476.77 100.22 473.11 100.94 473.11 104.15C473.11 106.56 474.98 108.08 477.3 108.08C478.55 108.08 479.63 107.9 480.7 107.28C480.96 107.72 481.59 108.08 482.21 108.08C483.2 108.08 484 107.28 484 106.3C484 105.63 484 100.35 484 99.69C484 98.08 483.55 97.1 482.93 96.29C481.95 95.04 480.25 94.87 479 94.87C477.75 94.87 476.41 95.04 475.34 95.49ZM478.46 105.31C477.48 105.31 476.59 104.87 476.59 103.97C476.59 102.63 478.73 102.37 480.43 102.37C480.43 102.53 480.43 103.33 480.43 104.78C479.54 105.13 478.88 105.31 478.46 105.31Z" id="d1De1xbHtI"></path><path d="M491.86 95.04C490.88 95.04 490.07 95.85 490.07 96.83C490.07 97.78 490.07 105.35 490.07 106.3C490.07 107.28 490.88 108.08 491.86 108.08C492.84 108.08 493.64 107.28 493.64 106.3C493.64 105.76 493.64 103.08 493.64 98.26C496.48 98.26 498.06 98.26 498.38 98.26C499.27 98.26 499.98 97.54 499.98 96.65C500.07 95.85 499.27 95.04 498.38 95.04C497.07 95.04 492.51 95.04 491.86 95.04Z" id="b4lCaFDyK1"></path><path d="M506.68 95.04C505.25 95.31 504.45 95.85 504.45 97.54C504.45 99.06 504.45 111.21 504.45 112.72C504.45 113.71 505.25 114.51 506.24 114.51C507.22 114.51 508.02 113.71 508.02 112.72C508.02 112.24 508.02 108.38 508.02 107.9C508.65 108.08 509.27 108.08 509.99 108.08C511.95 108.08 513.92 107.46 515.25 105.94C516.15 104.96 516.77 103.44 516.77 101.47C516.77 99.51 516.15 97.9 514.99 96.83C513.74 95.49 511.68 94.87 509.36 94.87C508.38 94.87 507.49 94.95 506.68 95.04ZM509.72 105.05C509.09 105.05 508.65 104.96 508.2 104.78C508.2 104.09 508.2 98.59 508.2 97.9C508.65 97.81 509.27 97.81 509.81 97.81C510.88 97.81 511.77 98.17 512.4 98.88C512.93 99.51 513.29 100.4 513.29 101.47C513.2 102.72 512.84 103.71 512.22 104.24C511.5 104.87 510.61 105.05 509.72 105.05Z" id="ldyN9YAgA"></path><path d="M528.38 94.78C526.51 94.78 524.81 95.4 523.56 96.56C522.22 97.72 521.51 99.42 521.51 101.47C521.51 103.53 522.31 105.22 523.56 106.3C524.81 107.46 526.51 108.08 528.38 108.08C530.17 108.08 531.95 107.46 533.11 106.3C534.45 105.13 535.17 103.44 535.17 101.47C535.26 99.42 534.45 97.72 533.11 96.56C531.86 95.49 530.17 94.78 528.38 94.78ZM528.38 105.05C527.4 105.05 526.6 104.69 526.06 104.06C525.43 103.44 525.08 102.46 525.08 101.47C525.08 100.4 525.43 99.51 526.06 98.79C526.6 98.17 527.4 97.81 528.38 97.81C529.27 97.81 530.08 98.17 530.61 98.79C531.24 99.42 531.6 100.4 531.6 101.47C531.6 102.54 531.24 103.44 530.61 104.06C530.08 104.69 529.27 105.05 528.38 105.05Z" id="amctEwco8"></path><path d="M549.63 96.65C549.63 96.86 549.63 97.9 549.63 99.78L544.28 99.78C544.28 97.9 544.28 96.86 544.28 96.65C544.28 95.67 543.47 94.87 542.49 94.87C541.51 94.87 540.7 95.67 540.7 96.65C540.7 97.62 540.7 105.41 540.7 106.38C540.7 107.37 541.51 108.17 542.49 108.17C543.47 108.17 544.28 107.37 544.28 106.38C544.28 106.16 544.28 105.03 544.28 102.99L549.63 102.99C549.63 105.03 549.63 106.16 549.63 106.38C549.63 107.37 550.44 108.17 551.42 108.17C552.4 108.17 553.21 107.37 553.21 106.38C553.21 105.41 553.21 97.62 553.21 96.65C553.21 95.58 552.4 94.87 551.42 94.87C550.44 94.87 549.63 95.67 549.63 96.65Z" id="b2ovvCOIpf"></path><path d="M565.53 94.78C563.65 94.78 561.96 95.4 560.71 96.56C559.37 97.72 558.65 99.42 558.65 101.47C558.65 103.53 559.46 105.22 560.71 106.3C561.96 107.46 563.65 108.08 565.53 108.08C567.31 108.08 569.1 107.46 570.26 106.3C571.6 105.13 572.32 103.44 572.32 101.47C572.32 99.42 571.51 97.72 570.26 96.56C569.01 95.49 567.31 94.78 565.53 94.78ZM565.53 105.05C564.55 105.05 563.74 104.69 563.21 104.06C562.58 103.44 562.22 102.46 562.22 101.47C562.22 100.4 562.58 99.51 563.21 98.79C563.74 98.17 564.55 97.81 565.53 97.81C566.42 97.81 567.23 98.17 567.76 98.79C568.39 99.42 568.74 100.4 568.74 101.47C568.74 102.54 568.39 103.44 567.76 104.06C567.23 104.69 566.42 105.05 565.53 105.05Z" id="a10Q7qs2k"></path><path d="M588.39 95.94C588.17 96.31 587.1 98.19 585.17 101.56C583.19 98.19 582.09 96.31 581.87 95.94C581.51 95.31 580.89 94.87 579.91 94.87C578.57 94.87 577.76 95.85 577.76 97.01C577.76 97.94 577.76 105.37 577.76 106.3C577.76 107.19 578.48 107.99 579.55 107.99C580.62 107.99 581.33 107.19 581.33 106.3C581.33 105.97 581.33 104.33 581.33 101.38C582.57 103.47 583.25 104.63 583.39 104.87C583.75 105.4 584.28 105.94 585.17 105.94C586.07 105.94 586.6 105.4 586.96 104.87C587.1 104.63 587.78 103.47 589.01 101.38C589.01 104.33 589.01 105.97 589.01 106.3C589.01 107.19 589.73 107.99 590.8 107.99C591.87 107.99 592.59 107.19 592.59 106.3C592.59 105.37 592.59 97.94 592.59 97.01C592.59 95.76 591.69 94.87 590.35 94.87C589.46 94.87 588.75 95.31 588.39 95.94Z" id="as4k9rRr0"></path><path d="M598.39 89.51C598.39 90.67 599.37 91.65 600.53 91.65C601.69 91.65 602.68 90.67 602.68 89.51C602.59 88.35 601.69 87.36 600.53 87.36C599.37 87.36 598.39 88.35 598.39 89.51Z" id="a6lFgl0PsP"></path><path d="M598.75 96.65C598.75 97.62 598.75 105.33 598.75 106.3C598.75 107.28 599.55 108.08 600.53 108.08C601.52 108.08 602.32 107.28 602.32 106.3C602.32 105.33 602.32 97.62 602.32 96.65C602.32 95.67 601.52 94.87 600.53 94.87C599.55 94.87 598.75 95.67 598.75 96.65Z" id="c66SqaqflT"></path><path d="M618.48 98.44C618.48 96.2 616.61 95.04 614.2 95.04C613.8 95.04 610.66 95.04 610.27 95.04C609.28 95.04 608.48 95.85 608.48 96.83C608.48 97.75 608.48 105.11 608.48 106.03C608.48 107.01 609.28 107.81 610.27 107.81C610.74 107.81 614.53 107.81 615 107.81C617.59 107.81 619.64 106.83 619.64 104.33C619.64 102.63 618.93 101.47 617.23 101.03C618.04 100.4 618.48 99.51 618.48 98.44ZM613.66 97.72C614.37 97.72 615.09 98.08 615.09 98.79C615.09 99.69 614.28 99.96 613.66 99.96C613.55 99.96 612.98 99.96 611.96 99.96L611.96 97.72C612.98 97.72 613.55 97.72 613.66 97.72ZM611.96 105.13L611.96 102.63C613.3 102.63 614.05 102.63 614.2 102.63C615.62 102.63 616.07 103.17 616.07 103.88C616.07 104.87 615.09 105.13 614.2 105.13C613.9 105.13 613.15 105.13 611.96 105.13Z" id="bQANeIW4A"></path></defs><g><g><g><use xlink:href="#a4t2huAlMK" opacity="1" fill="#006bb4" fill-opacity="1"></use><g><use xlink:href="#a4t2huAlMK" opacity="1" fill-opacity="0" stroke="#000000" stroke-width="1" stroke-opacity="0"></use></g></g><g><use xlink:href="#fkKy9ouCq" opacity="1" fill="#369040" fill-opacity="1"></use><g><use xlink:href="#fkKy9ouCq" opacity="1" fill-opacity="0" stroke="#000000" stroke-width="1" stroke-opacity="0"></use></g></g><g><use xlink:href="#cyOt5syo7" opacity="1" fill="#369040" fill-opacity="1"></use><g><use xlink:href="#cyOt5syo7" opacity="1" fill-opacity="0" stroke="#000000" stroke-width="1" stroke-opacity="0"></use></g></g><g><use xlink:href="#b3mJjgnMrW" opacity="1" fill="#369040" fill-opacity="1"></use><g><use xlink:href="#b3mJjgnMrW" opacity="1" fill-opacity="0" stroke="#000000" stroke-width="1" stroke-opacity="0"></use></g></g><g><use xlink:href="#b3HzL6GXAs" opacity="1" fill="#369040" fill-opacity="1"></use><g><use xlink:href="#b3HzL6GXAs" opacity="1" fill-opacity="0" stroke="#000000" stroke-width="1" stroke-opacity="0"></use></g></g><g><use xlink:href="#cIjT3Gl2l" opacity="1" fill="#369040" fill-opacity="1"></use><g><use xlink:href="#cIjT3Gl2l" opacity="1" fill-opacity="0" stroke="#000000" stroke-width="1" stroke-opacity="0"></use></g></g><g><use xlink:href="#e1j59MAzs" opacity="1" fill="#006bb4" fill-opacity="1"></use><g><use xlink:href="#e1j59MAzs" opacity="1" fill-opacity="0" stroke="#000000" stroke-width="1" stroke-opacity="0"></use></g></g><g><use xlink:href="#a1owzzupMQ" opacity="1" fill="#006bb4" fill-opacity="1"></use><g><use xlink:href="#a1owzzupMQ" opacity="1" fill-opacity="0" stroke="#000000" stroke-width="1" stroke-opacity="0"></use></g></g><g><use xlink:href="#b1IlVEmXpX" opacity="1" fill="#006bb4" fill-opacity="1"></use><g><use xlink:href="#b1IlVEmXpX" opacity="1" fill-opacity="0" stroke="#000000" stroke-width="1" stroke-opacity="0"></use></g></g><g><use xlink:href="#c94sTMpYbX" opacity="1" fill="#006bb4" fill-opacity="1"></use><g><use xlink:href="#c94sTMpYbX" opacity="1" fill-opacity="0" stroke="#000000" stroke-width="1" stroke-opacity="0"></use></g></g><g><use xlink:href="#aPe40OCcf" opacity="1" fill="#006bb4" fill-opacity="1"></use><g><use xlink:href="#aPe40OCcf" opacity="1" fill-opacity="0" stroke="#000000" stroke-width="1" stroke-opacity="0"></use></g></g><g><use xlink:href="#eWvNjNVQ2" opacity="1" fill="#006bb4" fill-opacity="1"></use><g><use xlink:href="#eWvNjNVQ2" opacity="1" fill-opacity="0" stroke="#000000" stroke-width="1" stroke-opacity="0"></use></g></g><g><use xlink:href="#c8e9znlbLx" opacity="1" fill="#006bb4" fill-opacity="1"></use><g><use xlink:href="#c8e9znlbLx" opacity="1" fill-opacity="0" stroke="#000000" stroke-width="1" stroke-opacity="0"></use></g></g><g><use xlink:href="#cNYtjNolW" opacity="1" fill="#006bb4" fill-opacity="1"></use><g><use xlink:href="#cNYtjNolW" opacity="1" fill-opacity="0" stroke="#000000" stroke-width="1" stroke-opacity="0"></use></g></g><g><use xlink:href="#bazzcrBbO" opacity="1" fill="#006bb4" fill-opacity="1"></use><g><use xlink:href="#bazzcrBbO" opacity="1" fill-opacity="0" stroke="#000000" stroke-width="1" stroke-opacity="0"></use></g></g><g><use xlink:href="#a5V5BWOgM" opacity="1" fill="#006bb4" fill-opacity="1"></use><g><use xlink:href="#a5V5BWOgM" opacity="1" fill-opacity="0" stroke="#000000" stroke-width="1" stroke-opacity="0"></use></g></g><g><use xlink:href="#dceMeelUn" opacity="1" fill="#006bb4" fill-opacity="1"></use><g><use xlink:href="#dceMeelUn" opacity="1" fill-opacity="0" stroke="#000000" stroke-width="1" stroke-opacity="0"></use></g></g><g><use xlink:href="#cDXc16Nuu" opacity="1" fill="#006bb4" fill-opacity="1"></use><g><use xlink:href="#cDXc16Nuu" opacity="1" fill-opacity="0" stroke="#000000" stroke-width="1" stroke-opacity="0"></use></g></g><g><use xlink:href="#c1vyrdu9Qw" opacity="1" fill="#006bb4" fill-opacity="1"></use><g><use xlink:href="#c1vyrdu9Qw" opacity="1" fill-opacity="0" stroke="#000000" stroke-width="1" stroke-opacity="0"></use></g></g><g><use xlink:href="#a1ppuJvIaG" opacity="1" fill="#006bb4" fill-opacity="1"></use><g><use xlink:href="#a1ppuJvIaG" opacity="1" fill-opacity="0" stroke="#000000" stroke-width="1" stroke-opacity="0"></use></g></g><g><use xlink:href="#c7E7dy3hq" opacity="1" fill="#006bb4" fill-opacity="1"></use><g><use xlink:href="#c7E7dy3hq" opacity="1" fill-opacity="0" stroke="#000000" stroke-width="1" stroke-opacity="0"></use></g></g><g><use xlink:href="#eJUP1s3NR" opacity="1" fill="#369040" fill-opacity="1"></use><g><use xlink:href="#eJUP1s3NR" opacity="1" fill-opacity="0" stroke="#000000" stroke-width="1" stroke-opacity="0"></use></g></g><g><use xlink:href="#c3Xj0P6kg" opacity="1" fill="#369040" fill-opacity="1"></use><g><use xlink:href="#c3Xj0P6kg" opacity="1" fill-opacity="0" stroke="#000000" stroke-width="1" stroke-opacity="0"></use></g></g><g><use xlink:href="#arFMVFbbn" opacity="1" fill="#369040" fill-opacity="1"></use><g><use xlink:href="#arFMVFbbn" opacity="1" fill-opacity="0" stroke="#000000" stroke-width="1" stroke-opacity="0"></use></g></g><g><use xlink:href="#cjN2PpPPP" opacity="1" fill="#369040" fill-opacity="1"></use><g><use xlink:href="#cjN2PpPPP" opacity="1" fill-opacity="0" stroke="#000000" stroke-width="1" stroke-opacity="0"></use></g></g><g><use xlink:href="#advAsUihi" opacity="1" fill="#369040" fill-opacity="1"></use><g><use xlink:href="#advAsUihi" opacity="1" fill-opacity="0" stroke="#000000" stroke-width="1" stroke-opacity="0"></use></g></g><g><use xlink:href="#a1U5klRY9m" opacity="1" fill="#369040" fill-opacity="1"></use><g><use xlink:href="#a1U5klRY9m" opacity="1" fill-opacity="0" stroke="#000000" stroke-width="1" stroke-opacity="0"></use></g></g><g><use xlink:href="#a34QbI8laG" opacity="1" fill="#369040" fill-opacity="1"></use><g><use xlink:href="#a34QbI8laG" opacity="1" fill-opacity="0" stroke="#000000" stroke-width="1" stroke-opacity="0"></use></g></g><g><use xlink:href="#k5OVHctvcF" opacity="1" fill="#369040" fill-opacity="1"></use><g><use xlink:href="#k5OVHctvcF" opacity="1" fill-opacity="0" stroke="#000000" stroke-width="1" stroke-opacity="0"></use></g></g><g><use xlink:href="#e4iEZctFU9" opacity="1" fill="#369040" fill-opacity="1"></use><g><use xlink:href="#e4iEZctFU9" opacity="1" fill-opacity="0" stroke="#000000" stroke-width="1" stroke-opacity="0"></use></g></g><g><use xlink:href="#bG55HLDFn" opacity="1" fill="#369040" fill-opacity="1"></use><g><use xlink:href="#bG55HLDFn" opacity="1" fill-opacity="0" stroke="#000000" stroke-width="1" stroke-opacity="0"></use></g></g><g><use xlink:href="#ah2kGKOdi" opacity="1" fill="#369040" fill-opacity="1"></use><g><use xlink:href="#ah2kGKOdi" opacity="1" fill-opacity="0" stroke="#000000" stroke-width="1" stroke-opacity="0"></use></g></g><g><use xlink:href="#b1xOLeLqgD" opacity="1" fill="#006bb4" fill-opacity="1"></use><g><use xlink:href="#b1xOLeLqgD" opacity="1" fill-opacity="0" stroke="#000000" stroke-width="1" stroke-opacity="0"></use></g></g><g><use xlink:href="#ceMHb2Tio" opacity="1" fill="#006bb4" fill-opacity="1"></use><g><use xlink:href="#ceMHb2Tio" opacity="1" fill-opacity="0" stroke="#000000" stroke-width="1" stroke-opacity="0"></use></g></g><g><use xlink:href="#eHH61b3j" opacity="1" fill="#006bb4" fill-opacity="1"></use><g><use xlink:href="#eHH61b3j" opacity="1" fill-opacity="0" stroke="#000000" stroke-width="1" stroke-opacity="0"></use></g></g><g><use xlink:href="#a1sYhEOfHa" opacity="1" fill="#006bb4" fill-opacity="1"></use><g><use xlink:href="#a1sYhEOfHa" opacity="1" fill-opacity="0" stroke="#000000" stroke-width="1" stroke-opacity="0"></use></g></g><g><use xlink:href="#d1AAt3JMge" opacity="1" fill="#006bb4" fill-opacity="1"></use><g><use xlink:href="#d1AAt3JMge" opacity="1" fill-opacity="0" stroke="#000000" stroke-width="1" stroke-opacity="0"></use></g></g><g><use xlink:href="#d1lryZhzD" opacity="1" fill="#006bb4" fill-opacity="1"></use><g><use xlink:href="#d1lryZhzD" opacity="1" fill-opacity="0" stroke="#000000" stroke-width="1" stroke-opacity="0"></use></g></g><g><use xlink:href="#b3GbYy1p4" opacity="1" fill="#006bb4" fill-opacity="1"></use><g><use xlink:href="#b3GbYy1p4" opacity="1" fill-opacity="0" stroke="#000000" stroke-width="1" stroke-opacity="0"></use></g></g><g><use xlink:href="#a7dtwrb5DF" opacity="1" fill="#006bb4" fill-opacity="1"></use><g><use xlink:href="#a7dtwrb5DF" opacity="1" fill-opacity="0" stroke="#000000" stroke-width="1" stroke-opacity="0"></use></g></g><g><use xlink:href="#c15XTM1q9t" opacity="1" fill="#006bb4" fill-opacity="1"></use><g><use xlink:href="#c15XTM1q9t" opacity="1" fill-opacity="0" stroke="#000000" stroke-width="1" stroke-opacity="0"></use></g></g><g><use xlink:href="#b1ka3HfnNo" opacity="1" fill="#006bb4" fill-opacity="1"></use><g><use xlink:href="#b1ka3HfnNo" opacity="1" fill-opacity="0" stroke="#000000" stroke-width="1" stroke-opacity="0"></use></g></g><g><use xlink:href="#foL8AXKT7" opacity="1" fill="#006bb4" fill-opacity="1"></use><g><use xlink:href="#foL8AXKT7" opacity="1" fill-opacity="0" stroke="#000000" stroke-width="1" stroke-opacity="0"></use></g></g><g><use xlink:href="#c243LDvkJj" opacity="1" fill="#006bb4" fill-opacity="1"></use><g><use xlink:href="#c243LDvkJj" opacity="1" fill-opacity="0" stroke="#000000" stroke-width="1" stroke-opacity="0"></use></g></g><g><use xlink:href="#a30YFsLhwA" opacity="1" fill="#006bb4" fill-opacity="1"></use><g><use xlink:href="#a30YFsLhwA" opacity="1" fill-opacity="0" stroke="#000000" stroke-width="1" stroke-opacity="0"></use></g></g><g><use xlink:href="#e2GxKLQxQN" opacity="1" fill="#006bb4" fill-opacity="1"></use><g><use xlink:href="#e2GxKLQxQN" opacity="1" fill-opacity="0" stroke="#000000" stroke-width="1" stroke-opacity="0"></use></g></g><g><use xlink:href="#b4Yr9sL8qg" opacity="1" fill="#006bb4" fill-opacity="1"></use><g><use xlink:href="#b4Yr9sL8qg" opacity="1" fill-opacity="0" stroke="#000000" stroke-width="1" stroke-opacity="0"></use></g></g><g><use xlink:href="#c1iTDErchA" opacity="1" fill="#006bb4" fill-opacity="1"></use><g><use xlink:href="#c1iTDErchA" opacity="1" fill-opacity="0" stroke="#000000" stroke-width="1" stroke-opacity="0"></use></g></g><g><use xlink:href="#a1Dx4HrnF" opacity="1" fill="#006bb4" fill-opacity="1"></use><g><use xlink:href="#a1Dx4HrnF" opacity="1" fill-opacity="0" stroke="#000000" stroke-width="1" stroke-opacity="0"></use></g></g><g><use xlink:href="#d1De1xbHtI" opacity="1" fill="#006bb4" fill-opacity="1"></use><g><use xlink:href="#d1De1xbHtI" opacity="1" fill-opacity="0" stroke="#000000" stroke-width="1" stroke-opacity="0"></use></g></g><g><use xlink:href="#b4lCaFDyK1" opacity="1" fill="#006bb4" fill-opacity="1"></use><g><use xlink:href="#b4lCaFDyK1" opacity="1" fill-opacity="0" stroke="#000000" stroke-width="1" stroke-opacity="0"></use></g></g><g><use xlink:href="#ldyN9YAgA" opacity="1" fill="#006bb4" fill-opacity="1"></use><g><use xlink:href="#ldyN9YAgA" opacity="1" fill-opacity="0" stroke="#000000" stroke-width="1" stroke-opacity="0"></use></g></g><g><use xlink:href="#amctEwco8" opacity="1" fill="#006bb4" fill-opacity="1"></use><g><use xlink:href="#amctEwco8" opacity="1" fill-opacity="0" stroke="#000000" stroke-width="1" stroke-opacity="0"></use></g></g><g><use xlink:href="#b2ovvCOIpf" opacity="1" fill="#006bb4" fill-opacity="1"></use><g><use xlink:href="#b2ovvCOIpf" opacity="1" fill-opacity="0" stroke="#000000" stroke-width="1" stroke-opacity="0"></use></g></g><g><use xlink:href="#a10Q7qs2k" opacity="1" fill="#006bb4" fill-opacity="1"></use><g><use xlink:href="#a10Q7qs2k" opacity="1" fill-opacity="0" stroke="#000000" stroke-width="1" stroke-opacity="0"></use></g></g><g><use xlink:href="#as4k9rRr0" opacity="1" fill="#006bb4" fill-opacity="1"></use><g><use xlink:href="#as4k9rRr0" opacity="1" fill-opacity="0" stroke="#000000" stroke-width="1" stroke-opacity="0"></use></g></g><g><use xlink:href="#a6lFgl0PsP" opacity="1" fill="#006bb4" fill-opacity="1"></use><g><use xlink:href="#a6lFgl0PsP" opacity="1" fill-opacity="0" stroke="#000000" stroke-width="1" stroke-opacity="0"></use></g></g><g><use xlink:href="#c66SqaqflT" opacity="1" fill="#006bb4" fill-opacity="1"></use><g><use xlink:href="#c66SqaqflT" opacity="1" fill-opacity="0" stroke="#000000" stroke-width="1" stroke-opacity="0"></use></g></g><g><use xlink:href="#bQANeIW4A" opacity="1" fill="#006bb4" fill-opacity="1"></use><g><use xlink:href="#bQANeIW4A" opacity="1" fill-opacity="0" stroke="#000000" stroke-width="1" stroke-opacity="0"></use></g></g></g></g></svg>