<?xml version="1.0" encoding="utf-8"?>
<!-- Generator: Adobe Illustrator 21.0.0, SVG Export Plug-In . SVG Version: 6.00 Build 0)  -->
<svg version="1.1" id="Слой_1" xmlns="http://www.w3.org/2000/svg" xmlns:xlink="http://www.w3.org/1999/xlink" x="0px" y="0px"
	 viewBox="0 0 271 33.9" style="enable-background:new 0 0 271 33.9;" xml:space="preserve">
<style type="text/css">
	.st0{fill:#61B739;}
	.st1{fill:#3F7C20;}
	.st2{fill-rule:evenodd;clip-rule:evenodd;fill:#61B739;}
</style>
<g>
	<path class="st0" d="M57.3,18.3H47v-18h5.2l0,14.1h5.1V18.3L57.3,18.3z M75.8,18.3h-5.6l-0.8-2.4h-6l-0.8,2.4h-4.8L65,0.3h4.2
		L75.8,18.3L75.8,18.3z M68.2,12.5l-0.9-2.9C67.1,9,66.8,8,66.4,6.8c-0.1,0.5-0.4,1.5-0.8,2.9l-1,2.9H68.2L68.2,12.5z M88.2,4.2V0.3
		H74.6l0,3.9h4.2v14.1H84V4.2H88.2L88.2,4.2z M95.9,18.3h-5.3v-18h5.3V18.3L95.9,18.3z M112.6,4.2h-7.4v3.6h6.1v3.7h-6.1v6.8H100
		v-18h12.6V4.2L112.6,4.2z M130.3,0.3v10.2c0,2.7-0.5,4.6-1.5,5.8c-1.2,1.5-3.3,2.2-6.3,2.2c-2.9,0-5-0.7-6.2-2.2
		c-1-1.3-1.5-3.2-1.5-5.8V0.3h5.3v10.2c0,1.4,0.1,2.3,0.3,2.8c0.3,0.8,1.1,1.2,2.2,1.2c1.2,0,1.9-0.4,2.3-1.2
		c0.2-0.4,0.2-1.4,0.2-2.8V0.3H130.3L130.3,0.3z M150.1,18.3h-3l-8.8-9.2v9.2h-4.3v-18h3.1l8.6,9.2V0.3h4.3V18.3L150.1,18.3z
		 M169.7,9.2c0,2.8-0.8,5-2.3,6.7c-1.5,1.6-3.7,2.4-6.5,2.4c-1.4,0-3.6,0-6.7,0v-18h7c2.8,0,4.9,0.8,6.4,2.3
		C169,4.2,169.7,6.4,169.7,9.2L169.7,9.2z M164.3,9.2c0-1.9-0.3-3.2-0.9-3.9c-0.6-0.7-1.7-1.1-3.2-1.1h-0.8v10.2h0.7
		c1.5,0,2.6-0.4,3.3-1.2C164.1,12.4,164.4,11.1,164.3,9.2L164.3,9.2z M177.7,18.3h-5.3v-18h5.3V18.3L177.7,18.3z M195.1,12.5
		c0,1.7-0.6,3-1.7,4c-1.3,1.2-3.3,1.8-5.9,1.8c-1.9,0-4.2-0.4-6.9-1.3l1-3.8c2,0.8,3.8,1.1,5.3,1.1c1.9,0,2.9-0.5,2.8-1.6
		c0-0.5-0.5-0.9-1.4-1.2c-0.1,0-0.8-0.2-2.1-0.5c-3.6-0.7-5.4-2.5-5.4-5.2c0-1.6,0.5-3,1.7-4.1c1.3-1.2,3.3-1.9,5.9-1.9
		c1.9,0,4,0.5,6.3,1.5l-1.2,3.8c-1.7-0.8-3.2-1.2-4.6-1.2c-1.8,0-2.7,0.5-2.6,1.4c0,0.4,0.7,0.8,1.9,1.1l2,0.5
		C193.5,7.7,195.1,9.6,195.1,12.5L195.1,12.5z M209.5,4.2h-4.2v14.1h-5.2V4.2H196l0-3.9h13.5V4.2L209.5,4.2z M213.5,18.3v-4.5h-5.3
		v4.5H213.5L213.5,18.3z M229.3,17c-2.3,1-4.3,1.5-6,1.5c-2.7,0-4.8-1-6.4-2.9c-1.4-1.7-2-3.9-2-6.5c0-2.6,0.7-4.7,2-6.4
		c1.5-1.9,3.6-2.8,6.3-2.8c1.5,0,3.5,0.5,5.8,1.4l-1,3.6c-1.8-0.7-3-1-3.8-1c-1.4,0-2.4,0.4-3,1.2c-0.6,0.8-0.9,2.1-0.9,3.9
		c0,3.5,1.3,5.3,4,5.3c0.8,0,2.2-0.3,4.1-1L229.3,17L229.3,17z M248,9.3c0,2.7-0.6,4.8-1.9,6.4c-1.5,1.9-3.8,2.9-7,2.9
		c-3.2,0-5.5-1-7-2.9c-1.2-1.6-1.9-3.7-1.9-6.4c0-2.7,0.6-4.8,1.9-6.4c1.5-1.9,3.8-2.9,7-2.9c3.2,0,5.5,1,7,2.9
		C247.4,4.5,248,6.6,248,9.3L248,9.3z M242.6,9.3c0-3.5-1.2-5.2-3.5-5.2c-2.3,0-3.5,1.7-3.5,5.2c0,3.5,1.2,5.2,3.5,5.2
		C241.4,14.5,242.6,12.8,242.6,9.3L242.6,9.3z M271,18.3h-5.3v-7.9l-4,7.9h-2.7l-4-7.8v7.8h-4.2v-18h4.5l5.5,10.9l5.3-10.9h4.9V18.3
		z"/>
	<path class="st1" d="M47.9,28v4.1h-1.1v-5h3.5V28H47.9z"/>
	<path class="st1" d="M57.1,32.1V28h-1.5l-0.1,2.2c0,1.3-0.6,2-1.5,2c-0.2,0-0.5,0-0.7-0.1v-0.9c0.1,0,0.3,0,0.4,0
		c0.3,0,0.7-0.2,0.7-1.2l0.1-2.9h3.7v5H57.1z"/>
	<path class="st1" d="M64.8,26.9c1.2,0,2,0.4,2,1.5V31c0,0.3,0.1,0.4,0.3,0.4c0.1,0,0.1,0,0.3,0v0.8c-0.3,0.1-0.5,0.1-0.7,0.1
		c-0.4,0-0.7-0.2-0.8-0.6c-0.5,0.4-1.1,0.6-1.7,0.6c-1,0-1.7-0.6-1.7-1.5c0-1.3,1.2-1.4,2.2-1.6c0.8-0.1,1-0.1,1.1-0.3
		c0-0.1,0.1-0.2,0.1-0.4c0-0.5-0.3-0.8-1-0.8c-0.7,0-1,0.2-1.1,0.9h-1C62.8,27.4,63.6,26.9,64.8,26.9z M64.6,29.8
		c-0.5,0.1-1.1,0.2-1.1,0.8c0,0.5,0.3,0.7,0.9,0.7c0.5,0,0.9-0.1,1.1-0.4c0.2-0.2,0.2-0.6,0.2-0.9v-0.6C65.4,29.8,65,29.8,64.6,29.8
		z"/>
	<path class="st1" d="M74,32.1h-2.6v-5h2.7c0.9,0,1.5,0.4,1.5,1.2c0,0.5-0.2,0.8-0.7,1.1v0c0.6,0.2,0.9,0.6,0.9,1.3
		C75.9,31.6,75.2,32.1,74,32.1z M72.5,27.9v1.1h1.4c0.4,0,0.6-0.2,0.6-0.6c0-0.4-0.2-0.5-0.7-0.5H72.5z M72.5,29.9v1.4H74
		c0.5,0,0.7-0.2,0.7-0.7c0-0.4-0.3-0.7-0.7-0.7H72.5z"/>
	<path class="st1" d="M80.1,32.1v-5h1.1V29h2.2v-1.9h1.1v5h-1.1v-2.2h-2.2v2.2H80.1z"/>
	<path class="st1" d="M91.4,32.1H89v-5h1.1v1.8h1.3c1.1,0,1.7,0.6,1.7,1.6C93.1,31.5,92.5,32.1,91.4,32.1z M91.3,29.8h-1.2v1.5h1.2
		c0.5,0,0.7-0.3,0.7-0.7C92,30.1,91.8,29.8,91.3,29.8z M94.9,27.1v5h-1.1v-5H94.9z"/>
	<path class="st1" d="M99.4,32.1v-5h1.1v3.6h0l1.9-3.6h1.4v5h-1.1v-3.6h0l-1.9,3.6H99.4z M101.6,26.4c-1,0-1.5-0.4-1.6-1.4h0.6
		c0.1,0.5,0.4,0.7,1,0.7c0.6,0,0.9-0.2,1-0.7h0.6C103,26,102.5,26.4,101.6,26.4z"/>
	<path class="st1" d="M116.6,32.2c-1.5,0-2.4-1.1-2.4-2.6c0-1.6,1-2.7,2.5-2.7c1.3,0,2.1,0.7,2.2,1.8h-1.1c-0.1-0.6-0.5-1-1.1-1
		c-0.8,0-1.4,0.7-1.4,1.8c0,1.1,0.5,1.8,1.3,1.8c0.7,0,1.1-0.4,1.2-1.1h1.1C118.7,31.4,117.8,32.2,116.6,32.2z"/>
	<path class="st1" d="M125.2,26.9c1.2,0,2,0.4,2,1.5V31c0,0.3,0.1,0.4,0.3,0.4c0.1,0,0.1,0,0.3,0v0.8c-0.3,0.1-0.5,0.1-0.7,0.1
		c-0.4,0-0.7-0.2-0.8-0.6c-0.5,0.4-1.1,0.6-1.7,0.6c-1,0-1.7-0.6-1.7-1.5c0-1.3,1.2-1.4,2.2-1.6c0.8-0.1,1-0.1,1.1-0.3
		c0-0.1,0.1-0.2,0.1-0.4c0-0.5-0.3-0.8-1-0.8c-0.7,0-1,0.2-1.1,0.9h-1C123.1,27.4,124,26.9,125.2,26.9z M125,29.8
		c-0.5,0.1-1.1,0.2-1.1,0.8c0,0.5,0.3,0.7,0.9,0.7c0.5,0,0.9-0.1,1.1-0.4c0.2-0.2,0.2-0.6,0.2-0.9v-0.6
		C125.8,29.8,125.4,29.8,125,29.8z"/>
	<path class="st1" d="M131.8,32.1v-5h1.1v3.6h0l1.9-3.6h1.4v5h-1.1v-3.6h0l-1.9,3.6H131.8z M134,26.4c-1,0-1.5-0.4-1.6-1.4h0.6
		c0.1,0.5,0.4,0.7,1,0.7c0.6,0,0.9-0.2,1-0.7h0.6C135.5,26,135,26.4,134,26.4z"/>
	<path class="st1" d="M142.9,28v4.1h-1.1V28h-1.6v-0.9h4.4V28H142.9z"/>
	<path class="st1" d="M210.1,29.6c0,1.6-1,2.6-2.5,2.6c-1.6,0-2.5-1-2.5-2.6c0-1.6,1-2.6,2.5-2.6C209.1,26.9,210.1,28,210.1,29.6z
		 M206.2,29.6c0,1.1,0.5,1.8,1.4,1.8c0.9,0,1.4-0.7,1.4-1.8c0-1.1-0.5-1.8-1.4-1.8C206.7,27.8,206.2,28.5,206.2,29.6z"/>
	<path class="st1" d="M182,26.9c1.2,0,2,0.4,2,1.5V31c0,0.3,0.1,0.4,0.3,0.4c0.1,0,0.1,0,0.3,0v0.8c-0.3,0.1-0.5,0.1-0.7,0.1
		c-0.4,0-0.7-0.2-0.8-0.6c-0.5,0.4-1.1,0.6-1.7,0.6c-1,0-1.7-0.6-1.7-1.5c0-1.3,1.2-1.4,2.2-1.6c0.8-0.1,1-0.1,1.1-0.3
		c0-0.1,0.1-0.2,0.1-0.4c0-0.5-0.3-0.8-1-0.8c-0.7,0-1,0.2-1.1,0.9h-1C179.9,27.4,180.8,26.9,182,26.9z M181.8,29.8
		c-0.5,0.1-1.1,0.2-1.1,0.8c0,0.5,0.3,0.7,0.9,0.7c0.5,0,0.9-0.1,1.1-0.4c0.2-0.2,0.2-0.6,0.2-0.9v-0.6
		C182.6,29.8,182.2,29.8,181.8,29.8z"/>
	<path class="st1" d="M189.7,28v4.1h-1.1v-5h3.5V28H189.7z"/>
	<path class="st1" d="M197.1,27.8c0.3-0.6,1-0.8,1.6-0.8c1.4,0,2.3,1,2.3,2.6c0,1.6-0.9,2.6-2.2,2.6c-0.7,0-1.2-0.2-1.6-0.8v2.5
		h-1.1v-6.8h1V27.8z M197.1,29.6c0,1.1,0.5,1.7,1.4,1.7c0.8,0,1.4-0.7,1.4-1.7c0-1.1-0.5-1.8-1.4-1.8
		C197.6,27.8,197.1,28.5,197.1,29.6z"/>
	<path class="st1" d="M216.8,32.2c-1.1,0-1.9-0.5-2.3-1.4c-0.2-0.4-0.3-0.9-0.3-1.6c0-1,0.1-2.2,0.6-2.9c0.4-0.7,1.1-1,2-1
		c0.6,0,0.9,0,1-0.3h1.1c-0.2,1.2-1.1,1.1-2.2,1.2c-1,0.1-1.5,0.8-1.7,1.9h0c0.4-0.6,0.9-1,1.9-1c1.3,0,2.3,1,2.3,2.6
		C219.2,31.2,218.2,32.2,216.8,32.2z M216.7,28c-0.8,0-1.3,0.7-1.3,1.7c0,1,0.5,1.7,1.3,1.7c0.8,0,1.3-0.7,1.3-1.7
		C218.1,28.6,217.5,28,216.7,28z"/>
	<g>
		<path class="st1" d="M159.7,29.6c0,1.6-1,2.6-2.5,2.6c-1.6,0-2.5-1-2.5-2.6c0-1.6,1-2.6,2.5-2.6C158.8,26.9,159.7,28,159.7,29.6z
			 M155.8,29.6c0,1.1,0.5,1.8,1.4,1.8c0.9,0,1.4-0.7,1.4-1.8c0-1.1-0.5-1.8-1.4-1.8C156.4,27.8,155.8,28.5,155.8,29.6z"/>
		<path class="st1" d="M165.5,32.2c-1.1,0-1.9-0.5-2.3-1.4c-0.2-0.4-0.3-0.9-0.3-1.6c0-1,0.1-2.2,0.6-2.9c0.4-0.7,1.1-1,2-1
			c0.6,0,0.9,0,1-0.3h1.1c-0.2,1.2-1.1,1.1-2.2,1.2c-1,0.1-1.5,0.8-1.7,1.9h0c0.4-0.6,0.9-1,1.9-1c1.3,0,2.3,1,2.3,2.6
			C167.9,31.2,166.9,32.2,165.5,32.2z M165.4,28c-0.8,0-1.3,0.7-1.3,1.7c0,1,0.5,1.7,1.3,1.7c0.8,0,1.3-0.7,1.3-1.7
			C166.8,28.6,166.2,28,165.4,28z"/>
	</g>
	<path class="st1" d="M223.5,32.1v-5h1.1v3.6h0l1.9-3.6h1.4v5h-1.1v-3.6h0l-1.9,3.6H223.5z"/>
	<path class="st1" d="M234.3,32.2c-1.4,0-2.2-0.7-2.2-1.7h1.1c0.1,0.7,0.6,0.8,1.1,0.8c0.6,0,1-0.3,1-0.7c0-0.4-0.2-0.7-1-0.7h-0.6
		v-0.8h0.4c0.6,0,1-0.2,1-0.7c0-0.4-0.3-0.6-0.9-0.6c-0.6,0-0.9,0.3-1,0.7h-1.1c0.1-1.3,1.2-1.6,2.2-1.6c1,0,1.9,0.4,1.9,1.3
		c0,0.6-0.4,1-0.8,1.1v0c0.5,0.1,1,0.5,1,1.2C236.5,31.7,235.4,32.2,234.3,32.2z"/>
	<path class="st1" d="M240.8,32.1v-5h1.1V29h2.2v-1.9h1.1v5h-1.1v-2.2h-2.2v2.2H240.8z"/>
	<path class="st1" d="M251.9,32.2c-1.5,0-2.4-1.1-2.4-2.6c0-1.6,1-2.7,2.4-2.7c1.5,0,2.4,1.1,2.4,2.8v0.1h-3.7c0,1,0.5,1.6,1.4,1.6
		c0.6,0,1-0.3,1.2-0.9h1.1C253.9,31.6,253,32.2,251.9,32.2z M251.8,27.8c-0.7,0-1.2,0.5-1.3,1.3h2.6C253,28.3,252.5,27.8,251.8,27.8
		z"/>
	<path class="st1" d="M268.7,32.2c-1.5,0-2.4-1.1-2.4-2.6c0-1.6,1-2.7,2.4-2.7c1.5,0,2.4,1.1,2.4,2.8v0.1h-3.7c0,1,0.5,1.6,1.4,1.6
		c0.6,0,1-0.3,1.2-0.9h1.1C270.7,31.6,269.8,32.2,268.7,32.2z M268.6,27.8c-0.7,0-1.2,0.5-1.3,1.3h2.6
		C269.8,28.3,269.4,27.8,268.6,27.8z"/>
	<path class="st1" d="M260.6,32.2c-1.5,0-2.4-1.1-2.4-2.6c0-1.6,1-2.7,2.5-2.7c1.3,0,2.1,0.7,2.2,1.8h-1.1c-0.1-0.6-0.5-1-1.1-1
		c-0.8,0-1.4,0.7-1.4,1.8c0,1.1,0.5,1.8,1.3,1.8c0.7,0,1.1-0.4,1.2-1.1h1.1C262.8,31.4,261.9,32.2,260.6,32.2z"/>
	<path class="st1" d="M0,13.4v3c0.4-0.2,0.7-0.5,1.1-0.7c0.1-0.1,0.2-0.1,0.2-0.2C0.9,14.9,0.5,14.1,0,13.4z M0,7.2v3
		c1,1.5,2,3,2.9,4.5c0.3-0.2,0.5-0.3,0.8-0.4c0.2-0.2,0.5-0.3,0.8-0.4v0C3,11.5,1.6,9.3,0,7.2z M20.2,6.1c-1,0.4-2.1,0.8-3.1,1.3
		c-0.1,0.1-0.2,0.1-0.4,0.2c-0.4,0.2-0.8,0.4-1.3,0.6c-0.2-0.4-0.5-0.9-0.8-1.3c-0.9-0.3-1.8-0.6-2.7-0.9c0.6,1,1.2,1.9,1.8,2.9
		c-0.2,0.1-0.3,0.2-0.5,0.2c-0.4,0.2-0.7,0.4-1.1,0.5c-0.3-0.6-0.7-1.1-1-1.7C11,7.6,10.8,7.3,10.6,7c-0.4-0.6-0.8-1.2-1.1-1.8
		C8.6,4.9,7.7,4.7,6.8,4.5c1.4,1.9,2.6,3.9,3.8,5.9c-0.5,0.3-1.1,0.5-1.6,0.8c-0.3-0.5-0.6-1.1-1-1.6C8,9.4,7.8,9.1,7.6,8.8
		C7.2,8.2,6.9,7.6,6.5,7.1C6.2,6.6,5.9,6.1,5.5,5.7c0,0,0-0.1-0.1-0.1C5.3,5.3,5.1,5,4.9,4.7C4.7,4.5,4.5,4.2,4.3,3.9
		C3.4,3.7,2.5,3.5,1.6,3.4c2.1,2.8,4.1,5.7,5.9,8.7c-0.4,0.2-0.7,0.4-1.1,0.6c-0.2,0.1-0.3,0.2-0.5,0.3v0c-1.9-3.1-3.8-6-6-8.8V0.5
		C7.1,1.6,13.7,3.4,20.2,6.1z"/>
	<path class="st2" d="M37.9,13.8v3.5C24.5,19,11.8,23.1,0,29.4v-2.7C11.8,20.2,24.5,15.8,37.9,13.8z M0,21.5v2.6
		c11.8-6.7,24.5-11.4,37.9-13.7V7.1C24.5,9.6,11.8,14.6,0,21.5z M14.5,32.1h23.4V28C29.8,28.5,22,29.8,14.5,32.1z M20.2,6.1
		c-1,0.4-2.1,0.8-3.1,1.3c-0.1,0.1-0.2,0.1-0.4,0.2c-0.4,0.2-0.8,0.4-1.3,0.6c-0.5,0.2-1.1,0.5-1.6,0.7c-0.2,0.1-0.3,0.2-0.5,0.2
		c-0.9,0.4-1.8,0.9-2.7,1.3c-0.5,0.3-1.1,0.5-1.6,0.8c-0.5,0.3-1.1,0.6-1.6,0.8c-0.5,0.3-1,0.5-1.5,0.8v0c-0.5,0.3-1,0.6-1.6,0.9
		c-0.3,0.1-0.5,0.3-0.8,0.4c-0.3,0.1-0.5,0.3-0.8,0.4c-0.5,0.3-1,0.6-1.5,0.9c-0.1,0.1-0.2,0.1-0.2,0.2C0.7,16,0.4,16.2,0,16.4V19
		C11.8,11.8,24.5,6.6,37.9,3.7V0.5C31.8,1.9,25.9,3.8,20.2,6.1z M0,32L0,32l6,0c10.1-4.2,20.8-6.8,31.8-7.7v-3.6
		C24.6,22.2,11.8,26.1,0,32z"/>
</g>
</svg>
