<?xml version="1.0" encoding="utf-8"?>
<!-- Generator: Adobe Illustrator 23.0.3, SVG Export Plug-In . SVG Version: 6.00 Build 0)  -->
<svg version="1.1" id="_x31_" xmlns="http://www.w3.org/2000/svg" xmlns:xlink="http://www.w3.org/1999/xlink" x="0px" y="0px"
	 viewBox="0 0 129.52 24.68" style="enable-background:new 0 0 129.52 24.68;" xml:space="preserve">
<style type="text/css">
	.st0{fill-rule:evenodd;clip-rule:evenodd;fill:#FF4D00;}
	.st1{fill-rule:evenodd;clip-rule:evenodd;}
	.st2{fill-rule:evenodd;clip-rule:evenodd;fill:#F8E246;}
	.st3{fill-rule:evenodd;clip-rule:evenodd;fill:#70DB97;}
	.st4{fill-rule:evenodd;clip-rule:evenodd;fill:#75D1E0;}
	.st5{fill-rule:evenodd;clip-rule:evenodd;fill:#FFFFFF;}
	.st6{fill-rule:evenodd;clip-rule:evenodd;fill:#FFFFFF;stroke:#000000;stroke-width:0.216;stroke-miterlimit:22.9256;}
</style>
<g>
	<rect class="st2" width="24.68" height="24.68"/>
	<path class="st1" d="M92.2,8.58c0.46,0,0.81,0.19,1.05,0.59c0.1,0.19,0.15,0.38,0.15,0.58v0.04c0,0.36-0.14,0.67-0.43,0.91
		c-0.22,0.18-0.49,0.27-0.79,0.27c-0.42,0-0.76-0.17-1.01-0.5c-0.14-0.21-0.21-0.44-0.21-0.7c0-0.42,0.17-0.76,0.53-1
		C91.7,8.64,91.93,8.58,92.2,8.58L92.2,8.58z M9.71,11.48V8.59H7.36v7.4h2.35v-2.66h0.73l2,2.66h2.78l-2.85-3.57l2.3-3.83H12.1
		l-1.5,2.89H9.71L9.71,11.48z M21.23,13.19c0,1.92,1.67,2.91,3.54,2.91c1.73,0,3.55-0.91,3.55-2.91V8.59h-2.27v4.36
		c0,0.73-0.61,1.15-1.28,1.15c-0.63,0-1.27-0.39-1.27-1.15V8.59h-2.27V13.19L21.23,13.19z M37.09,14.02h0.73l1.37,1.97h2.78
		l-1.8-2.48c0.68-0.26,1.35-1.12,1.35-2.25c0-1.46-0.94-2.67-2.91-2.67h-3.86v7.4h2.33V14.02L37.09,14.02z M38.13,10.54
		c0.66,0,1.01,0.2,1.01,0.79c0,0.58-0.39,0.8-1.01,0.8h-1.04v-1.59H38.13L38.13,10.54z M50.55,11.48V8.59H48.2v7.4h2.35v-2.66h0.72
		l2,2.66h2.78l-2.85-3.57l2.31-3.83h-2.57l-1.5,2.89H50.55L50.55,11.48z M62.07,13.19c0,1.92,1.67,2.91,3.54,2.91
		c1.73,0,3.55-0.91,3.55-2.91V8.59h-2.27v4.36c0,0.73-0.61,1.15-1.28,1.15c-0.63,0-1.27-0.39-1.27-1.15V8.59h-2.27V13.19
		L62.07,13.19z M81.4,14.15h-3.45V8.59h-2.36v7.4h5.81V14.15L81.4,14.15z M84.95,15.84v-0.02c0-0.07,0.04-0.12,0.11-0.15
		c0.01,0,0.03-0.01,0.04-0.01h0.03c0.07,0,0.13,0.05,0.16,0.13c0,0.01,0,0.03,0,0.04c0,0.06-0.03,0.11-0.1,0.15
		c-0.03,0.01-0.05,0.02-0.07,0.02h-0.01c-0.07,0-0.12-0.04-0.16-0.13C84.95,15.86,84.95,15.85,84.95,15.84L84.95,15.84z M83.35,14.2
		c0-0.2,0.03-0.35,0.11-0.46c0.01-0.02,0.03-0.05,0.06-0.08h0.26v0.01c-0.12,0.18-0.18,0.35-0.18,0.52v0.01
		c0,0.25,0.1,0.46,0.3,0.61c0.13,0.08,0.27,0.13,0.42,0.13c0.26,0,0.46-0.11,0.62-0.33c0.07-0.13,0.11-0.26,0.11-0.41v-0.01
		c0-0.16-0.06-0.34-0.18-0.52v-0.01h0.26c0.05,0.05,0.1,0.14,0.14,0.27c0.02,0.08,0.03,0.18,0.03,0.28c0,0.32-0.12,0.59-0.36,0.79
		c-0.17,0.14-0.38,0.21-0.6,0.21h-0.02c-0.31,0-0.57-0.13-0.77-0.39C83.41,14.64,83.35,14.44,83.35,14.2L83.35,14.2z M83.35,12.23
		c0-0.32,0.12-0.59,0.36-0.8c0.18-0.13,0.37-0.2,0.58-0.2h0.03c0.31,0,0.57,0.13,0.77,0.4c0.12,0.18,0.18,0.38,0.18,0.6
		c0,0.35-0.13,0.63-0.4,0.83c-0.17,0.12-0.35,0.18-0.55,0.18H84.3c-0.29,0-0.54-0.12-0.74-0.37C83.42,12.69,83.35,12.47,83.35,12.23
		L83.35,12.23z M84.29,12.97h0.04c0.2,0,0.37-0.08,0.52-0.23c0.13-0.14,0.19-0.31,0.19-0.5c0-0.25-0.1-0.44-0.3-0.6
		c-0.13-0.09-0.26-0.13-0.41-0.13h-0.04c-0.23,0-0.43,0.1-0.58,0.31c-0.08,0.13-0.12,0.27-0.12,0.41c0,0.26,0.1,0.46,0.31,0.61
		C84.03,12.92,84.16,12.97,84.29,12.97L84.29,12.97z M83.35,10.64c0-0.08,0-0.13,0-0.14c0.87-0.56,1.32-0.86,1.35-0.88l0,0
		c-0.02-0.01-0.47-0.31-1.35-0.88v0c0-0.01,0-0.06,0-0.14c0,0,0,0,0,0c0.24,0,0.42,0,0.55,0h1.38c0,0,0.01,0,0.01,0v0.25l0,0.01
		c-0.07,0-0.14,0-0.17,0h-0.5c-0.16,0-0.37,0-0.64,0l0,0v0c0.03,0.02,0.35,0.22,0.95,0.61c0.09,0.06,0.13,0.09,0.14,0.09v0.12
		c-0.55,0.35-0.91,0.59-1.09,0.7v0h1.31c0,0,0.01,0,0.01,0v0.25c0,0,0,0.01-0.01,0.01h-1.93C83.35,10.65,83.35,10.65,83.35,10.64
		L83.35,10.64z M91.41,9.73v0.08c0,0.25,0.11,0.46,0.31,0.63c0.14,0.09,0.29,0.14,0.44,0.14h0.06c0.25,0,0.46-0.11,0.62-0.33
		c0.09-0.14,0.13-0.3,0.13-0.49c0-0.33-0.13-0.57-0.4-0.72c-0.11-0.06-0.23-0.09-0.35-0.09h-0.07c-0.27,0-0.48,0.13-0.65,0.38
		C91.44,9.47,91.41,9.6,91.41,9.73L91.41,9.73z M93.91,8.58h0.42c0,0,0.01,0,0.01,0.01v1h1.35v-1c0,0,0-0.01,0.01-0.01h0.42
		c0.01,0,0.01,0,0.01,0.01v2.37c0,0.01,0,0.01-0.01,0.01H95.7c-0.01,0-0.01,0-0.01-0.01V9.97h-1.35v0.98c0,0.01,0,0.01-0.01,0.01
		h-0.42c-0.01,0-0.01,0-0.01-0.01V8.59C93.9,8.58,93.91,8.58,93.91,8.58L93.91,8.58z M97.14,8.62h1.79c0.01,0,0.01,0.01,0.01,0.01
		v2.33c0,0.01,0,0.01-0.01,0.01h-0.41c-0.01,0-0.01,0-0.01-0.01V8.99H97.5c-0.03,0.6-0.06,0.99-0.08,1.16
		c-0.03,0.19-0.07,0.34-0.11,0.43C97.2,10.87,97.03,11,96.79,11c-0.08,0-0.17-0.01-0.27-0.04c0.01-0.21,0.03-0.33,0.03-0.36
		c0,0,0,0,0,0c0.03,0.01,0.06,0.01,0.09,0.01h0.04c0.2,0,0.32-0.2,0.36-0.6C97.08,9.8,97.1,9.33,97.14,8.62L97.14,8.62L97.14,8.62z
		 M100.51,8.58c0.4,0,0.69,0.14,0.85,0.42c0.08,0.13,0.12,0.33,0.12,0.62v1.31c0,0,0,0.01-0.01,0.01h-0.26
		c-0.01-0.01-0.06-0.11-0.13-0.3h-0.01c-0.14,0.22-0.39,0.33-0.74,0.33h-0.04c-0.38,0-0.65-0.14-0.79-0.43
		c-0.03-0.08-0.05-0.17-0.05-0.26c0-0.31,0.16-0.52,0.48-0.63c0.13-0.03,0.27-0.05,0.42-0.05c0.26,0,0.49,0.03,0.71,0.09V9.57
		c0-0.29-0.09-0.46-0.26-0.54c-0.09-0.05-0.21-0.07-0.37-0.07c-0.28,0-0.52,0.06-0.73,0.2h-0.01V8.8c0.06-0.04,0.15-0.09,0.28-0.14
		C100.1,8.61,100.29,8.58,100.51,8.58L100.51,8.58z M99.86,10.26c0,0.17,0.1,0.29,0.29,0.35c0.06,0.02,0.14,0.03,0.22,0.03h0.01
		c0.33,0,0.55-0.14,0.67-0.42v-0.07c0-0.03,0-0.07,0-0.13c-0.2-0.08-0.41-0.12-0.63-0.12C100.05,9.9,99.86,10.02,99.86,10.26
		L99.86,10.26z M102.55,7.64h0.28c0,0,0.01,0,0.01,0.01v0.02c0,0.12,0.06,0.22,0.18,0.29c0.06,0.04,0.13,0.05,0.23,0.05
		c0.19,0,0.31-0.07,0.39-0.22c0.01-0.04,0.02-0.08,0.03-0.14l0.01,0h0.29l0.01,0c0,0.28-0.13,0.47-0.39,0.58
		c-0.1,0.03-0.19,0.04-0.28,0.04h-0.07c-0.37,0-0.59-0.16-0.67-0.48c-0.01-0.04-0.01-0.09-0.02-0.14L102.55,7.64L102.55,7.64z
		 M102.12,8.58h0.42c0.01,0,0.01,0,0.01,0.01c0,0.25,0,0.81-0.01,1.65c0.07-0.06,0.59-0.61,1.56-1.65l0.03-0.02h0.25
		c0.01,0,0.01,0,0.01,0.01v2.37c0,0.01,0,0.01-0.01,0.01h-0.41l-0.01,0c0-0.01,0-0.05,0-0.12c0-0.39,0-0.91,0.01-1.55l-1.6,1.68
		h-0.26c0,0-0.01,0-0.01-0.01L102.12,8.58C102.11,8.58,102.12,8.58,102.12,8.58L102.12,8.58z M105.05,8.58h0.42
		c0.01,0,0.01,0,0.01,0.01v1h1.35v-1c0,0,0-0.01,0.01-0.01h0.42c0.01,0,0.01,0,0.01,0.01v2.37c0,0.01,0,0.01-0.01,0.01h-0.42
		c-0.01,0-0.01,0-0.01-0.01V9.97h-1.35v0.98c0,0.01,0,0.01-0.01,0.01h-0.42c0,0-0.01,0-0.01-0.01L105.05,8.58
		C105.04,8.58,105.04,8.58,105.05,8.58L105.05,8.58z M107.82,9.34h1.45c0.01,0,0.01,0,0.01,0.01v0.44c0,0.01,0,0.01-0.01,0.01h-1.45
		c-0.01,0-0.01,0-0.01-0.01V9.35C107.81,9.35,107.82,9.34,107.82,9.34L107.82,9.34z M110.73,8.58c0.4,0,0.68,0.14,0.85,0.42
		c0.08,0.13,0.12,0.33,0.12,0.62v1.31c0,0-0.01,0.01-0.01,0.01h-0.26c-0.01-0.01-0.06-0.11-0.13-0.3h-0.01
		c-0.15,0.22-0.4,0.33-0.75,0.33h-0.04c-0.38,0-0.65-0.14-0.79-0.43c-0.03-0.08-0.05-0.17-0.05-0.26c0-0.31,0.16-0.52,0.49-0.63
		c0.13-0.03,0.27-0.05,0.42-0.05c0.26,0,0.49,0.03,0.71,0.09V9.57c0-0.29-0.09-0.46-0.26-0.54c-0.09-0.05-0.21-0.07-0.37-0.07
		c-0.28,0-0.52,0.06-0.73,0.2h-0.01V8.8c0.06-0.04,0.15-0.09,0.28-0.14C110.32,8.61,110.5,8.58,110.73,8.58L110.73,8.58z
		 M110.08,10.26c0,0.17,0.1,0.29,0.29,0.35c0.06,0.02,0.14,0.03,0.22,0.03h0.01c0.33,0,0.55-0.14,0.67-0.42v-0.07
		c0-0.03,0-0.07,0-0.13c-0.2-0.08-0.41-0.12-0.63-0.12C110.27,9.9,110.08,10.02,110.08,10.26L110.08,10.26z M113.43,8.58
		c0.25,0,0.46,0.06,0.63,0.17l0,0.01v0.16c0,0.06,0,0.15,0,0.27h0c-0.19-0.16-0.4-0.23-0.63-0.23c-0.35,0-0.6,0.17-0.75,0.5
		c-0.03,0.1-0.05,0.2-0.05,0.3v0.03c0,0.32,0.13,0.56,0.4,0.72c0.12,0.06,0.25,0.09,0.4,0.09c0.22,0,0.43-0.08,0.62-0.23h0v0
		c0,0.11,0,0.2,0,0.27v0.16c-0.07,0.07-0.22,0.13-0.45,0.17c-0.08,0.01-0.14,0.01-0.19,0.01c-0.46,0-0.82-0.19-1.07-0.57
		c-0.11-0.19-0.16-0.4-0.16-0.63c0-0.46,0.2-0.8,0.59-1.04C112.97,8.63,113.19,8.58,113.43,8.58L113.43,8.58z M114.56,8.58h0.41
		c0.01,0,0.01,0,0.01,0.01v1.66l1.58-1.67h0c0.05,0,0.13,0,0.26-0.01l0.01,0.01v2.36c0,0.01,0,0.01-0.01,0.01h-0.41l-0.01,0
		c0-0.03,0-0.1,0.01-0.21c0-0.4,0-0.88,0.01-1.46l-1.59,1.67h-0.26c0,0-0.01,0-0.01-0.01V8.59C114.55,8.58,114.55,8.58,114.56,8.58
		L114.56,8.58z M118.57,8.58c0.25,0,0.46,0.06,0.63,0.17l0,0.01v0.16c0,0.06,0,0.15,0,0.27h-0.01c-0.19-0.16-0.4-0.23-0.63-0.23
		c-0.36,0-0.6,0.17-0.75,0.5c-0.03,0.1-0.05,0.2-0.05,0.3v0.03c0,0.32,0.13,0.56,0.41,0.72c0.12,0.06,0.25,0.09,0.4,0.09
		c0.22,0,0.43-0.08,0.62-0.23h0.01v0c0,0.11,0,0.2,0,0.27v0.16c-0.07,0.07-0.22,0.13-0.46,0.17c-0.07,0.01-0.14,0.01-0.19,0.01
		c-0.46,0-0.82-0.19-1.07-0.57c-0.11-0.19-0.16-0.4-0.16-0.63c0-0.46,0.2-0.8,0.59-1.04C118.11,8.63,118.33,8.58,118.57,8.58
		L118.57,8.58z M121.66,8.58L121.66,8.58c-0.07,0.25-0.12,0.37-0.12,0.38h-0.66c-0.02,0-0.05,0-0.08,0v1.99c0,0.01,0,0.01-0.01,0.01
		h-0.41c-0.01,0-0.01,0-0.01-0.01V8.96h-0.87v0c0-0.01,0.04-0.14,0.12-0.37h0.3C120.32,8.58,120.91,8.58,121.66,8.58L121.66,8.58z
		 M122.99,8.58c0.41,0,0.74,0.17,0.97,0.52c0.12,0.2,0.18,0.43,0.18,0.69c0,0.09-0.01,0.13-0.02,0.13h-1.89
		c0.01,0.13,0.07,0.26,0.16,0.38c0.18,0.2,0.4,0.3,0.68,0.3c0.3,0,0.56-0.06,0.78-0.17h0v0.37c-0.06,0.05-0.16,0.09-0.31,0.14
		c-0.11,0.03-0.27,0.04-0.47,0.04c-0.46,0-0.81-0.17-1.06-0.51c-0.13-0.2-0.2-0.43-0.2-0.69c0-0.45,0.19-0.8,0.58-1.04
		C122.58,8.63,122.78,8.58,122.99,8.58L122.99,8.58z M122.24,9.61h1.5V9.6c0-0.11-0.05-0.23-0.15-0.38
		c-0.16-0.19-0.35-0.28-0.57-0.28h-0.06c-0.27,0-0.48,0.13-0.63,0.38C122.28,9.39,122.25,9.49,122.24,9.61L122.24,9.61z
		 M124.69,8.58h0.42c0.01,0,0.01,0,0.01,0.01v1h1.35v-1c0,0,0-0.01,0.01-0.01h0.42c0,0,0.01,0,0.01,0.01v2.37
		c0,0.01,0,0.01-0.01,0.01h-0.42c-0.01,0-0.01,0-0.01-0.01V9.97h-1.35v0.98c0,0.01,0,0.01-0.01,0.01h-0.42c-0.01,0-0.01,0-0.01-0.01
		V8.59C124.68,8.58,124.68,8.58,124.69,8.58L124.69,8.58z M129.52,8.58L129.52,8.58c-0.08,0.25-0.12,0.37-0.13,0.38h-0.66
		c-0.02,0-0.05,0-0.08,0v1.99c0,0.01,0,0.01-0.01,0.01h-0.41c-0.01,0-0.01,0-0.01-0.01V8.96h-0.87v0c0-0.01,0.04-0.14,0.12-0.37h0.3
		C128.18,8.58,128.77,8.58,129.52,8.58L129.52,8.58z M92.32,12.66h0.39c0,0,0.01,0,0.01,0.01v0.89c0.18,0,0.41,0.04,0.66,0.13
		c0.15,0.06,0.29,0.15,0.43,0.29c0.17,0.2,0.26,0.44,0.26,0.71v0.06c0,0.47-0.23,0.81-0.69,1.01c-0.24,0.09-0.45,0.14-0.64,0.14
		c0,0-0.01,0-0.02,0v0.8c0,0.01,0,0.01-0.01,0.01h-0.39c-0.01,0-0.01,0-0.01-0.01v-0.8c-0.12,0-0.31-0.03-0.54-0.09
		c-0.3-0.1-0.52-0.26-0.66-0.49c-0.1-0.17-0.15-0.38-0.15-0.6c0-0.53,0.26-0.89,0.79-1.07c0.23-0.06,0.41-0.1,0.56-0.1v-0.89
		C92.31,12.66,92.31,12.66,92.32,12.66L92.32,12.66z M91.37,14.69v0.05c0,0.35,0.19,0.59,0.56,0.72c0.16,0.04,0.28,0.06,0.37,0.06
		v-1.6c-0.21,0-0.42,0.06-0.63,0.17C91.47,14.24,91.37,14.44,91.37,14.69L91.37,14.69z M92.72,13.93v1.61
		c0.16,0,0.34-0.05,0.55-0.13c0.26-0.14,0.39-0.37,0.39-0.68c0-0.38-0.2-0.63-0.59-0.74C92.93,13.94,92.81,13.93,92.72,13.93
		L92.72,13.93z M95.59,13.55c0.42,0,0.74,0.17,0.97,0.52c0.12,0.21,0.18,0.43,0.18,0.69c0,0.09-0.01,0.13-0.02,0.13h-1.88
		c0.01,0.13,0.06,0.26,0.16,0.38c0.18,0.2,0.4,0.3,0.68,0.3c0.3,0,0.56-0.06,0.78-0.17h0v0.36c-0.06,0.05-0.16,0.09-0.31,0.14
		c-0.12,0.03-0.27,0.04-0.47,0.04c-0.46,0-0.82-0.17-1.06-0.51c-0.13-0.2-0.2-0.44-0.2-0.69c0-0.45,0.19-0.8,0.58-1.04
		C95.18,13.6,95.38,13.55,95.59,13.55L95.59,13.55z M94.84,14.58h1.49v-0.01c0-0.11-0.05-0.23-0.15-0.39
		c-0.16-0.18-0.35-0.27-0.56-0.27h-0.06c-0.27,0-0.48,0.13-0.63,0.38C94.89,14.37,94.86,14.46,94.84,14.58L94.84,14.58z
		 M98.53,13.55c0.44,0,0.78,0.19,1.02,0.56c0.1,0.19,0.15,0.4,0.15,0.63c0,0.35-0.11,0.63-0.33,0.85c-0.23,0.23-0.52,0.34-0.85,0.34
		c-0.34,0-0.61-0.12-0.81-0.37v1.27c0,0.01,0,0.01-0.01,0.01h-0.41c-0.01,0-0.01,0-0.01-0.01v-3.24c0-0.01,0.01-0.01,0.01-0.01h0.27
		c0.01,0,0.05,0.12,0.12,0.36C97.89,13.68,98.18,13.55,98.53,13.55L98.53,13.55z M97.71,14.75c0,0.4,0.2,0.67,0.6,0.81
		c0.07,0.02,0.13,0.03,0.19,0.03c0.32,0,0.57-0.16,0.75-0.46c0.06-0.13,0.09-0.26,0.09-0.38c0-0.3-0.13-0.55-0.38-0.74
		c-0.11-0.07-0.28-0.1-0.5-0.1c-0.12,0-0.27,0.07-0.46,0.2C97.8,14.26,97.71,14.48,97.71,14.75L97.71,14.75z M100.18,13.55h0.31
		c0.02,0.02,0.19,0.28,0.51,0.78l0.55,0.83l1.07-1.6l0.01,0h0.27c0,0,0.01,0,0.01,0.01v2.37c0,0.01,0,0.01-0.01,0.01h-0.37
		c-0.01,0-0.01,0-0.01-0.01v-1.61h-0.01c-0.07,0.11-0.36,0.56-0.89,1.35h-0.18c-0.04-0.05-0.33-0.5-0.88-1.35h0v0.18
		c0,0.33,0,0.81,0,1.43l-0.01,0.01h-0.38c-0.01,0-0.01,0-0.01-0.01L100.18,13.55C100.17,13.56,100.18,13.55,100.18,13.55
		L100.18,13.55z M104.6,13.55c0.42,0,0.74,0.17,0.97,0.52c0.12,0.21,0.18,0.43,0.18,0.69c0,0.09-0.01,0.13-0.02,0.13h-1.88
		c0.02,0.13,0.07,0.26,0.16,0.38c0.18,0.2,0.4,0.3,0.68,0.3c0.3,0,0.56-0.06,0.78-0.17h0v0.36c-0.06,0.05-0.16,0.09-0.31,0.14
		c-0.12,0.03-0.27,0.04-0.47,0.04c-0.46,0-0.82-0.17-1.06-0.51c-0.13-0.2-0.2-0.44-0.2-0.69c0-0.45,0.19-0.8,0.58-1.04
		C104.19,13.6,104.39,13.55,104.6,13.55L104.6,13.55z M103.85,14.58h1.49v-0.01c0-0.11-0.05-0.23-0.15-0.39
		c-0.16-0.18-0.35-0.27-0.56-0.27h-0.06c-0.27,0-0.48,0.13-0.63,0.38C103.89,14.37,103.86,14.46,103.85,14.58L103.85,14.58z
		 M107.54,13.55c0.44,0,0.78,0.19,1.02,0.56c0.1,0.19,0.15,0.4,0.15,0.63c0,0.35-0.11,0.63-0.33,0.85
		c-0.23,0.23-0.52,0.34-0.85,0.34c-0.33,0-0.61-0.12-0.81-0.37v1.27c0,0.01,0,0.01-0.01,0.01h-0.41c-0.01,0-0.01,0-0.01-0.01v-3.24
		c0-0.01,0.01-0.01,0.01-0.01h0.27c0.01,0,0.05,0.12,0.12,0.36C106.9,13.68,107.18,13.55,107.54,13.55L107.54,13.55z M106.72,14.75
		c0,0.4,0.2,0.67,0.6,0.81c0.07,0.02,0.13,0.03,0.19,0.03c0.32,0,0.57-0.16,0.75-0.46c0.06-0.13,0.09-0.26,0.09-0.38
		c0-0.3-0.13-0.55-0.38-0.74c-0.11-0.07-0.28-0.1-0.5-0.1c-0.12,0-0.27,0.07-0.46,0.2C106.81,14.26,106.72,14.48,106.72,14.75
		L106.72,14.75z M110.11,13.55c0.4,0,0.68,0.14,0.85,0.42c0.08,0.12,0.12,0.33,0.12,0.62v1.31c0,0.01,0,0.01-0.01,0.01h-0.27
		c-0.01-0.01-0.05-0.11-0.12-0.3h-0.01c-0.15,0.22-0.39,0.33-0.74,0.33h-0.04c-0.38,0-0.65-0.14-0.8-0.43
		c-0.03-0.08-0.05-0.17-0.05-0.26c0-0.31,0.16-0.52,0.48-0.63c0.14-0.03,0.28-0.05,0.42-0.05c0.26,0,0.49,0.03,0.71,0.09v-0.12
		c0-0.28-0.09-0.46-0.26-0.54c-0.09-0.05-0.21-0.08-0.37-0.08c-0.28,0-0.52,0.06-0.73,0.2h-0.01v-0.35
		c0.05-0.04,0.15-0.09,0.28-0.14C109.7,13.58,109.89,13.55,110.11,13.55L110.11,13.55z M109.46,15.24c0,0.17,0.1,0.28,0.28,0.35
		c0.06,0.02,0.14,0.03,0.22,0.03h0.01c0.33,0,0.55-0.14,0.67-0.42v-0.08c0-0.03,0-0.07,0-0.13c-0.2-0.08-0.41-0.12-0.63-0.12
		C109.65,14.87,109.46,14.99,109.46,15.24z"/>
</g>
</svg>
