<?xml version="1.0" encoding="UTF-8" standalone="no"?>
<!DOCTYPE svg PUBLIC "-//W3C//DTD SVG 1.1//EN" "http://www.w3.org/Graphics/SVG/1.1/DTD/svg11.dtd">
<svg version="1.1" xmlns="http://www.w3.org/2000/svg" xmlns:xlink="http://www.w3.org/1999/xlink" preserveAspectRatio="xMidYMid meet" viewBox="0 0 640 640" width="640" height="640"><defs><path d="M154.02 101.71L542.68 101.71L542.68 452.22L154.02 452.22L154.02 101.71Z" id="dZjTiQEd2"></path><path d="M163.56 111.7L533.14 111.7L533.14 442.5L163.56 442.5L163.56 111.7Z" id="a5nGPA1j5"></path><path d="M174.12 122.58L522.58 122.58L522.58 431.62L174.12 431.62L174.12 122.58Z" id="bkBk6tvDk"></path><path d="M507.38 133.92C509.79 133.92 511.75 135.88 511.75 138.29C511.75 175.78 511.75 269.51 511.75 419.48L185.98 419.48C185.98 270.29 185.98 177.05 185.98 139.75C185.98 136.53 188.59 133.92 191.81 133.92C255.8 133.92 443.1 133.92 507.38 133.92Z" id="a6Z8HT4ywq"></path><path d="M228.34 233.92L236.59 233.92L236.59 419.48L228.34 419.48L228.34 233.92Z" id="a1S9HyOZqU"></path><path d="M259.59 176.19L267.84 176.19L267.84 419.48L259.59 419.48L259.59 176.19Z" id="l32FT7EaLG"></path><path d="M289.9 276.7L298.14 276.7L298.14 419.48L289.9 419.48L289.9 276.7Z" id="b2WmdcUWrb"></path><path d="M322.27 233.92L330.52 233.92L330.52 419.48L322.27 419.48L322.27 233.92Z" id="a329qMfulx"></path><path d="M356.08 243.2L364.33 243.2L364.33 419.48L356.08 419.48L356.08 243.2Z" id="bFJguqoOH"></path><path d="M390.52 206.08L398.76 206.08L398.76 419.48L390.52 419.48L390.52 206.08Z" id="g148VERP45"></path><path d="M421.86 233.92L430.1 233.92L430.1 419.48L421.86 419.48L421.86 233.92Z" id="a2usWLo3Rc"></path><path d="M456.29 297.84L464.54 297.84L464.54 419.48L456.29 419.48L456.29 297.84Z" id="cSFOdhV2"></path></defs><g><g><g><use xlink:href="#dZjTiQEd2" opacity="1" fill="#fafafa" fill-opacity="0"></use><g><use xlink:href="#dZjTiQEd2" opacity="1" fill-opacity="0" stroke="#083b11" stroke-width="1" stroke-opacity="0.53"></use></g></g><g><use xlink:href="#a5nGPA1j5" opacity="1" fill="#197e26" fill-opacity="0.33"></use></g><g><use xlink:href="#bkBk6tvDk" opacity="1" fill="#194d20" fill-opacity="0.27"></use></g><g><use xlink:href="#a6Z8HT4ywq" opacity="1" fill="#fafafa" fill-opacity="1"></use><g><use xlink:href="#a6Z8HT4ywq" opacity="1" fill-opacity="0" stroke="#8f9b95" stroke-width="1" stroke-opacity="1"></use></g></g><g><use xlink:href="#a1S9HyOZqU" opacity="1" fill="#b5b5b5" fill-opacity="0.11"></use><g><use xlink:href="#a1S9HyOZqU" opacity="1" fill-opacity="0" stroke="#9b9797" stroke-width="1" stroke-opacity="1"></use></g></g><g><use xlink:href="#l32FT7EaLG" opacity="1" fill="#b5b5b5" fill-opacity="0.11"></use><g><use xlink:href="#l32FT7EaLG" opacity="1" fill-opacity="0" stroke="#9b9797" stroke-width="1" stroke-opacity="1"></use></g></g><g><use xlink:href="#b2WmdcUWrb" opacity="1" fill="#b5b5b5" fill-opacity="0.11"></use><g><use xlink:href="#b2WmdcUWrb" opacity="1" fill-opacity="0" stroke="#9b9797" stroke-width="1" stroke-opacity="1"></use></g></g><g><use xlink:href="#a329qMfulx" opacity="1" fill="#b5b5b5" fill-opacity="0.11"></use><g><use xlink:href="#a329qMfulx" opacity="1" fill-opacity="0" stroke="#9b9797" stroke-width="1" stroke-opacity="1"></use></g></g><g><use xlink:href="#bFJguqoOH" opacity="1" fill="#b5b5b5" fill-opacity="0.11"></use><g><use xlink:href="#bFJguqoOH" opacity="1" fill-opacity="0" stroke="#9b9797" stroke-width="1" stroke-opacity="1"></use></g></g><g><use xlink:href="#g148VERP45" opacity="1" fill="#b5b5b5" fill-opacity="0.11"></use><g><use xlink:href="#g148VERP45" opacity="1" fill-opacity="0" stroke="#9b9797" stroke-width="1" stroke-opacity="1"></use></g></g><g><use xlink:href="#a2usWLo3Rc" opacity="1" fill="#b5b5b5" fill-opacity="0.11"></use><g><use xlink:href="#a2usWLo3Rc" opacity="1" fill-opacity="0" stroke="#9b9797" stroke-width="1" stroke-opacity="1"></use></g></g><g><use xlink:href="#cSFOdhV2" opacity="1" fill="#b5b5b5" fill-opacity="0.11"></use><g><use xlink:href="#cSFOdhV2" opacity="1" fill-opacity="0" stroke="#9b9797" stroke-width="1" stroke-opacity="1"></use></g></g></g></g></svg>