<svg width="97" height="66" fill="none" xmlns="http://www.w3.org/2000/svg"><path opacity=".05" d="M87.82 65.199H15.517c-4.853 0-8.792-3.88-8.792-8.66V16.017c0-4.78 3.939-8.659 8.792-8.659h72.31c4.854 0 8.793 3.88 8.793 8.66V56.54c-.008 4.78-3.939 8.659-8.8 8.659z" fill="#fff"/><g opacity=".61" fill="#fff"><path opacity=".05" d="M38.301 16.681c-10.84.07-19.617 8.775-19.617 19.489 0 10.752 8.847 19.48 19.742 19.48 5.111 0 9.777-1.924 13.287-5.08a20.386 20.386 0 002.008-2.085h-4.04a18.9 18.9 0 01-1.47-2.01h6.972c.43-.669.805-1.361 1.149-2.085h-9.277c-.32-.67-.594-1.355-.829-2.047h10.926a19.336 19.336 0 00.563-10.352H45.648c.148-.693.336-1.378.563-2.048h10.934a19.476 19.476 0 00-.852-2.086h-9.246c.336-.7.711-1.385 1.133-2.047h6.971a19.163 19.163 0 00-1.531-2.086h-3.885c.602-.7 1.266-1.355 1.978-1.97a19.8 19.8 0 00-13.287-5.08c-.039.008-.086.008-.125.008z"/><path opacity=".05" d="M84.655 36.168c0 10.76-8.832 19.488-19.742 19.488-10.903 0-19.743-8.72-19.75-19.48v-.008c0-10.76 8.831-19.488 19.734-19.488 10.903-.008 19.742 8.72 19.75 19.48.008 0 .008 0 .008.008z"/><path opacity=".05" d="M84.655 36.385c0 10.76-8.831 19.488-19.742 19.488-10.903.008-19.742-8.72-19.742-19.48v-.008c0-10.76 8.832-19.488 19.734-19.488 10.903-.008 19.743 8.72 19.75 19.48v.008z"/><path opacity=".05" d="M38.3 16.901c-10.84.07-19.617 8.775-19.617 19.489 0 10.76 8.847 19.488 19.742 19.488 5.111 0 9.777-1.924 13.287-5.08a19.625 19.625 0 002.008-2.086h-4.04a18.147 18.147 0 01-1.47-2.009h6.972c.43-.67.805-1.37 1.149-2.086h-9.278c-.32-.67-.593-1.354-.828-2.047h10.926a19.311 19.311 0 00.563-10.352H45.647c.148-.693.336-1.378.562-2.047h10.934a19.476 19.476 0 00-.852-2.086h-9.245c.336-.7.71-1.386 1.133-2.047h6.971a19.174 19.174 0 00-1.531-2.086h-3.885c.602-.7 1.266-1.355 1.978-1.97a19.8 19.8 0 00-13.287-5.08H38.3z"/><path opacity=".05" d="M45.523 41.349l.265-1.763c-.14 0-.351.062-.539.062-.735 0-.813-.385-.766-.67l.594-3.602h1.11l.266-1.955h-1.048l.211-1.208h-2.102c-.047.046-1.243 6.82-1.243 7.643 0 1.224.696 1.762 1.673 1.755.774 0 1.375-.208 1.579-.262zM46.194 37.986c0 2.932 1.961 3.633 3.634 3.633 1.54 0 2.22-.339 2.22-.339l.367-2.001s-1.173.515-2.236.515c-2.258 0-1.86-1.662-1.86-1.662h4.275s.274-1.347.274-1.893c0-1.363-.688-3.033-3.001-3.033-2.11-.008-3.673 2.24-3.673 4.78zm3.688-2.933c1.188 0 .97 1.317.97 1.424h-2.337c0-.138.219-1.424 1.367-1.424zM63.193 41.349l.375-2.263s-1.032.516-1.743.516c-1.493 0-2.087-1.124-2.087-2.332 0-2.448 1.282-3.803 2.712-3.803 1.07 0 1.93.593 1.93.593l.344-2.194s-1.274-.508-2.368-.508c-2.43 0-4.79 2.079-4.79 5.98 0 2.587 1.273 4.296 3.782 4.296.711 0 1.845-.285 1.845-.285zM33.963 33.23c-1.438 0-2.548.454-2.548.454l-.305 1.785s.915-.361 2.29-.361c.782 0 1.352.084 1.352.715 0 .377-.07.524-.07.524s-.618-.054-.907-.054c-1.82 0-3.728.762-3.728 3.078 0 1.817 1.25 2.24 2.032 2.24 1.485 0 2.118-.946 2.157-.954l-.07.793h1.852l.829-5.72c.008-2.423-2.142-2.5-2.884-2.5zm.453 4.648c.04.347-.219 1.986-1.485 1.986-.656 0-.82-.492-.82-.785 0-.57.312-1.247 1.852-1.247.351 0 .39.039.453.046zM38.816 41.564c.469 0 3.18.123 3.18-2.64 0-2.578-2.508-2.07-2.508-3.101 0-.516.406-.678 1.157-.678.296 0 1.438.093 1.438.093l.265-1.832s-.734-.162-1.938-.162c-1.555 0-3.134.608-3.134 2.71 0 2.378 2.634 2.14 2.634 3.14 0 .67-.735.723-1.305.723-.977 0-1.86-.33-1.868-.315l-.282 1.808c.055.016.602.254 2.36.254zM80.6 31.585l-.454 2.778s-.79-1.077-2.032-1.077c-1.93 0-3.533 2.294-3.533 4.926 0 1.7.852 3.363 2.61 3.363 1.259 0 1.954-.87 1.954-.87l-.093.74h2.047l1.61-9.868-2.11.008zm-.97 5.418c0 1.093-.547 2.556-1.688 2.556-.758 0-1.11-.624-1.11-1.609 0-1.608.735-2.67 1.657-2.67.75 0 1.141.515 1.141 1.723zM22.582 41.457l1.282-7.45.187 7.45h1.446l2.704-7.45-1.195 7.45h2.149l1.657-9.875h-3.33l-2.07 6.057-.11-6.057h-3.064l-1.68 9.875h2.024zM54.97 41.472c.61-3.433.727-6.219 2.189-5.71.258-1.332.5-1.84.781-2.402 0 0-.133-.03-.406-.03-.938 0-1.642 1.27-1.642 1.27l.188-1.163h-1.954l-1.313 8.035h2.157zM68.039 33.23a7.425 7.425 0 00-2.548.454l-.305 1.785s.915-.361 2.29-.361c.782 0 1.352.084 1.352.715 0 .377-.07.524-.07.524s-.617-.054-.907-.054c-1.82 0-3.728.762-3.728 3.078 0 1.817 1.25 2.24 2.032 2.24 1.485 0 2.118-.946 2.157-.954l-.07.793h1.852l.829-5.72c.008-2.423-2.134-2.5-2.884-2.5zm.453 4.648c.04.347-.219 1.986-1.493 1.986-.648 0-.82-.492-.82-.785 0-.57.312-1.247 1.852-1.247.36 0 .399.039.461.046zM72.618 41.472c.61-3.433.727-6.219 2.189-5.71.258-1.332.5-1.84.781-2.402 0 0-.132-.03-.406-.03-.946 0-1.641 1.27-1.641 1.27l.187-1.163h-1.962l-1.305 8.035h2.157z"/></g><path opacity=".05" d="M86.255 63.658H13.953c-4.854 0-8.793-3.88-8.793-8.66V14.476c0-4.78 3.94-8.659 8.793-8.659h72.31c4.853 0 8.792 3.88 8.792 8.66v40.523c-.007 4.78-3.939 8.659-8.8 8.659z" fill="#fff"/><g opacity=".6" fill="#fff"><path opacity=".05" d="M36.734 15.14c-10.84.069-19.617 8.774-19.617 19.488 0 10.752 8.847 19.48 19.742 19.48 5.111 0 9.777-1.924 13.287-5.08a20.387 20.387 0 002.008-2.085h-4.04a18.916 18.916 0 01-1.47-2.01h6.972c.43-.669.805-1.361 1.149-2.085h-9.278c-.32-.67-.593-1.355-.828-2.047h10.926a19.336 19.336 0 00.563-10.352H44.081c.148-.693.336-1.378.562-2.048h10.934a19.497 19.497 0 00-.851-2.086H45.48c.336-.7.71-1.385 1.133-2.047h6.971a19.163 19.163 0 00-1.531-2.086h-3.885c.602-.7 1.266-1.354 1.978-1.97a19.8 19.8 0 00-13.287-5.08c-.039.008-.086.008-.125.008z"/><path opacity=".05" d="M83.089 34.627c0 10.76-8.832 19.488-19.742 19.488-10.903 0-19.743-8.72-19.75-19.48v-.008c0-10.76 8.831-19.488 19.734-19.488 10.903-.008 19.742 8.72 19.75 19.48.008 0 .008 0 .008.008z"/><path opacity=".05" d="M83.09 34.844c0 10.76-8.832 19.488-19.743 19.488-10.903.008-19.742-8.72-19.742-19.48v-.008c0-10.76 8.832-19.489 19.734-19.489 10.903-.007 19.743 8.72 19.75 19.481v.008z"/><path opacity=".05" d="M36.734 15.36c-10.84.069-19.617 8.774-19.617 19.488 0 10.76 8.847 19.488 19.742 19.488 5.111 0 9.777-1.924 13.287-5.08.719-.647 1.39-1.34 2.008-2.086h-4.04a18.161 18.161 0 01-1.47-2.009h6.972c.43-.67.805-1.37 1.149-2.086h-9.278c-.32-.67-.593-1.354-.828-2.047h10.926a19.313 19.313 0 00.563-10.352H44.081c.148-.693.336-1.378.562-2.047h10.934a19.497 19.497 0 00-.851-2.086H45.48c.336-.7.71-1.386 1.133-2.047h6.971a19.174 19.174 0 00-1.531-2.086h-3.885c.602-.7 1.266-1.355 1.978-1.97a19.8 19.8 0 00-13.287-5.08h-.125z"/><path opacity=".05" d="M43.957 39.81l.265-1.763c-.14 0-.351.062-.539.062-.734 0-.813-.385-.766-.67l.594-3.602h1.11l.266-1.955H43.84l.21-1.208h-2.102c-.047.046-1.243 6.82-1.243 7.643 0 1.224.696 1.762 1.673 1.755.774 0 1.376-.208 1.579-.262zM44.628 36.444c0 2.932 1.961 3.633 3.634 3.633 1.54 0 2.22-.339 2.22-.339l.367-2.001s-1.172.515-2.235.515c-2.26 0-1.86-1.662-1.86-1.662h4.275s.273-1.347.273-1.893c0-1.363-.688-3.033-3.001-3.033-2.11-.008-3.673 2.24-3.673 4.78zm3.688-2.933c1.188 0 .97 1.316.97 1.424h-2.337c0-.138.219-1.424 1.367-1.424zM61.627 39.81l.375-2.263s-1.032.516-1.743.516c-1.493 0-2.087-1.124-2.087-2.333 0-2.447 1.282-3.802 2.712-3.802 1.07 0 1.93.593 1.93.593l.344-2.194s-1.273-.508-2.368-.508c-2.43 0-4.79 2.079-4.79 5.98 0 2.587 1.273 4.296 3.782 4.296.711 0 1.845-.285 1.845-.285zM32.397 31.688a7.426 7.426 0 00-2.548.454l-.305 1.785s.915-.361 2.29-.361c.782 0 1.352.084 1.352.715 0 .377-.07.524-.07.524s-.618-.054-.907-.054c-1.82 0-3.728.762-3.728 3.079 0 1.816 1.25 2.24 2.032 2.24 1.485 0 2.118-.947 2.157-.955l-.07.793h1.852l.829-5.719c.008-2.424-2.142-2.502-2.884-2.502zm.453 4.648c.04.347-.219 1.986-1.485 1.986-.656 0-.82-.492-.82-.785 0-.57.312-1.247 1.852-1.247.352 0 .39.039.453.046zM37.25 40.023c.468 0 3.18.123 3.18-2.64 0-2.578-2.508-2.07-2.508-3.101 0-.516.406-.678 1.157-.678.297 0 1.438.093 1.438.093l.265-1.832s-.734-.162-1.938-.162c-1.555 0-3.134.608-3.134 2.71 0 2.378 2.634 2.14 2.634 3.14 0 .67-.735.723-1.305.723-.977 0-1.86-.33-1.868-.315l-.282 1.808c.055.016.602.254 2.36.254zM79.033 30.044l-.453 2.778s-.79-1.077-2.032-1.077c-1.93 0-3.533 2.293-3.533 4.926 0 1.7.852 3.363 2.61 3.363 1.259 0 1.954-.87 1.954-.87l-.093.74h2.047l1.61-9.868-2.11.008zm-.969 5.418c0 1.093-.547 2.556-1.688 2.556-.758 0-1.11-.624-1.11-1.609 0-1.609.735-2.67 1.657-2.67.75 0 1.141.515 1.141 1.723zM21.016 39.915l1.282-7.45.187 7.45h1.446l2.704-7.45-1.195 7.45h2.149l1.657-9.875h-3.33l-2.07 6.057-.11-6.057h-3.064l-1.68 9.875h2.024zM53.404 39.931c.61-3.432.727-6.219 2.189-5.71.258-1.332.5-1.84.781-2.402 0 0-.133-.03-.406-.03-.938 0-1.642 1.27-1.642 1.27l.188-1.163H52.56l-1.313 8.035h2.157zM66.473 31.688a7.425 7.425 0 00-2.548.454l-.305 1.785s.915-.361 2.29-.361c.782 0 1.352.084 1.352.715 0 .377-.07.524-.07.524s-.617-.054-.907-.054c-1.82 0-3.728.762-3.728 3.079 0 1.816 1.25 2.24 2.032 2.24 1.485 0 2.118-.947 2.157-.955l-.07.793h1.852l.829-5.719c.008-2.424-2.134-2.502-2.884-2.502zm.453 4.648c.04.347-.219 1.986-1.493 1.986-.648 0-.82-.492-.82-.785 0-.57.313-1.247 1.852-1.247.36 0 .399.039.461.046zM71.052 39.931c.61-3.432.727-6.219 2.189-5.71.258-1.332.5-1.84.781-2.402 0 0-.132-.03-.406-.03-.946 0-1.641 1.27-1.641 1.27l.187-1.163h-1.961l-1.306 8.035h2.157z"/></g><path opacity=".05" d="M84.693 62.117H12.39c-4.853 0-8.792-3.88-8.792-8.66V12.935c0-4.78 3.939-8.659 8.792-8.659H84.7c4.854 0 8.793 3.88 8.793 8.66v40.523c-.008 4.78-3.939 8.659-8.8 8.659z" fill="#fff"/><g opacity=".6" fill="#fff"><path opacity=".05" d="M35.172 13.598c-10.84.069-19.618 8.774-19.618 19.488 0 10.752 8.848 19.48 19.743 19.48 5.111 0 9.777-1.924 13.286-5.08a20.386 20.386 0 002.009-2.085h-4.04a18.89 18.89 0 01-1.47-2.01h6.971c.43-.669.805-1.361 1.15-2.085h-9.278c-.32-.67-.594-1.355-.828-2.047h10.926a19.336 19.336 0 00.563-10.352H42.518a18.45 18.45 0 01.563-2.048h10.934a19.476 19.476 0 00-.852-2.086h-9.246c.336-.7.712-1.385 1.134-2.047h6.971a19.163 19.163 0 00-1.532-2.086h-3.884c.602-.7 1.266-1.355 1.977-1.97a19.8 19.8 0 00-13.286-5.08c-.04.008-.086.008-.125.008z"/><path opacity=".05" d="M81.526 33.088c0 10.76-8.831 19.488-19.742 19.488-10.902 0-19.742-8.72-19.75-19.48v-.008c0-10.76 8.832-19.488 19.735-19.488 10.902-.008 19.742 8.72 19.75 19.48.007 0 .007 0 .007.008z"/><path opacity=".05" d="M81.527 33.302c0 10.76-8.831 19.488-19.742 19.488-10.903.008-19.742-8.72-19.742-19.48v-.008c0-10.76 8.831-19.489 19.734-19.489 10.903-.007 19.742 8.72 19.75 19.481v.008z"/><path opacity=".05" d="M35.172 13.822c-10.84.07-19.618 8.775-19.618 19.489 0 10.76 8.848 19.488 19.743 19.488 5.111 0 9.777-1.924 13.286-5.08a19.625 19.625 0 002.009-2.086h-4.04a18.147 18.147 0 01-1.47-2.009h6.971c.43-.67.805-1.37 1.15-2.086h-9.278c-.32-.67-.594-1.354-.828-2.047h10.926a19.311 19.311 0 00.563-10.352H42.518c.149-.693.336-1.378.563-2.047h10.934a19.476 19.476 0 00-.852-2.086h-9.246c.336-.7.712-1.386 1.134-2.048h6.971a19.174 19.174 0 00-1.532-2.085h-3.884c.602-.7 1.266-1.355 1.977-1.97a19.8 19.8 0 00-13.286-5.08h-.125z"/><path opacity=".05" d="M42.394 38.268l.266-1.763c-.14 0-.352.062-.54.062-.734 0-.812-.385-.765-.67l.594-3.602h1.11l.265-1.955h-1.047l.211-1.208h-2.102c-.047.046-1.243 6.82-1.243 7.643 0 1.224.696 1.762 1.673 1.755.773 0 1.375-.208 1.578-.262zM43.065 34.903c0 2.932 1.962 3.633 3.634 3.633 1.54 0 2.22-.339 2.22-.339l.367-2.001s-1.172.516-2.235.516c-2.259 0-1.86-1.663-1.86-1.663h4.275s.274-1.347.274-1.893c0-1.363-.688-3.033-3.002-3.033-2.11-.008-3.673 2.24-3.673 4.78zm3.69-2.933c1.187 0 .968 1.316.968 1.424h-2.337c0-.138.22-1.424 1.368-1.424zM60.064 38.268l.375-2.263s-1.031.516-1.742.516c-1.493 0-2.087-1.124-2.087-2.333 0-2.447 1.282-3.802 2.712-3.802 1.07 0 1.93.593 1.93.593l.344-2.194s-1.274-.508-2.368-.508c-2.43 0-4.791 2.078-4.791 5.98 0 2.587 1.274 4.296 3.783 4.296.711 0 1.844-.285 1.844-.285zM30.834 30.148c-1.438 0-2.547.454-2.547.454l-.305 1.786s.914-.361 2.29-.361c.781 0 1.352.084 1.352.715 0 .377-.07.524-.07.524s-.618-.054-.907-.054c-1.821 0-3.728.762-3.728 3.078 0 1.817 1.25 2.24 2.032 2.24 1.485 0 2.118-.947 2.157-.954l-.07.793h1.852l.828-5.72c.008-2.424-2.141-2.5-2.884-2.5zm.454 4.65c.039.346-.22 1.985-1.485 1.985-.657 0-.82-.492-.82-.785 0-.57.312-1.247 1.851-1.247.352 0 .391.039.454.046zM35.687 38.483c.47 0 3.181.123 3.181-2.64 0-2.578-2.509-2.07-2.509-3.102 0-.515.407-.677 1.157-.677.297 0 1.438.093 1.438.093l.266-1.832s-.735-.162-1.938-.162c-1.556 0-3.134.608-3.134 2.71 0 2.378 2.633 2.14 2.633 3.14 0 .67-.734.723-1.305.723-.977 0-1.86-.33-1.868-.315l-.281 1.808c.055.016.602.254 2.36.254zM77.47 28.502l-.454 2.778s-.789-1.077-2.032-1.077c-1.93 0-3.532 2.293-3.532 4.926 0 1.7.852 3.363 2.61 3.363 1.258 0 1.954-.87 1.954-.87l-.094.74h2.048l1.61-9.868-2.11.008zm-.97 5.418c0 1.093-.546 2.556-1.688 2.556-.758 0-1.11-.624-1.11-1.609 0-1.608.735-2.67 1.657-2.67.75 0 1.142.515 1.142 1.723zM19.454 38.374l1.281-7.45.188 7.45h1.446l2.704-7.45-1.196 7.45h2.15l1.656-9.875h-3.329l-2.071 6.057-.11-6.057H19.11l-1.68 9.875h2.024zM51.842 38.39c.61-3.434.727-6.22 2.188-5.712.258-1.331.5-1.84.782-2.401 0 0-.133-.03-.406-.03-.938 0-1.642 1.27-1.642 1.27l.188-1.163h-1.954l-1.313 8.035h2.157zM64.91 30.148c-1.438 0-2.547.454-2.547.454l-.305 1.786s.914-.361 2.29-.361c.781 0 1.352.084 1.352.715 0 .377-.07.524-.07.524s-.618-.054-.907-.054c-1.821 0-3.728.762-3.728 3.078 0 1.817 1.25 2.24 2.032 2.24 1.485 0 2.118-.947 2.157-.954l-.07.793h1.852l.829-5.72c.007-2.424-2.134-2.5-2.884-2.5zm.454 4.65c.039.346-.219 1.985-1.493 1.985-.649 0-.82-.492-.82-.785 0-.57.312-1.247 1.852-1.247.36 0 .398.039.46.046zM69.49 38.39c.61-3.434.727-6.22 2.189-5.712.257-1.331.5-1.84.781-2.401 0 0-.133-.03-.406-.03-.946 0-1.642 1.27-1.642 1.27l.188-1.163h-1.962l-1.305 8.035h2.157z"/></g><path opacity=".05" d="M83.13 60.58H10.828c-4.854 0-8.793-3.88-8.793-8.66V11.398c0-4.78 3.94-8.659 8.793-8.659h72.31c4.853 0 8.793 3.88 8.793 8.66V51.92c-.008 4.78-3.94 8.659-8.8 8.659z" fill="#fff"/><g opacity=".6" fill="#fff"><path opacity=".05" d="M33.61 12.056c-10.84.07-19.617 8.775-19.617 19.489 0 10.752 8.848 19.48 19.743 19.48 5.111 0 9.777-1.924 13.286-5.08a20.375 20.375 0 002.009-2.085h-4.04a18.926 18.926 0 01-1.47-2.01h6.971c.43-.669.805-1.361 1.15-2.085h-9.278c-.32-.67-.594-1.355-.828-2.047h10.926a19.338 19.338 0 00.563-10.352H40.957a18.47 18.47 0 01.563-2.048h10.934a19.497 19.497 0 00-.852-2.086h-9.246c.336-.7.711-1.385 1.133-2.047h6.972a19.164 19.164 0 00-1.532-2.086h-3.884c.602-.7 1.266-1.355 1.977-1.97a19.8 19.8 0 00-13.286-5.08c-.04.008-.086.008-.125.008z"/><path opacity=".05" d="M79.965 31.546c0 10.76-8.831 19.488-19.742 19.488-10.903 0-19.742-8.72-19.75-19.48v-.008c0-10.76 8.832-19.488 19.735-19.488 10.902-.008 19.742 8.72 19.75 19.48.007 0 .007 0 .007.008z"/><path opacity=".05" d="M79.966 31.76c0 10.76-8.832 19.489-19.742 19.489-10.903.008-19.743-8.72-19.743-19.48v-.008c0-10.76 8.832-19.488 19.735-19.488 10.903-.008 19.742 8.72 19.75 19.48v.008z"/><path opacity=".05" d="M33.61 12.281c-10.84.07-19.617 8.775-19.617 19.489 0 10.76 8.848 19.488 19.743 19.488 5.111 0 9.777-1.924 13.286-5.08.72-.647 1.391-1.34 2.009-2.086h-4.04a18.162 18.162 0 01-1.47-2.009h6.971c.43-.67.805-1.37 1.15-2.086h-9.278c-.32-.67-.594-1.354-.828-2.047h10.926a19.314 19.314 0 00.563-10.352H40.957a18.47 18.47 0 01.563-2.047h10.934a19.497 19.497 0 00-.852-2.086h-9.246c.336-.7.711-1.386 1.133-2.048h6.972a19.164 19.164 0 00-1.532-2.086h-3.884c.602-.7 1.266-1.354 1.977-1.97a19.8 19.8 0 00-13.286-5.08h-.125z"/><path opacity=".05" d="M40.831 36.727l.266-1.763c-.14 0-.352.062-.54.062-.734 0-.812-.385-.765-.67l.594-3.602h1.11l.265-1.955h-1.047l.21-1.208h-2.102c-.046.046-1.242 6.82-1.242 7.643 0 1.224.695 1.762 1.672 1.755.774 0 1.376-.208 1.58-.262zM41.504 33.362c0 2.932 1.962 3.633 3.634 3.633 1.54 0 2.22-.339 2.22-.339l.367-2.001s-1.172.515-2.235.515c-2.259 0-1.86-1.662-1.86-1.662h4.275s.274-1.347.274-1.893c0-1.363-.688-3.033-3.002-3.033-2.11-.008-3.673 2.24-3.673 4.78zm3.689-2.933c1.188 0 .97 1.316.97 1.424h-2.338c0-.138.22-1.424 1.368-1.424zM58.503 36.727l.375-2.263s-1.031.516-1.743.516c-1.492 0-2.086-1.124-2.086-2.332 0-2.448 1.281-3.803 2.712-3.803 1.07 0 1.93.593 1.93.593l.344-2.194s-1.274-.508-2.368-.508c-2.43 0-4.791 2.078-4.791 5.98 0 2.587 1.274 4.295 3.783 4.295.71 0 1.844-.284 1.844-.284zM29.273 28.607c-1.438 0-2.548.454-2.548.454l-.304 1.786s.914-.362 2.29-.362c.781 0 1.352.085 1.352.716 0 .377-.07.524-.07.524s-.618-.054-.907-.054c-1.821 0-3.728.762-3.728 3.078 0 1.817 1.25 2.24 2.032 2.24 1.485 0 2.118-.947 2.157-.954l-.07.793h1.852l.828-5.72c.008-2.424-2.141-2.5-2.884-2.5zm.454 4.65c.039.346-.22 1.985-1.485 1.985-.657 0-.821-.492-.821-.785 0-.57.313-1.247 1.852-1.247.352 0 .391.039.454.046zM34.126 36.942c.47 0 3.181.123 3.181-2.64 0-2.578-2.509-2.07-2.509-3.101 0-.516.407-.678 1.157-.678.297 0 1.438.093 1.438.093l.266-1.832s-.735-.162-1.938-.162c-1.556 0-3.134.608-3.134 2.71 0 2.378 2.633 2.14 2.633 3.14 0 .67-.734.723-1.305.723-.977 0-1.86-.33-1.868-.315l-.281 1.808c.055.016.602.254 2.36.254zM75.91 26.96l-.454 2.78s-.789-1.078-2.032-1.078c-1.93 0-3.532 2.294-3.532 4.926 0 1.7.852 3.363 2.61 3.363 1.258 0 1.954-.87 1.954-.87l-.094.74h2.048l1.61-9.868-2.11.008zm-.97 5.42c0 1.092-.547 2.555-1.688 2.555-.758 0-1.11-.624-1.11-1.609 0-1.609.735-2.67 1.657-2.67.75 0 1.141.515 1.141 1.723zM17.892 36.833l1.282-7.45.188 7.45h1.446l2.704-7.45-1.196 7.45h2.15l1.656-9.875h-3.33l-2.07 6.057-.11-6.057H17.55l-1.68 9.875h2.023zM50.28 36.848c.61-3.432.728-6.219 2.19-5.71.257-1.332.5-1.84.78-2.402 0 0-.132-.03-.406-.03-.938 0-1.641 1.27-1.641 1.27l.188-1.163h-1.954l-1.313 8.035h2.157zM63.35 28.607c-1.439 0-2.548.454-2.548.454l-.305 1.786s.914-.362 2.29-.362c.781 0 1.352.085 1.352.716 0 .377-.07.524-.07.524s-.618-.054-.907-.054c-1.821 0-3.728.762-3.728 3.078 0 1.817 1.25 2.24 2.032 2.24 1.485 0 2.118-.947 2.157-.954l-.07.793h1.852l.828-5.72c.008-2.424-2.133-2.5-2.884-2.5zm.453 4.65c.039.346-.22 1.985-1.493 1.985-.649 0-.82-.492-.82-.785 0-.57.312-1.247 1.852-1.247.36 0 .398.039.46.046zM67.929 36.848c.61-3.432.727-6.219 2.188-5.71.258-1.332.5-1.84.782-2.402 0 0-.133-.03-.406-.03-.946 0-1.642 1.27-1.642 1.27l.188-1.163h-1.962l-1.305 8.035h2.157z"/></g><path opacity=".05" d="M81.567 59.04H9.264c-4.853 0-8.792-3.879-8.792-8.658V9.858C.472 5.078 4.41 1.2 9.264 1.2h72.31c4.854 0 8.793 3.88 8.793 8.66v40.523c-.008 4.78-3.939 8.659-8.8 8.659z" fill="#fff"/><g opacity=".6" fill="#fff"><path opacity=".05" d="M32.047 10.522c-10.84.07-19.618 8.775-19.618 19.489 0 10.752 8.848 19.48 19.743 19.48 5.111 0 9.777-1.924 13.286-5.08a20.397 20.397 0 002.009-2.086h-4.04a18.9 18.9 0 01-1.47-2.008h6.971c.43-.67.805-1.363 1.15-2.086H40.8c-.32-.67-.594-1.355-.828-2.047h10.926a19.336 19.336 0 00.563-10.352H39.393a18.45 18.45 0 01.563-2.048H50.89a19.476 19.476 0 00-.852-2.086h-9.246c.336-.7.712-1.385 1.134-2.047h6.971a19.163 19.163 0 00-1.532-2.086h-3.884c.602-.7 1.266-1.355 1.977-1.97a19.8 19.8 0 00-13.286-5.08c-.04.007-.086.007-.125.007z"/><path opacity=".05" d="M78.402 30.01c0 10.76-8.832 19.488-19.742 19.488-10.903 0-19.743-8.72-19.75-19.48v-.008c0-10.76 8.831-19.489 19.734-19.489 10.903-.007 19.742 8.721 19.75 19.481.008 0 .008 0 .008.008z"/><path opacity=".05" d="M78.4 30.227c0 10.76-8.831 19.488-19.742 19.488-10.903.007-19.742-8.72-19.742-19.48v-.008c0-10.76 8.831-19.489 19.734-19.489 10.903-.007 19.742 8.72 19.75 19.48v.009z"/><path opacity=".05" d="M32.047 10.742c-10.84.07-19.617 8.774-19.617 19.488 0 10.76 8.847 19.489 19.742 19.489 5.111 0 9.777-1.924 13.287-5.08a19.635 19.635 0 002.008-2.086h-4.04a18.173 18.173 0 01-1.47-2.009h6.972c.43-.67.805-1.37 1.148-2.086H40.8c-.32-.67-.594-1.354-.828-2.047h10.926a19.313 19.313 0 00.563-10.352H39.394a18.47 18.47 0 01.562-2.047H50.89a19.499 19.499 0 00-.852-2.086h-9.245c.336-.7.71-1.386 1.133-2.048h6.971a19.164 19.164 0 00-1.532-2.085h-3.884c.602-.701 1.266-1.355 1.977-1.97a19.8 19.8 0 00-13.286-5.08h-.125z"/><path opacity=".05" d="M39.267 35.19l.266-1.762c-.14 0-.351.062-.539.062-.735 0-.813-.385-.766-.67l.594-3.602h1.11l.266-1.955H39.15l.211-1.208H37.26c-.047.046-1.243 6.819-1.243 7.643 0 1.223.696 1.762 1.673 1.755.773 0 1.375-.208 1.578-.262zM39.94 31.827c0 2.932 1.962 3.632 3.635 3.632 1.54 0 2.22-.338 2.22-.338l.367-2.001s-1.173.515-2.236.515c-2.258 0-1.86-1.662-1.86-1.662h4.275s.274-1.347.274-1.894c0-1.362-.688-3.032-3.001-3.032-2.11-.008-3.674 2.24-3.674 4.78zm3.69-2.933c1.187 0 .968 1.316.968 1.424h-2.336c0-.139.218-1.424 1.367-1.424zM56.94 35.19l.375-2.262s-1.032.516-1.743.516c-1.493 0-2.087-1.124-2.087-2.333 0-2.447 1.282-3.802 2.712-3.802 1.07 0 1.93.593 1.93.593l.344-2.194s-1.274-.508-2.368-.508c-2.43 0-4.79 2.078-4.79 5.98 0 2.587 1.273 4.295 3.782 4.295.711 0 1.845-.284 1.845-.284zM27.71 27.07c-1.438 0-2.548.454-2.548.454l-.305 1.786s.914-.362 2.29-.362c.782 0 1.352.085 1.352.716 0 .377-.07.523-.07.523s-.618-.053-.907-.053c-1.82 0-3.728.762-3.728 3.078 0 1.817 1.25 2.24 2.032 2.24 1.485 0 2.118-.947 2.157-.954l-.07.793h1.852l.829-5.72c.008-2.424-2.142-2.5-2.884-2.5zm.453 4.65c.04.346-.219 1.985-1.485 1.985-.657 0-.82-.493-.82-.785 0-.57.312-1.247 1.852-1.247.351 0 .39.039.453.046zM32.563 35.403c.468 0 3.18.123 3.18-2.64 0-2.578-2.508-2.07-2.508-3.102 0-.515.406-.677 1.156-.677.297 0 1.439.092 1.439.092l.265-1.831s-.734-.162-1.938-.162c-1.555 0-3.134.608-3.134 2.71 0 2.378 2.634 2.139 2.634 3.14 0 .67-.735.723-1.305.723-.977 0-1.86-.33-1.868-.316l-.282 1.81c.055.015.602.253 2.36.253zM74.346 25.425l-.453 2.778s-.79-1.077-2.032-1.077c-1.93 0-3.533 2.293-3.533 4.926 0 1.7.852 3.363 2.61 3.363 1.259 0 1.954-.87 1.954-.87l-.093.74h2.047l1.61-9.868-2.11.008zm-.97 5.418c0 1.093-.546 2.556-1.687 2.556-.758 0-1.11-.624-1.11-1.61 0-1.608.735-2.67 1.657-2.67.75 0 1.14.516 1.14 1.724zM16.329 35.298l1.282-7.45.187 7.45h1.446l2.704-7.45-1.195 7.45h2.149l1.657-9.875h-3.33l-2.07 6.057-.11-6.057h-3.064l-1.68 9.875h2.024zM48.717 35.314c.61-3.433.727-6.219 2.189-5.71.258-1.332.5-1.84.781-2.402 0 0-.133-.031-.406-.031-.938 0-1.642 1.27-1.642 1.27l.188-1.162h-1.954l-1.313 8.035h2.157zM61.786 27.07c-1.438 0-2.548.454-2.548.454l-.305 1.786s.915-.362 2.29-.362c.782 0 1.352.085 1.352.716 0 .377-.07.523-.07.523s-.617-.053-.907-.053c-1.82 0-3.728.762-3.728 3.078 0 1.817 1.25 2.24 2.032 2.24 1.485 0 2.118-.947 2.157-.954l-.07.793h1.852l.829-5.72c.008-2.424-2.134-2.5-2.884-2.5zm.453 4.65c.04.346-.219 1.985-1.493 1.985-.648 0-.82-.493-.82-.785 0-.57.312-1.247 1.852-1.247.36 0 .399.039.461.046zM66.365 35.314c.61-3.433.727-6.219 2.189-5.71.258-1.332.5-1.84.781-2.402 0 0-.133-.031-.406-.031-.946 0-1.641 1.27-1.641 1.27l.187-1.162h-1.962l-1.305 8.035h2.157z"/></g><path d="M81.567 59.04H9.264c-4.853 0-8.792-3.879-8.792-8.658V9.858C.472 5.078 4.41 1.2 9.264 1.2h72.31c4.854 0 8.793 3.88 8.793 8.66v40.523c-.008 4.78-3.939 8.659-8.8 8.659z" stroke="#fff" stroke-width=".75" stroke-miterlimit="10" stroke-linecap="round" stroke-linejoin="round"/><path d="M27.451 26.861c-1.438 0-2.547.454-2.547.454l-.305 1.786s.914-.362 2.29-.362c.781 0 1.352.085 1.352.716 0 .377-.07.524-.07.524s-.618-.047-.907-.047c-1.821 0-3.728.762-3.728 3.071 0 1.817 1.25 2.232 2.032 2.232 1.485 0 2.126-.946 2.157-.946l-.07.792h1.852l.828-5.703c0-2.44-2.141-2.517-2.884-2.517zm-1.04 6.62c-.648 0-.82-.493-.82-.785 0-.57.313-1.247 1.853-1.247.36 0 .398.038.46.046.032.354-.226 1.986-1.492 1.986zM34.133 28.767c.297 0 1.438.093 1.438.093l.266-1.824s-.735-.162-1.938-.162c-1.556 0-3.134.608-3.134 2.702 0 2.37 2.633 2.132 2.633 3.132 0 .662-.734.724-1.305.724-.985 0-1.868-.331-1.868-.316l-.281 1.809c.047.015.594.254 2.36.254.47 0 3.181.123 3.181-2.632 0-2.571-2.5-2.063-2.5-3.102-.009-.516.398-.678 1.148-.678zM38.557 29.001h1.11l.266-1.947h-1.047l.21-1.208h-2.102c-.047.046-1.242 6.811-1.242 7.627 0 1.224.695 1.763 1.672 1.755.766-.008 1.368-.215 1.579-.27l.266-1.762c-.141 0-.352.062-.54.062-.734 0-.813-.385-.766-.67l.594-3.587zM47.365 17.7h-3.752c-.5.669-.977 1.385-1.407 2.077h6.69a19.849 19.849 0 00-1.531-2.078zM50.039 21.828h-9.004c-.578 1.07-.953 1.886-1.063 2.086h10.919a21.24 21.24 0 00-.852-2.086zM20.965 25.212l-2.072 6.05-.109-6.05H15.72l-1.68 9.852h2.024l1.282-7.428.188 7.428h1.446l2.704-7.428-1.196 7.428h2.15l1.656-9.852h-3.33zM61.527 26.861c-1.446 0-2.548.454-2.548.454l-.304 1.786s.914-.362 2.29-.362c.781 0 1.36.085 1.36.716 0 .377-.07.524-.07.524s-.618-.047-.908-.047c-1.813 0-3.728.762-3.728 3.071 0 1.817 1.25 2.232 2.032 2.232 1.485 0 2.126-.946 2.158-.946l-.07.792h1.852l.828-5.703c-.008-2.44-2.15-2.517-2.892-2.517zm-1.04 6.62c-.656 0-.82-.493-.82-.785 0-.57.313-1.247 1.852-1.247.36 0 .399.038.462.046.03.354-.227 1.986-1.493 1.986zM76.698 34.156a.58.58 0 00-.242-.23.657.657 0 00-.313-.085.681.681 0 00-.313.084.56.56 0 00-.234.231.61.61 0 000 .623.56.56 0 00.234.232.657.657 0 00.313.084c.11 0 .219-.03.32-.084a.632.632 0 00.32-.539.66.66 0 00-.085-.316zm-.086.578a.467.467 0 01-.195.192.548.548 0 01-.532 0 .527.527 0 01-.195-.716.468.468 0 01.195-.192.542.542 0 01.258-.07c.086 0 .172.024.258.07a.526.526 0 01.266.454.391.391 0 01-.055.262z" stroke="#fff" stroke-width=".642" stroke-miterlimit="10" stroke-linecap="round" stroke-linejoin="round"/><path d="M76.362 34.686a.78.78 0 00-.102-.13c-.016-.016-.031-.024-.055-.04.055-.007.11-.022.14-.06a.2.2 0 00.056-.132.19.19 0 00-.117-.17.454.454 0 00-.173-.022h-.242v.677h.11v-.285h.062c.04 0 .07.008.094.023.031.024.07.077.117.162l.055.108h.14l-.085-.131zm-.243-.246h-.133v-.208h.125c.055 0 .094.008.11.008a.104.104 0 01.047.038c.015.016.015.03.015.054 0 .03-.015.054-.03.077-.032.023-.071.03-.134.03zM68.662 26.953c-.938 0-1.641 1.262-1.641 1.262l.188-1.162h-1.962l-1.306 8.028H66.1c.617-3.425.727-6.211 2.188-5.703.258-1.324.508-1.84.782-2.402 0 .008-.133-.023-.407-.023zM74.087 25.223l-.454 2.77s-.789-1.077-2.032-1.077c-1.93 0-3.532 2.286-3.532 4.918 0 1.694.86 3.356 2.602 3.356 1.259 0 1.954-.862 1.954-.862l-.094.739h2.048l1.61-9.844h-2.102zm-2.665 7.95c-.758 0-1.11-.623-1.11-1.608 0-1.609.734-2.663 1.657-2.663.758 0 1.14.515 1.14 1.716 0 1.1-.546 2.555-1.687 2.555z" stroke="#fff" stroke-width=".642" stroke-miterlimit="10" stroke-linecap="round" stroke-linejoin="round"/><path d="M78.393 30.116c0 10.737-8.832 19.442-19.734 19.45a19.871 19.871 0 01-13.256-5.026 19.81 19.81 0 01-13.231 5.026c-10.895-.008-19.743-8.713-19.743-19.45 0-10.69 8.777-19.373 19.617-19.442h.126c5.087 0 9.73 1.9 13.24 5.026a19.816 19.816 0 0113.239-5.026c10.903-.008 19.742 8.697 19.75 19.442-.008-.008-.008-.008-.008 0z" stroke="#fff" stroke-width=".642" stroke-miterlimit="10" stroke-linecap="round" stroke-linejoin="round"/><path d="M43.387 42.41a20.08 20.08 0 002.017 2.123c.015-.015.031-.03.047-.038h.008a20.32 20.32 0 002.008-2.078h-4.08v-.008zM46.077 31.74s.273-1.339.273-1.885c0-1.362-.688-3.025-2.993-3.025-2.11 0-3.681 2.248-3.681 4.78 0 2.925 1.962 3.617 3.634 3.617 1.54 0 2.22-.338 2.22-.338l.367-1.994s-1.172.508-2.235.508c-2.259 0-1.86-1.655-1.86-1.655l4.275-.007zm-2.712-3.055c1.188 0 .969 1.316.969 1.416h-2.337c0-.138.219-1.416 1.368-1.416zM55.932 27.097c1.07 0 1.93.593 1.93.593l.344-2.194s-1.274-.508-2.368-.508c-2.423 0-4.783 2.07-4.783 5.965 0 2.579 1.274 4.287 3.783 4.287.711 0 1.837-.284 1.837-.284l.375-2.256s-1.032.508-1.735.508c-1.493 0-2.095-1.123-2.095-2.324 0-2.448 1.282-3.787 2.712-3.787zM40.752 38.328c.344.724.743 1.409 1.165 2.078h7.003a20.75 20.75 0 001.149-2.078h-9.317zM51.016 26.958c-.938 0-1.641 1.263-1.641 1.263l.187-1.163h-1.954l-1.313 8.028h2.157c.61-3.425.727-6.211 2.189-5.703.258-1.324.5-1.84.782-2.402 0 0-.133-.03-.407-.023z" stroke="#fff" stroke-width=".642" stroke-miterlimit="10" stroke-linecap="round" stroke-linejoin="round"/></svg>