<svg width="96" height="66" fill="none" xmlns="http://www.w3.org/2000/svg"><path opacity=".05" d="M46.974 27h-.932l-3.317 18.65h5.28L51.215 27h-4.241zM65.932 39.538c0-2.178-1.347-3.832-4.457-5.18-1.863-.93-3.002-1.447-3.002-2.385 0-.832.932-1.655 3.002-1.655 1.763 0 3.002.308 3.933.723l.516.208.831-4.04c-1.039-.416-2.694-.832-4.764-.832-5.18 0-8.906 2.586-8.906 6.319 0 2.794 2.586 4.249 4.665 5.18 1.4.631 2.124 1.116 2.455 1.624l-.285-.277c.185.185.316.339.408.5.07.17.108.346.108.531 0 1.247-1.655 1.863-3.11 1.863-2.07 0-3.21-.308-4.972-1.04l-.724-.307-.723 4.249c.008 0 .015.007.015.007l-.015.1c1.247.516 3.525 1.04 5.904 1.04 3.317 0 6.011-.932 7.566-2.587l-.07-.061a5.551 5.551 0 001.625-3.98zM36.497 43.94l7.575-16.832h-5.597l-3.602 8.828-.023-.023-1.655 3.933-.415-2.586a10.023 10.023 0 00-.3-.84l-1.67-7.865C30.5 27.308 29.57 27 28.422 27h-9.63l3.241.993a23.94 23.94 0 013.526 1.662l4.526 16.094h5.596l.046-.1h.054l.715-1.708zM82.296 38.092L79.71 27.01h-4.041c-1.24 0-2.178.1-2.694 1.347L65.2 45.65h5.595l1.04-3.11h6.627l.623 3.11h4.973l-1.763-7.558zm-5.904-4.248s.978 4.394 1.224 5.595h-4.333c.415-1.039 2.07-5.488 2.07-5.488s.416-1.139.724-1.862l.315 1.755z" fill="#fff"/><path opacity=".05" d="M87.028 65.199H15.822c-4.78 0-8.66-3.88-8.66-8.66V16.017c0-4.78 3.88-8.659 8.66-8.659h71.214c4.78 0 8.66 3.88 8.66 8.66V56.54c-.008 4.78-3.88 8.659-8.668 8.659z" fill="#fff"/><path opacity=".05" d="M45.434 25.456h-.932l-3.317 18.65h5.28l3.21-18.65h-4.241zM64.392 37.995c0-2.179-1.347-3.834-4.457-5.18-1.863-.932-3.002-1.447-3.002-2.386 0-.832.931-1.655 3.002-1.655 1.763 0 3.002.308 3.933.723l.516.208.831-4.04c-1.039-.416-2.694-.832-4.764-.832-5.18 0-8.906 2.586-8.906 6.32 0 2.793 2.586 4.248 4.664 5.179 1.401.631 2.125 1.116 2.456 1.624l-.285-.277c.185.185.316.339.408.5.07.17.108.347.108.531 0 1.247-1.655 1.863-3.11 1.863-2.07 0-3.21-.308-4.972-1.04l-.724-.307-.723 4.249c.007 0 .015.007.015.007l-.015.1c1.247.516 3.525 1.04 5.904 1.04 3.317 0 6.011-.932 7.566-2.587l-.07-.061a5.55 5.55 0 001.625-3.98zM34.957 42.397l7.574-16.833h-5.596l-3.602 8.828-.023-.023-1.655 3.933-.415-2.586a10.026 10.026 0 00-.3-.84l-1.67-7.865c-.309-1.247-1.24-1.555-2.387-1.555h-9.63l3.241.993a23.939 23.939 0 013.526 1.662l4.526 16.094h5.596l.046-.1h.053l.716-1.708zM80.756 36.548L78.17 25.465h-4.041c-1.24 0-2.179.1-2.694 1.347L63.66 44.106h5.596l1.04-3.109h6.627l.623 3.11h4.972l-1.762-7.559zM74.852 32.3s.978 4.395 1.224 5.595h-4.333c.415-1.039 2.07-5.488 2.07-5.488s.416-1.139.724-1.862l.315 1.755z" fill="#fff"/><path opacity=".05" d="M85.49 63.658H14.284c-4.78 0-8.66-3.88-8.66-8.66V14.476c0-4.78 3.88-8.659 8.66-8.659h71.214c4.78 0 8.66 3.88 8.66 8.66v40.523c-.008 4.78-3.88 8.659-8.668 8.659z" fill="#fff"/><path opacity=".05" d="M43.894 23.914h-.931l-3.318 18.65h5.28l3.21-18.65h-4.24zM62.853 36.453c0-2.178-1.347-3.833-4.457-5.18-1.863-.93-3.002-1.446-3.002-2.385 0-.832.931-1.655 3.002-1.655 1.763 0 3.002.308 3.933.723l.516.208.831-4.04c-1.039-.416-2.694-.832-4.764-.832-5.18 0-8.906 2.586-8.906 6.32 0 2.793 2.586 4.248 4.664 5.179 1.401.631 2.125 1.116 2.456 1.624l-.285-.277c.185.185.316.339.408.5.07.17.108.347.108.531 0 1.247-1.655 1.863-3.11 1.863-2.07 0-3.21-.308-4.972-1.04l-.724-.307-.723 4.249c.007 0 .015.007.015.007l-.015.1c1.247.516 3.525 1.04 5.903 1.04 3.318 0 6.012-.932 7.567-2.587l-.07-.061a5.551 5.551 0 001.625-3.98zM33.418 40.855l7.574-16.833h-5.596l-3.602 8.828-.023-.023-1.655 3.933-.416-2.586a9.99 9.99 0 00-.3-.84l-1.67-7.865c-.308-1.247-1.24-1.555-2.386-1.555h-9.63l3.241.993a23.939 23.939 0 013.525 1.663l4.526 16.093h5.596l.047-.1h.053l.716-1.708zM79.217 35.006L76.63 23.923h-4.042c-1.239 0-2.178.1-2.694 1.347l-7.774 17.295h5.596l1.04-3.11h6.627l.623 3.11h4.972l-1.762-7.559zm-5.904-4.248s.978 4.395 1.224 5.595h-4.334c.416-1.039 2.071-5.488 2.071-5.488s.416-1.139.724-1.862l.315 1.755z" fill="#fff"/><path opacity=".05" d="M83.95 62.117H12.743c-4.78 0-8.659-3.88-8.659-8.66V12.935c0-4.78 3.88-8.659 8.66-8.659h71.214c4.78 0 8.66 3.88 8.66 8.66v40.523c-.008 4.78-3.88 8.659-8.668 8.659z" fill="#fff"/><path opacity=".05" d="M42.356 22.38h-.931l-3.317 18.65h5.28l3.21-18.65h-4.242zM61.315 34.916c0-2.178-1.347-3.833-4.457-5.18-1.863-.93-3.002-1.447-3.002-2.386 0-.83.931-1.654 3.002-1.654 1.763 0 3.002.307 3.933.723l.516.208.831-4.04c-1.039-.416-2.694-.832-4.764-.832-5.18 0-8.906 2.586-8.906 6.319 0 2.794 2.586 4.249 4.664 5.18 1.401.631 2.125 1.116 2.456 1.624l-.285-.277c.185.185.316.339.408.5.07.17.108.346.108.531 0 1.247-1.655 1.863-3.11 1.863-2.07 0-3.21-.308-4.972-1.04l-.724-.307-.723 4.248c.007 0 .015.008.015.008l-.015.1c1.247.516 3.525 1.04 5.903 1.04 3.318 0 6.012-.932 7.567-2.587l-.07-.061a5.551 5.551 0 001.625-3.98zM31.88 39.32l7.574-16.832h-5.596l-3.602 8.828-.023-.023-1.655 3.933-.415-2.586a10.048 10.048 0 00-.3-.84l-1.671-7.865c-.308-1.247-1.24-1.555-2.386-1.555h-9.63l3.241.993a23.933 23.933 0 013.525 1.662l4.526 16.094h5.596l.046-.1h.054l.716-1.709zM77.679 33.47l-2.586-11.083h-4.041c-1.24 0-2.179.1-2.695 1.347l-7.774 17.294h5.596l1.04-3.11h6.627l.623 3.11h4.973l-1.763-7.558zm-5.904-4.248s.978 4.394 1.224 5.595h-4.334c.416-1.039 2.071-5.488 2.071-5.488s.416-1.139.724-1.862l.315 1.755z" fill="#fff"/><path opacity=".05" d="M82.411 60.58H11.204c-4.78 0-8.659-3.88-8.659-8.66V11.398c0-4.78 3.88-8.659 8.66-8.659h71.214c4.78 0 8.66 3.88 8.66 8.66V51.92c-.008 4.78-3.88 8.659-8.668 8.659z" fill="#fff"/><path opacity=".05" d="M40.815 20.84h-.931l-3.318 18.65h5.28l3.21-18.65h-4.241zM59.773 33.38c0-2.178-1.347-3.833-4.456-5.18-1.863-.931-3.002-1.447-3.002-2.386 0-.83.931-1.654 3.002-1.654 1.762 0 3.002.307 3.933.723l.516.208.83-4.041c-1.038-.416-2.693-.831-4.764-.831-5.18 0-8.905 2.586-8.905 6.319 0 2.794 2.586 4.248 4.664 5.18 1.401.63 2.124 1.116 2.456 1.624l-.285-.277c.184.184.315.338.408.5.069.17.107.346.107.531 0 1.247-1.654 1.863-3.11 1.863-2.07 0-3.209-.308-4.972-1.04l-.723-.307-.724 4.248c.008 0 .016.008.016.008l-.016.1c1.247.516 3.526 1.04 5.904 1.04 3.317 0 6.012-.932 7.566-2.587l-.069-.062a5.55 5.55 0 001.624-3.979zM30.339 37.782l7.574-16.833h-5.596l-3.602 8.828-.023-.023-1.655 3.933-.416-2.586a10.062 10.062 0 00-.3-.84l-1.67-7.865c-.308-1.247-1.24-1.555-2.386-1.555h-9.63l3.24.993a23.943 23.943 0 013.526 1.662l4.526 16.094h5.596l.046-.1h.054l.716-1.709zM76.138 31.933L73.55 20.85H69.51c-1.24 0-2.178.1-2.694 1.346l-7.774 17.295h5.596l1.039-3.11h6.627l.624 3.11H77.9l-1.763-7.558zm-5.904-4.249s.977 4.395 1.224 5.596h-4.334c.416-1.04 2.07-5.488 2.07-5.488s.416-1.139.724-1.863l.316 1.755z" fill="#fff"/><path opacity=".05" d="M80.871 59.04H9.664c-4.78 0-8.66-3.879-8.66-8.658V9.858c0-4.78 3.88-8.659 8.66-8.659H80.88c4.78 0 8.66 3.88 8.66 8.66v40.523c-.008 4.78-3.88 8.659-8.668 8.659z" fill="#fff"/><path d="M40.815 20.84h-.931l-3.318 18.65h5.28l3.21-18.65h-4.241zM59.773 33.38c0-2.178-1.347-3.833-4.456-5.18-1.863-.931-3.002-1.447-3.002-2.386 0-.83.931-1.654 3.002-1.654 1.762 0 3.002.307 3.933.723l.516.208.83-4.041c-1.038-.416-2.693-.831-4.764-.831-5.18 0-8.905 2.586-8.905 6.319 0 2.794 2.586 4.248 4.664 5.18 1.401.63 2.124 1.116 2.456 1.624l-.285-.277c.184.184.315.338.408.5.069.17.107.346.107.531 0 1.247-1.654 1.863-3.11 1.863-2.07 0-3.209-.308-4.972-1.04l-.723-.307-.724 4.248c.008 0 .016.008.016.008l-.016.1c1.247.516 3.526 1.04 5.904 1.04 3.317 0 6.012-.932 7.566-2.587l-.069-.062a5.55 5.55 0 001.624-3.979zM30.339 37.782l7.574-16.833h-5.596l-3.602 8.828-.023-.023-1.655 3.933-.416-2.586a10.062 10.062 0 00-.3-.84l-1.67-7.865c-.308-1.247-1.24-1.555-2.386-1.555h-9.63l3.24.993a23.943 23.943 0 013.526 1.662l4.526 16.094h5.596l.046-.1h.054l.716-1.709zM76.138 31.933L73.55 20.85H69.51c-1.24 0-2.178.1-2.694 1.346l-7.774 17.295h5.596l1.039-3.11h6.627l.624 3.11H77.9l-1.763-7.558zm-5.904-4.249s.977 4.395 1.224 5.596h-4.334c.416-1.04 2.07-5.488 2.07-5.488s.416-1.139.724-1.863l.316 1.755z" stroke="#fff" stroke-width=".75" stroke-miterlimit="10" stroke-linecap="round" stroke-linejoin="round"/><path d="M80.871 59.04H9.664c-4.78 0-8.66-3.879-8.66-8.658V9.858c0-4.78 3.88-8.659 8.66-8.659H80.88c4.78 0 8.66 3.88 8.66 8.66v40.523c-.008 4.78-3.88 8.659-8.668 8.659z" stroke="#fff" stroke-width=".75" stroke-miterlimit="10" stroke-linecap="round" stroke-linejoin="round"/></svg>