<svg width="114" height="35" viewBox="0 0 114 35" fill="none" xmlns="http://www.w3.org/2000/svg">
<g opacity="0.5">
<path d="M100.385 15.1838H96.5442V21.487C96.5442 23.2809 97.497 23.6149 98.7331 23.6149C99.163 23.6149 99.6264 23.5544 100.096 23.4925L100.385 26.3172C99.3794 26.4943 98.0344 26.6441 97.1644 26.6441C94.5165 26.6441 92.1678 25.7284 92.1678 22.5106V15.1838H89.9382V12.4008H92.1678V9.33136L96.5442 8.10327V12.4008H100.385V15.1838Z" fill="black"/>
<path d="M88.6068 26.3575H84.2304V17.3938C84.2304 16.0764 83.6711 15.3479 82.1663 15.3479C81.0348 15.3479 80.3013 15.8878 79.4836 16.5357V26.359H75.1057V12.4023H79.3586V13.6303C80.785 12.6801 82.4191 12.0754 84.1897 12.0754C86.9814 12.0754 88.6082 13.7959 88.6082 16.4133V26.3575H88.6068Z" fill="black"/>
<path d="M66.2724 0.524414C64.0573 4.24466 65.0203 7.61074 62.8532 9.75737C61.1145 11.4822 59.5008 11.4275 57.6024 11.4275C56.9429 11.4275 55.6604 11.4836 55.1244 11.8694C54.8136 10.8876 54.6785 9.80488 54.6785 8.77548C54.6785 7.00462 55.0794 5.431 56.3634 4.15828C58.8239 1.72083 63.2787 0.946254 66.2724 0.524414Z" fill="#818181"/>
<path d="M42.608 26.3575H38.2316V17.3938C38.2316 16.0764 37.6723 15.3479 36.1676 15.3479C35.0361 15.3479 34.3025 15.8878 33.4833 16.5357V26.359H29.1069V12.4023H33.3599V13.6303C34.7862 12.6801 36.4217 12.0754 38.1909 12.0754C40.9812 12.0754 42.6094 13.7959 42.6094 16.4133V26.3575H42.608Z" fill="black"/>
<path d="M28.2024 12.4005L21.1825 29.3043C20.1047 31.9016 17.9376 33.8064 14.989 33.8064C13.5133 33.8064 12.7318 33.6149 11.7688 33.3975L12.3876 30.6145C13.1647 30.7873 13.75 30.8607 14.2874 30.8607C16.0479 30.8607 16.9833 29.3763 17.8388 27.3405L18.2513 26.3587L12.8001 12.402H17.5076L20.067 19.3184C20.3763 20.1534 20.5492 21.0086 20.6872 21.6104C20.8484 21.0043 21.1592 19.9994 21.4715 19.196L24.1136 12.402H28.2024V12.4005Z" fill="black"/>
<path d="M12.7388 21.898C12.7388 24.9358 9.90782 26.6044 6.54527 26.6044C4.35635 26.6044 2.58865 26.2416 0.723633 25.5001L1.92195 22.6754C3.03166 23.1203 4.62797 23.617 5.9265 23.617C6.94326 23.617 8.36235 23.4946 8.36235 22.2665C8.36235 21.6935 7.99923 21.3984 7.32962 21.2026C6.49153 20.9578 5.20606 20.739 4.35635 20.5072C2.57122 20.0191 1.09402 19.0905 1.09402 16.4961C1.09402 13.6181 3.57054 11.83 6.95778 11.83C9.19464 11.83 10.6152 12.1237 11.8716 12.485L10.7561 15.3083C10.2012 15.0593 8.64414 14.695 7.53588 14.695C6.33321 14.695 5.51254 15.1514 5.51254 15.8813C5.51254 16.2427 5.73913 16.7005 6.37969 16.905C7.06672 17.1238 8.15319 17.3211 9.06391 17.5183C10.9304 17.9229 12.7388 18.9854 12.7388 21.898Z" fill="black"/>
<path d="M113.816 26.3571H109.687V25.2528C108.615 26.1944 107.225 26.6436 105.682 26.6436C103.062 26.6436 101.264 25.3867 101.264 22.7549C101.264 18.1291 105.923 17.4107 109.563 17.3934V17.0248C109.563 15.8745 109.125 15.0596 107.045 15.0596C105.642 15.0596 104.044 15.7492 102.998 16.3697L101.925 13.7912C103.785 12.7906 106.093 12.0721 108.284 12.0721C111.645 12.0721 113.818 13.6645 113.818 16.4518V26.3571H113.816ZM109.562 22.6325V20.054C107.534 20.0209 105.639 20.2224 105.639 22.1416C105.639 23.3279 106.648 23.6965 107.414 23.6965C108.324 23.6965 109.026 23.2473 109.562 22.6325Z" fill="black"/>
<path d="M73.1843 18.8673C73.1843 19.3295 73.1698 19.806 73.1436 20.2998H63.8113C63.8519 22.3298 64.873 23.5335 67.8579 23.5335C69.1812 23.5335 70.7702 22.9374 71.45 22.4695L72.6062 25.048C70.6787 26.0861 68.6016 26.6447 66.2892 26.6447C61.9143 26.6447 59.1894 23.8531 59.1894 19.4C59.1894 14.8749 62.7626 12.0732 66.6204 12.0732C71.4268 12.0732 73.1843 14.8562 73.1843 18.8673ZM68.6844 17.5168C68.7585 15.9792 67.98 15.0204 66.4548 15.0204C64.9805 15.0204 64.1018 16.093 63.8534 17.5168H68.6844Z" fill="black"/>
<path d="M59.1972 28.0762C59.1972 32.1463 55.1026 34.0323 51.0617 34.051C47.5074 34.0683 44.0839 33.0533 44.0839 29.6714C44.0839 28.0891 45.4986 27.0309 46.3556 26.4795C45.8806 26.2103 45.4478 25.9986 45.0759 25.5797C44.6837 25.1377 44.3744 24.4927 44.3744 23.41C44.3744 22.0452 45.5887 20.784 47.0586 19.9719C46.2423 19.5472 45.1587 18.8619 45.1587 16.5756C45.1587 13.6012 48.0056 12.0319 51.724 12.0319C54.8847 12.0319 57.9175 12.782 57.9175 16.4518C57.9175 19.959 54.5927 21.2403 51.2273 21.2403C50.6012 21.2403 50.0406 21.1424 49.493 21.0359C49.1342 21.226 48.4196 21.6953 48.4196 22.2222C48.4196 23.2948 49.8953 23.4503 50.5664 23.4503H54.035C57.2523 23.4518 59.1972 24.998 59.1972 28.0762ZM53.6646 16.6577C53.6646 15.4886 53.0139 14.5298 51.5584 14.5298C50.2294 14.5298 49.4116 15.6441 49.4116 16.6577C49.4116 17.8282 50.1481 18.7856 51.4757 18.7856C52.9354 18.7856 53.6646 17.8239 53.6646 16.6577ZM54.8208 28.6492C54.8208 27.5118 53.9013 27.0943 52.963 27.0943H49.1226C48.5372 27.4254 47.6367 28.151 47.6367 29.0998C47.6367 30.325 49.3013 31.1471 51.2709 31.1471C53.3073 31.1457 54.8208 30.217 54.8208 28.6492Z" fill="black"/>
</g>
</svg>
